; NON-PLATED HOLES START AT T1
; THROUGH (PLATED) HOLES START AT T100
M48
INCH
T100C0.015748
T101C0.038000
T102C0.035000
%
T100
X007560Y004798
T101
X008222Y011598
X005222Y000598
X004222Y000598
X011222Y011598
X003222Y011598
X001222Y011598
X004222Y011598
X009222Y011598
X002222Y011598
X010222Y011598
T102
X010222Y007598
X001222Y002598
X002222Y005598
X010222Y009598
X006222Y009598
X010222Y003598
X002222Y003598
X006222Y005598
X006222Y007598
X002222Y009598
X010222Y001598
X010222Y004598
X002222Y004598
X006222Y004598
X005222Y002598
X010222Y005598
X010222Y008598
X006222Y001598
X011222Y008598
X002222Y007598
X002222Y008598
X006222Y008598
X011222Y004598
X006222Y003598
T00
M30
