G04 MADE WITH FRITZING*
G04 WWW.FRITZING.ORG*
G04 DOUBLE SIDED*
G04 HOLES PLATED*
G04 CONTOUR ON CENTER OF CONTOUR VECTOR*
%ASAXBY*%
%FSLAX23Y23*%
%MOIN*%
%OFA0B0*%
%SFA1.0B1.0*%
%ADD10R,1.259840X1.259840X1.243840X1.243840*%
%ADD11C,0.008000*%
%ADD12R,0.001000X0.001000*%
%LNSILK0*%
G90*
G70*
G54D11*
X4Y1256D02*
X1256Y1256D01*
X1256Y4D01*
X4Y4D01*
X4Y1256D01*
D02*
G54D12*
X502Y1229D02*
X519Y1229D01*
X627Y1229D02*
X648Y1229D01*
X790Y1229D02*
X812Y1229D01*
X842Y1229D02*
X887Y1229D01*
X954Y1229D02*
X955Y1229D01*
X501Y1228D02*
X521Y1228D01*
X625Y1228D02*
X651Y1228D01*
X787Y1228D02*
X814Y1228D01*
X840Y1228D02*
X887Y1228D01*
X952Y1228D02*
X957Y1228D01*
X500Y1227D02*
X522Y1227D01*
X624Y1227D02*
X653Y1227D01*
X785Y1227D02*
X814Y1227D01*
X840Y1227D02*
X887Y1227D01*
X951Y1227D02*
X958Y1227D01*
X499Y1226D02*
X522Y1226D01*
X623Y1226D02*
X655Y1226D01*
X784Y1226D02*
X815Y1226D01*
X839Y1226D02*
X887Y1226D01*
X951Y1226D02*
X959Y1226D01*
X499Y1225D02*
X523Y1225D01*
X623Y1225D02*
X656Y1225D01*
X783Y1225D02*
X815Y1225D01*
X839Y1225D02*
X887Y1225D01*
X950Y1225D02*
X959Y1225D01*
X499Y1224D02*
X523Y1224D01*
X623Y1224D02*
X657Y1224D01*
X781Y1224D02*
X815Y1224D01*
X839Y1224D02*
X887Y1224D01*
X950Y1224D02*
X959Y1224D01*
X499Y1223D02*
X522Y1223D01*
X623Y1223D02*
X658Y1223D01*
X781Y1223D02*
X815Y1223D01*
X839Y1223D02*
X887Y1223D01*
X950Y1223D02*
X959Y1223D01*
X499Y1222D02*
X522Y1222D01*
X623Y1222D02*
X658Y1222D01*
X780Y1222D02*
X815Y1222D01*
X839Y1222D02*
X887Y1222D01*
X950Y1222D02*
X959Y1222D01*
X499Y1221D02*
X521Y1221D01*
X624Y1221D02*
X659Y1221D01*
X779Y1221D02*
X814Y1221D01*
X840Y1221D02*
X887Y1221D01*
X950Y1221D02*
X959Y1221D01*
X499Y1220D02*
X520Y1220D01*
X625Y1220D02*
X659Y1220D01*
X779Y1220D02*
X813Y1220D01*
X841Y1220D02*
X887Y1220D01*
X950Y1220D02*
X959Y1220D01*
X499Y1219D02*
X508Y1219D01*
X647Y1219D02*
X660Y1219D01*
X778Y1219D02*
X791Y1219D01*
X796Y1219D02*
X806Y1219D01*
X878Y1219D02*
X887Y1219D01*
X950Y1219D02*
X959Y1219D01*
X499Y1218D02*
X508Y1218D01*
X650Y1218D02*
X660Y1218D01*
X778Y1218D02*
X789Y1218D01*
X796Y1218D02*
X805Y1218D01*
X878Y1218D02*
X887Y1218D01*
X950Y1218D02*
X959Y1218D01*
X499Y1217D02*
X508Y1217D01*
X650Y1217D02*
X661Y1217D01*
X777Y1217D02*
X788Y1217D01*
X796Y1217D02*
X805Y1217D01*
X878Y1217D02*
X887Y1217D01*
X950Y1217D02*
X959Y1217D01*
X499Y1216D02*
X508Y1216D01*
X651Y1216D02*
X661Y1216D01*
X777Y1216D02*
X787Y1216D01*
X796Y1216D02*
X805Y1216D01*
X878Y1216D02*
X887Y1216D01*
X950Y1216D02*
X959Y1216D01*
X499Y1215D02*
X508Y1215D01*
X651Y1215D02*
X662Y1215D01*
X776Y1215D02*
X787Y1215D01*
X796Y1215D02*
X805Y1215D01*
X878Y1215D02*
X887Y1215D01*
X950Y1215D02*
X959Y1215D01*
X499Y1214D02*
X508Y1214D01*
X652Y1214D02*
X662Y1214D01*
X776Y1214D02*
X786Y1214D01*
X796Y1214D02*
X805Y1214D01*
X878Y1214D02*
X887Y1214D01*
X950Y1214D02*
X959Y1214D01*
X499Y1213D02*
X508Y1213D01*
X652Y1213D02*
X663Y1213D01*
X775Y1213D02*
X786Y1213D01*
X796Y1213D02*
X805Y1213D01*
X878Y1213D02*
X887Y1213D01*
X950Y1213D02*
X959Y1213D01*
X499Y1212D02*
X508Y1212D01*
X653Y1212D02*
X663Y1212D01*
X775Y1212D02*
X785Y1212D01*
X796Y1212D02*
X805Y1212D01*
X878Y1212D02*
X887Y1212D01*
X950Y1212D02*
X959Y1212D01*
X499Y1211D02*
X508Y1211D01*
X653Y1211D02*
X664Y1211D01*
X774Y1211D02*
X785Y1211D01*
X796Y1211D02*
X805Y1211D01*
X878Y1211D02*
X887Y1211D01*
X950Y1211D02*
X959Y1211D01*
X499Y1210D02*
X508Y1210D01*
X654Y1210D02*
X664Y1210D01*
X774Y1210D02*
X784Y1210D01*
X796Y1210D02*
X805Y1210D01*
X878Y1210D02*
X887Y1210D01*
X950Y1210D02*
X959Y1210D01*
X499Y1209D02*
X508Y1209D01*
X654Y1209D02*
X665Y1209D01*
X773Y1209D02*
X784Y1209D01*
X796Y1209D02*
X805Y1209D01*
X878Y1209D02*
X887Y1209D01*
X950Y1209D02*
X959Y1209D01*
X277Y1208D02*
X298Y1208D01*
X349Y1208D02*
X359Y1208D01*
X425Y1208D02*
X438Y1208D01*
X499Y1208D02*
X508Y1208D01*
X569Y1208D02*
X582Y1208D01*
X655Y1208D02*
X665Y1208D01*
X773Y1208D02*
X783Y1208D01*
X796Y1208D02*
X805Y1208D01*
X878Y1208D02*
X887Y1208D01*
X950Y1208D02*
X959Y1208D01*
X272Y1207D02*
X303Y1207D01*
X344Y1207D02*
X362Y1207D01*
X377Y1207D02*
X382Y1207D01*
X420Y1207D02*
X443Y1207D01*
X499Y1207D02*
X508Y1207D01*
X564Y1207D02*
X586Y1207D01*
X656Y1207D02*
X666Y1207D01*
X772Y1207D02*
X783Y1207D01*
X796Y1207D02*
X805Y1207D01*
X878Y1207D02*
X887Y1207D01*
X950Y1207D02*
X959Y1207D01*
X270Y1206D02*
X305Y1206D01*
X342Y1206D02*
X363Y1206D01*
X376Y1206D02*
X383Y1206D01*
X418Y1206D02*
X445Y1206D01*
X499Y1206D02*
X508Y1206D01*
X562Y1206D02*
X588Y1206D01*
X656Y1206D02*
X666Y1206D01*
X772Y1206D02*
X782Y1206D01*
X796Y1206D02*
X805Y1206D01*
X878Y1206D02*
X887Y1206D01*
X950Y1206D02*
X959Y1206D01*
X268Y1205D02*
X306Y1205D01*
X341Y1205D02*
X364Y1205D01*
X375Y1205D02*
X383Y1205D01*
X417Y1205D02*
X446Y1205D01*
X499Y1205D02*
X508Y1205D01*
X560Y1205D02*
X590Y1205D01*
X657Y1205D02*
X667Y1205D01*
X771Y1205D02*
X782Y1205D01*
X796Y1205D02*
X805Y1205D01*
X878Y1205D02*
X887Y1205D01*
X950Y1205D02*
X959Y1205D01*
X267Y1204D02*
X307Y1204D01*
X340Y1204D02*
X365Y1204D01*
X375Y1204D02*
X383Y1204D01*
X415Y1204D02*
X415Y1204D01*
X428Y1204D02*
X447Y1204D01*
X499Y1204D02*
X508Y1204D01*
X559Y1204D02*
X591Y1204D01*
X657Y1204D02*
X667Y1204D01*
X771Y1204D02*
X781Y1204D01*
X796Y1204D02*
X805Y1204D01*
X878Y1204D02*
X887Y1204D01*
X950Y1204D02*
X959Y1204D01*
X266Y1203D02*
X308Y1203D01*
X339Y1203D02*
X367Y1203D01*
X375Y1203D02*
X384Y1203D01*
X433Y1203D02*
X448Y1203D01*
X499Y1203D02*
X508Y1203D01*
X558Y1203D02*
X592Y1203D01*
X658Y1203D02*
X668Y1203D01*
X770Y1203D02*
X781Y1203D01*
X796Y1203D02*
X805Y1203D01*
X878Y1203D02*
X887Y1203D01*
X950Y1203D02*
X959Y1203D01*
X265Y1202D02*
X306Y1202D01*
X338Y1202D02*
X368Y1202D01*
X375Y1202D02*
X384Y1202D01*
X436Y1202D02*
X450Y1202D01*
X499Y1202D02*
X508Y1202D01*
X557Y1202D02*
X593Y1202D01*
X658Y1202D02*
X668Y1202D01*
X770Y1202D02*
X780Y1202D01*
X796Y1202D02*
X805Y1202D01*
X878Y1202D02*
X887Y1202D01*
X950Y1202D02*
X959Y1202D01*
X265Y1201D02*
X304Y1201D01*
X339Y1201D02*
X369Y1201D01*
X375Y1201D02*
X384Y1201D01*
X439Y1201D02*
X451Y1201D01*
X499Y1201D02*
X508Y1201D01*
X556Y1201D02*
X595Y1201D01*
X659Y1201D02*
X669Y1201D01*
X769Y1201D02*
X780Y1201D01*
X796Y1201D02*
X803Y1201D01*
X878Y1201D02*
X887Y1201D01*
X950Y1201D02*
X959Y1201D01*
X264Y1200D02*
X302Y1200D01*
X341Y1200D02*
X370Y1200D01*
X375Y1200D02*
X384Y1200D01*
X441Y1200D02*
X452Y1200D01*
X499Y1200D02*
X508Y1200D01*
X555Y1200D02*
X596Y1200D01*
X659Y1200D02*
X669Y1200D01*
X769Y1200D02*
X779Y1200D01*
X796Y1200D02*
X801Y1200D01*
X878Y1200D02*
X887Y1200D01*
X950Y1200D02*
X959Y1200D01*
X264Y1199D02*
X300Y1199D01*
X343Y1199D02*
X371Y1199D01*
X375Y1199D02*
X384Y1199D01*
X443Y1199D02*
X452Y1199D01*
X499Y1199D02*
X508Y1199D01*
X554Y1199D02*
X596Y1199D01*
X660Y1199D02*
X670Y1199D01*
X768Y1199D02*
X779Y1199D01*
X796Y1199D02*
X799Y1199D01*
X878Y1199D02*
X887Y1199D01*
X950Y1199D02*
X959Y1199D01*
X264Y1198D02*
X298Y1198D01*
X345Y1198D02*
X372Y1198D01*
X375Y1198D02*
X384Y1198D01*
X445Y1198D02*
X453Y1198D01*
X499Y1198D02*
X508Y1198D01*
X553Y1198D02*
X597Y1198D01*
X660Y1198D02*
X670Y1198D01*
X768Y1198D02*
X778Y1198D01*
X796Y1198D02*
X798Y1198D01*
X878Y1198D02*
X887Y1198D01*
X950Y1198D02*
X959Y1198D01*
X264Y1197D02*
X274Y1197D01*
X346Y1197D02*
X346Y1197D01*
X359Y1197D02*
X384Y1197D01*
X446Y1197D02*
X454Y1197D01*
X499Y1197D02*
X508Y1197D01*
X553Y1197D02*
X565Y1197D01*
X585Y1197D02*
X598Y1197D01*
X661Y1197D02*
X670Y1197D01*
X768Y1197D02*
X778Y1197D01*
X796Y1197D02*
X796Y1197D01*
X878Y1197D02*
X887Y1197D01*
X950Y1197D02*
X959Y1197D01*
X265Y1196D02*
X272Y1196D01*
X360Y1196D02*
X384Y1196D01*
X448Y1196D02*
X454Y1196D01*
X499Y1196D02*
X508Y1196D01*
X552Y1196D02*
X564Y1196D01*
X586Y1196D02*
X598Y1196D01*
X661Y1196D02*
X671Y1196D01*
X767Y1196D02*
X777Y1196D01*
X878Y1196D02*
X887Y1196D01*
X950Y1196D02*
X959Y1196D01*
X266Y1195D02*
X271Y1195D01*
X361Y1195D02*
X384Y1195D01*
X449Y1195D02*
X455Y1195D01*
X499Y1195D02*
X508Y1195D01*
X552Y1195D02*
X563Y1195D01*
X587Y1195D02*
X598Y1195D01*
X661Y1195D02*
X671Y1195D01*
X767Y1195D02*
X777Y1195D01*
X862Y1195D02*
X887Y1195D01*
X950Y1195D02*
X959Y1195D01*
X267Y1194D02*
X270Y1194D01*
X363Y1194D02*
X384Y1194D01*
X450Y1194D02*
X455Y1194D01*
X499Y1194D02*
X508Y1194D01*
X551Y1194D02*
X562Y1194D01*
X588Y1194D02*
X599Y1194D01*
X662Y1194D02*
X671Y1194D01*
X767Y1194D02*
X776Y1194D01*
X860Y1194D02*
X887Y1194D01*
X950Y1194D02*
X959Y1194D01*
X364Y1193D02*
X384Y1193D01*
X452Y1193D02*
X455Y1193D01*
X499Y1193D02*
X508Y1193D01*
X551Y1193D02*
X561Y1193D01*
X589Y1193D02*
X599Y1193D01*
X662Y1193D02*
X671Y1193D01*
X767Y1193D02*
X776Y1193D01*
X859Y1193D02*
X887Y1193D01*
X951Y1193D02*
X959Y1193D01*
X365Y1192D02*
X384Y1192D01*
X453Y1192D02*
X455Y1192D01*
X499Y1192D02*
X508Y1192D01*
X551Y1192D02*
X560Y1192D01*
X590Y1192D02*
X599Y1192D01*
X662Y1192D02*
X671Y1192D01*
X767Y1192D02*
X776Y1192D01*
X859Y1192D02*
X887Y1192D01*
X952Y1192D02*
X959Y1192D01*
X366Y1191D02*
X384Y1191D01*
X454Y1191D02*
X455Y1191D01*
X499Y1191D02*
X508Y1191D01*
X551Y1191D02*
X560Y1191D01*
X590Y1191D02*
X599Y1191D01*
X662Y1191D02*
X671Y1191D01*
X767Y1191D02*
X776Y1191D01*
X859Y1191D02*
X887Y1191D01*
X953Y1191D02*
X959Y1191D01*
X367Y1190D02*
X384Y1190D01*
X455Y1190D02*
X456Y1190D01*
X499Y1190D02*
X508Y1190D01*
X551Y1190D02*
X560Y1190D01*
X590Y1190D02*
X599Y1190D01*
X662Y1190D02*
X671Y1190D01*
X767Y1190D02*
X776Y1190D01*
X858Y1190D02*
X887Y1190D01*
X954Y1190D02*
X959Y1190D01*
X368Y1189D02*
X384Y1189D01*
X455Y1189D02*
X456Y1189D01*
X499Y1189D02*
X508Y1189D01*
X551Y1189D02*
X560Y1189D01*
X590Y1189D02*
X600Y1189D01*
X662Y1189D02*
X671Y1189D01*
X767Y1189D02*
X776Y1189D01*
X859Y1189D02*
X887Y1189D01*
X955Y1189D02*
X959Y1189D01*
X370Y1188D02*
X384Y1188D01*
X456Y1188D02*
X456Y1188D01*
X499Y1188D02*
X508Y1188D01*
X551Y1188D02*
X560Y1188D01*
X590Y1188D02*
X600Y1188D01*
X662Y1188D02*
X671Y1188D01*
X767Y1188D02*
X776Y1188D01*
X859Y1188D02*
X886Y1188D01*
X956Y1188D02*
X959Y1188D01*
X371Y1187D02*
X384Y1187D01*
X499Y1187D02*
X508Y1187D01*
X551Y1187D02*
X560Y1187D01*
X590Y1187D02*
X600Y1187D01*
X662Y1187D02*
X671Y1187D01*
X767Y1187D02*
X776Y1187D01*
X860Y1187D02*
X886Y1187D01*
X957Y1187D02*
X959Y1187D01*
X284Y1186D02*
X285Y1186D01*
X372Y1186D02*
X384Y1186D01*
X499Y1186D02*
X508Y1186D01*
X551Y1186D02*
X560Y1186D01*
X590Y1186D02*
X600Y1186D01*
X662Y1186D02*
X671Y1186D01*
X767Y1186D02*
X777Y1186D01*
X861Y1186D02*
X885Y1186D01*
X957Y1186D02*
X959Y1186D01*
X282Y1185D02*
X285Y1185D01*
X373Y1185D02*
X384Y1185D01*
X499Y1185D02*
X508Y1185D01*
X551Y1185D02*
X560Y1185D01*
X590Y1185D02*
X600Y1185D01*
X661Y1185D02*
X671Y1185D01*
X767Y1185D02*
X777Y1185D01*
X878Y1185D02*
X884Y1185D01*
X958Y1185D02*
X959Y1185D01*
X280Y1184D02*
X284Y1184D01*
X374Y1184D02*
X384Y1184D01*
X499Y1184D02*
X508Y1184D01*
X551Y1184D02*
X560Y1184D01*
X590Y1184D02*
X600Y1184D01*
X661Y1184D02*
X671Y1184D01*
X768Y1184D02*
X777Y1184D01*
X878Y1184D02*
X884Y1184D01*
X959Y1184D02*
X959Y1184D01*
X278Y1183D02*
X283Y1183D01*
X375Y1183D02*
X383Y1183D01*
X499Y1183D02*
X508Y1183D01*
X551Y1183D02*
X560Y1183D01*
X590Y1183D02*
X600Y1183D01*
X660Y1183D02*
X670Y1183D01*
X768Y1183D02*
X778Y1183D01*
X878Y1183D02*
X883Y1183D01*
X959Y1183D02*
X959Y1183D01*
X275Y1182D02*
X283Y1182D01*
X375Y1182D02*
X383Y1182D01*
X499Y1182D02*
X508Y1182D01*
X551Y1182D02*
X560Y1182D01*
X590Y1182D02*
X600Y1182D01*
X660Y1182D02*
X670Y1182D01*
X768Y1182D02*
X778Y1182D01*
X878Y1182D02*
X882Y1182D01*
X273Y1181D02*
X282Y1181D01*
X375Y1181D02*
X382Y1181D01*
X499Y1181D02*
X508Y1181D01*
X551Y1181D02*
X560Y1181D01*
X590Y1181D02*
X600Y1181D01*
X659Y1181D02*
X669Y1181D01*
X769Y1181D02*
X779Y1181D01*
X878Y1181D02*
X882Y1181D01*
X271Y1180D02*
X282Y1180D01*
X375Y1180D02*
X382Y1180D01*
X499Y1180D02*
X508Y1180D01*
X551Y1180D02*
X560Y1180D01*
X590Y1180D02*
X600Y1180D01*
X659Y1180D02*
X669Y1180D01*
X769Y1180D02*
X779Y1180D01*
X878Y1180D02*
X881Y1180D01*
X269Y1179D02*
X281Y1179D01*
X375Y1179D02*
X381Y1179D01*
X499Y1179D02*
X508Y1179D01*
X551Y1179D02*
X560Y1179D01*
X590Y1179D02*
X600Y1179D01*
X658Y1179D02*
X669Y1179D01*
X770Y1179D02*
X780Y1179D01*
X878Y1179D02*
X881Y1179D01*
X268Y1178D02*
X281Y1178D01*
X375Y1178D02*
X381Y1178D01*
X499Y1178D02*
X508Y1178D01*
X551Y1178D02*
X560Y1178D01*
X590Y1178D02*
X600Y1178D01*
X658Y1178D02*
X668Y1178D01*
X770Y1178D02*
X780Y1178D01*
X878Y1178D02*
X880Y1178D01*
X267Y1177D02*
X280Y1177D01*
X375Y1177D02*
X380Y1177D01*
X499Y1177D02*
X508Y1177D01*
X551Y1177D02*
X560Y1177D01*
X590Y1177D02*
X600Y1177D01*
X657Y1177D02*
X668Y1177D01*
X771Y1177D02*
X780Y1177D01*
X878Y1177D02*
X880Y1177D01*
X266Y1176D02*
X280Y1176D01*
X375Y1176D02*
X380Y1176D01*
X499Y1176D02*
X508Y1176D01*
X551Y1176D02*
X560Y1176D01*
X590Y1176D02*
X600Y1176D01*
X657Y1176D02*
X667Y1176D01*
X771Y1176D02*
X780Y1176D01*
X878Y1176D02*
X879Y1176D01*
X266Y1175D02*
X280Y1175D01*
X375Y1175D02*
X379Y1175D01*
X499Y1175D02*
X508Y1175D01*
X551Y1175D02*
X560Y1175D01*
X590Y1175D02*
X600Y1175D01*
X656Y1175D02*
X667Y1175D01*
X772Y1175D02*
X779Y1175D01*
X878Y1175D02*
X879Y1175D01*
X265Y1174D02*
X279Y1174D01*
X375Y1174D02*
X379Y1174D01*
X499Y1174D02*
X508Y1174D01*
X551Y1174D02*
X560Y1174D01*
X590Y1174D02*
X600Y1174D01*
X656Y1174D02*
X666Y1174D01*
X772Y1174D02*
X779Y1174D01*
X878Y1174D02*
X879Y1174D01*
X264Y1173D02*
X279Y1173D01*
X375Y1173D02*
X379Y1173D01*
X499Y1173D02*
X508Y1173D01*
X551Y1173D02*
X560Y1173D01*
X590Y1173D02*
X600Y1173D01*
X655Y1173D02*
X666Y1173D01*
X773Y1173D02*
X779Y1173D01*
X878Y1173D02*
X879Y1173D01*
X264Y1172D02*
X276Y1172D01*
X375Y1172D02*
X379Y1172D01*
X499Y1172D02*
X508Y1172D01*
X551Y1172D02*
X560Y1172D01*
X590Y1172D02*
X600Y1172D01*
X655Y1172D02*
X665Y1172D01*
X773Y1172D02*
X778Y1172D01*
X878Y1172D02*
X878Y1172D01*
X265Y1171D02*
X274Y1171D01*
X375Y1171D02*
X378Y1171D01*
X499Y1171D02*
X508Y1171D01*
X551Y1171D02*
X560Y1171D01*
X590Y1171D02*
X600Y1171D01*
X654Y1171D02*
X665Y1171D01*
X774Y1171D02*
X778Y1171D01*
X878Y1171D02*
X878Y1171D01*
X265Y1170D02*
X273Y1170D01*
X375Y1170D02*
X378Y1170D01*
X499Y1170D02*
X508Y1170D01*
X551Y1170D02*
X560Y1170D01*
X590Y1170D02*
X600Y1170D01*
X654Y1170D02*
X664Y1170D01*
X774Y1170D02*
X778Y1170D01*
X878Y1170D02*
X878Y1170D01*
X265Y1169D02*
X273Y1169D01*
X375Y1169D02*
X378Y1169D01*
X499Y1169D02*
X508Y1169D01*
X551Y1169D02*
X560Y1169D01*
X590Y1169D02*
X599Y1169D01*
X653Y1169D02*
X664Y1169D01*
X775Y1169D02*
X778Y1169D01*
X878Y1169D02*
X878Y1169D01*
X265Y1168D02*
X272Y1168D01*
X375Y1168D02*
X378Y1168D01*
X499Y1168D02*
X508Y1168D01*
X551Y1168D02*
X560Y1168D01*
X590Y1168D02*
X599Y1168D01*
X653Y1168D02*
X663Y1168D01*
X775Y1168D02*
X777Y1168D01*
X265Y1167D02*
X272Y1167D01*
X375Y1167D02*
X378Y1167D01*
X499Y1167D02*
X508Y1167D01*
X551Y1167D02*
X561Y1167D01*
X590Y1167D02*
X599Y1167D01*
X652Y1167D02*
X663Y1167D01*
X776Y1167D02*
X777Y1167D01*
X266Y1166D02*
X272Y1166D01*
X375Y1166D02*
X377Y1166D01*
X499Y1166D02*
X508Y1166D01*
X551Y1166D02*
X561Y1166D01*
X589Y1166D02*
X599Y1166D01*
X652Y1166D02*
X662Y1166D01*
X776Y1166D02*
X777Y1166D01*
X266Y1165D02*
X273Y1165D01*
X375Y1165D02*
X377Y1165D01*
X499Y1165D02*
X508Y1165D01*
X551Y1165D02*
X562Y1165D01*
X588Y1165D02*
X599Y1165D01*
X651Y1165D02*
X662Y1165D01*
X776Y1165D02*
X777Y1165D01*
X266Y1164D02*
X273Y1164D01*
X375Y1164D02*
X377Y1164D01*
X499Y1164D02*
X508Y1164D01*
X552Y1164D02*
X563Y1164D01*
X587Y1164D02*
X599Y1164D01*
X651Y1164D02*
X661Y1164D01*
X777Y1164D02*
X777Y1164D01*
X266Y1163D02*
X274Y1163D01*
X375Y1163D02*
X377Y1163D01*
X499Y1163D02*
X508Y1163D01*
X552Y1163D02*
X565Y1163D01*
X586Y1163D02*
X598Y1163D01*
X650Y1163D02*
X661Y1163D01*
X777Y1163D02*
X777Y1163D01*
X266Y1162D02*
X275Y1162D01*
X375Y1162D02*
X377Y1162D01*
X499Y1162D02*
X508Y1162D01*
X553Y1162D02*
X566Y1162D01*
X584Y1162D02*
X598Y1162D01*
X649Y1162D02*
X660Y1162D01*
X266Y1161D02*
X277Y1161D01*
X375Y1161D02*
X377Y1161D01*
X487Y1161D02*
X519Y1161D01*
X553Y1161D02*
X597Y1161D01*
X626Y1161D02*
X660Y1161D01*
X866Y1161D02*
X877Y1161D01*
X266Y1160D02*
X277Y1160D01*
X375Y1160D02*
X377Y1160D01*
X486Y1160D02*
X521Y1160D01*
X554Y1160D02*
X596Y1160D01*
X624Y1160D02*
X659Y1160D01*
X866Y1160D02*
X877Y1160D01*
X266Y1159D02*
X277Y1159D01*
X375Y1159D02*
X377Y1159D01*
X485Y1159D02*
X522Y1159D01*
X555Y1159D02*
X595Y1159D01*
X624Y1159D02*
X658Y1159D01*
X866Y1159D02*
X877Y1159D01*
X266Y1158D02*
X277Y1158D01*
X375Y1158D02*
X377Y1158D01*
X484Y1158D02*
X522Y1158D01*
X556Y1158D02*
X594Y1158D01*
X623Y1158D02*
X658Y1158D01*
X865Y1158D02*
X877Y1158D01*
X267Y1157D02*
X277Y1157D01*
X375Y1157D02*
X377Y1157D01*
X484Y1157D02*
X523Y1157D01*
X557Y1157D02*
X593Y1157D01*
X623Y1157D02*
X657Y1157D01*
X865Y1157D02*
X877Y1157D01*
X267Y1156D02*
X277Y1156D01*
X375Y1156D02*
X377Y1156D01*
X484Y1156D02*
X523Y1156D01*
X558Y1156D02*
X592Y1156D01*
X623Y1156D02*
X656Y1156D01*
X865Y1156D02*
X877Y1156D01*
X268Y1155D02*
X277Y1155D01*
X375Y1155D02*
X377Y1155D01*
X484Y1155D02*
X522Y1155D01*
X560Y1155D02*
X591Y1155D01*
X623Y1155D02*
X655Y1155D01*
X865Y1155D02*
X877Y1155D01*
X270Y1154D02*
X278Y1154D01*
X375Y1154D02*
X378Y1154D01*
X484Y1154D02*
X522Y1154D01*
X561Y1154D02*
X589Y1154D01*
X623Y1154D02*
X654Y1154D01*
X865Y1154D02*
X877Y1154D01*
X271Y1153D02*
X278Y1153D01*
X376Y1153D02*
X378Y1153D01*
X485Y1153D02*
X521Y1153D01*
X562Y1153D02*
X588Y1153D01*
X624Y1153D02*
X652Y1153D01*
X865Y1153D02*
X877Y1153D01*
X274Y1152D02*
X278Y1152D01*
X377Y1152D02*
X378Y1152D01*
X486Y1152D02*
X520Y1152D01*
X565Y1152D02*
X585Y1152D01*
X625Y1152D02*
X650Y1152D01*
X865Y1152D02*
X878Y1152D01*
X478Y1060D02*
X483Y1060D01*
X476Y1059D02*
X486Y1059D01*
X475Y1058D02*
X487Y1058D01*
X474Y1057D02*
X488Y1057D01*
X474Y1056D02*
X488Y1056D01*
X352Y1055D02*
X357Y1055D01*
X474Y1055D02*
X488Y1055D01*
X764Y1055D02*
X783Y1055D01*
X836Y1055D02*
X855Y1055D01*
X960Y1055D02*
X964Y1055D01*
X1000Y1055D02*
X1004Y1055D01*
X351Y1054D02*
X358Y1054D01*
X474Y1054D02*
X488Y1054D01*
X763Y1054D02*
X784Y1054D01*
X835Y1054D02*
X856Y1054D01*
X959Y1054D02*
X966Y1054D01*
X999Y1054D02*
X1005Y1054D01*
X350Y1053D02*
X358Y1053D01*
X474Y1053D02*
X488Y1053D01*
X762Y1053D02*
X785Y1053D01*
X834Y1053D02*
X857Y1053D01*
X958Y1053D02*
X966Y1053D01*
X998Y1053D02*
X1006Y1053D01*
X350Y1052D02*
X359Y1052D01*
X474Y1052D02*
X488Y1052D01*
X762Y1052D02*
X785Y1052D01*
X834Y1052D02*
X857Y1052D01*
X958Y1052D02*
X967Y1052D01*
X998Y1052D02*
X1006Y1052D01*
X350Y1051D02*
X359Y1051D01*
X474Y1051D02*
X488Y1051D01*
X762Y1051D02*
X786Y1051D01*
X834Y1051D02*
X858Y1051D01*
X958Y1051D02*
X967Y1051D01*
X997Y1051D02*
X1006Y1051D01*
X350Y1050D02*
X359Y1050D01*
X474Y1050D02*
X488Y1050D01*
X762Y1050D02*
X786Y1050D01*
X834Y1050D02*
X857Y1050D01*
X958Y1050D02*
X967Y1050D01*
X997Y1050D02*
X1006Y1050D01*
X350Y1049D02*
X359Y1049D01*
X474Y1049D02*
X488Y1049D01*
X762Y1049D02*
X785Y1049D01*
X834Y1049D02*
X857Y1049D01*
X958Y1049D02*
X967Y1049D01*
X997Y1049D02*
X1006Y1049D01*
X350Y1048D02*
X359Y1048D01*
X475Y1048D02*
X487Y1048D01*
X762Y1048D02*
X785Y1048D01*
X834Y1048D02*
X857Y1048D01*
X958Y1048D02*
X967Y1048D01*
X997Y1048D02*
X1006Y1048D01*
X350Y1047D02*
X359Y1047D01*
X476Y1047D02*
X486Y1047D01*
X762Y1047D02*
X784Y1047D01*
X834Y1047D02*
X856Y1047D01*
X958Y1047D02*
X967Y1047D01*
X997Y1047D02*
X1006Y1047D01*
X350Y1046D02*
X359Y1046D01*
X478Y1046D02*
X484Y1046D01*
X762Y1046D02*
X782Y1046D01*
X834Y1046D02*
X854Y1046D01*
X958Y1046D02*
X967Y1046D01*
X997Y1046D02*
X1006Y1046D01*
X350Y1045D02*
X359Y1045D01*
X762Y1045D02*
X771Y1045D01*
X834Y1045D02*
X843Y1045D01*
X958Y1045D02*
X967Y1045D01*
X997Y1045D02*
X1006Y1045D01*
X350Y1044D02*
X359Y1044D01*
X762Y1044D02*
X771Y1044D01*
X834Y1044D02*
X843Y1044D01*
X958Y1044D02*
X967Y1044D01*
X997Y1044D02*
X1006Y1044D01*
X257Y1043D02*
X268Y1043D01*
X350Y1043D02*
X359Y1043D01*
X762Y1043D02*
X771Y1043D01*
X834Y1043D02*
X843Y1043D01*
X958Y1043D02*
X968Y1043D01*
X996Y1043D02*
X1006Y1043D01*
X255Y1042D02*
X270Y1042D01*
X350Y1042D02*
X359Y1042D01*
X762Y1042D02*
X771Y1042D01*
X834Y1042D02*
X843Y1042D01*
X958Y1042D02*
X969Y1042D01*
X996Y1042D02*
X1006Y1042D01*
X254Y1041D02*
X271Y1041D01*
X350Y1041D02*
X359Y1041D01*
X762Y1041D02*
X771Y1041D01*
X834Y1041D02*
X843Y1041D01*
X958Y1041D02*
X969Y1041D01*
X995Y1041D02*
X1006Y1041D01*
X253Y1040D02*
X272Y1040D01*
X350Y1040D02*
X359Y1040D01*
X762Y1040D02*
X771Y1040D01*
X834Y1040D02*
X843Y1040D01*
X958Y1040D02*
X970Y1040D01*
X994Y1040D02*
X1006Y1040D01*
X253Y1039D02*
X272Y1039D01*
X350Y1039D02*
X359Y1039D01*
X762Y1039D02*
X771Y1039D01*
X834Y1039D02*
X843Y1039D01*
X959Y1039D02*
X971Y1039D01*
X993Y1039D02*
X1005Y1039D01*
X253Y1038D02*
X272Y1038D01*
X350Y1038D02*
X359Y1038D01*
X762Y1038D02*
X771Y1038D01*
X834Y1038D02*
X843Y1038D01*
X960Y1038D02*
X972Y1038D01*
X993Y1038D02*
X1004Y1038D01*
X253Y1037D02*
X272Y1037D01*
X350Y1037D02*
X359Y1037D01*
X762Y1037D02*
X771Y1037D01*
X834Y1037D02*
X843Y1037D01*
X961Y1037D02*
X972Y1037D01*
X992Y1037D02*
X1004Y1037D01*
X253Y1036D02*
X272Y1036D01*
X350Y1036D02*
X359Y1036D01*
X762Y1036D02*
X771Y1036D01*
X834Y1036D02*
X843Y1036D01*
X961Y1036D02*
X973Y1036D01*
X991Y1036D02*
X1003Y1036D01*
X253Y1035D02*
X272Y1035D01*
X350Y1035D02*
X359Y1035D01*
X762Y1035D02*
X771Y1035D01*
X834Y1035D02*
X843Y1035D01*
X962Y1035D02*
X974Y1035D01*
X990Y1035D02*
X1002Y1035D01*
X253Y1034D02*
X272Y1034D01*
X322Y1034D02*
X336Y1034D01*
X350Y1034D02*
X359Y1034D01*
X392Y1034D02*
X421Y1034D01*
X477Y1034D02*
X495Y1034D01*
X600Y1034D02*
X603Y1034D01*
X641Y1034D02*
X645Y1034D01*
X684Y1034D02*
X705Y1034D01*
X762Y1034D02*
X771Y1034D01*
X834Y1034D02*
X843Y1034D01*
X900Y1034D02*
X920Y1034D01*
X963Y1034D02*
X975Y1034D01*
X989Y1034D02*
X1001Y1034D01*
X253Y1033D02*
X272Y1033D01*
X319Y1033D02*
X338Y1033D01*
X350Y1033D02*
X359Y1033D01*
X389Y1033D02*
X423Y1033D01*
X475Y1033D02*
X497Y1033D01*
X598Y1033D02*
X605Y1033D01*
X640Y1033D02*
X646Y1033D01*
X682Y1033D02*
X707Y1033D01*
X762Y1033D02*
X771Y1033D01*
X834Y1033D02*
X843Y1033D01*
X897Y1033D02*
X923Y1033D01*
X964Y1033D02*
X975Y1033D01*
X989Y1033D02*
X1000Y1033D01*
X253Y1032D02*
X272Y1032D01*
X318Y1032D02*
X340Y1032D01*
X350Y1032D02*
X359Y1032D01*
X388Y1032D02*
X425Y1032D01*
X475Y1032D02*
X497Y1032D01*
X598Y1032D02*
X605Y1032D01*
X639Y1032D02*
X647Y1032D01*
X680Y1032D02*
X709Y1032D01*
X762Y1032D02*
X771Y1032D01*
X834Y1032D02*
X843Y1032D01*
X896Y1032D02*
X924Y1032D01*
X964Y1032D02*
X976Y1032D01*
X988Y1032D02*
X1000Y1032D01*
X253Y1031D02*
X272Y1031D01*
X317Y1031D02*
X341Y1031D01*
X350Y1031D02*
X359Y1031D01*
X387Y1031D02*
X426Y1031D01*
X474Y1031D02*
X498Y1031D01*
X597Y1031D02*
X606Y1031D01*
X639Y1031D02*
X647Y1031D01*
X679Y1031D02*
X710Y1031D01*
X762Y1031D02*
X771Y1031D01*
X834Y1031D02*
X843Y1031D01*
X895Y1031D02*
X926Y1031D01*
X965Y1031D02*
X977Y1031D01*
X987Y1031D02*
X999Y1031D01*
X253Y1030D02*
X272Y1030D01*
X316Y1030D02*
X343Y1030D01*
X350Y1030D02*
X359Y1030D01*
X386Y1030D02*
X427Y1030D01*
X474Y1030D02*
X498Y1030D01*
X597Y1030D02*
X606Y1030D01*
X639Y1030D02*
X648Y1030D01*
X677Y1030D02*
X711Y1030D01*
X762Y1030D02*
X771Y1030D01*
X834Y1030D02*
X843Y1030D01*
X893Y1030D02*
X927Y1030D01*
X966Y1030D02*
X978Y1030D01*
X986Y1030D02*
X998Y1030D01*
X253Y1029D02*
X272Y1029D01*
X315Y1029D02*
X344Y1029D01*
X350Y1029D02*
X359Y1029D01*
X385Y1029D02*
X428Y1029D01*
X474Y1029D02*
X498Y1029D01*
X597Y1029D02*
X606Y1029D01*
X639Y1029D02*
X648Y1029D01*
X676Y1029D02*
X712Y1029D01*
X762Y1029D02*
X771Y1029D01*
X834Y1029D02*
X843Y1029D01*
X892Y1029D02*
X928Y1029D01*
X967Y1029D02*
X979Y1029D01*
X986Y1029D02*
X997Y1029D01*
X253Y1028D02*
X272Y1028D01*
X314Y1028D02*
X346Y1028D01*
X350Y1028D02*
X359Y1028D01*
X384Y1028D02*
X428Y1028D01*
X474Y1028D02*
X498Y1028D01*
X597Y1028D02*
X606Y1028D01*
X639Y1028D02*
X648Y1028D01*
X675Y1028D02*
X713Y1028D01*
X762Y1028D02*
X771Y1028D01*
X834Y1028D02*
X843Y1028D01*
X891Y1028D02*
X929Y1028D01*
X968Y1028D02*
X979Y1028D01*
X985Y1028D02*
X997Y1028D01*
X254Y1027D02*
X271Y1027D01*
X313Y1027D02*
X348Y1027D01*
X350Y1027D02*
X359Y1027D01*
X383Y1027D02*
X429Y1027D01*
X474Y1027D02*
X497Y1027D01*
X597Y1027D02*
X606Y1027D01*
X639Y1027D02*
X648Y1027D01*
X674Y1027D02*
X714Y1027D01*
X762Y1027D02*
X771Y1027D01*
X834Y1027D02*
X843Y1027D01*
X890Y1027D02*
X930Y1027D01*
X968Y1027D02*
X980Y1027D01*
X984Y1027D02*
X996Y1027D01*
X255Y1026D02*
X270Y1026D01*
X313Y1026D02*
X359Y1026D01*
X383Y1026D02*
X429Y1026D01*
X474Y1026D02*
X496Y1026D01*
X597Y1026D02*
X606Y1026D01*
X639Y1026D02*
X648Y1026D01*
X673Y1026D02*
X715Y1026D01*
X762Y1026D02*
X771Y1026D01*
X834Y1026D02*
X843Y1026D01*
X889Y1026D02*
X931Y1026D01*
X969Y1026D02*
X981Y1026D01*
X983Y1026D02*
X995Y1026D01*
X256Y1025D02*
X269Y1025D01*
X312Y1025D02*
X359Y1025D01*
X383Y1025D02*
X429Y1025D01*
X474Y1025D02*
X495Y1025D01*
X597Y1025D02*
X606Y1025D01*
X639Y1025D02*
X648Y1025D01*
X672Y1025D02*
X716Y1025D01*
X762Y1025D02*
X771Y1025D01*
X834Y1025D02*
X843Y1025D01*
X888Y1025D02*
X932Y1025D01*
X970Y1025D02*
X994Y1025D01*
X312Y1024D02*
X323Y1024D01*
X334Y1024D02*
X359Y1024D01*
X383Y1024D02*
X393Y1024D01*
X420Y1024D02*
X429Y1024D01*
X474Y1024D02*
X483Y1024D01*
X597Y1024D02*
X606Y1024D01*
X638Y1024D02*
X648Y1024D01*
X672Y1024D02*
X685Y1024D01*
X704Y1024D02*
X717Y1024D01*
X762Y1024D02*
X771Y1024D01*
X834Y1024D02*
X843Y1024D01*
X888Y1024D02*
X901Y1024D01*
X919Y1024D02*
X932Y1024D01*
X971Y1024D02*
X993Y1024D01*
X312Y1023D02*
X322Y1023D01*
X336Y1023D02*
X359Y1023D01*
X384Y1023D02*
X392Y1023D01*
X420Y1023D02*
X430Y1023D01*
X474Y1023D02*
X483Y1023D01*
X597Y1023D02*
X606Y1023D01*
X638Y1023D02*
X648Y1023D01*
X671Y1023D02*
X683Y1023D01*
X705Y1023D02*
X717Y1023D01*
X762Y1023D02*
X771Y1023D01*
X834Y1023D02*
X843Y1023D01*
X887Y1023D02*
X899Y1023D01*
X921Y1023D02*
X933Y1023D01*
X971Y1023D02*
X993Y1023D01*
X312Y1022D02*
X321Y1022D01*
X338Y1022D02*
X359Y1022D01*
X385Y1022D02*
X391Y1022D01*
X421Y1022D02*
X430Y1022D01*
X474Y1022D02*
X483Y1022D01*
X531Y1022D02*
X570Y1022D01*
X597Y1022D02*
X606Y1022D01*
X638Y1022D02*
X648Y1022D01*
X671Y1022D02*
X682Y1022D01*
X706Y1022D02*
X717Y1022D01*
X762Y1022D02*
X771Y1022D01*
X834Y1022D02*
X843Y1022D01*
X887Y1022D02*
X898Y1022D01*
X922Y1022D02*
X933Y1022D01*
X972Y1022D02*
X992Y1022D01*
X311Y1021D02*
X321Y1021D01*
X339Y1021D02*
X359Y1021D01*
X386Y1021D02*
X389Y1021D01*
X421Y1021D02*
X430Y1021D01*
X474Y1021D02*
X483Y1021D01*
X528Y1021D02*
X573Y1021D01*
X597Y1021D02*
X606Y1021D01*
X638Y1021D02*
X647Y1021D01*
X671Y1021D02*
X681Y1021D01*
X707Y1021D02*
X718Y1021D01*
X762Y1021D02*
X771Y1021D01*
X834Y1021D02*
X843Y1021D01*
X886Y1021D02*
X897Y1021D01*
X923Y1021D02*
X934Y1021D01*
X973Y1021D02*
X991Y1021D01*
X311Y1020D02*
X321Y1020D01*
X341Y1020D02*
X359Y1020D01*
X420Y1020D02*
X429Y1020D01*
X474Y1020D02*
X483Y1020D01*
X527Y1020D02*
X574Y1020D01*
X597Y1020D02*
X606Y1020D01*
X638Y1020D02*
X647Y1020D01*
X670Y1020D02*
X680Y1020D01*
X708Y1020D02*
X718Y1020D01*
X762Y1020D02*
X771Y1020D01*
X834Y1020D02*
X843Y1020D01*
X886Y1020D02*
X896Y1020D01*
X924Y1020D02*
X934Y1020D01*
X974Y1020D02*
X990Y1020D01*
X311Y1019D02*
X320Y1019D01*
X342Y1019D02*
X359Y1019D01*
X418Y1019D02*
X429Y1019D01*
X474Y1019D02*
X483Y1019D01*
X526Y1019D02*
X574Y1019D01*
X597Y1019D02*
X606Y1019D01*
X638Y1019D02*
X647Y1019D01*
X670Y1019D02*
X680Y1019D01*
X709Y1019D02*
X718Y1019D01*
X762Y1019D02*
X771Y1019D01*
X834Y1019D02*
X843Y1019D01*
X886Y1019D02*
X895Y1019D01*
X925Y1019D02*
X934Y1019D01*
X975Y1019D02*
X990Y1019D01*
X311Y1018D02*
X320Y1018D01*
X344Y1018D02*
X359Y1018D01*
X416Y1018D02*
X429Y1018D01*
X474Y1018D02*
X483Y1018D01*
X526Y1018D02*
X575Y1018D01*
X597Y1018D02*
X606Y1018D01*
X638Y1018D02*
X647Y1018D01*
X670Y1018D02*
X679Y1018D01*
X709Y1018D02*
X718Y1018D01*
X762Y1018D02*
X771Y1018D01*
X834Y1018D02*
X843Y1018D01*
X886Y1018D02*
X895Y1018D01*
X925Y1018D02*
X934Y1018D01*
X975Y1018D02*
X989Y1018D01*
X311Y1017D02*
X320Y1017D01*
X345Y1017D02*
X359Y1017D01*
X414Y1017D02*
X429Y1017D01*
X474Y1017D02*
X483Y1017D01*
X526Y1017D02*
X575Y1017D01*
X597Y1017D02*
X606Y1017D01*
X620Y1017D02*
X624Y1017D01*
X638Y1017D02*
X647Y1017D01*
X670Y1017D02*
X679Y1017D01*
X709Y1017D02*
X719Y1017D01*
X762Y1017D02*
X771Y1017D01*
X834Y1017D02*
X843Y1017D01*
X886Y1017D02*
X895Y1017D01*
X925Y1017D02*
X934Y1017D01*
X976Y1017D02*
X988Y1017D01*
X311Y1016D02*
X320Y1016D01*
X347Y1016D02*
X359Y1016D01*
X411Y1016D02*
X428Y1016D01*
X474Y1016D02*
X483Y1016D01*
X526Y1016D02*
X575Y1016D01*
X597Y1016D02*
X606Y1016D01*
X619Y1016D02*
X626Y1016D01*
X638Y1016D02*
X647Y1016D01*
X670Y1016D02*
X679Y1016D01*
X710Y1016D02*
X719Y1016D01*
X762Y1016D02*
X771Y1016D01*
X834Y1016D02*
X843Y1016D01*
X886Y1016D02*
X895Y1016D01*
X925Y1016D02*
X934Y1016D01*
X977Y1016D02*
X987Y1016D01*
X311Y1015D02*
X320Y1015D01*
X348Y1015D02*
X359Y1015D01*
X409Y1015D02*
X428Y1015D01*
X474Y1015D02*
X483Y1015D01*
X526Y1015D02*
X575Y1015D01*
X597Y1015D02*
X607Y1015D01*
X618Y1015D02*
X626Y1015D01*
X638Y1015D02*
X647Y1015D01*
X670Y1015D02*
X679Y1015D01*
X710Y1015D02*
X719Y1015D01*
X762Y1015D02*
X771Y1015D01*
X834Y1015D02*
X843Y1015D01*
X886Y1015D02*
X895Y1015D01*
X925Y1015D02*
X934Y1015D01*
X978Y1015D02*
X987Y1015D01*
X311Y1014D02*
X320Y1014D01*
X350Y1014D02*
X359Y1014D01*
X407Y1014D02*
X427Y1014D01*
X474Y1014D02*
X483Y1014D01*
X526Y1014D02*
X575Y1014D01*
X597Y1014D02*
X607Y1014D01*
X618Y1014D02*
X627Y1014D01*
X638Y1014D02*
X647Y1014D01*
X670Y1014D02*
X679Y1014D01*
X710Y1014D02*
X719Y1014D01*
X762Y1014D02*
X771Y1014D01*
X834Y1014D02*
X843Y1014D01*
X886Y1014D02*
X895Y1014D01*
X925Y1014D02*
X934Y1014D01*
X978Y1014D02*
X987Y1014D01*
X311Y1013D02*
X320Y1013D01*
X350Y1013D02*
X359Y1013D01*
X404Y1013D02*
X426Y1013D01*
X474Y1013D02*
X483Y1013D01*
X526Y1013D02*
X575Y1013D01*
X597Y1013D02*
X607Y1013D01*
X618Y1013D02*
X627Y1013D01*
X638Y1013D02*
X647Y1013D01*
X670Y1013D02*
X679Y1013D01*
X710Y1013D02*
X719Y1013D01*
X762Y1013D02*
X771Y1013D01*
X834Y1013D02*
X843Y1013D01*
X886Y1013D02*
X895Y1013D01*
X925Y1013D02*
X934Y1013D01*
X978Y1013D02*
X987Y1013D01*
X311Y1012D02*
X320Y1012D01*
X350Y1012D02*
X359Y1012D01*
X402Y1012D02*
X425Y1012D01*
X474Y1012D02*
X483Y1012D01*
X526Y1012D02*
X575Y1012D01*
X598Y1012D02*
X607Y1012D01*
X618Y1012D02*
X627Y1012D01*
X638Y1012D02*
X647Y1012D01*
X670Y1012D02*
X679Y1012D01*
X710Y1012D02*
X719Y1012D01*
X762Y1012D02*
X771Y1012D01*
X834Y1012D02*
X843Y1012D01*
X886Y1012D02*
X895Y1012D01*
X925Y1012D02*
X934Y1012D01*
X978Y1012D02*
X987Y1012D01*
X311Y1011D02*
X320Y1011D01*
X350Y1011D02*
X359Y1011D01*
X400Y1011D02*
X424Y1011D01*
X474Y1011D02*
X483Y1011D01*
X526Y1011D02*
X574Y1011D01*
X598Y1011D02*
X607Y1011D01*
X618Y1011D02*
X627Y1011D01*
X638Y1011D02*
X647Y1011D01*
X670Y1011D02*
X679Y1011D01*
X710Y1011D02*
X719Y1011D01*
X762Y1011D02*
X771Y1011D01*
X834Y1011D02*
X843Y1011D01*
X886Y1011D02*
X895Y1011D01*
X925Y1011D02*
X934Y1011D01*
X978Y1011D02*
X987Y1011D01*
X311Y1010D02*
X320Y1010D01*
X350Y1010D02*
X359Y1010D01*
X397Y1010D02*
X422Y1010D01*
X474Y1010D02*
X483Y1010D01*
X527Y1010D02*
X574Y1010D01*
X598Y1010D02*
X607Y1010D01*
X618Y1010D02*
X627Y1010D01*
X638Y1010D02*
X647Y1010D01*
X670Y1010D02*
X679Y1010D01*
X710Y1010D02*
X719Y1010D01*
X762Y1010D02*
X771Y1010D01*
X834Y1010D02*
X843Y1010D01*
X886Y1010D02*
X895Y1010D01*
X925Y1010D02*
X934Y1010D01*
X978Y1010D02*
X987Y1010D01*
X257Y1009D02*
X268Y1009D01*
X311Y1009D02*
X320Y1009D01*
X350Y1009D02*
X359Y1009D01*
X395Y1009D02*
X419Y1009D01*
X474Y1009D02*
X483Y1009D01*
X528Y1009D02*
X573Y1009D01*
X598Y1009D02*
X607Y1009D01*
X618Y1009D02*
X627Y1009D01*
X638Y1009D02*
X647Y1009D01*
X670Y1009D02*
X679Y1009D01*
X710Y1009D02*
X719Y1009D01*
X762Y1009D02*
X771Y1009D01*
X834Y1009D02*
X843Y1009D01*
X886Y1009D02*
X934Y1009D01*
X978Y1009D02*
X987Y1009D01*
X255Y1008D02*
X270Y1008D01*
X311Y1008D02*
X320Y1008D01*
X350Y1008D02*
X359Y1008D01*
X393Y1008D02*
X417Y1008D01*
X474Y1008D02*
X483Y1008D01*
X529Y1008D02*
X571Y1008D01*
X598Y1008D02*
X607Y1008D01*
X618Y1008D02*
X627Y1008D01*
X638Y1008D02*
X647Y1008D01*
X670Y1008D02*
X679Y1008D01*
X710Y1008D02*
X719Y1008D01*
X762Y1008D02*
X771Y1008D01*
X834Y1008D02*
X843Y1008D01*
X886Y1008D02*
X934Y1008D01*
X978Y1008D02*
X987Y1008D01*
X254Y1007D02*
X271Y1007D01*
X311Y1007D02*
X320Y1007D01*
X350Y1007D02*
X359Y1007D01*
X391Y1007D02*
X415Y1007D01*
X474Y1007D02*
X483Y1007D01*
X598Y1007D02*
X607Y1007D01*
X618Y1007D02*
X627Y1007D01*
X638Y1007D02*
X647Y1007D01*
X670Y1007D02*
X679Y1007D01*
X710Y1007D02*
X719Y1007D01*
X762Y1007D02*
X771Y1007D01*
X834Y1007D02*
X843Y1007D01*
X886Y1007D02*
X934Y1007D01*
X978Y1007D02*
X987Y1007D01*
X253Y1006D02*
X272Y1006D01*
X311Y1006D02*
X320Y1006D01*
X350Y1006D02*
X359Y1006D01*
X389Y1006D02*
X412Y1006D01*
X474Y1006D02*
X483Y1006D01*
X598Y1006D02*
X607Y1006D01*
X618Y1006D02*
X627Y1006D01*
X638Y1006D02*
X647Y1006D01*
X670Y1006D02*
X679Y1006D01*
X710Y1006D02*
X719Y1006D01*
X762Y1006D02*
X771Y1006D01*
X834Y1006D02*
X843Y1006D01*
X886Y1006D02*
X934Y1006D01*
X978Y1006D02*
X987Y1006D01*
X253Y1005D02*
X272Y1005D01*
X311Y1005D02*
X320Y1005D01*
X350Y1005D02*
X359Y1005D01*
X388Y1005D02*
X410Y1005D01*
X474Y1005D02*
X483Y1005D01*
X598Y1005D02*
X607Y1005D01*
X618Y1005D02*
X627Y1005D01*
X638Y1005D02*
X647Y1005D01*
X670Y1005D02*
X679Y1005D01*
X710Y1005D02*
X719Y1005D01*
X762Y1005D02*
X771Y1005D01*
X834Y1005D02*
X843Y1005D01*
X886Y1005D02*
X934Y1005D01*
X978Y1005D02*
X987Y1005D01*
X253Y1004D02*
X272Y1004D01*
X311Y1004D02*
X320Y1004D01*
X350Y1004D02*
X359Y1004D01*
X387Y1004D02*
X408Y1004D01*
X474Y1004D02*
X483Y1004D01*
X598Y1004D02*
X607Y1004D01*
X618Y1004D02*
X627Y1004D01*
X638Y1004D02*
X647Y1004D01*
X670Y1004D02*
X679Y1004D01*
X710Y1004D02*
X719Y1004D01*
X762Y1004D02*
X771Y1004D01*
X834Y1004D02*
X843Y1004D01*
X886Y1004D02*
X934Y1004D01*
X978Y1004D02*
X987Y1004D01*
X253Y1003D02*
X272Y1003D01*
X311Y1003D02*
X320Y1003D01*
X350Y1003D02*
X359Y1003D01*
X386Y1003D02*
X406Y1003D01*
X474Y1003D02*
X483Y1003D01*
X598Y1003D02*
X607Y1003D01*
X618Y1003D02*
X618Y1003D01*
X625Y1003D02*
X627Y1003D01*
X638Y1003D02*
X647Y1003D01*
X670Y1003D02*
X679Y1003D01*
X710Y1003D02*
X719Y1003D01*
X762Y1003D02*
X771Y1003D01*
X834Y1003D02*
X843Y1003D01*
X886Y1003D02*
X934Y1003D01*
X978Y1003D02*
X987Y1003D01*
X253Y1002D02*
X272Y1002D01*
X311Y1002D02*
X320Y1002D01*
X350Y1002D02*
X359Y1002D01*
X385Y1002D02*
X403Y1002D01*
X474Y1002D02*
X483Y1002D01*
X598Y1002D02*
X607Y1002D01*
X638Y1002D02*
X647Y1002D01*
X670Y1002D02*
X679Y1002D01*
X710Y1002D02*
X719Y1002D01*
X762Y1002D02*
X771Y1002D01*
X834Y1002D02*
X843Y1002D01*
X886Y1002D02*
X934Y1002D01*
X978Y1002D02*
X987Y1002D01*
X253Y1001D02*
X272Y1001D01*
X311Y1001D02*
X320Y1001D01*
X350Y1001D02*
X359Y1001D01*
X384Y1001D02*
X401Y1001D01*
X474Y1001D02*
X483Y1001D01*
X598Y1001D02*
X607Y1001D01*
X638Y1001D02*
X647Y1001D01*
X670Y1001D02*
X679Y1001D01*
X710Y1001D02*
X719Y1001D01*
X762Y1001D02*
X771Y1001D01*
X834Y1001D02*
X843Y1001D01*
X887Y1001D02*
X934Y1001D01*
X978Y1001D02*
X987Y1001D01*
X253Y1000D02*
X272Y1000D01*
X311Y1000D02*
X320Y1000D01*
X350Y1000D02*
X359Y1000D01*
X384Y1000D02*
X399Y1000D01*
X474Y1000D02*
X483Y1000D01*
X598Y1000D02*
X605Y1000D01*
X638Y1000D02*
X647Y1000D01*
X670Y1000D02*
X679Y1000D01*
X710Y1000D02*
X719Y1000D01*
X762Y1000D02*
X771Y1000D01*
X834Y1000D02*
X843Y1000D01*
X888Y1000D02*
X934Y1000D01*
X978Y1000D02*
X987Y1000D01*
X253Y999D02*
X272Y999D01*
X311Y999D02*
X320Y999D01*
X350Y999D02*
X359Y999D01*
X383Y999D02*
X396Y999D01*
X474Y999D02*
X483Y999D01*
X598Y999D02*
X603Y999D01*
X640Y999D02*
X647Y999D01*
X670Y999D02*
X679Y999D01*
X710Y999D02*
X719Y999D01*
X762Y999D02*
X771Y999D01*
X834Y999D02*
X843Y999D01*
X925Y999D02*
X934Y999D01*
X978Y999D02*
X987Y999D01*
X253Y998D02*
X272Y998D01*
X311Y998D02*
X320Y998D01*
X350Y998D02*
X359Y998D01*
X383Y998D02*
X394Y998D01*
X474Y998D02*
X483Y998D01*
X598Y998D02*
X601Y998D01*
X642Y998D02*
X646Y998D01*
X670Y998D02*
X679Y998D01*
X710Y998D02*
X719Y998D01*
X762Y998D02*
X771Y998D01*
X834Y998D02*
X843Y998D01*
X925Y998D02*
X934Y998D01*
X978Y998D02*
X987Y998D01*
X253Y997D02*
X272Y997D01*
X311Y997D02*
X320Y997D01*
X350Y997D02*
X359Y997D01*
X383Y997D02*
X393Y997D01*
X474Y997D02*
X483Y997D01*
X598Y997D02*
X599Y997D01*
X644Y997D02*
X646Y997D01*
X670Y997D02*
X679Y997D01*
X710Y997D02*
X719Y997D01*
X762Y997D02*
X771Y997D01*
X834Y997D02*
X843Y997D01*
X925Y997D02*
X934Y997D01*
X978Y997D02*
X987Y997D01*
X253Y996D02*
X272Y996D01*
X311Y996D02*
X320Y996D01*
X350Y996D02*
X359Y996D01*
X382Y996D02*
X392Y996D01*
X474Y996D02*
X483Y996D01*
X645Y996D02*
X646Y996D01*
X670Y996D02*
X679Y996D01*
X710Y996D02*
X719Y996D01*
X762Y996D02*
X771Y996D01*
X834Y996D02*
X843Y996D01*
X925Y996D02*
X934Y996D01*
X978Y996D02*
X987Y996D01*
X253Y995D02*
X272Y995D01*
X311Y995D02*
X320Y995D01*
X350Y995D02*
X359Y995D01*
X382Y995D02*
X392Y995D01*
X474Y995D02*
X483Y995D01*
X670Y995D02*
X679Y995D01*
X709Y995D02*
X719Y995D01*
X762Y995D02*
X771Y995D01*
X834Y995D02*
X843Y995D01*
X925Y995D02*
X934Y995D01*
X978Y995D02*
X987Y995D01*
X253Y994D02*
X272Y994D01*
X311Y994D02*
X320Y994D01*
X350Y994D02*
X359Y994D01*
X382Y994D02*
X392Y994D01*
X474Y994D02*
X483Y994D01*
X670Y994D02*
X679Y994D01*
X709Y994D02*
X718Y994D01*
X762Y994D02*
X771Y994D01*
X834Y994D02*
X843Y994D01*
X925Y994D02*
X934Y994D01*
X978Y994D02*
X987Y994D01*
X254Y993D02*
X271Y993D01*
X311Y993D02*
X320Y993D01*
X350Y993D02*
X359Y993D01*
X382Y993D02*
X392Y993D01*
X474Y993D02*
X483Y993D01*
X670Y993D02*
X680Y993D01*
X708Y993D02*
X718Y993D01*
X762Y993D02*
X771Y993D01*
X834Y993D02*
X843Y993D01*
X924Y993D02*
X934Y993D01*
X978Y993D02*
X987Y993D01*
X255Y992D02*
X270Y992D01*
X310Y992D02*
X320Y992D01*
X350Y992D02*
X359Y992D01*
X382Y992D02*
X392Y992D01*
X426Y992D02*
X427Y992D01*
X474Y992D02*
X483Y992D01*
X670Y992D02*
X681Y992D01*
X708Y992D02*
X718Y992D01*
X762Y992D02*
X771Y992D01*
X834Y992D02*
X843Y992D01*
X923Y992D02*
X934Y992D01*
X978Y992D02*
X987Y992D01*
X256Y991D02*
X269Y991D01*
X310Y991D02*
X319Y991D01*
X350Y991D02*
X359Y991D01*
X382Y991D02*
X392Y991D01*
X424Y991D02*
X429Y991D01*
X474Y991D02*
X483Y991D01*
X671Y991D02*
X682Y991D01*
X706Y991D02*
X718Y991D01*
X762Y991D02*
X771Y991D01*
X834Y991D02*
X843Y991D01*
X922Y991D02*
X934Y991D01*
X978Y991D02*
X987Y991D01*
X310Y990D02*
X319Y990D01*
X350Y990D02*
X359Y990D01*
X383Y990D02*
X393Y990D01*
X422Y990D02*
X430Y990D01*
X474Y990D02*
X483Y990D01*
X671Y990D02*
X683Y990D01*
X705Y990D02*
X717Y990D01*
X762Y990D02*
X771Y990D01*
X834Y990D02*
X843Y990D01*
X921Y990D02*
X933Y990D01*
X978Y990D02*
X987Y990D01*
X310Y989D02*
X319Y989D01*
X350Y989D02*
X359Y989D01*
X383Y989D02*
X394Y989D01*
X420Y989D02*
X430Y989D01*
X474Y989D02*
X483Y989D01*
X672Y989D02*
X685Y989D01*
X704Y989D02*
X717Y989D01*
X762Y989D02*
X771Y989D01*
X834Y989D02*
X843Y989D01*
X920Y989D02*
X933Y989D01*
X978Y989D02*
X987Y989D01*
X310Y988D02*
X319Y988D01*
X350Y988D02*
X359Y988D01*
X383Y988D02*
X431Y988D01*
X464Y988D02*
X493Y988D01*
X672Y988D02*
X716Y988D01*
X752Y988D02*
X781Y988D01*
X824Y988D02*
X853Y988D01*
X891Y988D02*
X932Y988D01*
X978Y988D02*
X987Y988D01*
X310Y987D02*
X319Y987D01*
X350Y987D02*
X359Y987D01*
X384Y987D02*
X431Y987D01*
X461Y987D02*
X496Y987D01*
X673Y987D02*
X716Y987D01*
X749Y987D02*
X784Y987D01*
X821Y987D02*
X855Y987D01*
X888Y987D02*
X932Y987D01*
X978Y987D02*
X987Y987D01*
X310Y986D02*
X319Y986D01*
X350Y986D02*
X359Y986D01*
X384Y986D02*
X431Y986D01*
X460Y986D02*
X497Y986D01*
X674Y986D02*
X715Y986D01*
X748Y986D02*
X785Y986D01*
X820Y986D02*
X857Y986D01*
X887Y986D02*
X931Y986D01*
X978Y986D02*
X987Y986D01*
X310Y985D02*
X319Y985D01*
X350Y985D02*
X359Y985D01*
X385Y985D02*
X430Y985D01*
X459Y985D02*
X497Y985D01*
X675Y985D02*
X714Y985D01*
X747Y985D02*
X785Y985D01*
X819Y985D02*
X857Y985D01*
X886Y985D02*
X930Y985D01*
X978Y985D02*
X986Y985D01*
X310Y984D02*
X319Y984D01*
X350Y984D02*
X359Y984D01*
X385Y984D02*
X430Y984D01*
X459Y984D02*
X498Y984D01*
X676Y984D02*
X713Y984D01*
X747Y984D02*
X785Y984D01*
X819Y984D02*
X857Y984D01*
X886Y984D02*
X929Y984D01*
X978Y984D02*
X985Y984D01*
X310Y983D02*
X319Y983D01*
X350Y983D02*
X359Y983D01*
X386Y983D02*
X429Y983D01*
X459Y983D02*
X498Y983D01*
X677Y983D02*
X711Y983D01*
X747Y983D02*
X786Y983D01*
X819Y983D02*
X858Y983D01*
X886Y983D02*
X927Y983D01*
X978Y983D02*
X985Y983D01*
X310Y982D02*
X319Y982D01*
X350Y982D02*
X359Y982D01*
X387Y982D02*
X427Y982D01*
X459Y982D02*
X498Y982D01*
X678Y982D02*
X710Y982D01*
X747Y982D02*
X785Y982D01*
X819Y982D02*
X857Y982D01*
X886Y982D02*
X926Y982D01*
X978Y982D02*
X984Y982D01*
X311Y981D02*
X319Y981D01*
X350Y981D02*
X358Y981D01*
X388Y981D02*
X426Y981D01*
X459Y981D02*
X497Y981D01*
X680Y981D02*
X709Y981D01*
X747Y981D02*
X785Y981D01*
X819Y981D02*
X857Y981D01*
X886Y981D02*
X925Y981D01*
X978Y981D02*
X983Y981D01*
X311Y980D02*
X318Y980D01*
X351Y980D02*
X358Y980D01*
X390Y980D02*
X424Y980D01*
X460Y980D02*
X497Y980D01*
X681Y980D02*
X707Y980D01*
X748Y980D02*
X785Y980D01*
X820Y980D02*
X857Y980D01*
X887Y980D02*
X923Y980D01*
X979Y980D02*
X983Y980D01*
X312Y979D02*
X317Y979D01*
X352Y979D02*
X357Y979D01*
X392Y979D02*
X421Y979D01*
X461Y979D02*
X496Y979D01*
X683Y979D02*
X705Y979D01*
X749Y979D02*
X783Y979D01*
X821Y979D02*
X855Y979D01*
X888Y979D02*
X921Y979D01*
X980Y979D02*
X982Y979D01*
X397Y978D02*
X416Y978D01*
X464Y978D02*
X493Y978D01*
X688Y978D02*
X700Y978D01*
X752Y978D02*
X781Y978D01*
X824Y978D02*
X853Y978D01*
X891Y978D02*
X917Y978D01*
X405Y956D02*
X419Y956D01*
X1064Y956D02*
X1094Y956D01*
X403Y955D02*
X423Y955D01*
X1064Y955D02*
X1094Y955D01*
X402Y954D02*
X425Y954D01*
X1063Y954D02*
X1094Y954D01*
X401Y953D02*
X427Y953D01*
X1063Y953D02*
X1094Y953D01*
X401Y952D02*
X428Y952D01*
X1063Y952D02*
X1094Y952D01*
X401Y951D02*
X429Y951D01*
X1063Y951D02*
X1094Y951D01*
X401Y950D02*
X430Y950D01*
X1063Y950D02*
X1094Y950D01*
X401Y949D02*
X431Y949D01*
X1062Y949D02*
X1094Y949D01*
X402Y948D02*
X432Y948D01*
X1062Y948D02*
X1094Y948D01*
X403Y947D02*
X432Y947D01*
X1062Y947D02*
X1094Y947D01*
X419Y946D02*
X433Y946D01*
X1085Y946D02*
X1094Y946D01*
X422Y945D02*
X433Y945D01*
X1085Y945D02*
X1094Y945D01*
X423Y944D02*
X434Y944D01*
X1085Y944D02*
X1094Y944D01*
X424Y943D02*
X434Y943D01*
X1085Y943D02*
X1094Y943D01*
X425Y942D02*
X434Y942D01*
X1085Y942D02*
X1094Y942D01*
X425Y941D02*
X434Y941D01*
X1085Y941D02*
X1094Y941D01*
X425Y940D02*
X434Y940D01*
X1085Y940D02*
X1094Y940D01*
X425Y939D02*
X435Y939D01*
X1085Y939D02*
X1094Y939D01*
X425Y938D02*
X435Y938D01*
X1085Y938D02*
X1094Y938D01*
X425Y937D02*
X435Y937D01*
X1085Y937D02*
X1094Y937D01*
X425Y936D02*
X435Y936D01*
X1085Y936D02*
X1094Y936D01*
X268Y935D02*
X289Y935D01*
X342Y935D02*
X360Y935D01*
X416Y935D02*
X440Y935D01*
X556Y935D02*
X577Y935D01*
X773Y935D02*
X782Y935D01*
X918Y935D02*
X923Y935D01*
X1085Y935D02*
X1094Y935D01*
X263Y934D02*
X294Y934D01*
X337Y934D02*
X363Y934D01*
X413Y934D02*
X442Y934D01*
X551Y934D02*
X582Y934D01*
X656Y934D02*
X661Y934D01*
X688Y934D02*
X693Y934D01*
X728Y934D02*
X733Y934D01*
X767Y934D02*
X785Y934D01*
X800Y934D02*
X804Y934D01*
X913Y934D02*
X928Y934D01*
X944Y934D02*
X948Y934D01*
X984Y934D02*
X988Y934D01*
X1085Y934D02*
X1094Y934D01*
X188Y933D02*
X189Y933D01*
X261Y933D02*
X296Y933D01*
X335Y933D02*
X364Y933D01*
X412Y933D02*
X443Y933D01*
X549Y933D02*
X584Y933D01*
X655Y933D02*
X662Y933D01*
X687Y933D02*
X694Y933D01*
X727Y933D02*
X734Y933D01*
X765Y933D02*
X786Y933D01*
X799Y933D02*
X806Y933D01*
X911Y933D02*
X930Y933D01*
X943Y933D02*
X949Y933D01*
X982Y933D02*
X988Y933D01*
X1085Y933D02*
X1094Y933D01*
X188Y932D02*
X190Y932D01*
X260Y932D02*
X297Y932D01*
X333Y932D02*
X365Y932D01*
X411Y932D02*
X444Y932D01*
X547Y932D02*
X585Y932D01*
X654Y932D02*
X662Y932D01*
X686Y932D02*
X695Y932D01*
X726Y932D02*
X734Y932D01*
X764Y932D02*
X787Y932D01*
X798Y932D02*
X806Y932D01*
X909Y932D02*
X932Y932D01*
X942Y932D02*
X950Y932D01*
X981Y932D02*
X989Y932D01*
X1085Y932D02*
X1094Y932D01*
X188Y931D02*
X191Y931D01*
X258Y931D02*
X298Y931D01*
X332Y931D02*
X365Y931D01*
X411Y931D02*
X444Y931D01*
X546Y931D02*
X586Y931D01*
X654Y931D02*
X663Y931D01*
X686Y931D02*
X695Y931D01*
X726Y931D02*
X734Y931D01*
X763Y931D02*
X788Y931D01*
X798Y931D02*
X806Y931D01*
X908Y931D02*
X933Y931D01*
X942Y931D02*
X950Y931D01*
X980Y931D02*
X990Y931D01*
X1085Y931D02*
X1094Y931D01*
X187Y930D02*
X192Y930D01*
X257Y930D02*
X299Y930D01*
X331Y930D02*
X365Y930D01*
X411Y930D02*
X444Y930D01*
X545Y930D02*
X587Y930D01*
X654Y930D02*
X663Y930D01*
X686Y930D02*
X695Y930D01*
X726Y930D02*
X735Y930D01*
X762Y930D02*
X790Y930D01*
X798Y930D02*
X807Y930D01*
X907Y930D02*
X935Y930D01*
X941Y930D02*
X950Y930D01*
X979Y930D02*
X991Y930D01*
X1058Y930D02*
X1094Y930D01*
X187Y929D02*
X193Y929D01*
X257Y929D02*
X300Y929D01*
X330Y929D02*
X365Y929D01*
X411Y929D02*
X444Y929D01*
X544Y929D02*
X588Y929D01*
X654Y929D02*
X663Y929D01*
X686Y929D02*
X695Y929D01*
X726Y929D02*
X735Y929D01*
X761Y929D02*
X791Y929D01*
X798Y929D02*
X807Y929D01*
X906Y929D02*
X937Y929D01*
X941Y929D02*
X951Y929D01*
X978Y929D02*
X992Y929D01*
X1057Y929D02*
X1094Y929D01*
X188Y928D02*
X194Y928D01*
X256Y928D02*
X300Y928D01*
X330Y928D02*
X365Y928D01*
X411Y928D02*
X444Y928D01*
X544Y928D02*
X588Y928D01*
X649Y928D02*
X650Y928D01*
X654Y928D02*
X663Y928D01*
X686Y928D02*
X695Y928D01*
X726Y928D02*
X735Y928D01*
X760Y928D02*
X792Y928D01*
X798Y928D02*
X807Y928D01*
X905Y928D02*
X938Y928D01*
X941Y928D02*
X951Y928D01*
X977Y928D02*
X994Y928D01*
X1056Y928D02*
X1094Y928D01*
X188Y927D02*
X195Y927D01*
X255Y927D02*
X301Y927D01*
X329Y927D02*
X364Y927D01*
X412Y927D02*
X443Y927D01*
X543Y927D02*
X589Y927D01*
X647Y927D02*
X663Y927D01*
X686Y927D02*
X695Y927D01*
X726Y927D02*
X735Y927D01*
X760Y927D02*
X793Y927D01*
X798Y927D02*
X807Y927D01*
X905Y927D02*
X951Y927D01*
X977Y927D02*
X995Y927D01*
X1056Y927D02*
X1094Y927D01*
X189Y926D02*
X197Y926D01*
X255Y926D02*
X301Y926D01*
X329Y926D02*
X363Y926D01*
X413Y926D02*
X442Y926D01*
X543Y926D02*
X589Y926D01*
X646Y926D02*
X663Y926D01*
X686Y926D02*
X695Y926D01*
X726Y926D02*
X735Y926D01*
X759Y926D02*
X794Y926D01*
X798Y926D02*
X807Y926D01*
X904Y926D02*
X951Y926D01*
X976Y926D02*
X996Y926D01*
X1056Y926D02*
X1094Y926D01*
X192Y925D02*
X198Y925D01*
X255Y925D02*
X301Y925D01*
X328Y925D02*
X360Y925D01*
X415Y925D02*
X440Y925D01*
X543Y925D02*
X589Y925D01*
X645Y925D02*
X663Y925D01*
X686Y925D02*
X695Y925D01*
X725Y925D02*
X734Y925D01*
X759Y925D02*
X795Y925D01*
X798Y925D02*
X807Y925D01*
X904Y925D02*
X951Y925D01*
X976Y925D02*
X998Y925D01*
X1056Y925D02*
X1094Y925D01*
X256Y924D02*
X265Y924D01*
X292Y924D02*
X302Y924D01*
X328Y924D02*
X338Y924D01*
X425Y924D02*
X435Y924D01*
X543Y924D02*
X553Y924D01*
X580Y924D02*
X589Y924D01*
X643Y924D02*
X663Y924D01*
X686Y924D02*
X695Y924D01*
X725Y924D02*
X734Y924D01*
X758Y924D02*
X769Y924D01*
X782Y924D02*
X807Y924D01*
X904Y924D02*
X914Y924D01*
X927Y924D02*
X951Y924D01*
X976Y924D02*
X986Y924D01*
X1056Y924D02*
X1094Y924D01*
X256Y923D02*
X264Y923D01*
X293Y923D02*
X302Y923D01*
X328Y923D02*
X338Y923D01*
X425Y923D02*
X435Y923D01*
X544Y923D02*
X552Y923D01*
X580Y923D02*
X590Y923D01*
X641Y923D02*
X663Y923D01*
X686Y923D02*
X695Y923D01*
X725Y923D02*
X734Y923D01*
X758Y923D02*
X768Y923D01*
X783Y923D02*
X807Y923D01*
X903Y923D02*
X913Y923D01*
X928Y923D02*
X951Y923D01*
X975Y923D02*
X985Y923D01*
X1057Y923D02*
X1094Y923D01*
X257Y922D02*
X262Y922D01*
X293Y922D02*
X302Y922D01*
X328Y922D02*
X337Y922D01*
X425Y922D02*
X435Y922D01*
X545Y922D02*
X550Y922D01*
X581Y922D02*
X590Y922D01*
X642Y922D02*
X663Y922D01*
X686Y922D02*
X695Y922D01*
X725Y922D02*
X734Y922D01*
X758Y922D02*
X767Y922D01*
X784Y922D02*
X807Y922D01*
X903Y922D02*
X913Y922D01*
X930Y922D02*
X951Y922D01*
X975Y922D02*
X985Y922D01*
X1057Y922D02*
X1094Y922D01*
X259Y921D02*
X261Y921D01*
X293Y921D02*
X302Y921D01*
X327Y921D02*
X337Y921D01*
X425Y921D02*
X435Y921D01*
X546Y921D02*
X549Y921D01*
X580Y921D02*
X589Y921D01*
X643Y921D02*
X663Y921D01*
X686Y921D02*
X695Y921D01*
X725Y921D02*
X734Y921D01*
X758Y921D02*
X767Y921D01*
X785Y921D02*
X807Y921D01*
X903Y921D02*
X912Y921D01*
X931Y921D02*
X951Y921D01*
X975Y921D02*
X984Y921D01*
X1059Y921D02*
X1094Y921D01*
X292Y920D02*
X301Y920D01*
X327Y920D02*
X337Y920D01*
X425Y920D02*
X435Y920D01*
X579Y920D02*
X589Y920D01*
X645Y920D02*
X663Y920D01*
X686Y920D02*
X695Y920D01*
X725Y920D02*
X734Y920D01*
X758Y920D02*
X767Y920D01*
X787Y920D02*
X807Y920D01*
X903Y920D02*
X912Y920D01*
X933Y920D02*
X951Y920D01*
X975Y920D02*
X984Y920D01*
X1085Y920D02*
X1094Y920D01*
X212Y919D02*
X214Y919D01*
X290Y919D02*
X301Y919D01*
X327Y919D02*
X337Y919D01*
X425Y919D02*
X435Y919D01*
X577Y919D02*
X589Y919D01*
X647Y919D02*
X663Y919D01*
X686Y919D02*
X695Y919D01*
X725Y919D02*
X734Y919D01*
X758Y919D02*
X767Y919D01*
X788Y919D02*
X807Y919D01*
X903Y919D02*
X912Y919D01*
X934Y919D02*
X951Y919D01*
X975Y919D02*
X984Y919D01*
X1085Y919D02*
X1094Y919D01*
X212Y918D02*
X221Y918D01*
X287Y918D02*
X301Y918D01*
X327Y918D02*
X336Y918D01*
X425Y918D02*
X435Y918D01*
X575Y918D02*
X589Y918D01*
X615Y918D02*
X624Y918D01*
X648Y918D02*
X663Y918D01*
X686Y918D02*
X695Y918D01*
X725Y918D02*
X734Y918D01*
X758Y918D02*
X767Y918D01*
X789Y918D02*
X807Y918D01*
X903Y918D02*
X912Y918D01*
X936Y918D02*
X951Y918D01*
X975Y918D02*
X984Y918D01*
X1085Y918D02*
X1094Y918D01*
X212Y917D02*
X221Y917D01*
X285Y917D02*
X301Y917D01*
X327Y917D02*
X336Y917D01*
X425Y917D02*
X435Y917D01*
X573Y917D02*
X588Y917D01*
X615Y917D02*
X624Y917D01*
X650Y917D02*
X663Y917D01*
X686Y917D02*
X695Y917D01*
X725Y917D02*
X734Y917D01*
X758Y917D02*
X767Y917D01*
X790Y917D02*
X807Y917D01*
X903Y917D02*
X912Y917D01*
X937Y917D02*
X951Y917D01*
X975Y917D02*
X984Y917D01*
X1085Y917D02*
X1094Y917D01*
X212Y916D02*
X221Y916D01*
X283Y916D02*
X300Y916D01*
X327Y916D02*
X336Y916D01*
X425Y916D02*
X435Y916D01*
X571Y916D02*
X588Y916D01*
X615Y916D02*
X624Y916D01*
X651Y916D02*
X663Y916D01*
X686Y916D02*
X695Y916D01*
X725Y916D02*
X734Y916D01*
X758Y916D02*
X767Y916D01*
X791Y916D02*
X807Y916D01*
X903Y916D02*
X912Y916D01*
X939Y916D02*
X951Y916D01*
X975Y916D02*
X984Y916D01*
X1085Y916D02*
X1094Y916D01*
X212Y915D02*
X221Y915D01*
X280Y915D02*
X299Y915D01*
X327Y915D02*
X336Y915D01*
X425Y915D02*
X435Y915D01*
X568Y915D02*
X587Y915D01*
X615Y915D02*
X624Y915D01*
X653Y915D02*
X663Y915D01*
X686Y915D02*
X695Y915D01*
X725Y915D02*
X734Y915D01*
X758Y915D02*
X766Y915D01*
X792Y915D02*
X807Y915D01*
X903Y915D02*
X912Y915D01*
X941Y915D02*
X951Y915D01*
X975Y915D02*
X984Y915D01*
X1085Y915D02*
X1094Y915D01*
X212Y914D02*
X221Y914D01*
X278Y914D02*
X299Y914D01*
X327Y914D02*
X336Y914D01*
X425Y914D02*
X435Y914D01*
X566Y914D02*
X587Y914D01*
X615Y914D02*
X624Y914D01*
X654Y914D02*
X663Y914D01*
X686Y914D02*
X695Y914D01*
X725Y914D02*
X734Y914D01*
X759Y914D02*
X766Y914D01*
X794Y914D02*
X807Y914D01*
X903Y914D02*
X912Y914D01*
X941Y914D02*
X951Y914D01*
X975Y914D02*
X984Y914D01*
X1085Y914D02*
X1094Y914D01*
X212Y913D02*
X221Y913D01*
X276Y913D02*
X298Y913D01*
X327Y913D02*
X365Y913D01*
X425Y913D02*
X435Y913D01*
X564Y913D02*
X586Y913D01*
X615Y913D02*
X624Y913D01*
X654Y913D02*
X663Y913D01*
X686Y913D02*
X695Y913D01*
X725Y913D02*
X734Y913D01*
X760Y913D02*
X764Y913D01*
X795Y913D02*
X807Y913D01*
X903Y913D02*
X912Y913D01*
X941Y913D02*
X951Y913D01*
X975Y913D02*
X1012Y913D01*
X1085Y913D02*
X1094Y913D01*
X212Y912D02*
X221Y912D01*
X273Y912D02*
X297Y912D01*
X327Y912D02*
X367Y912D01*
X425Y912D02*
X435Y912D01*
X561Y912D02*
X584Y912D01*
X615Y912D02*
X624Y912D01*
X654Y912D02*
X663Y912D01*
X686Y912D02*
X695Y912D01*
X725Y912D02*
X734Y912D01*
X796Y912D02*
X807Y912D01*
X903Y912D02*
X912Y912D01*
X941Y912D02*
X951Y912D01*
X975Y912D02*
X1015Y912D01*
X1085Y912D02*
X1094Y912D01*
X212Y911D02*
X221Y911D01*
X271Y911D02*
X295Y911D01*
X327Y911D02*
X369Y911D01*
X425Y911D02*
X435Y911D01*
X559Y911D02*
X583Y911D01*
X615Y911D02*
X624Y911D01*
X654Y911D02*
X663Y911D01*
X686Y911D02*
X695Y911D01*
X725Y911D02*
X734Y911D01*
X797Y911D02*
X807Y911D01*
X903Y911D02*
X912Y911D01*
X941Y911D02*
X951Y911D01*
X975Y911D02*
X1016Y911D01*
X1085Y911D02*
X1094Y911D01*
X212Y910D02*
X221Y910D01*
X269Y910D02*
X293Y910D01*
X327Y910D02*
X370Y910D01*
X425Y910D02*
X435Y910D01*
X557Y910D02*
X581Y910D01*
X615Y910D02*
X624Y910D01*
X654Y910D02*
X663Y910D01*
X686Y910D02*
X695Y910D01*
X725Y910D02*
X734Y910D01*
X798Y910D02*
X807Y910D01*
X903Y910D02*
X912Y910D01*
X941Y910D02*
X951Y910D01*
X975Y910D02*
X1017Y910D01*
X1085Y910D02*
X1094Y910D01*
X212Y909D02*
X221Y909D01*
X267Y909D02*
X291Y909D01*
X327Y909D02*
X371Y909D01*
X425Y909D02*
X435Y909D01*
X554Y909D02*
X579Y909D01*
X615Y909D02*
X624Y909D01*
X654Y909D02*
X663Y909D01*
X686Y909D02*
X695Y909D01*
X725Y909D02*
X734Y909D01*
X798Y909D02*
X807Y909D01*
X903Y909D02*
X912Y909D01*
X941Y909D02*
X951Y909D01*
X975Y909D02*
X1018Y909D01*
X1085Y909D02*
X1094Y909D01*
X212Y908D02*
X221Y908D01*
X264Y908D02*
X289Y908D01*
X327Y908D02*
X372Y908D01*
X425Y908D02*
X435Y908D01*
X552Y908D02*
X576Y908D01*
X615Y908D02*
X624Y908D01*
X654Y908D02*
X663Y908D01*
X686Y908D02*
X695Y908D01*
X725Y908D02*
X734Y908D01*
X798Y908D02*
X807Y908D01*
X903Y908D02*
X912Y908D01*
X941Y908D02*
X951Y908D01*
X975Y908D02*
X1019Y908D01*
X1085Y908D02*
X1094Y908D01*
X212Y907D02*
X221Y907D01*
X262Y907D02*
X286Y907D01*
X327Y907D02*
X372Y907D01*
X425Y907D02*
X435Y907D01*
X550Y907D02*
X574Y907D01*
X615Y907D02*
X624Y907D01*
X654Y907D02*
X663Y907D01*
X686Y907D02*
X695Y907D01*
X725Y907D02*
X734Y907D01*
X798Y907D02*
X807Y907D01*
X903Y907D02*
X912Y907D01*
X941Y907D02*
X951Y907D01*
X975Y907D02*
X1020Y907D01*
X1085Y907D02*
X1094Y907D01*
X212Y906D02*
X221Y906D01*
X261Y906D02*
X284Y906D01*
X327Y906D02*
X373Y906D01*
X425Y906D02*
X435Y906D01*
X548Y906D02*
X572Y906D01*
X615Y906D02*
X624Y906D01*
X654Y906D02*
X663Y906D01*
X686Y906D02*
X695Y906D01*
X725Y906D02*
X734Y906D01*
X798Y906D02*
X807Y906D01*
X903Y906D02*
X912Y906D01*
X941Y906D02*
X951Y906D01*
X974Y906D02*
X1021Y906D01*
X1085Y906D02*
X1094Y906D01*
X212Y905D02*
X221Y905D01*
X259Y905D02*
X282Y905D01*
X327Y905D02*
X374Y905D01*
X425Y905D02*
X435Y905D01*
X547Y905D02*
X569Y905D01*
X615Y905D02*
X624Y905D01*
X654Y905D02*
X663Y905D01*
X686Y905D02*
X695Y905D01*
X725Y905D02*
X734Y905D01*
X798Y905D02*
X807Y905D01*
X903Y905D02*
X912Y905D01*
X941Y905D02*
X951Y905D01*
X974Y905D02*
X1021Y905D01*
X1085Y905D02*
X1094Y905D01*
X212Y904D02*
X221Y904D01*
X258Y904D02*
X279Y904D01*
X327Y904D02*
X374Y904D01*
X425Y904D02*
X435Y904D01*
X546Y904D02*
X567Y904D01*
X615Y904D02*
X624Y904D01*
X654Y904D02*
X663Y904D01*
X686Y904D02*
X695Y904D01*
X725Y904D02*
X734Y904D01*
X798Y904D02*
X807Y904D01*
X903Y904D02*
X912Y904D01*
X941Y904D02*
X951Y904D01*
X974Y904D02*
X1022Y904D01*
X1085Y904D02*
X1094Y904D01*
X212Y903D02*
X217Y903D01*
X258Y903D02*
X277Y903D01*
X327Y903D02*
X338Y903D01*
X363Y903D02*
X374Y903D01*
X425Y903D02*
X435Y903D01*
X545Y903D02*
X565Y903D01*
X615Y903D02*
X617Y903D01*
X654Y903D02*
X663Y903D01*
X686Y903D02*
X695Y903D01*
X725Y903D02*
X734Y903D01*
X798Y903D02*
X807Y903D01*
X902Y903D02*
X912Y903D01*
X941Y903D02*
X951Y903D01*
X974Y903D02*
X986Y903D01*
X1011Y903D02*
X1017Y903D01*
X1085Y903D02*
X1094Y903D01*
X257Y902D02*
X275Y902D01*
X327Y902D02*
X337Y902D01*
X365Y902D02*
X375Y902D01*
X425Y902D02*
X435Y902D01*
X545Y902D02*
X562Y902D01*
X654Y902D02*
X663Y902D01*
X686Y902D02*
X695Y902D01*
X725Y902D02*
X734Y902D01*
X798Y902D02*
X807Y902D01*
X902Y902D02*
X912Y902D01*
X941Y902D02*
X951Y902D01*
X974Y902D02*
X985Y902D01*
X1085Y902D02*
X1094Y902D01*
X256Y901D02*
X272Y901D01*
X327Y901D02*
X336Y901D01*
X365Y901D02*
X375Y901D01*
X425Y901D02*
X435Y901D01*
X544Y901D02*
X560Y901D01*
X654Y901D02*
X663Y901D01*
X686Y901D02*
X695Y901D01*
X725Y901D02*
X734Y901D01*
X798Y901D02*
X807Y901D01*
X902Y901D02*
X911Y901D01*
X941Y901D02*
X951Y901D01*
X974Y901D02*
X984Y901D01*
X1085Y901D02*
X1094Y901D01*
X256Y900D02*
X270Y900D01*
X327Y900D02*
X336Y900D01*
X366Y900D02*
X375Y900D01*
X425Y900D02*
X435Y900D01*
X544Y900D02*
X558Y900D01*
X654Y900D02*
X663Y900D01*
X686Y900D02*
X695Y900D01*
X725Y900D02*
X734Y900D01*
X798Y900D02*
X807Y900D01*
X902Y900D02*
X911Y900D01*
X941Y900D02*
X951Y900D01*
X974Y900D02*
X984Y900D01*
X1085Y900D02*
X1094Y900D01*
X255Y899D02*
X268Y899D01*
X327Y899D02*
X336Y899D01*
X366Y899D02*
X375Y899D01*
X425Y899D02*
X435Y899D01*
X543Y899D02*
X556Y899D01*
X654Y899D02*
X663Y899D01*
X686Y899D02*
X695Y899D01*
X725Y899D02*
X734Y899D01*
X798Y899D02*
X807Y899D01*
X902Y899D02*
X911Y899D01*
X941Y899D02*
X951Y899D01*
X974Y899D02*
X983Y899D01*
X1085Y899D02*
X1094Y899D01*
X255Y898D02*
X266Y898D01*
X327Y898D02*
X336Y898D01*
X366Y898D02*
X375Y898D01*
X425Y898D02*
X435Y898D01*
X543Y898D02*
X554Y898D01*
X654Y898D02*
X663Y898D01*
X686Y898D02*
X696Y898D01*
X725Y898D02*
X734Y898D01*
X798Y898D02*
X807Y898D01*
X902Y898D02*
X911Y898D01*
X941Y898D02*
X951Y898D01*
X974Y898D02*
X983Y898D01*
X1085Y898D02*
X1094Y898D01*
X255Y897D02*
X265Y897D01*
X327Y897D02*
X336Y897D01*
X366Y897D02*
X375Y897D01*
X425Y897D02*
X435Y897D01*
X543Y897D02*
X552Y897D01*
X654Y897D02*
X663Y897D01*
X686Y897D02*
X698Y897D01*
X724Y897D02*
X734Y897D01*
X798Y897D02*
X807Y897D01*
X902Y897D02*
X911Y897D01*
X941Y897D02*
X951Y897D01*
X974Y897D02*
X983Y897D01*
X1085Y897D02*
X1094Y897D01*
X185Y896D02*
X189Y896D01*
X254Y896D02*
X264Y896D01*
X327Y896D02*
X336Y896D01*
X366Y896D02*
X375Y896D01*
X425Y896D02*
X435Y896D01*
X542Y896D02*
X552Y896D01*
X654Y896D02*
X663Y896D01*
X686Y896D02*
X699Y896D01*
X724Y896D02*
X734Y896D01*
X798Y896D02*
X807Y896D01*
X902Y896D02*
X911Y896D01*
X941Y896D02*
X951Y896D01*
X974Y896D02*
X983Y896D01*
X1085Y896D02*
X1094Y896D01*
X183Y895D02*
X190Y895D01*
X254Y895D02*
X264Y895D01*
X327Y895D02*
X336Y895D01*
X366Y895D02*
X375Y895D01*
X425Y895D02*
X435Y895D01*
X542Y895D02*
X552Y895D01*
X654Y895D02*
X663Y895D01*
X686Y895D02*
X701Y895D01*
X724Y895D02*
X734Y895D01*
X798Y895D02*
X807Y895D01*
X902Y895D02*
X911Y895D01*
X941Y895D02*
X951Y895D01*
X974Y895D02*
X983Y895D01*
X1085Y895D02*
X1094Y895D01*
X183Y894D02*
X191Y894D01*
X254Y894D02*
X264Y894D01*
X327Y894D02*
X337Y894D01*
X366Y894D02*
X375Y894D01*
X425Y894D02*
X435Y894D01*
X542Y894D02*
X551Y894D01*
X654Y894D02*
X663Y894D01*
X686Y894D02*
X702Y894D01*
X724Y894D02*
X733Y894D01*
X798Y894D02*
X807Y894D01*
X902Y894D02*
X911Y894D01*
X941Y894D02*
X951Y894D01*
X974Y894D02*
X985Y894D01*
X1085Y894D02*
X1094Y894D01*
X182Y893D02*
X191Y893D01*
X254Y893D02*
X264Y893D01*
X326Y893D02*
X339Y893D01*
X366Y893D02*
X375Y893D01*
X425Y893D02*
X435Y893D01*
X542Y893D02*
X551Y893D01*
X654Y893D02*
X663Y893D01*
X686Y893D02*
X704Y893D01*
X724Y893D02*
X733Y893D01*
X798Y893D02*
X807Y893D01*
X902Y893D02*
X911Y893D01*
X941Y893D02*
X951Y893D01*
X974Y893D02*
X986Y893D01*
X1085Y893D02*
X1093Y893D01*
X182Y892D02*
X192Y892D01*
X254Y892D02*
X264Y892D01*
X297Y892D02*
X300Y892D01*
X326Y892D02*
X340Y892D01*
X366Y892D02*
X375Y892D01*
X425Y892D02*
X435Y892D01*
X542Y892D02*
X552Y892D01*
X585Y892D02*
X588Y892D01*
X654Y892D02*
X663Y892D01*
X686Y892D02*
X706Y892D01*
X724Y892D02*
X733Y892D01*
X798Y892D02*
X807Y892D01*
X902Y892D02*
X911Y892D01*
X941Y892D02*
X951Y892D01*
X974Y892D02*
X988Y892D01*
X1085Y892D02*
X1092Y892D01*
X182Y891D02*
X191Y891D01*
X255Y891D02*
X264Y891D01*
X295Y891D02*
X302Y891D01*
X326Y891D02*
X342Y891D01*
X365Y891D02*
X375Y891D01*
X425Y891D02*
X435Y891D01*
X542Y891D02*
X552Y891D01*
X583Y891D02*
X589Y891D01*
X654Y891D02*
X663Y891D01*
X686Y891D02*
X707Y891D01*
X724Y891D02*
X733Y891D01*
X798Y891D02*
X807Y891D01*
X902Y891D02*
X911Y891D01*
X941Y891D02*
X951Y891D01*
X974Y891D02*
X990Y891D01*
X1085Y891D02*
X1091Y891D01*
X182Y890D02*
X190Y890D01*
X255Y890D02*
X265Y890D01*
X294Y890D02*
X302Y890D01*
X326Y890D02*
X344Y890D01*
X364Y890D02*
X375Y890D01*
X425Y890D02*
X435Y890D01*
X543Y890D02*
X553Y890D01*
X581Y890D02*
X590Y890D01*
X654Y890D02*
X663Y890D01*
X686Y890D02*
X709Y890D01*
X723Y890D02*
X733Y890D01*
X798Y890D02*
X807Y890D01*
X902Y890D02*
X911Y890D01*
X941Y890D02*
X951Y890D01*
X974Y890D02*
X990Y890D01*
X1085Y890D02*
X1090Y890D01*
X183Y889D02*
X189Y889D01*
X255Y889D02*
X266Y889D01*
X292Y889D02*
X303Y889D01*
X326Y889D02*
X345Y889D01*
X363Y889D02*
X374Y889D01*
X425Y889D02*
X435Y889D01*
X543Y889D02*
X554Y889D01*
X580Y889D02*
X589Y889D01*
X654Y889D02*
X663Y889D01*
X686Y889D02*
X710Y889D01*
X722Y889D02*
X733Y889D01*
X798Y889D02*
X807Y889D01*
X902Y889D02*
X911Y889D01*
X941Y889D02*
X951Y889D01*
X974Y889D02*
X989Y889D01*
X1085Y889D02*
X1089Y889D01*
X183Y888D02*
X189Y888D01*
X255Y888D02*
X303Y888D01*
X326Y888D02*
X374Y888D01*
X425Y888D02*
X435Y888D01*
X543Y888D02*
X588Y888D01*
X654Y888D02*
X663Y888D01*
X686Y888D02*
X732Y888D01*
X798Y888D02*
X807Y888D01*
X902Y888D02*
X911Y888D01*
X941Y888D02*
X951Y888D01*
X974Y888D02*
X988Y888D01*
X1085Y888D02*
X1088Y888D01*
X184Y887D02*
X188Y887D01*
X256Y887D02*
X303Y887D01*
X326Y887D02*
X374Y887D01*
X425Y887D02*
X435Y887D01*
X544Y887D02*
X588Y887D01*
X655Y887D02*
X663Y887D01*
X686Y887D02*
X732Y887D01*
X798Y887D02*
X807Y887D01*
X902Y887D02*
X911Y887D01*
X941Y887D02*
X951Y887D01*
X974Y887D02*
X987Y887D01*
X1085Y887D02*
X1087Y887D01*
X184Y886D02*
X187Y886D01*
X256Y886D02*
X303Y886D01*
X326Y886D02*
X373Y886D01*
X425Y886D02*
X435Y886D01*
X544Y886D02*
X587Y886D01*
X656Y886D02*
X663Y886D01*
X686Y886D02*
X695Y886D01*
X697Y886D02*
X732Y886D01*
X798Y886D02*
X807Y886D01*
X902Y886D02*
X911Y886D01*
X941Y886D02*
X951Y886D01*
X974Y886D02*
X987Y886D01*
X1085Y886D02*
X1086Y886D01*
X185Y885D02*
X186Y885D01*
X257Y885D02*
X302Y885D01*
X326Y885D02*
X372Y885D01*
X425Y885D02*
X435Y885D01*
X545Y885D02*
X586Y885D01*
X657Y885D02*
X663Y885D01*
X686Y885D02*
X695Y885D01*
X699Y885D02*
X731Y885D01*
X798Y885D02*
X807Y885D01*
X902Y885D02*
X911Y885D01*
X941Y885D02*
X951Y885D01*
X974Y885D02*
X986Y885D01*
X1085Y885D02*
X1086Y885D01*
X186Y884D02*
X186Y884D01*
X258Y884D02*
X301Y884D01*
X326Y884D02*
X372Y884D01*
X425Y884D02*
X435Y884D01*
X546Y884D02*
X585Y884D01*
X657Y884D02*
X663Y884D01*
X686Y884D02*
X695Y884D01*
X700Y884D02*
X730Y884D01*
X798Y884D02*
X807Y884D01*
X902Y884D02*
X911Y884D01*
X941Y884D02*
X951Y884D01*
X974Y884D02*
X985Y884D01*
X1085Y884D02*
X1085Y884D01*
X259Y883D02*
X300Y883D01*
X326Y883D02*
X371Y883D01*
X426Y883D02*
X434Y883D01*
X546Y883D02*
X585Y883D01*
X658Y883D02*
X663Y883D01*
X686Y883D02*
X695Y883D01*
X702Y883D02*
X729Y883D01*
X798Y883D02*
X807Y883D01*
X902Y883D02*
X911Y883D01*
X941Y883D02*
X950Y883D01*
X974Y883D02*
X984Y883D01*
X260Y882D02*
X299Y882D01*
X326Y882D02*
X335Y882D01*
X338Y882D02*
X370Y882D01*
X426Y882D02*
X434Y882D01*
X548Y882D02*
X584Y882D01*
X658Y882D02*
X662Y882D01*
X686Y882D02*
X695Y882D01*
X704Y882D02*
X728Y882D01*
X798Y882D02*
X806Y882D01*
X902Y882D02*
X911Y882D01*
X942Y882D02*
X950Y882D01*
X974Y882D02*
X983Y882D01*
X261Y881D02*
X297Y881D01*
X327Y881D02*
X335Y881D01*
X340Y881D02*
X369Y881D01*
X426Y881D02*
X434Y881D01*
X549Y881D02*
X584Y881D01*
X659Y881D02*
X662Y881D01*
X687Y881D02*
X694Y881D01*
X705Y881D02*
X727Y881D01*
X798Y881D02*
X806Y881D01*
X902Y881D02*
X910Y881D01*
X942Y881D02*
X950Y881D01*
X974Y881D02*
X982Y881D01*
X263Y880D02*
X295Y880D01*
X328Y880D02*
X334Y880D01*
X342Y880D02*
X367Y880D01*
X427Y880D02*
X433Y880D01*
X550Y880D02*
X583Y880D01*
X660Y880D02*
X661Y880D01*
X687Y880D02*
X694Y880D01*
X707Y880D02*
X725Y880D01*
X799Y880D02*
X805Y880D01*
X903Y880D02*
X910Y880D01*
X943Y880D02*
X949Y880D01*
X975Y880D02*
X981Y880D01*
X265Y879D02*
X293Y879D01*
X329Y879D02*
X333Y879D01*
X344Y879D02*
X364Y879D01*
X428Y879D02*
X432Y879D01*
X553Y879D02*
X580Y879D01*
X660Y879D02*
X660Y879D01*
X689Y879D02*
X692Y879D01*
X709Y879D02*
X723Y879D01*
X800Y879D02*
X804Y879D01*
X904Y879D02*
X908Y879D01*
X944Y879D02*
X948Y879D01*
X976Y879D02*
X980Y879D01*
X289Y695D02*
X309Y695D01*
X361Y695D02*
X366Y695D01*
X773Y695D02*
X795Y695D01*
X845Y695D02*
X850Y695D01*
X917Y695D02*
X921Y695D01*
X1069Y695D02*
X1107Y695D01*
X288Y694D02*
X310Y694D01*
X360Y694D02*
X367Y694D01*
X772Y694D02*
X797Y694D01*
X844Y694D02*
X851Y694D01*
X916Y694D02*
X923Y694D01*
X1067Y694D02*
X1107Y694D01*
X288Y693D02*
X310Y693D01*
X359Y693D02*
X368Y693D01*
X771Y693D02*
X799Y693D01*
X843Y693D02*
X851Y693D01*
X915Y693D02*
X923Y693D01*
X1065Y693D02*
X1107Y693D01*
X287Y692D02*
X311Y692D01*
X359Y692D02*
X368Y692D01*
X771Y692D02*
X800Y692D01*
X843Y692D02*
X852Y692D01*
X915Y692D02*
X924Y692D01*
X1064Y692D02*
X1107Y692D01*
X228Y691D02*
X231Y691D01*
X287Y691D02*
X311Y691D01*
X359Y691D02*
X368Y691D01*
X771Y691D02*
X801Y691D01*
X843Y691D02*
X853Y691D01*
X915Y691D02*
X924Y691D01*
X1063Y691D02*
X1107Y691D01*
X226Y690D02*
X233Y690D01*
X287Y690D02*
X311Y690D01*
X358Y690D02*
X369Y690D01*
X771Y690D02*
X802Y690D01*
X843Y690D02*
X853Y690D01*
X915Y690D02*
X924Y690D01*
X1062Y690D02*
X1107Y690D01*
X226Y689D02*
X233Y689D01*
X287Y689D02*
X311Y689D01*
X358Y689D02*
X369Y689D01*
X771Y689D02*
X803Y689D01*
X843Y689D02*
X854Y689D01*
X915Y689D02*
X924Y689D01*
X1061Y689D02*
X1107Y689D01*
X225Y688D02*
X234Y688D01*
X287Y688D02*
X310Y688D01*
X358Y688D02*
X369Y688D01*
X772Y688D02*
X803Y688D01*
X844Y688D02*
X854Y688D01*
X915Y688D02*
X924Y688D01*
X1061Y688D02*
X1107Y688D01*
X225Y687D02*
X234Y687D01*
X287Y687D02*
X309Y687D01*
X358Y687D02*
X369Y687D01*
X773Y687D02*
X804Y687D01*
X844Y687D02*
X855Y687D01*
X915Y687D02*
X924Y687D01*
X1060Y687D02*
X1107Y687D01*
X225Y686D02*
X234Y686D01*
X287Y686D02*
X307Y686D01*
X357Y686D02*
X370Y686D01*
X775Y686D02*
X805Y686D01*
X845Y686D02*
X856Y686D01*
X915Y686D02*
X924Y686D01*
X1060Y686D02*
X1107Y686D01*
X225Y685D02*
X234Y685D01*
X287Y685D02*
X296Y685D01*
X357Y685D02*
X370Y685D01*
X793Y685D02*
X806Y685D01*
X845Y685D02*
X856Y685D01*
X915Y685D02*
X924Y685D01*
X1059Y685D02*
X1070Y685D01*
X1098Y685D02*
X1107Y685D01*
X225Y684D02*
X234Y684D01*
X287Y684D02*
X296Y684D01*
X357Y684D02*
X370Y684D01*
X795Y684D02*
X806Y684D01*
X846Y684D02*
X857Y684D01*
X915Y684D02*
X924Y684D01*
X1059Y684D02*
X1069Y684D01*
X1098Y684D02*
X1107Y684D01*
X225Y683D02*
X234Y683D01*
X287Y683D02*
X296Y683D01*
X356Y683D02*
X371Y683D01*
X795Y683D02*
X807Y683D01*
X847Y683D02*
X857Y683D01*
X915Y683D02*
X924Y683D01*
X1059Y683D02*
X1068Y683D01*
X1098Y683D02*
X1107Y683D01*
X225Y682D02*
X234Y682D01*
X287Y682D02*
X296Y682D01*
X356Y682D02*
X371Y682D01*
X796Y682D02*
X808Y682D01*
X847Y682D02*
X858Y682D01*
X915Y682D02*
X924Y682D01*
X1059Y682D02*
X1068Y682D01*
X1098Y682D02*
X1107Y682D01*
X225Y681D02*
X234Y681D01*
X287Y681D02*
X296Y681D01*
X356Y681D02*
X371Y681D01*
X797Y681D02*
X809Y681D01*
X848Y681D02*
X858Y681D01*
X915Y681D02*
X924Y681D01*
X1059Y681D02*
X1068Y681D01*
X1098Y681D02*
X1107Y681D01*
X225Y680D02*
X234Y680D01*
X287Y680D02*
X296Y680D01*
X356Y680D02*
X371Y680D01*
X798Y680D02*
X810Y680D01*
X848Y680D02*
X859Y680D01*
X915Y680D02*
X924Y680D01*
X1059Y680D02*
X1068Y680D01*
X1098Y680D02*
X1107Y680D01*
X225Y679D02*
X234Y679D01*
X287Y679D02*
X296Y679D01*
X355Y679D02*
X372Y679D01*
X799Y679D02*
X810Y679D01*
X849Y679D02*
X860Y679D01*
X915Y679D02*
X924Y679D01*
X1059Y679D02*
X1068Y679D01*
X1098Y679D02*
X1107Y679D01*
X225Y678D02*
X234Y678D01*
X287Y678D02*
X296Y678D01*
X355Y678D02*
X372Y678D01*
X799Y678D02*
X811Y678D01*
X849Y678D02*
X860Y678D01*
X915Y678D02*
X924Y678D01*
X1059Y678D02*
X1068Y678D01*
X1098Y678D02*
X1107Y678D01*
X225Y677D02*
X234Y677D01*
X287Y677D02*
X296Y677D01*
X355Y677D02*
X372Y677D01*
X800Y677D02*
X812Y677D01*
X850Y677D02*
X861Y677D01*
X915Y677D02*
X924Y677D01*
X1059Y677D02*
X1068Y677D01*
X1098Y677D02*
X1107Y677D01*
X225Y676D02*
X234Y676D01*
X287Y676D02*
X296Y676D01*
X354Y676D02*
X373Y676D01*
X801Y676D02*
X813Y676D01*
X851Y676D02*
X861Y676D01*
X915Y676D02*
X924Y676D01*
X1059Y676D02*
X1068Y676D01*
X1098Y676D02*
X1107Y676D01*
X225Y675D02*
X234Y675D01*
X287Y675D02*
X296Y675D01*
X354Y675D02*
X373Y675D01*
X802Y675D02*
X813Y675D01*
X851Y675D02*
X862Y675D01*
X915Y675D02*
X924Y675D01*
X1059Y675D02*
X1068Y675D01*
X1098Y675D02*
X1107Y675D01*
X203Y674D02*
X241Y674D01*
X287Y674D02*
X296Y674D01*
X354Y674D02*
X373Y674D01*
X495Y674D02*
X508Y674D01*
X525Y674D02*
X529Y674D01*
X569Y674D02*
X590Y674D01*
X641Y674D02*
X662Y674D01*
X709Y674D02*
X725Y674D01*
X741Y674D02*
X745Y674D01*
X802Y674D02*
X814Y674D01*
X852Y674D02*
X863Y674D01*
X915Y674D02*
X924Y674D01*
X934Y674D02*
X949Y674D01*
X1001Y674D02*
X1021Y674D01*
X1059Y674D02*
X1068Y674D01*
X1098Y674D02*
X1107Y674D01*
X202Y673D02*
X243Y673D01*
X287Y673D02*
X296Y673D01*
X354Y673D02*
X374Y673D01*
X492Y673D02*
X511Y673D01*
X524Y673D02*
X530Y673D01*
X567Y673D02*
X592Y673D01*
X639Y673D02*
X664Y673D01*
X707Y673D02*
X727Y673D01*
X740Y673D02*
X746Y673D01*
X803Y673D02*
X815Y673D01*
X852Y673D02*
X863Y673D01*
X915Y673D02*
X924Y673D01*
X932Y673D02*
X952Y673D01*
X998Y673D02*
X1024Y673D01*
X1059Y673D02*
X1069Y673D01*
X1098Y673D02*
X1107Y673D01*
X201Y672D02*
X243Y672D01*
X287Y672D02*
X296Y672D01*
X353Y672D02*
X374Y672D01*
X491Y672D02*
X513Y672D01*
X523Y672D02*
X531Y672D01*
X565Y672D02*
X594Y672D01*
X637Y672D02*
X666Y672D01*
X705Y672D02*
X728Y672D01*
X739Y672D02*
X747Y672D01*
X804Y672D02*
X816Y672D01*
X853Y672D02*
X864Y672D01*
X915Y672D02*
X924Y672D01*
X930Y672D02*
X953Y672D01*
X997Y672D02*
X1025Y672D01*
X1059Y672D02*
X1069Y672D01*
X1098Y672D02*
X1107Y672D01*
X201Y671D02*
X244Y671D01*
X287Y671D02*
X296Y671D01*
X353Y671D02*
X363Y671D01*
X365Y671D02*
X374Y671D01*
X490Y671D02*
X514Y671D01*
X523Y671D02*
X532Y671D01*
X564Y671D02*
X595Y671D01*
X636Y671D02*
X667Y671D01*
X704Y671D02*
X729Y671D01*
X739Y671D02*
X747Y671D01*
X805Y671D02*
X816Y671D01*
X854Y671D02*
X864Y671D01*
X915Y671D02*
X924Y671D01*
X929Y671D02*
X955Y671D01*
X995Y671D02*
X1027Y671D01*
X1059Y671D02*
X1071Y671D01*
X1098Y671D02*
X1107Y671D01*
X200Y670D02*
X244Y670D01*
X287Y670D02*
X296Y670D01*
X353Y670D02*
X362Y670D01*
X365Y670D02*
X374Y670D01*
X488Y670D02*
X516Y670D01*
X523Y670D02*
X532Y670D01*
X563Y670D02*
X596Y670D01*
X634Y670D02*
X668Y670D01*
X703Y670D02*
X730Y670D01*
X739Y670D02*
X748Y670D01*
X806Y670D02*
X817Y670D01*
X854Y670D02*
X865Y670D01*
X915Y670D02*
X924Y670D01*
X927Y670D02*
X956Y670D01*
X994Y670D02*
X1028Y670D01*
X1060Y670D02*
X1107Y670D01*
X200Y669D02*
X244Y669D01*
X287Y669D02*
X296Y669D01*
X352Y669D02*
X362Y669D01*
X365Y669D02*
X375Y669D01*
X488Y669D02*
X517Y669D01*
X523Y669D02*
X532Y669D01*
X561Y669D02*
X597Y669D01*
X633Y669D02*
X669Y669D01*
X702Y669D02*
X731Y669D01*
X739Y669D02*
X748Y669D01*
X806Y669D02*
X818Y669D01*
X855Y669D02*
X866Y669D01*
X915Y669D02*
X924Y669D01*
X926Y669D02*
X957Y669D01*
X993Y669D02*
X1029Y669D01*
X1060Y669D02*
X1107Y669D01*
X201Y668D02*
X244Y668D01*
X287Y668D02*
X296Y668D01*
X352Y668D02*
X362Y668D01*
X365Y668D02*
X375Y668D01*
X487Y668D02*
X519Y668D01*
X523Y668D02*
X532Y668D01*
X560Y668D02*
X598Y668D01*
X632Y668D02*
X670Y668D01*
X701Y668D02*
X733Y668D01*
X739Y668D02*
X748Y668D01*
X807Y668D02*
X818Y668D01*
X855Y668D02*
X866Y668D01*
X915Y668D02*
X958Y668D01*
X992Y668D02*
X1030Y668D01*
X1061Y668D02*
X1107Y668D01*
X201Y667D02*
X243Y667D01*
X287Y667D02*
X296Y667D01*
X352Y667D02*
X361Y667D01*
X366Y667D02*
X375Y667D01*
X486Y667D02*
X520Y667D01*
X523Y667D02*
X532Y667D01*
X559Y667D02*
X599Y667D01*
X631Y667D02*
X671Y667D01*
X701Y667D02*
X734Y667D01*
X739Y667D02*
X748Y667D01*
X808Y667D02*
X818Y667D01*
X856Y667D02*
X867Y667D01*
X915Y667D02*
X959Y667D01*
X991Y667D02*
X1031Y667D01*
X1061Y667D02*
X1107Y667D01*
X202Y666D02*
X242Y666D01*
X287Y666D02*
X296Y666D01*
X352Y666D02*
X361Y666D01*
X366Y666D02*
X376Y666D01*
X486Y666D02*
X532Y666D01*
X558Y666D02*
X600Y666D01*
X630Y666D02*
X672Y666D01*
X700Y666D02*
X735Y666D01*
X739Y666D02*
X748Y666D01*
X809Y666D02*
X819Y666D01*
X856Y666D02*
X867Y666D01*
X915Y666D02*
X960Y666D01*
X990Y666D02*
X1032Y666D01*
X1062Y666D02*
X1107Y666D01*
X203Y665D02*
X241Y665D01*
X287Y665D02*
X296Y665D01*
X351Y665D02*
X361Y665D01*
X366Y665D02*
X376Y665D01*
X485Y665D02*
X532Y665D01*
X558Y665D02*
X601Y665D01*
X630Y665D02*
X673Y665D01*
X700Y665D02*
X736Y665D01*
X739Y665D02*
X748Y665D01*
X809Y665D02*
X819Y665D01*
X857Y665D02*
X868Y665D01*
X915Y665D02*
X961Y665D01*
X989Y665D02*
X1033Y665D01*
X1063Y665D02*
X1107Y665D01*
X225Y664D02*
X234Y664D01*
X287Y664D02*
X296Y664D01*
X351Y664D02*
X360Y664D01*
X367Y664D02*
X376Y664D01*
X485Y664D02*
X496Y664D01*
X507Y664D02*
X532Y664D01*
X557Y664D02*
X570Y664D01*
X589Y664D02*
X602Y664D01*
X629Y664D02*
X642Y664D01*
X661Y664D02*
X674Y664D01*
X700Y664D02*
X711Y664D01*
X723Y664D02*
X748Y664D01*
X810Y664D02*
X819Y664D01*
X858Y664D02*
X868Y664D01*
X915Y664D02*
X935Y664D01*
X948Y664D02*
X962Y664D01*
X989Y664D02*
X1002Y664D01*
X1020Y664D02*
X1033Y664D01*
X1064Y664D02*
X1107Y664D01*
X225Y663D02*
X234Y663D01*
X287Y663D02*
X296Y663D01*
X351Y663D02*
X360Y663D01*
X367Y663D02*
X376Y663D01*
X485Y663D02*
X495Y663D01*
X509Y663D02*
X532Y663D01*
X556Y663D02*
X569Y663D01*
X590Y663D02*
X602Y663D01*
X628Y663D02*
X641Y663D01*
X662Y663D02*
X674Y663D01*
X699Y663D02*
X709Y663D01*
X724Y663D02*
X748Y663D01*
X810Y663D02*
X819Y663D01*
X858Y663D02*
X869Y663D01*
X915Y663D02*
X934Y663D01*
X950Y663D02*
X962Y663D01*
X988Y663D02*
X1000Y663D01*
X1022Y663D02*
X1034Y663D01*
X1065Y663D02*
X1107Y663D01*
X225Y662D02*
X234Y662D01*
X287Y662D02*
X296Y662D01*
X350Y662D02*
X360Y662D01*
X367Y662D02*
X377Y662D01*
X485Y662D02*
X494Y662D01*
X510Y662D02*
X532Y662D01*
X556Y662D02*
X567Y662D01*
X591Y662D02*
X603Y662D01*
X628Y662D02*
X639Y662D01*
X663Y662D02*
X674Y662D01*
X699Y662D02*
X709Y662D01*
X725Y662D02*
X748Y662D01*
X810Y662D02*
X819Y662D01*
X859Y662D02*
X870Y662D01*
X915Y662D02*
X933Y662D01*
X951Y662D02*
X963Y662D01*
X988Y662D02*
X999Y662D01*
X1023Y662D02*
X1034Y662D01*
X1067Y662D02*
X1107Y662D01*
X225Y661D02*
X234Y661D01*
X287Y661D02*
X296Y661D01*
X350Y661D02*
X360Y661D01*
X368Y661D02*
X377Y661D01*
X484Y661D02*
X494Y661D01*
X512Y661D02*
X532Y661D01*
X556Y661D02*
X566Y661D01*
X592Y661D02*
X603Y661D01*
X628Y661D02*
X638Y661D01*
X664Y661D02*
X675Y661D01*
X699Y661D02*
X708Y661D01*
X726Y661D02*
X748Y661D01*
X810Y661D02*
X820Y661D01*
X859Y661D02*
X870Y661D01*
X915Y661D02*
X931Y661D01*
X952Y661D02*
X963Y661D01*
X987Y661D02*
X998Y661D01*
X1024Y661D02*
X1035Y661D01*
X1070Y661D02*
X1107Y661D01*
X225Y660D02*
X234Y660D01*
X287Y660D02*
X296Y660D01*
X350Y660D02*
X359Y660D01*
X368Y660D02*
X377Y660D01*
X484Y660D02*
X493Y660D01*
X514Y660D02*
X532Y660D01*
X555Y660D02*
X565Y660D01*
X593Y660D02*
X603Y660D01*
X627Y660D02*
X637Y660D01*
X665Y660D02*
X675Y660D01*
X699Y660D02*
X708Y660D01*
X727Y660D02*
X748Y660D01*
X810Y660D02*
X820Y660D01*
X860Y660D02*
X871Y660D01*
X915Y660D02*
X930Y660D01*
X953Y660D02*
X963Y660D01*
X987Y660D02*
X997Y660D01*
X1025Y660D02*
X1035Y660D01*
X1079Y660D02*
X1090Y660D01*
X1098Y660D02*
X1107Y660D01*
X225Y659D02*
X234Y659D01*
X287Y659D02*
X296Y659D01*
X349Y659D02*
X359Y659D01*
X368Y659D02*
X378Y659D01*
X484Y659D02*
X493Y659D01*
X515Y659D02*
X532Y659D01*
X555Y659D02*
X565Y659D01*
X594Y659D02*
X603Y659D01*
X627Y659D02*
X637Y659D01*
X666Y659D02*
X675Y659D01*
X699Y659D02*
X708Y659D01*
X728Y659D02*
X748Y659D01*
X810Y659D02*
X820Y659D01*
X861Y659D02*
X871Y659D01*
X915Y659D02*
X929Y659D01*
X954Y659D02*
X963Y659D01*
X987Y659D02*
X996Y659D01*
X1026Y659D02*
X1035Y659D01*
X1079Y659D02*
X1090Y659D01*
X1098Y659D02*
X1107Y659D01*
X225Y658D02*
X234Y658D01*
X287Y658D02*
X296Y658D01*
X349Y658D02*
X359Y658D01*
X368Y658D02*
X378Y658D01*
X484Y658D02*
X493Y658D01*
X517Y658D02*
X532Y658D01*
X555Y658D02*
X564Y658D01*
X594Y658D02*
X604Y658D01*
X627Y658D02*
X636Y658D01*
X666Y658D02*
X676Y658D01*
X699Y658D02*
X708Y658D01*
X730Y658D02*
X748Y658D01*
X810Y658D02*
X820Y658D01*
X861Y658D02*
X872Y658D01*
X915Y658D02*
X928Y658D01*
X954Y658D02*
X963Y658D01*
X987Y658D02*
X996Y658D01*
X1026Y658D02*
X1035Y658D01*
X1078Y658D02*
X1089Y658D01*
X1098Y658D02*
X1107Y658D01*
X225Y657D02*
X234Y657D01*
X287Y657D02*
X296Y657D01*
X349Y657D02*
X358Y657D01*
X369Y657D02*
X378Y657D01*
X484Y657D02*
X493Y657D01*
X518Y657D02*
X532Y657D01*
X555Y657D02*
X564Y657D01*
X595Y657D02*
X604Y657D01*
X627Y657D02*
X636Y657D01*
X667Y657D02*
X676Y657D01*
X699Y657D02*
X708Y657D01*
X731Y657D02*
X748Y657D01*
X810Y657D02*
X820Y657D01*
X862Y657D02*
X873Y657D01*
X915Y657D02*
X927Y657D01*
X954Y657D02*
X963Y657D01*
X987Y657D02*
X996Y657D01*
X1026Y657D02*
X1035Y657D01*
X1078Y657D02*
X1088Y657D01*
X1098Y657D02*
X1107Y657D01*
X225Y656D02*
X234Y656D01*
X287Y656D02*
X296Y656D01*
X349Y656D02*
X358Y656D01*
X369Y656D02*
X379Y656D01*
X484Y656D02*
X493Y656D01*
X520Y656D02*
X532Y656D01*
X555Y656D02*
X564Y656D01*
X595Y656D02*
X604Y656D01*
X627Y656D02*
X636Y656D01*
X667Y656D02*
X676Y656D01*
X699Y656D02*
X708Y656D01*
X732Y656D02*
X748Y656D01*
X810Y656D02*
X820Y656D01*
X862Y656D02*
X873Y656D01*
X915Y656D02*
X926Y656D01*
X954Y656D02*
X963Y656D01*
X987Y656D02*
X996Y656D01*
X1026Y656D02*
X1035Y656D01*
X1077Y656D02*
X1088Y656D01*
X1098Y656D02*
X1107Y656D01*
X225Y655D02*
X234Y655D01*
X287Y655D02*
X296Y655D01*
X348Y655D02*
X358Y655D01*
X369Y655D02*
X379Y655D01*
X484Y655D02*
X493Y655D01*
X521Y655D02*
X532Y655D01*
X555Y655D02*
X564Y655D01*
X595Y655D02*
X604Y655D01*
X627Y655D02*
X636Y655D01*
X667Y655D02*
X676Y655D01*
X699Y655D02*
X708Y655D01*
X733Y655D02*
X748Y655D01*
X810Y655D02*
X820Y655D01*
X863Y655D02*
X874Y655D01*
X915Y655D02*
X925Y655D01*
X954Y655D02*
X963Y655D01*
X987Y655D02*
X996Y655D01*
X1026Y655D02*
X1035Y655D01*
X1076Y655D02*
X1087Y655D01*
X1098Y655D02*
X1107Y655D01*
X225Y654D02*
X234Y654D01*
X287Y654D02*
X296Y654D01*
X348Y654D02*
X358Y654D01*
X370Y654D02*
X379Y654D01*
X484Y654D02*
X493Y654D01*
X523Y654D02*
X532Y654D01*
X555Y654D02*
X564Y654D01*
X595Y654D02*
X604Y654D01*
X627Y654D02*
X636Y654D01*
X667Y654D02*
X676Y654D01*
X700Y654D02*
X707Y654D01*
X734Y654D02*
X748Y654D01*
X810Y654D02*
X820Y654D01*
X864Y654D02*
X874Y654D01*
X915Y654D02*
X924Y654D01*
X954Y654D02*
X963Y654D01*
X987Y654D02*
X996Y654D01*
X1026Y654D02*
X1035Y654D01*
X1076Y654D02*
X1087Y654D01*
X1098Y654D02*
X1107Y654D01*
X225Y653D02*
X234Y653D01*
X287Y653D02*
X296Y653D01*
X348Y653D02*
X357Y653D01*
X370Y653D02*
X379Y653D01*
X484Y653D02*
X493Y653D01*
X523Y653D02*
X532Y653D01*
X555Y653D02*
X564Y653D01*
X595Y653D02*
X604Y653D01*
X627Y653D02*
X636Y653D01*
X667Y653D02*
X676Y653D01*
X701Y653D02*
X706Y653D01*
X735Y653D02*
X748Y653D01*
X771Y653D02*
X792Y653D01*
X810Y653D02*
X820Y653D01*
X864Y653D02*
X875Y653D01*
X915Y653D02*
X924Y653D01*
X954Y653D02*
X963Y653D01*
X987Y653D02*
X996Y653D01*
X1026Y653D02*
X1035Y653D01*
X1075Y653D02*
X1086Y653D01*
X1098Y653D02*
X1107Y653D01*
X225Y652D02*
X234Y652D01*
X287Y652D02*
X296Y652D01*
X347Y652D02*
X357Y652D01*
X370Y652D02*
X380Y652D01*
X484Y652D02*
X493Y652D01*
X523Y652D02*
X532Y652D01*
X555Y652D02*
X564Y652D01*
X595Y652D02*
X604Y652D01*
X627Y652D02*
X636Y652D01*
X667Y652D02*
X676Y652D01*
X737Y652D02*
X748Y652D01*
X771Y652D02*
X793Y652D01*
X810Y652D02*
X820Y652D01*
X865Y652D02*
X875Y652D01*
X915Y652D02*
X924Y652D01*
X954Y652D02*
X963Y652D01*
X987Y652D02*
X996Y652D01*
X1026Y652D02*
X1035Y652D01*
X1075Y652D02*
X1086Y652D01*
X1098Y652D02*
X1107Y652D01*
X225Y651D02*
X234Y651D01*
X287Y651D02*
X296Y651D01*
X347Y651D02*
X357Y651D01*
X370Y651D02*
X380Y651D01*
X484Y651D02*
X493Y651D01*
X523Y651D02*
X532Y651D01*
X555Y651D02*
X564Y651D01*
X595Y651D02*
X604Y651D01*
X627Y651D02*
X636Y651D01*
X667Y651D02*
X676Y651D01*
X738Y651D02*
X748Y651D01*
X771Y651D02*
X794Y651D01*
X810Y651D02*
X820Y651D01*
X865Y651D02*
X876Y651D01*
X915Y651D02*
X924Y651D01*
X954Y651D02*
X963Y651D01*
X987Y651D02*
X996Y651D01*
X1026Y651D02*
X1035Y651D01*
X1074Y651D02*
X1085Y651D01*
X1098Y651D02*
X1107Y651D01*
X225Y650D02*
X234Y650D01*
X287Y650D02*
X296Y650D01*
X347Y650D02*
X356Y650D01*
X371Y650D02*
X380Y650D01*
X484Y650D02*
X493Y650D01*
X523Y650D02*
X532Y650D01*
X555Y650D02*
X564Y650D01*
X595Y650D02*
X604Y650D01*
X627Y650D02*
X636Y650D01*
X667Y650D02*
X676Y650D01*
X739Y650D02*
X748Y650D01*
X771Y650D02*
X794Y650D01*
X810Y650D02*
X820Y650D01*
X866Y650D02*
X877Y650D01*
X915Y650D02*
X924Y650D01*
X954Y650D02*
X963Y650D01*
X987Y650D02*
X996Y650D01*
X1026Y650D02*
X1035Y650D01*
X1074Y650D02*
X1084Y650D01*
X1098Y650D02*
X1107Y650D01*
X142Y649D02*
X153Y649D01*
X225Y649D02*
X234Y649D01*
X287Y649D02*
X296Y649D01*
X347Y649D02*
X356Y649D01*
X371Y649D02*
X381Y649D01*
X484Y649D02*
X493Y649D01*
X523Y649D02*
X532Y649D01*
X555Y649D02*
X604Y649D01*
X627Y649D02*
X676Y649D01*
X739Y649D02*
X748Y649D01*
X771Y649D02*
X795Y649D01*
X810Y649D02*
X820Y649D01*
X866Y649D02*
X877Y649D01*
X915Y649D02*
X924Y649D01*
X954Y649D02*
X963Y649D01*
X987Y649D02*
X1035Y649D01*
X1073Y649D02*
X1084Y649D01*
X1098Y649D02*
X1107Y649D01*
X140Y648D02*
X155Y648D01*
X225Y648D02*
X234Y648D01*
X287Y648D02*
X296Y648D01*
X346Y648D02*
X356Y648D01*
X371Y648D02*
X381Y648D01*
X484Y648D02*
X493Y648D01*
X523Y648D02*
X532Y648D01*
X555Y648D02*
X604Y648D01*
X627Y648D02*
X676Y648D01*
X739Y648D02*
X748Y648D01*
X771Y648D02*
X795Y648D01*
X810Y648D02*
X820Y648D01*
X867Y648D02*
X878Y648D01*
X915Y648D02*
X924Y648D01*
X954Y648D02*
X963Y648D01*
X987Y648D02*
X1035Y648D01*
X1072Y648D02*
X1083Y648D01*
X1098Y648D02*
X1107Y648D01*
X139Y647D02*
X156Y647D01*
X225Y647D02*
X234Y647D01*
X287Y647D02*
X296Y647D01*
X346Y647D02*
X355Y647D01*
X372Y647D02*
X381Y647D01*
X484Y647D02*
X493Y647D01*
X523Y647D02*
X532Y647D01*
X555Y647D02*
X604Y647D01*
X627Y647D02*
X676Y647D01*
X739Y647D02*
X748Y647D01*
X771Y647D02*
X795Y647D01*
X810Y647D02*
X820Y647D01*
X868Y647D02*
X878Y647D01*
X915Y647D02*
X924Y647D01*
X954Y647D02*
X963Y647D01*
X987Y647D02*
X1035Y647D01*
X1072Y647D02*
X1083Y647D01*
X1098Y647D02*
X1107Y647D01*
X138Y646D02*
X157Y646D01*
X225Y646D02*
X234Y646D01*
X287Y646D02*
X296Y646D01*
X346Y646D02*
X355Y646D01*
X372Y646D02*
X381Y646D01*
X484Y646D02*
X493Y646D01*
X523Y646D02*
X532Y646D01*
X555Y646D02*
X604Y646D01*
X627Y646D02*
X676Y646D01*
X739Y646D02*
X748Y646D01*
X771Y646D02*
X794Y646D01*
X810Y646D02*
X820Y646D01*
X868Y646D02*
X879Y646D01*
X915Y646D02*
X924Y646D01*
X954Y646D02*
X963Y646D01*
X987Y646D02*
X1035Y646D01*
X1071Y646D02*
X1082Y646D01*
X1098Y646D02*
X1107Y646D01*
X138Y645D02*
X157Y645D01*
X225Y645D02*
X234Y645D01*
X287Y645D02*
X296Y645D01*
X345Y645D02*
X382Y645D01*
X484Y645D02*
X493Y645D01*
X523Y645D02*
X532Y645D01*
X555Y645D02*
X604Y645D01*
X627Y645D02*
X676Y645D01*
X739Y645D02*
X748Y645D01*
X771Y645D02*
X793Y645D01*
X810Y645D02*
X820Y645D01*
X869Y645D02*
X880Y645D01*
X915Y645D02*
X924Y645D01*
X954Y645D02*
X963Y645D01*
X987Y645D02*
X1035Y645D01*
X1071Y645D02*
X1081Y645D01*
X1098Y645D02*
X1107Y645D01*
X138Y644D02*
X157Y644D01*
X225Y644D02*
X234Y644D01*
X287Y644D02*
X296Y644D01*
X345Y644D02*
X382Y644D01*
X484Y644D02*
X493Y644D01*
X523Y644D02*
X532Y644D01*
X555Y644D02*
X604Y644D01*
X627Y644D02*
X676Y644D01*
X739Y644D02*
X748Y644D01*
X771Y644D02*
X792Y644D01*
X810Y644D02*
X820Y644D01*
X869Y644D02*
X880Y644D01*
X915Y644D02*
X924Y644D01*
X954Y644D02*
X963Y644D01*
X987Y644D02*
X1035Y644D01*
X1070Y644D02*
X1081Y644D01*
X1098Y644D02*
X1107Y644D01*
X138Y643D02*
X157Y643D01*
X225Y643D02*
X234Y643D01*
X287Y643D02*
X296Y643D01*
X345Y643D02*
X382Y643D01*
X484Y643D02*
X493Y643D01*
X523Y643D02*
X532Y643D01*
X555Y643D02*
X604Y643D01*
X627Y643D02*
X676Y643D01*
X739Y643D02*
X748Y643D01*
X771Y643D02*
X780Y643D01*
X810Y643D02*
X820Y643D01*
X870Y643D02*
X881Y643D01*
X915Y643D02*
X924Y643D01*
X954Y643D02*
X963Y643D01*
X987Y643D02*
X1035Y643D01*
X1069Y643D02*
X1080Y643D01*
X1098Y643D02*
X1107Y643D01*
X138Y642D02*
X157Y642D01*
X225Y642D02*
X234Y642D01*
X287Y642D02*
X296Y642D01*
X345Y642D02*
X383Y642D01*
X484Y642D02*
X493Y642D01*
X523Y642D02*
X532Y642D01*
X556Y642D02*
X604Y642D01*
X627Y642D02*
X676Y642D01*
X739Y642D02*
X748Y642D01*
X771Y642D02*
X780Y642D01*
X810Y642D02*
X820Y642D01*
X871Y642D02*
X881Y642D01*
X915Y642D02*
X924Y642D01*
X954Y642D02*
X963Y642D01*
X987Y642D02*
X1035Y642D01*
X1069Y642D02*
X1080Y642D01*
X1098Y642D02*
X1107Y642D01*
X138Y641D02*
X157Y641D01*
X225Y641D02*
X234Y641D01*
X287Y641D02*
X296Y641D01*
X344Y641D02*
X383Y641D01*
X484Y641D02*
X493Y641D01*
X523Y641D02*
X532Y641D01*
X556Y641D02*
X604Y641D01*
X628Y641D02*
X676Y641D01*
X739Y641D02*
X748Y641D01*
X771Y641D02*
X780Y641D01*
X810Y641D02*
X820Y641D01*
X871Y641D02*
X882Y641D01*
X915Y641D02*
X924Y641D01*
X954Y641D02*
X963Y641D01*
X988Y641D02*
X1035Y641D01*
X1068Y641D02*
X1079Y641D01*
X1098Y641D02*
X1107Y641D01*
X138Y640D02*
X157Y640D01*
X225Y640D02*
X234Y640D01*
X287Y640D02*
X296Y640D01*
X344Y640D02*
X383Y640D01*
X484Y640D02*
X493Y640D01*
X523Y640D02*
X532Y640D01*
X557Y640D02*
X604Y640D01*
X629Y640D02*
X676Y640D01*
X739Y640D02*
X748Y640D01*
X771Y640D02*
X780Y640D01*
X810Y640D02*
X820Y640D01*
X872Y640D02*
X882Y640D01*
X915Y640D02*
X924Y640D01*
X954Y640D02*
X963Y640D01*
X989Y640D02*
X1035Y640D01*
X1068Y640D02*
X1079Y640D01*
X1098Y640D02*
X1107Y640D01*
X138Y639D02*
X157Y639D01*
X225Y639D02*
X234Y639D01*
X287Y639D02*
X296Y639D01*
X344Y639D02*
X383Y639D01*
X484Y639D02*
X493Y639D01*
X523Y639D02*
X532Y639D01*
X594Y639D02*
X604Y639D01*
X666Y639D02*
X676Y639D01*
X739Y639D02*
X748Y639D01*
X771Y639D02*
X780Y639D01*
X810Y639D02*
X820Y639D01*
X872Y639D02*
X883Y639D01*
X915Y639D02*
X924Y639D01*
X954Y639D02*
X963Y639D01*
X1026Y639D02*
X1035Y639D01*
X1067Y639D02*
X1078Y639D01*
X1098Y639D02*
X1107Y639D01*
X138Y638D02*
X157Y638D01*
X225Y638D02*
X234Y638D01*
X287Y638D02*
X296Y638D01*
X343Y638D02*
X384Y638D01*
X484Y638D02*
X493Y638D01*
X523Y638D02*
X532Y638D01*
X595Y638D02*
X604Y638D01*
X667Y638D02*
X676Y638D01*
X739Y638D02*
X748Y638D01*
X771Y638D02*
X780Y638D01*
X810Y638D02*
X820Y638D01*
X873Y638D02*
X884Y638D01*
X915Y638D02*
X924Y638D01*
X954Y638D02*
X963Y638D01*
X1026Y638D02*
X1035Y638D01*
X1067Y638D02*
X1077Y638D01*
X1098Y638D02*
X1107Y638D01*
X138Y637D02*
X157Y637D01*
X225Y637D02*
X234Y637D01*
X287Y637D02*
X296Y637D01*
X343Y637D02*
X384Y637D01*
X484Y637D02*
X493Y637D01*
X523Y637D02*
X532Y637D01*
X595Y637D02*
X604Y637D01*
X667Y637D02*
X676Y637D01*
X739Y637D02*
X748Y637D01*
X771Y637D02*
X780Y637D01*
X810Y637D02*
X820Y637D01*
X873Y637D02*
X884Y637D01*
X915Y637D02*
X925Y637D01*
X954Y637D02*
X963Y637D01*
X1026Y637D02*
X1035Y637D01*
X1066Y637D02*
X1077Y637D01*
X1098Y637D02*
X1107Y637D01*
X138Y636D02*
X157Y636D01*
X198Y636D02*
X201Y636D01*
X225Y636D02*
X234Y636D01*
X287Y636D02*
X296Y636D01*
X343Y636D02*
X384Y636D01*
X484Y636D02*
X493Y636D01*
X523Y636D02*
X532Y636D01*
X595Y636D02*
X604Y636D01*
X667Y636D02*
X676Y636D01*
X739Y636D02*
X748Y636D01*
X771Y636D02*
X780Y636D01*
X810Y636D02*
X820Y636D01*
X874Y636D02*
X885Y636D01*
X915Y636D02*
X926Y636D01*
X954Y636D02*
X963Y636D01*
X1026Y636D02*
X1035Y636D01*
X1065Y636D02*
X1076Y636D01*
X1098Y636D02*
X1107Y636D01*
X138Y635D02*
X157Y635D01*
X197Y635D02*
X203Y635D01*
X225Y635D02*
X234Y635D01*
X287Y635D02*
X296Y635D01*
X342Y635D02*
X385Y635D01*
X483Y635D02*
X493Y635D01*
X523Y635D02*
X532Y635D01*
X594Y635D02*
X604Y635D01*
X666Y635D02*
X676Y635D01*
X739Y635D02*
X748Y635D01*
X771Y635D02*
X780Y635D01*
X810Y635D02*
X820Y635D01*
X875Y635D02*
X885Y635D01*
X915Y635D02*
X927Y635D01*
X954Y635D02*
X963Y635D01*
X1026Y635D02*
X1035Y635D01*
X1065Y635D02*
X1076Y635D01*
X1098Y635D02*
X1107Y635D01*
X138Y634D02*
X157Y634D01*
X196Y634D02*
X203Y634D01*
X225Y634D02*
X234Y634D01*
X287Y634D02*
X296Y634D01*
X342Y634D02*
X352Y634D01*
X375Y634D02*
X385Y634D01*
X483Y634D02*
X492Y634D01*
X523Y634D02*
X532Y634D01*
X594Y634D02*
X604Y634D01*
X666Y634D02*
X675Y634D01*
X739Y634D02*
X748Y634D01*
X771Y634D02*
X780Y634D01*
X810Y634D02*
X820Y634D01*
X875Y634D02*
X886Y634D01*
X915Y634D02*
X929Y634D01*
X954Y634D02*
X963Y634D01*
X1026Y634D02*
X1035Y634D01*
X1064Y634D02*
X1075Y634D01*
X1098Y634D02*
X1107Y634D01*
X139Y633D02*
X156Y633D01*
X195Y633D02*
X204Y633D01*
X225Y633D02*
X234Y633D01*
X287Y633D02*
X296Y633D01*
X342Y633D02*
X351Y633D01*
X376Y633D02*
X385Y633D01*
X483Y633D02*
X492Y633D01*
X523Y633D02*
X532Y633D01*
X593Y633D02*
X603Y633D01*
X665Y633D02*
X675Y633D01*
X739Y633D02*
X748Y633D01*
X771Y633D02*
X780Y633D01*
X810Y633D02*
X820Y633D01*
X876Y633D02*
X887Y633D01*
X915Y633D02*
X930Y633D01*
X953Y633D02*
X963Y633D01*
X1025Y633D02*
X1035Y633D01*
X1064Y633D02*
X1074Y633D01*
X1098Y633D02*
X1107Y633D01*
X140Y632D02*
X155Y632D01*
X195Y632D02*
X204Y632D01*
X225Y632D02*
X234Y632D01*
X287Y632D02*
X296Y632D01*
X342Y632D02*
X351Y632D01*
X376Y632D02*
X386Y632D01*
X483Y632D02*
X492Y632D01*
X523Y632D02*
X532Y632D01*
X593Y632D02*
X603Y632D01*
X665Y632D02*
X675Y632D01*
X739Y632D02*
X748Y632D01*
X771Y632D02*
X780Y632D01*
X810Y632D02*
X819Y632D01*
X876Y632D02*
X887Y632D01*
X915Y632D02*
X931Y632D01*
X952Y632D02*
X963Y632D01*
X1024Y632D02*
X1035Y632D01*
X1063Y632D02*
X1074Y632D01*
X1098Y632D02*
X1107Y632D01*
X141Y631D02*
X154Y631D01*
X195Y631D02*
X205Y631D01*
X225Y631D02*
X234Y631D01*
X287Y631D02*
X296Y631D01*
X341Y631D02*
X351Y631D01*
X376Y631D02*
X386Y631D01*
X483Y631D02*
X492Y631D01*
X523Y631D02*
X532Y631D01*
X592Y631D02*
X603Y631D01*
X663Y631D02*
X675Y631D01*
X739Y631D02*
X748Y631D01*
X771Y631D02*
X780Y631D01*
X810Y631D02*
X819Y631D01*
X877Y631D02*
X888Y631D01*
X915Y631D02*
X932Y631D01*
X951Y631D02*
X963Y631D01*
X1023Y631D02*
X1035Y631D01*
X1062Y631D02*
X1073Y631D01*
X1098Y631D02*
X1107Y631D01*
X195Y630D02*
X205Y630D01*
X224Y630D02*
X234Y630D01*
X287Y630D02*
X296Y630D01*
X341Y630D02*
X350Y630D01*
X377Y630D02*
X386Y630D01*
X483Y630D02*
X492Y630D01*
X523Y630D02*
X532Y630D01*
X590Y630D02*
X603Y630D01*
X662Y630D02*
X674Y630D01*
X739Y630D02*
X748Y630D01*
X771Y630D02*
X781Y630D01*
X809Y630D02*
X819Y630D01*
X878Y630D02*
X888Y630D01*
X915Y630D02*
X933Y630D01*
X950Y630D02*
X962Y630D01*
X1022Y630D02*
X1034Y630D01*
X1062Y630D02*
X1073Y630D01*
X1098Y630D02*
X1107Y630D01*
X196Y629D02*
X206Y629D01*
X223Y629D02*
X233Y629D01*
X287Y629D02*
X296Y629D01*
X341Y629D02*
X350Y629D01*
X377Y629D02*
X386Y629D01*
X483Y629D02*
X492Y629D01*
X523Y629D02*
X532Y629D01*
X589Y629D02*
X602Y629D01*
X661Y629D02*
X674Y629D01*
X739Y629D02*
X748Y629D01*
X771Y629D02*
X782Y629D01*
X808Y629D02*
X819Y629D01*
X878Y629D02*
X889Y629D01*
X915Y629D02*
X935Y629D01*
X949Y629D02*
X962Y629D01*
X1021Y629D02*
X1034Y629D01*
X1061Y629D02*
X1072Y629D01*
X1098Y629D02*
X1107Y629D01*
X196Y628D02*
X233Y628D01*
X277Y628D02*
X306Y628D01*
X340Y628D02*
X350Y628D01*
X377Y628D02*
X387Y628D01*
X483Y628D02*
X492Y628D01*
X523Y628D02*
X532Y628D01*
X560Y628D02*
X601Y628D01*
X632Y628D02*
X673Y628D01*
X739Y628D02*
X748Y628D01*
X772Y628D02*
X819Y628D01*
X879Y628D02*
X889Y628D01*
X915Y628D02*
X961Y628D01*
X992Y628D02*
X1033Y628D01*
X1061Y628D02*
X1072Y628D01*
X1098Y628D02*
X1107Y628D01*
X196Y627D02*
X233Y627D01*
X274Y627D02*
X309Y627D01*
X340Y627D02*
X350Y627D01*
X377Y627D02*
X387Y627D01*
X483Y627D02*
X492Y627D01*
X523Y627D02*
X532Y627D01*
X557Y627D02*
X601Y627D01*
X629Y627D02*
X673Y627D01*
X739Y627D02*
X748Y627D01*
X772Y627D02*
X818Y627D01*
X879Y627D02*
X890Y627D01*
X915Y627D02*
X961Y627D01*
X989Y627D02*
X1032Y627D01*
X1060Y627D02*
X1071Y627D01*
X1098Y627D02*
X1107Y627D01*
X197Y626D02*
X232Y626D01*
X273Y626D02*
X310Y626D01*
X340Y626D02*
X349Y626D01*
X378Y626D02*
X387Y626D01*
X483Y626D02*
X492Y626D01*
X523Y626D02*
X532Y626D01*
X556Y626D02*
X600Y626D01*
X628Y626D02*
X672Y626D01*
X739Y626D02*
X748Y626D01*
X773Y626D02*
X818Y626D01*
X880Y626D02*
X891Y626D01*
X915Y626D02*
X960Y626D01*
X988Y626D02*
X1032Y626D01*
X1060Y626D02*
X1070Y626D01*
X1098Y626D02*
X1107Y626D01*
X198Y625D02*
X232Y625D01*
X273Y625D02*
X311Y625D01*
X340Y625D02*
X349Y625D01*
X378Y625D02*
X388Y625D01*
X483Y625D02*
X492Y625D01*
X523Y625D02*
X532Y625D01*
X555Y625D02*
X599Y625D01*
X627Y625D02*
X671Y625D01*
X739Y625D02*
X748Y625D01*
X773Y625D02*
X817Y625D01*
X880Y625D02*
X891Y625D01*
X915Y625D02*
X959Y625D01*
X987Y625D02*
X1031Y625D01*
X1059Y625D02*
X1070Y625D01*
X1098Y625D02*
X1107Y625D01*
X198Y624D02*
X231Y624D01*
X272Y624D02*
X311Y624D01*
X339Y624D02*
X349Y624D01*
X378Y624D02*
X388Y624D01*
X483Y624D02*
X492Y624D01*
X523Y624D02*
X532Y624D01*
X555Y624D02*
X598Y624D01*
X627Y624D02*
X670Y624D01*
X739Y624D02*
X748Y624D01*
X774Y624D02*
X816Y624D01*
X881Y624D02*
X891Y624D01*
X915Y624D02*
X924Y624D01*
X926Y624D02*
X958Y624D01*
X987Y624D02*
X1030Y624D01*
X1059Y624D02*
X1069Y624D01*
X1098Y624D02*
X1107Y624D01*
X199Y623D02*
X230Y623D01*
X272Y623D02*
X311Y623D01*
X339Y623D02*
X348Y623D01*
X379Y623D02*
X388Y623D01*
X483Y623D02*
X492Y623D01*
X523Y623D02*
X532Y623D01*
X555Y623D02*
X597Y623D01*
X627Y623D02*
X669Y623D01*
X739Y623D02*
X748Y623D01*
X775Y623D02*
X816Y623D01*
X882Y623D02*
X891Y623D01*
X915Y623D02*
X924Y623D01*
X927Y623D02*
X956Y623D01*
X987Y623D02*
X1028Y623D01*
X1059Y623D02*
X1069Y623D01*
X1098Y623D02*
X1107Y623D01*
X200Y622D02*
X229Y622D01*
X272Y622D02*
X311Y622D01*
X339Y622D02*
X348Y622D01*
X379Y622D02*
X388Y622D01*
X483Y622D02*
X492Y622D01*
X523Y622D02*
X532Y622D01*
X555Y622D02*
X596Y622D01*
X627Y622D02*
X667Y622D01*
X739Y622D02*
X747Y622D01*
X776Y622D02*
X815Y622D01*
X882Y622D02*
X891Y622D01*
X915Y622D02*
X924Y622D01*
X928Y622D02*
X955Y622D01*
X987Y622D02*
X1027Y622D01*
X1059Y622D02*
X1068Y622D01*
X1098Y622D02*
X1107Y622D01*
X201Y621D02*
X228Y621D01*
X273Y621D02*
X311Y621D01*
X339Y621D02*
X348Y621D01*
X379Y621D02*
X388Y621D01*
X484Y621D02*
X492Y621D01*
X523Y621D02*
X531Y621D01*
X555Y621D02*
X594Y621D01*
X627Y621D02*
X666Y621D01*
X739Y621D02*
X747Y621D01*
X777Y621D02*
X814Y621D01*
X883Y621D02*
X891Y621D01*
X915Y621D02*
X923Y621D01*
X929Y621D02*
X954Y621D01*
X987Y621D02*
X1026Y621D01*
X1059Y621D02*
X1067Y621D01*
X1099Y621D02*
X1107Y621D01*
X203Y620D02*
X227Y620D01*
X273Y620D02*
X310Y620D01*
X340Y620D02*
X347Y620D01*
X380Y620D02*
X387Y620D01*
X484Y620D02*
X491Y620D01*
X524Y620D02*
X531Y620D01*
X556Y620D02*
X593Y620D01*
X628Y620D02*
X665Y620D01*
X740Y620D02*
X747Y620D01*
X779Y620D02*
X812Y620D01*
X883Y620D02*
X890Y620D01*
X916Y620D02*
X923Y620D01*
X931Y620D02*
X952Y620D01*
X988Y620D02*
X1024Y620D01*
X1060Y620D02*
X1067Y620D01*
X1099Y620D02*
X1106Y620D01*
X205Y619D02*
X225Y619D01*
X274Y619D02*
X309Y619D01*
X341Y619D02*
X346Y619D01*
X381Y619D02*
X386Y619D01*
X485Y619D02*
X490Y619D01*
X525Y619D02*
X530Y619D01*
X557Y619D02*
X591Y619D01*
X629Y619D02*
X663Y619D01*
X741Y619D02*
X746Y619D01*
X780Y619D02*
X810Y619D01*
X884Y619D02*
X889Y619D01*
X917Y619D02*
X922Y619D01*
X933Y619D02*
X950Y619D01*
X989Y619D02*
X1022Y619D01*
X1061Y619D02*
X1066Y619D01*
X1100Y619D02*
X1105Y619D01*
X209Y618D02*
X220Y618D01*
X277Y618D02*
X306Y618D01*
X344Y618D02*
X344Y618D01*
X527Y618D02*
X527Y618D01*
X560Y618D02*
X586Y618D01*
X632Y618D02*
X658Y618D01*
X743Y618D02*
X743Y618D01*
X785Y618D02*
X805Y618D01*
X887Y618D02*
X887Y618D01*
X938Y618D02*
X946Y618D01*
X991Y618D02*
X1018Y618D01*
X1063Y618D02*
X1063Y618D01*
X1103Y618D02*
X1103Y618D01*
X343Y596D02*
X359Y596D01*
X402Y596D02*
X430Y596D01*
X1045Y596D02*
X1087Y596D01*
X341Y595D02*
X361Y595D01*
X399Y595D02*
X433Y595D01*
X1047Y595D02*
X1087Y595D01*
X340Y594D02*
X362Y594D01*
X397Y594D02*
X435Y594D01*
X1048Y594D02*
X1087Y594D01*
X339Y593D02*
X362Y593D01*
X396Y593D02*
X436Y593D01*
X1049Y593D02*
X1087Y593D01*
X339Y592D02*
X363Y592D01*
X395Y592D02*
X437Y592D01*
X1050Y592D02*
X1087Y592D01*
X339Y591D02*
X363Y591D01*
X394Y591D02*
X438Y591D01*
X1052Y591D02*
X1087Y591D01*
X339Y590D02*
X362Y590D01*
X393Y590D02*
X438Y590D01*
X1052Y590D02*
X1087Y590D01*
X339Y589D02*
X362Y589D01*
X392Y589D02*
X439Y589D01*
X1053Y589D02*
X1087Y589D01*
X339Y588D02*
X361Y588D01*
X392Y588D02*
X439Y588D01*
X1054Y588D02*
X1087Y588D01*
X339Y587D02*
X360Y587D01*
X392Y587D02*
X439Y587D01*
X1055Y587D02*
X1087Y587D01*
X339Y586D02*
X348Y586D01*
X391Y586D02*
X403Y586D01*
X430Y586D02*
X439Y586D01*
X1078Y586D02*
X1087Y586D01*
X339Y585D02*
X348Y585D01*
X391Y585D02*
X401Y585D01*
X430Y585D02*
X440Y585D01*
X1078Y585D02*
X1087Y585D01*
X339Y584D02*
X348Y584D01*
X391Y584D02*
X400Y584D01*
X430Y584D02*
X439Y584D01*
X1078Y584D02*
X1087Y584D01*
X339Y583D02*
X348Y583D01*
X391Y583D02*
X400Y583D01*
X429Y583D02*
X439Y583D01*
X1078Y583D02*
X1087Y583D01*
X339Y582D02*
X348Y582D01*
X391Y582D02*
X400Y582D01*
X429Y582D02*
X439Y582D01*
X1078Y582D02*
X1087Y582D01*
X339Y581D02*
X348Y581D01*
X391Y581D02*
X400Y581D01*
X428Y581D02*
X439Y581D01*
X1078Y581D02*
X1087Y581D01*
X339Y580D02*
X348Y580D01*
X392Y580D02*
X399Y580D01*
X427Y580D02*
X438Y580D01*
X1078Y580D02*
X1087Y580D01*
X339Y579D02*
X348Y579D01*
X392Y579D02*
X398Y579D01*
X426Y579D02*
X438Y579D01*
X1078Y579D02*
X1087Y579D01*
X339Y578D02*
X348Y578D01*
X394Y578D02*
X397Y578D01*
X425Y578D02*
X437Y578D01*
X1078Y578D02*
X1087Y578D01*
X339Y577D02*
X348Y577D01*
X425Y577D02*
X437Y577D01*
X1078Y577D02*
X1087Y577D01*
X339Y576D02*
X348Y576D01*
X424Y576D02*
X436Y576D01*
X1078Y576D02*
X1087Y576D01*
X266Y575D02*
X277Y575D01*
X339Y575D02*
X348Y575D01*
X423Y575D02*
X435Y575D01*
X550Y575D02*
X569Y575D01*
X766Y575D02*
X774Y575D01*
X911Y575D02*
X915Y575D01*
X1078Y575D02*
X1087Y575D01*
X176Y574D02*
X181Y574D01*
X262Y574D02*
X282Y574D01*
X339Y574D02*
X348Y574D01*
X422Y574D02*
X434Y574D01*
X544Y574D02*
X574Y574D01*
X681Y574D02*
X685Y574D01*
X720Y574D02*
X725Y574D01*
X760Y574D02*
X778Y574D01*
X792Y574D02*
X797Y574D01*
X905Y574D02*
X921Y574D01*
X936Y574D02*
X941Y574D01*
X977Y574D02*
X980Y574D01*
X1078Y574D02*
X1087Y574D01*
X175Y573D02*
X180Y573D01*
X263Y573D02*
X285Y573D01*
X339Y573D02*
X348Y573D01*
X422Y573D02*
X433Y573D01*
X542Y573D02*
X576Y573D01*
X680Y573D02*
X687Y573D01*
X719Y573D02*
X726Y573D01*
X758Y573D02*
X779Y573D01*
X791Y573D02*
X798Y573D01*
X903Y573D02*
X923Y573D01*
X935Y573D02*
X942Y573D01*
X975Y573D02*
X980Y573D01*
X1078Y573D02*
X1087Y573D01*
X174Y572D02*
X180Y572D01*
X263Y572D02*
X286Y572D01*
X339Y572D02*
X348Y572D01*
X421Y572D02*
X433Y572D01*
X540Y572D02*
X578Y572D01*
X679Y572D02*
X687Y572D01*
X719Y572D02*
X727Y572D01*
X757Y572D02*
X780Y572D01*
X791Y572D02*
X799Y572D01*
X902Y572D02*
X924Y572D01*
X935Y572D02*
X943Y572D01*
X974Y572D02*
X980Y572D01*
X1078Y572D02*
X1087Y572D01*
X174Y571D02*
X180Y571D01*
X263Y571D02*
X287Y571D01*
X339Y571D02*
X348Y571D01*
X420Y571D02*
X432Y571D01*
X539Y571D02*
X579Y571D01*
X679Y571D02*
X687Y571D01*
X719Y571D02*
X727Y571D01*
X755Y571D02*
X781Y571D01*
X790Y571D02*
X799Y571D01*
X901Y571D02*
X926Y571D01*
X934Y571D02*
X943Y571D01*
X972Y571D02*
X979Y571D01*
X1078Y571D02*
X1087Y571D01*
X174Y570D02*
X180Y570D01*
X263Y570D02*
X288Y570D01*
X339Y570D02*
X348Y570D01*
X419Y570D02*
X431Y570D01*
X538Y570D02*
X579Y570D01*
X679Y570D02*
X688Y570D01*
X718Y570D02*
X727Y570D01*
X754Y570D02*
X782Y570D01*
X790Y570D02*
X799Y570D01*
X900Y570D02*
X928Y570D01*
X934Y570D02*
X943Y570D01*
X972Y570D02*
X979Y570D01*
X1063Y570D02*
X1087Y570D01*
X174Y569D02*
X179Y569D01*
X264Y569D02*
X290Y569D01*
X339Y569D02*
X348Y569D01*
X418Y569D02*
X430Y569D01*
X537Y569D02*
X579Y569D01*
X679Y569D02*
X688Y569D01*
X718Y569D02*
X727Y569D01*
X754Y569D02*
X783Y569D01*
X790Y569D02*
X799Y569D01*
X899Y569D02*
X929Y569D01*
X934Y569D02*
X943Y569D01*
X971Y569D02*
X979Y569D01*
X1063Y569D02*
X1087Y569D01*
X174Y568D02*
X179Y568D01*
X264Y568D02*
X291Y568D01*
X339Y568D02*
X348Y568D01*
X418Y568D02*
X430Y568D01*
X536Y568D02*
X579Y568D01*
X679Y568D02*
X688Y568D01*
X718Y568D02*
X727Y568D01*
X753Y568D02*
X785Y568D01*
X790Y568D02*
X799Y568D01*
X898Y568D02*
X931Y568D01*
X934Y568D02*
X943Y568D01*
X970Y568D02*
X979Y568D01*
X1063Y568D02*
X1087Y568D01*
X174Y567D02*
X179Y567D01*
X264Y567D02*
X292Y567D01*
X339Y567D02*
X348Y567D01*
X417Y567D02*
X429Y567D01*
X536Y567D02*
X579Y567D01*
X679Y567D02*
X688Y567D01*
X718Y567D02*
X727Y567D01*
X752Y567D02*
X786Y567D01*
X790Y567D02*
X799Y567D01*
X897Y567D02*
X932Y567D01*
X934Y567D02*
X943Y567D01*
X969Y567D02*
X979Y567D01*
X1063Y567D02*
X1087Y567D01*
X174Y566D02*
X179Y566D01*
X264Y566D02*
X292Y566D01*
X339Y566D02*
X348Y566D01*
X416Y566D02*
X428Y566D01*
X536Y566D02*
X579Y566D01*
X679Y566D02*
X688Y566D01*
X718Y566D02*
X727Y566D01*
X752Y566D02*
X787Y566D01*
X790Y566D02*
X799Y566D01*
X897Y566D02*
X943Y566D01*
X969Y566D02*
X978Y566D01*
X1064Y566D02*
X1087Y566D01*
X174Y565D02*
X179Y565D01*
X264Y565D02*
X293Y565D01*
X339Y565D02*
X348Y565D01*
X415Y565D02*
X427Y565D01*
X536Y565D02*
X579Y565D01*
X679Y565D02*
X688Y565D01*
X718Y565D02*
X727Y565D01*
X751Y565D02*
X788Y565D01*
X790Y565D02*
X799Y565D01*
X897Y565D02*
X943Y565D01*
X969Y565D02*
X978Y565D01*
X1064Y565D02*
X1087Y565D01*
X174Y564D02*
X179Y564D01*
X281Y564D02*
X294Y564D01*
X339Y564D02*
X348Y564D01*
X415Y564D02*
X427Y564D01*
X536Y564D02*
X546Y564D01*
X572Y564D02*
X579Y564D01*
X679Y564D02*
X688Y564D01*
X718Y564D02*
X727Y564D01*
X751Y564D02*
X762Y564D01*
X775Y564D02*
X799Y564D01*
X896Y564D02*
X907Y564D01*
X919Y564D02*
X943Y564D01*
X968Y564D02*
X978Y564D01*
X1064Y564D02*
X1087Y564D01*
X174Y563D02*
X179Y563D01*
X282Y563D02*
X294Y563D01*
X339Y563D02*
X348Y563D01*
X414Y563D02*
X426Y563D01*
X537Y563D02*
X544Y563D01*
X573Y563D02*
X578Y563D01*
X679Y563D02*
X688Y563D01*
X718Y563D02*
X727Y563D01*
X751Y563D02*
X761Y563D01*
X776Y563D02*
X799Y563D01*
X896Y563D02*
X906Y563D01*
X921Y563D02*
X943Y563D01*
X968Y563D02*
X978Y563D01*
X1064Y563D02*
X1087Y563D01*
X174Y562D02*
X179Y562D01*
X283Y562D02*
X295Y562D01*
X339Y562D02*
X348Y562D01*
X413Y562D02*
X425Y562D01*
X537Y562D02*
X543Y562D01*
X573Y562D02*
X578Y562D01*
X679Y562D02*
X688Y562D01*
X718Y562D02*
X727Y562D01*
X751Y562D02*
X760Y562D01*
X777Y562D02*
X799Y562D01*
X896Y562D02*
X905Y562D01*
X922Y562D02*
X943Y562D01*
X968Y562D02*
X977Y562D01*
X1064Y562D02*
X1087Y562D01*
X174Y561D02*
X179Y561D01*
X284Y561D02*
X295Y561D01*
X339Y561D02*
X348Y561D01*
X412Y561D02*
X424Y561D01*
X539Y561D02*
X541Y561D01*
X573Y561D02*
X578Y561D01*
X679Y561D02*
X688Y561D01*
X718Y561D02*
X727Y561D01*
X751Y561D02*
X760Y561D01*
X778Y561D02*
X799Y561D01*
X896Y561D02*
X905Y561D01*
X924Y561D02*
X943Y561D01*
X968Y561D02*
X977Y561D01*
X1064Y561D02*
X1087Y561D01*
X174Y560D02*
X179Y560D01*
X285Y560D02*
X295Y560D01*
X339Y560D02*
X348Y560D01*
X411Y560D02*
X423Y560D01*
X572Y560D02*
X578Y560D01*
X679Y560D02*
X688Y560D01*
X718Y560D02*
X727Y560D01*
X751Y560D02*
X760Y560D01*
X779Y560D02*
X799Y560D01*
X896Y560D02*
X905Y560D01*
X925Y560D02*
X943Y560D01*
X968Y560D02*
X977Y560D01*
X1078Y560D02*
X1087Y560D01*
X174Y559D02*
X179Y559D01*
X286Y559D02*
X295Y559D01*
X339Y559D02*
X348Y559D01*
X411Y559D02*
X423Y559D01*
X570Y559D02*
X578Y559D01*
X679Y559D02*
X688Y559D01*
X718Y559D02*
X727Y559D01*
X751Y559D02*
X760Y559D01*
X780Y559D02*
X799Y559D01*
X896Y559D02*
X905Y559D01*
X927Y559D02*
X943Y559D01*
X968Y559D02*
X977Y559D01*
X1078Y559D02*
X1087Y559D01*
X174Y558D02*
X179Y558D01*
X286Y558D02*
X295Y558D01*
X339Y558D02*
X348Y558D01*
X410Y558D02*
X422Y558D01*
X568Y558D02*
X578Y558D01*
X679Y558D02*
X688Y558D01*
X718Y558D02*
X727Y558D01*
X751Y558D02*
X760Y558D01*
X782Y558D02*
X799Y558D01*
X896Y558D02*
X905Y558D01*
X929Y558D02*
X943Y558D01*
X968Y558D02*
X977Y558D01*
X1078Y558D02*
X1087Y558D01*
X174Y557D02*
X179Y557D01*
X286Y557D02*
X296Y557D01*
X339Y557D02*
X348Y557D01*
X409Y557D02*
X421Y557D01*
X566Y557D02*
X579Y557D01*
X679Y557D02*
X688Y557D01*
X718Y557D02*
X727Y557D01*
X751Y557D02*
X760Y557D01*
X783Y557D02*
X799Y557D01*
X896Y557D02*
X905Y557D01*
X930Y557D02*
X943Y557D01*
X968Y557D02*
X977Y557D01*
X1078Y557D02*
X1087Y557D01*
X174Y556D02*
X179Y556D01*
X287Y556D02*
X296Y556D01*
X339Y556D02*
X348Y556D01*
X408Y556D02*
X420Y556D01*
X563Y556D02*
X579Y556D01*
X679Y556D02*
X688Y556D01*
X718Y556D02*
X727Y556D01*
X751Y556D02*
X759Y556D01*
X784Y556D02*
X799Y556D01*
X896Y556D02*
X905Y556D01*
X932Y556D02*
X943Y556D01*
X967Y556D02*
X977Y556D01*
X1078Y556D02*
X1087Y556D01*
X174Y555D02*
X179Y555D01*
X287Y555D02*
X296Y555D01*
X339Y555D02*
X348Y555D01*
X408Y555D02*
X420Y555D01*
X561Y555D02*
X579Y555D01*
X679Y555D02*
X688Y555D01*
X718Y555D02*
X727Y555D01*
X751Y555D02*
X759Y555D01*
X785Y555D02*
X799Y555D01*
X896Y555D02*
X905Y555D01*
X933Y555D02*
X943Y555D01*
X967Y555D02*
X977Y555D01*
X1078Y555D02*
X1087Y555D01*
X174Y554D02*
X179Y554D01*
X287Y554D02*
X296Y554D01*
X339Y554D02*
X348Y554D01*
X407Y554D02*
X419Y554D01*
X559Y554D02*
X579Y554D01*
X679Y554D02*
X688Y554D01*
X718Y554D02*
X727Y554D01*
X752Y554D02*
X758Y554D01*
X786Y554D02*
X799Y554D01*
X896Y554D02*
X905Y554D01*
X934Y554D02*
X943Y554D01*
X967Y554D02*
X977Y554D01*
X1078Y554D02*
X1087Y554D01*
X174Y553D02*
X179Y553D01*
X287Y553D02*
X296Y553D01*
X339Y553D02*
X348Y553D01*
X406Y553D02*
X418Y553D01*
X556Y553D02*
X578Y553D01*
X679Y553D02*
X688Y553D01*
X718Y553D02*
X727Y553D01*
X753Y553D02*
X757Y553D01*
X787Y553D02*
X799Y553D01*
X895Y553D02*
X905Y553D01*
X934Y553D02*
X943Y553D01*
X967Y553D02*
X979Y553D01*
X1078Y553D02*
X1087Y553D01*
X175Y552D02*
X180Y552D01*
X287Y552D02*
X296Y552D01*
X339Y552D02*
X348Y552D01*
X405Y552D02*
X417Y552D01*
X554Y552D02*
X577Y552D01*
X679Y552D02*
X688Y552D01*
X718Y552D02*
X727Y552D01*
X789Y552D02*
X799Y552D01*
X895Y552D02*
X905Y552D01*
X934Y552D02*
X943Y552D01*
X967Y552D02*
X979Y552D01*
X1078Y552D02*
X1087Y552D01*
X175Y551D02*
X180Y551D01*
X287Y551D02*
X296Y551D01*
X339Y551D02*
X348Y551D01*
X404Y551D02*
X416Y551D01*
X552Y551D02*
X576Y551D01*
X679Y551D02*
X688Y551D01*
X718Y551D02*
X727Y551D01*
X790Y551D02*
X799Y551D01*
X895Y551D02*
X904Y551D01*
X934Y551D02*
X943Y551D01*
X967Y551D02*
X979Y551D01*
X1078Y551D02*
X1087Y551D01*
X175Y550D02*
X180Y550D01*
X287Y550D02*
X296Y550D01*
X339Y550D02*
X348Y550D01*
X404Y550D02*
X416Y550D01*
X549Y550D02*
X574Y550D01*
X679Y550D02*
X688Y550D01*
X718Y550D02*
X727Y550D01*
X790Y550D02*
X799Y550D01*
X895Y550D02*
X904Y550D01*
X934Y550D02*
X943Y550D01*
X967Y550D02*
X980Y550D01*
X1078Y550D02*
X1087Y550D01*
X175Y549D02*
X180Y549D01*
X287Y549D02*
X296Y549D01*
X339Y549D02*
X348Y549D01*
X403Y549D02*
X415Y549D01*
X547Y549D02*
X571Y549D01*
X679Y549D02*
X688Y549D01*
X718Y549D02*
X727Y549D01*
X790Y549D02*
X799Y549D01*
X895Y549D02*
X904Y549D01*
X934Y549D02*
X943Y549D01*
X967Y549D02*
X980Y549D01*
X1078Y549D02*
X1087Y549D01*
X175Y548D02*
X181Y548D01*
X287Y548D02*
X296Y548D01*
X339Y548D02*
X348Y548D01*
X402Y548D02*
X414Y548D01*
X545Y548D02*
X569Y548D01*
X679Y548D02*
X688Y548D01*
X718Y548D02*
X727Y548D01*
X790Y548D02*
X799Y548D01*
X895Y548D02*
X904Y548D01*
X934Y548D02*
X943Y548D01*
X967Y548D02*
X980Y548D01*
X1078Y548D02*
X1087Y548D01*
X175Y547D02*
X181Y547D01*
X287Y547D02*
X296Y547D01*
X339Y547D02*
X348Y547D01*
X401Y547D02*
X413Y547D01*
X543Y547D02*
X567Y547D01*
X679Y547D02*
X688Y547D01*
X718Y547D02*
X727Y547D01*
X790Y547D02*
X799Y547D01*
X895Y547D02*
X904Y547D01*
X934Y547D02*
X943Y547D01*
X967Y547D02*
X980Y547D01*
X1078Y547D02*
X1087Y547D01*
X175Y546D02*
X181Y546D01*
X287Y546D02*
X296Y546D01*
X339Y546D02*
X348Y546D01*
X401Y546D02*
X413Y546D01*
X541Y546D02*
X564Y546D01*
X679Y546D02*
X688Y546D01*
X717Y546D02*
X727Y546D01*
X790Y546D02*
X799Y546D01*
X895Y546D02*
X904Y546D01*
X934Y546D02*
X943Y546D01*
X967Y546D02*
X981Y546D01*
X1078Y546D02*
X1087Y546D01*
X175Y545D02*
X182Y545D01*
X287Y545D02*
X296Y545D01*
X339Y545D02*
X348Y545D01*
X400Y545D02*
X412Y545D01*
X540Y545D02*
X562Y545D01*
X679Y545D02*
X688Y545D01*
X717Y545D02*
X727Y545D01*
X790Y545D02*
X799Y545D01*
X895Y545D02*
X904Y545D01*
X934Y545D02*
X943Y545D01*
X967Y545D02*
X981Y545D01*
X1078Y545D02*
X1087Y545D01*
X175Y544D02*
X182Y544D01*
X287Y544D02*
X296Y544D01*
X339Y544D02*
X348Y544D01*
X399Y544D02*
X411Y544D01*
X539Y544D02*
X560Y544D01*
X679Y544D02*
X688Y544D01*
X717Y544D02*
X726Y544D01*
X790Y544D02*
X799Y544D01*
X895Y544D02*
X904Y544D01*
X934Y544D02*
X943Y544D01*
X967Y544D02*
X982Y544D01*
X1078Y544D02*
X1087Y544D01*
X175Y543D02*
X183Y543D01*
X287Y543D02*
X296Y543D01*
X339Y543D02*
X348Y543D01*
X398Y543D02*
X410Y543D01*
X538Y543D02*
X557Y543D01*
X679Y543D02*
X688Y543D01*
X717Y543D02*
X726Y543D01*
X790Y543D02*
X799Y543D01*
X895Y543D02*
X904Y543D01*
X934Y543D02*
X943Y543D01*
X967Y543D02*
X979Y543D01*
X1078Y543D02*
X1087Y543D01*
X175Y542D02*
X183Y542D01*
X287Y542D02*
X296Y542D01*
X339Y542D02*
X348Y542D01*
X397Y542D02*
X409Y542D01*
X537Y542D02*
X555Y542D01*
X679Y542D02*
X688Y542D01*
X717Y542D02*
X726Y542D01*
X790Y542D02*
X799Y542D01*
X895Y542D02*
X904Y542D01*
X934Y542D02*
X943Y542D01*
X967Y542D02*
X977Y542D01*
X1078Y542D02*
X1087Y542D01*
X175Y541D02*
X184Y541D01*
X287Y541D02*
X296Y541D01*
X339Y541D02*
X348Y541D01*
X397Y541D02*
X409Y541D01*
X537Y541D02*
X553Y541D01*
X679Y541D02*
X688Y541D01*
X717Y541D02*
X726Y541D01*
X790Y541D02*
X799Y541D01*
X895Y541D02*
X904Y541D01*
X934Y541D02*
X943Y541D01*
X967Y541D02*
X977Y541D01*
X1078Y541D02*
X1087Y541D01*
X175Y540D02*
X184Y540D01*
X287Y540D02*
X296Y540D01*
X339Y540D02*
X348Y540D01*
X396Y540D02*
X408Y540D01*
X536Y540D02*
X551Y540D01*
X679Y540D02*
X688Y540D01*
X717Y540D02*
X726Y540D01*
X790Y540D02*
X799Y540D01*
X895Y540D02*
X904Y540D01*
X934Y540D02*
X943Y540D01*
X967Y540D02*
X976Y540D01*
X1078Y540D02*
X1087Y540D01*
X175Y539D02*
X185Y539D01*
X287Y539D02*
X296Y539D01*
X339Y539D02*
X348Y539D01*
X395Y539D02*
X407Y539D01*
X536Y539D02*
X548Y539D01*
X679Y539D02*
X688Y539D01*
X717Y539D02*
X726Y539D01*
X790Y539D02*
X799Y539D01*
X895Y539D02*
X904Y539D01*
X934Y539D02*
X943Y539D01*
X967Y539D02*
X976Y539D01*
X1078Y539D02*
X1087Y539D01*
X175Y538D02*
X185Y538D01*
X287Y538D02*
X296Y538D01*
X339Y538D02*
X348Y538D01*
X394Y538D02*
X406Y538D01*
X535Y538D02*
X546Y538D01*
X679Y538D02*
X689Y538D01*
X717Y538D02*
X726Y538D01*
X790Y538D02*
X799Y538D01*
X895Y538D02*
X904Y538D01*
X934Y538D02*
X943Y538D01*
X967Y538D02*
X976Y538D01*
X1078Y538D02*
X1087Y538D01*
X176Y537D02*
X185Y537D01*
X287Y537D02*
X296Y537D01*
X339Y537D02*
X348Y537D01*
X394Y537D02*
X406Y537D01*
X535Y537D02*
X545Y537D01*
X679Y537D02*
X690Y537D01*
X717Y537D02*
X726Y537D01*
X790Y537D02*
X799Y537D01*
X895Y537D02*
X904Y537D01*
X934Y537D02*
X943Y537D01*
X967Y537D02*
X976Y537D01*
X1078Y537D02*
X1087Y537D01*
X176Y536D02*
X185Y536D01*
X256Y536D02*
X256Y536D01*
X286Y536D02*
X296Y536D01*
X339Y536D02*
X348Y536D01*
X393Y536D02*
X405Y536D01*
X433Y536D02*
X437Y536D01*
X535Y536D02*
X545Y536D01*
X679Y536D02*
X692Y536D01*
X717Y536D02*
X726Y536D01*
X790Y536D02*
X799Y536D01*
X895Y536D02*
X904Y536D01*
X934Y536D02*
X943Y536D01*
X967Y536D02*
X976Y536D01*
X1078Y536D02*
X1087Y536D01*
X176Y535D02*
X186Y535D01*
X256Y535D02*
X256Y535D01*
X286Y535D02*
X295Y535D01*
X339Y535D02*
X348Y535D01*
X392Y535D02*
X404Y535D01*
X432Y535D02*
X438Y535D01*
X535Y535D02*
X544Y535D01*
X655Y535D02*
X655Y535D01*
X679Y535D02*
X694Y535D01*
X717Y535D02*
X726Y535D01*
X790Y535D02*
X799Y535D01*
X895Y535D02*
X904Y535D01*
X934Y535D02*
X943Y535D01*
X967Y535D02*
X976Y535D01*
X1078Y535D02*
X1087Y535D01*
X176Y534D02*
X186Y534D01*
X255Y534D02*
X257Y534D01*
X286Y534D02*
X295Y534D01*
X339Y534D02*
X348Y534D01*
X392Y534D02*
X403Y534D01*
X431Y534D02*
X439Y534D01*
X535Y534D02*
X544Y534D01*
X655Y534D02*
X655Y534D01*
X679Y534D02*
X695Y534D01*
X717Y534D02*
X726Y534D01*
X790Y534D02*
X799Y534D01*
X895Y534D02*
X904Y534D01*
X934Y534D02*
X943Y534D01*
X967Y534D02*
X977Y534D01*
X1078Y534D02*
X1087Y534D01*
X177Y533D02*
X186Y533D01*
X254Y533D02*
X257Y533D01*
X285Y533D02*
X295Y533D01*
X339Y533D02*
X348Y533D01*
X391Y533D02*
X402Y533D01*
X431Y533D02*
X439Y533D01*
X535Y533D02*
X544Y533D01*
X654Y533D02*
X655Y533D01*
X679Y533D02*
X697Y533D01*
X717Y533D02*
X726Y533D01*
X790Y533D02*
X799Y533D01*
X895Y533D02*
X904Y533D01*
X934Y533D02*
X943Y533D01*
X967Y533D02*
X979Y533D01*
X1078Y533D02*
X1087Y533D01*
X177Y532D02*
X187Y532D01*
X189Y532D02*
X190Y532D01*
X253Y532D02*
X258Y532D01*
X284Y532D02*
X295Y532D01*
X339Y532D02*
X348Y532D01*
X391Y532D02*
X402Y532D01*
X430Y532D02*
X439Y532D01*
X535Y532D02*
X544Y532D01*
X577Y532D02*
X581Y532D01*
X653Y532D02*
X655Y532D01*
X679Y532D02*
X698Y532D01*
X717Y532D02*
X726Y532D01*
X790Y532D02*
X799Y532D01*
X895Y532D02*
X904Y532D01*
X934Y532D02*
X943Y532D01*
X967Y532D02*
X981Y532D01*
X1078Y532D02*
X1087Y532D01*
X177Y531D02*
X187Y531D01*
X189Y531D02*
X191Y531D01*
X252Y531D02*
X259Y531D01*
X283Y531D02*
X295Y531D01*
X339Y531D02*
X348Y531D01*
X391Y531D02*
X401Y531D01*
X430Y531D02*
X439Y531D01*
X535Y531D02*
X545Y531D01*
X576Y531D02*
X582Y531D01*
X652Y531D02*
X655Y531D01*
X679Y531D02*
X700Y531D01*
X716Y531D02*
X726Y531D01*
X790Y531D02*
X799Y531D01*
X895Y531D02*
X904Y531D01*
X934Y531D02*
X943Y531D01*
X967Y531D02*
X982Y531D01*
X1078Y531D02*
X1087Y531D01*
X178Y530D02*
X192Y530D01*
X251Y530D02*
X261Y530D01*
X282Y530D02*
X294Y530D01*
X339Y530D02*
X348Y530D01*
X391Y530D02*
X400Y530D01*
X430Y530D02*
X439Y530D01*
X535Y530D02*
X545Y530D01*
X574Y530D02*
X583Y530D01*
X651Y530D02*
X655Y530D01*
X679Y530D02*
X701Y530D01*
X716Y530D02*
X726Y530D01*
X790Y530D02*
X799Y530D01*
X895Y530D02*
X904Y530D01*
X934Y530D02*
X943Y530D01*
X967Y530D02*
X984Y530D01*
X1078Y530D02*
X1087Y530D01*
X178Y529D02*
X193Y529D01*
X250Y529D02*
X262Y529D01*
X280Y529D02*
X294Y529D01*
X339Y529D02*
X348Y529D01*
X391Y529D02*
X400Y529D01*
X429Y529D02*
X439Y529D01*
X536Y529D02*
X547Y529D01*
X572Y529D02*
X583Y529D01*
X650Y529D02*
X655Y529D01*
X679Y529D02*
X703Y529D01*
X714Y529D02*
X725Y529D01*
X790Y529D02*
X799Y529D01*
X895Y529D02*
X904Y529D01*
X934Y529D02*
X943Y529D01*
X967Y529D02*
X986Y529D01*
X1078Y529D02*
X1087Y529D01*
X178Y528D02*
X194Y528D01*
X250Y528D02*
X293Y528D01*
X327Y528D02*
X359Y528D01*
X391Y528D02*
X439Y528D01*
X536Y528D02*
X583Y528D01*
X648Y528D02*
X655Y528D01*
X679Y528D02*
X725Y528D01*
X790Y528D02*
X799Y528D01*
X895Y528D02*
X904Y528D01*
X934Y528D02*
X943Y528D01*
X967Y528D02*
X994Y528D01*
X1078Y528D02*
X1087Y528D01*
X179Y527D02*
X196Y527D01*
X250Y527D02*
X292Y527D01*
X326Y527D02*
X361Y527D01*
X391Y527D02*
X439Y527D01*
X536Y527D02*
X583Y527D01*
X647Y527D02*
X655Y527D01*
X679Y527D02*
X725Y527D01*
X790Y527D02*
X799Y527D01*
X895Y527D02*
X904Y527D01*
X934Y527D02*
X943Y527D01*
X966Y527D02*
X995Y527D01*
X1078Y527D02*
X1087Y527D01*
X179Y526D02*
X196Y526D01*
X251Y526D02*
X291Y526D01*
X325Y526D02*
X362Y526D01*
X391Y526D02*
X438Y526D01*
X537Y526D02*
X583Y526D01*
X646Y526D02*
X655Y526D01*
X679Y526D02*
X688Y526D01*
X690Y526D02*
X724Y526D01*
X790Y526D02*
X799Y526D01*
X895Y526D02*
X904Y526D01*
X934Y526D02*
X943Y526D01*
X966Y526D02*
X997Y526D01*
X1078Y526D02*
X1087Y526D01*
X179Y525D02*
X196Y525D01*
X252Y525D02*
X290Y525D01*
X324Y525D02*
X362Y525D01*
X392Y525D02*
X438Y525D01*
X537Y525D02*
X583Y525D01*
X646Y525D02*
X655Y525D01*
X679Y525D02*
X688Y525D01*
X692Y525D02*
X724Y525D01*
X790Y525D02*
X799Y525D01*
X895Y525D02*
X904Y525D01*
X934Y525D02*
X943Y525D01*
X966Y525D02*
X998Y525D01*
X1078Y525D02*
X1087Y525D01*
X179Y524D02*
X195Y524D01*
X253Y524D02*
X289Y524D01*
X324Y524D02*
X363Y524D01*
X392Y524D02*
X437Y524D01*
X538Y524D02*
X582Y524D01*
X646Y524D02*
X655Y524D01*
X679Y524D02*
X688Y524D01*
X693Y524D02*
X723Y524D01*
X790Y524D02*
X799Y524D01*
X895Y524D02*
X904Y524D01*
X934Y524D02*
X943Y524D01*
X966Y524D02*
X1000Y524D01*
X1078Y524D02*
X1087Y524D01*
X180Y523D02*
X195Y523D01*
X254Y523D02*
X288Y523D01*
X324Y523D02*
X363Y523D01*
X393Y523D02*
X436Y523D01*
X539Y523D02*
X581Y523D01*
X646Y523D02*
X655Y523D01*
X679Y523D02*
X688Y523D01*
X695Y523D02*
X722Y523D01*
X790Y523D02*
X799Y523D01*
X895Y523D02*
X903Y523D01*
X934Y523D02*
X943Y523D01*
X966Y523D02*
X1002Y523D01*
X1078Y523D02*
X1087Y523D01*
X180Y522D02*
X194Y522D01*
X256Y522D02*
X287Y522D01*
X324Y522D02*
X362Y522D01*
X394Y522D02*
X435Y522D01*
X540Y522D02*
X579Y522D01*
X647Y522D02*
X655Y522D01*
X679Y522D02*
X687Y522D01*
X696Y522D02*
X721Y522D01*
X790Y522D02*
X799Y522D01*
X895Y522D02*
X903Y522D01*
X934Y522D02*
X943Y522D01*
X967Y522D02*
X975Y522D01*
X979Y522D02*
X1004Y522D01*
X1078Y522D02*
X1087Y522D01*
X180Y521D02*
X193Y521D01*
X205Y521D02*
X207Y521D01*
X257Y521D02*
X286Y521D01*
X324Y521D02*
X362Y521D01*
X395Y521D02*
X434Y521D01*
X541Y521D02*
X578Y521D01*
X607Y521D02*
X607Y521D01*
X647Y521D02*
X655Y521D01*
X679Y521D02*
X687Y521D01*
X698Y521D02*
X720Y521D01*
X791Y521D02*
X799Y521D01*
X895Y521D02*
X903Y521D01*
X935Y521D02*
X943Y521D01*
X967Y521D02*
X975Y521D01*
X980Y521D02*
X1006Y521D01*
X1079Y521D02*
X1086Y521D01*
X181Y520D02*
X193Y520D01*
X206Y520D02*
X210Y520D01*
X259Y520D02*
X284Y520D01*
X325Y520D02*
X361Y520D01*
X396Y520D02*
X433Y520D01*
X543Y520D02*
X576Y520D01*
X608Y520D02*
X610Y520D01*
X648Y520D02*
X654Y520D01*
X680Y520D02*
X686Y520D01*
X700Y520D02*
X718Y520D01*
X792Y520D02*
X798Y520D01*
X896Y520D02*
X902Y520D01*
X935Y520D02*
X942Y520D01*
X968Y520D02*
X974Y520D01*
X982Y520D02*
X1007Y520D01*
X1079Y520D02*
X1086Y520D01*
X182Y519D02*
X192Y519D01*
X207Y519D02*
X215Y519D01*
X261Y519D02*
X281Y519D01*
X326Y519D02*
X360Y519D01*
X398Y519D02*
X430Y519D01*
X545Y519D02*
X573Y519D01*
X609Y519D02*
X613Y519D01*
X649Y519D02*
X653Y519D01*
X681Y519D02*
X685Y519D01*
X702Y519D02*
X716Y519D01*
X793Y519D02*
X797Y519D01*
X897Y519D02*
X901Y519D01*
X937Y519D02*
X941Y519D01*
X969Y519D02*
X973Y519D01*
X984Y519D02*
X1005Y519D01*
X1081Y519D02*
X1085Y519D01*
X532Y346D02*
X549Y346D01*
X892Y346D02*
X893Y346D01*
X1061Y346D02*
X1080Y346D01*
X530Y345D02*
X553Y345D01*
X889Y345D02*
X895Y345D01*
X1061Y345D02*
X1080Y345D01*
X529Y344D02*
X555Y344D01*
X888Y344D02*
X896Y344D01*
X1060Y344D02*
X1080Y344D01*
X528Y343D02*
X556Y343D01*
X888Y343D02*
X896Y343D01*
X1060Y343D02*
X1080Y343D01*
X528Y342D02*
X557Y342D01*
X888Y342D02*
X896Y342D01*
X1059Y342D02*
X1080Y342D01*
X528Y341D02*
X558Y341D01*
X887Y341D02*
X897Y341D01*
X1059Y341D02*
X1080Y341D01*
X528Y340D02*
X559Y340D01*
X887Y340D02*
X897Y340D01*
X1058Y340D02*
X1080Y340D01*
X528Y339D02*
X560Y339D01*
X887Y339D02*
X897Y339D01*
X1058Y339D02*
X1080Y339D01*
X529Y338D02*
X561Y338D01*
X887Y338D02*
X897Y338D01*
X1057Y338D02*
X1080Y338D01*
X530Y337D02*
X561Y337D01*
X887Y337D02*
X897Y337D01*
X1056Y337D02*
X1080Y337D01*
X549Y336D02*
X562Y336D01*
X887Y336D02*
X897Y336D01*
X1071Y336D02*
X1080Y336D01*
X289Y335D02*
X292Y335D01*
X551Y335D02*
X563Y335D01*
X728Y335D02*
X758Y335D01*
X887Y335D02*
X897Y335D01*
X1071Y335D02*
X1080Y335D01*
X288Y334D02*
X293Y334D01*
X552Y334D02*
X564Y334D01*
X726Y334D02*
X760Y334D01*
X887Y334D02*
X897Y334D01*
X1054Y334D02*
X1054Y334D01*
X1071Y334D02*
X1080Y334D01*
X186Y333D02*
X189Y333D01*
X287Y333D02*
X294Y333D01*
X553Y333D02*
X564Y333D01*
X724Y333D02*
X762Y333D01*
X887Y333D02*
X897Y333D01*
X1053Y333D02*
X1054Y333D01*
X1071Y333D02*
X1080Y333D01*
X184Y332D02*
X190Y332D01*
X286Y332D02*
X295Y332D01*
X553Y332D02*
X565Y332D01*
X723Y332D02*
X763Y332D01*
X887Y332D02*
X897Y332D01*
X1052Y332D02*
X1054Y332D01*
X1071Y332D02*
X1080Y332D01*
X184Y331D02*
X191Y331D01*
X286Y331D02*
X295Y331D01*
X554Y331D02*
X566Y331D01*
X680Y331D02*
X680Y331D01*
X721Y331D02*
X764Y331D01*
X887Y331D02*
X897Y331D01*
X1051Y331D02*
X1054Y331D01*
X1071Y331D02*
X1080Y331D01*
X183Y330D02*
X192Y330D01*
X286Y330D02*
X295Y330D01*
X555Y330D02*
X567Y330D01*
X678Y330D02*
X683Y330D01*
X721Y330D02*
X765Y330D01*
X887Y330D02*
X897Y330D01*
X1050Y330D02*
X1054Y330D01*
X1071Y330D02*
X1080Y330D01*
X183Y329D02*
X193Y329D01*
X286Y329D02*
X295Y329D01*
X556Y329D02*
X567Y329D01*
X677Y329D02*
X684Y329D01*
X720Y329D02*
X765Y329D01*
X887Y329D02*
X897Y329D01*
X1049Y329D02*
X1054Y329D01*
X1071Y329D02*
X1080Y329D01*
X183Y328D02*
X195Y328D01*
X286Y328D02*
X295Y328D01*
X556Y328D02*
X568Y328D01*
X676Y328D02*
X684Y328D01*
X719Y328D02*
X766Y328D01*
X887Y328D02*
X897Y328D01*
X1048Y328D02*
X1054Y328D01*
X1071Y328D02*
X1080Y328D01*
X183Y327D02*
X196Y327D01*
X286Y327D02*
X295Y327D01*
X557Y327D02*
X569Y327D01*
X676Y327D02*
X684Y327D01*
X719Y327D02*
X766Y327D01*
X887Y327D02*
X897Y327D01*
X1047Y327D02*
X1054Y327D01*
X1071Y327D02*
X1080Y327D01*
X183Y326D02*
X197Y326D01*
X286Y326D02*
X295Y326D01*
X558Y326D02*
X570Y326D01*
X676Y326D02*
X685Y326D01*
X718Y326D02*
X766Y326D01*
X887Y326D02*
X897Y326D01*
X1045Y326D02*
X1054Y326D01*
X1071Y326D02*
X1080Y326D01*
X183Y325D02*
X199Y325D01*
X244Y325D02*
X245Y325D01*
X257Y325D02*
X260Y325D01*
X286Y325D02*
X295Y325D01*
X331Y325D02*
X342Y325D01*
X403Y325D02*
X414Y325D01*
X471Y325D02*
X479Y325D01*
X559Y325D02*
X571Y325D01*
X676Y325D02*
X685Y325D01*
X687Y325D02*
X695Y325D01*
X718Y325D02*
X729Y325D01*
X757Y325D02*
X773Y325D01*
X887Y325D02*
X897Y325D01*
X912Y325D02*
X917Y325D01*
X978Y325D02*
X989Y325D01*
X1045Y325D02*
X1054Y325D01*
X1071Y325D02*
X1080Y325D01*
X183Y324D02*
X201Y324D01*
X243Y324D02*
X245Y324D01*
X251Y324D02*
X266Y324D01*
X282Y324D02*
X295Y324D01*
X325Y324D02*
X347Y324D01*
X397Y324D02*
X419Y324D01*
X465Y324D02*
X483Y324D01*
X498Y324D02*
X502Y324D01*
X560Y324D02*
X571Y324D01*
X676Y324D02*
X699Y324D01*
X713Y324D02*
X728Y324D01*
X757Y324D02*
X779Y324D01*
X887Y324D02*
X897Y324D01*
X906Y324D02*
X923Y324D01*
X973Y324D02*
X995Y324D01*
X1045Y324D02*
X1054Y324D01*
X1071Y324D02*
X1080Y324D01*
X183Y323D02*
X202Y323D01*
X241Y323D02*
X245Y323D01*
X249Y323D02*
X268Y323D01*
X281Y323D02*
X295Y323D01*
X323Y323D02*
X349Y323D01*
X395Y323D02*
X421Y323D01*
X463Y323D02*
X484Y323D01*
X497Y323D02*
X503Y323D01*
X560Y323D02*
X572Y323D01*
X676Y323D02*
X700Y323D01*
X712Y323D02*
X727Y323D01*
X755Y323D02*
X781Y323D01*
X887Y323D02*
X897Y323D01*
X904Y323D02*
X925Y323D01*
X971Y323D02*
X997Y323D01*
X1040Y323D02*
X1041Y323D01*
X1045Y323D02*
X1054Y323D01*
X1071Y323D02*
X1080Y323D01*
X183Y322D02*
X202Y322D01*
X239Y322D02*
X245Y322D01*
X247Y322D02*
X270Y322D01*
X280Y322D02*
X295Y322D01*
X322Y322D02*
X351Y322D01*
X393Y322D02*
X423Y322D01*
X462Y322D02*
X485Y322D01*
X496Y322D02*
X504Y322D01*
X561Y322D02*
X573Y322D01*
X676Y322D02*
X701Y322D01*
X712Y322D02*
X727Y322D01*
X753Y322D02*
X783Y322D01*
X887Y322D02*
X897Y322D01*
X902Y322D02*
X927Y322D01*
X969Y322D02*
X998Y322D01*
X1038Y322D02*
X1042Y322D01*
X1045Y322D02*
X1054Y322D01*
X1071Y322D02*
X1080Y322D01*
X183Y321D02*
X202Y321D01*
X236Y321D02*
X271Y321D01*
X280Y321D02*
X295Y321D01*
X320Y321D02*
X352Y321D01*
X392Y321D02*
X424Y321D01*
X461Y321D02*
X486Y321D01*
X496Y321D02*
X504Y321D01*
X562Y321D02*
X573Y321D01*
X676Y321D02*
X702Y321D01*
X711Y321D02*
X727Y321D01*
X752Y321D02*
X784Y321D01*
X887Y321D02*
X897Y321D01*
X901Y321D02*
X928Y321D01*
X968Y321D02*
X1000Y321D01*
X1035Y321D02*
X1054Y321D01*
X1071Y321D02*
X1080Y321D01*
X183Y320D02*
X202Y320D01*
X232Y320D02*
X273Y320D01*
X280Y320D02*
X295Y320D01*
X319Y320D02*
X353Y320D01*
X391Y320D02*
X425Y320D01*
X460Y320D02*
X487Y320D01*
X495Y320D02*
X504Y320D01*
X563Y320D02*
X574Y320D01*
X676Y320D02*
X703Y320D01*
X711Y320D02*
X726Y320D01*
X751Y320D02*
X785Y320D01*
X887Y320D02*
X897Y320D01*
X900Y320D02*
X929Y320D01*
X967Y320D02*
X1001Y320D01*
X1033Y320D02*
X1080Y320D01*
X183Y319D02*
X202Y319D01*
X232Y319D02*
X275Y319D01*
X280Y319D02*
X295Y319D01*
X318Y319D02*
X354Y319D01*
X390Y319D02*
X426Y319D01*
X459Y319D02*
X489Y319D01*
X495Y319D02*
X505Y319D01*
X563Y319D02*
X575Y319D01*
X675Y319D02*
X704Y319D01*
X711Y319D02*
X726Y319D01*
X750Y319D02*
X786Y319D01*
X887Y319D02*
X897Y319D01*
X899Y319D02*
X930Y319D01*
X965Y319D02*
X1002Y319D01*
X1033Y319D02*
X1080Y319D01*
X183Y318D02*
X201Y318D01*
X232Y318D02*
X276Y318D01*
X280Y318D02*
X295Y318D01*
X317Y318D02*
X356Y318D01*
X389Y318D02*
X428Y318D01*
X458Y318D02*
X490Y318D01*
X495Y318D02*
X505Y318D01*
X564Y318D02*
X575Y318D01*
X674Y318D02*
X706Y318D01*
X711Y318D02*
X725Y318D01*
X749Y318D02*
X787Y318D01*
X887Y318D02*
X931Y318D01*
X964Y318D02*
X1003Y318D01*
X1034Y318D02*
X1080Y318D01*
X184Y317D02*
X201Y317D01*
X232Y317D02*
X295Y317D01*
X316Y317D02*
X357Y317D01*
X388Y317D02*
X429Y317D01*
X458Y317D02*
X491Y317D01*
X495Y317D02*
X505Y317D01*
X565Y317D02*
X575Y317D01*
X673Y317D02*
X707Y317D01*
X711Y317D02*
X720Y317D01*
X722Y317D02*
X723Y317D01*
X748Y317D02*
X788Y317D01*
X887Y317D02*
X932Y317D01*
X963Y317D02*
X1004Y317D01*
X1034Y317D02*
X1080Y317D01*
X185Y316D02*
X200Y316D01*
X232Y316D02*
X295Y316D01*
X315Y316D02*
X357Y316D01*
X387Y316D02*
X429Y316D01*
X451Y316D02*
X492Y316D01*
X495Y316D02*
X505Y316D01*
X523Y316D02*
X529Y316D01*
X545Y316D02*
X547Y316D01*
X566Y316D02*
X576Y316D01*
X673Y316D02*
X708Y316D01*
X711Y316D02*
X720Y316D01*
X747Y316D02*
X789Y316D01*
X887Y316D02*
X933Y316D01*
X963Y316D02*
X1005Y316D01*
X1035Y316D02*
X1080Y316D01*
X187Y315D02*
X197Y315D01*
X232Y315D02*
X295Y315D01*
X314Y315D02*
X358Y315D01*
X386Y315D02*
X430Y315D01*
X448Y315D02*
X493Y315D01*
X495Y315D02*
X505Y315D01*
X520Y315D02*
X533Y315D01*
X543Y315D02*
X549Y315D01*
X566Y315D02*
X576Y315D01*
X672Y315D02*
X709Y315D01*
X711Y315D02*
X720Y315D01*
X746Y315D02*
X790Y315D01*
X887Y315D02*
X934Y315D01*
X962Y315D02*
X1006Y315D01*
X1036Y315D02*
X1080Y315D01*
X232Y314D02*
X253Y314D01*
X265Y314D02*
X295Y314D01*
X308Y314D02*
X326Y314D01*
X346Y314D02*
X359Y314D01*
X374Y314D02*
X398Y314D01*
X418Y314D02*
X431Y314D01*
X446Y314D02*
X467Y314D01*
X471Y314D02*
X478Y314D01*
X480Y314D02*
X505Y314D01*
X518Y314D02*
X534Y314D01*
X542Y314D02*
X550Y314D01*
X567Y314D02*
X576Y314D01*
X590Y314D02*
X606Y314D01*
X655Y314D02*
X690Y314D01*
X696Y314D02*
X720Y314D01*
X745Y314D02*
X762Y314D01*
X778Y314D02*
X790Y314D01*
X876Y314D02*
X885Y314D01*
X887Y314D02*
X907Y314D01*
X921Y314D02*
X934Y314D01*
X948Y314D02*
X974Y314D01*
X993Y314D02*
X1006Y314D01*
X1037Y314D02*
X1080Y314D01*
X233Y313D02*
X251Y313D01*
X266Y313D02*
X295Y313D01*
X304Y313D02*
X325Y313D01*
X347Y313D02*
X359Y313D01*
X371Y313D02*
X397Y313D01*
X419Y313D02*
X431Y313D01*
X444Y313D02*
X466Y313D01*
X470Y313D02*
X478Y313D01*
X481Y313D02*
X505Y313D01*
X516Y313D02*
X536Y313D01*
X542Y313D02*
X550Y313D01*
X567Y313D02*
X576Y313D01*
X587Y313D02*
X610Y313D01*
X653Y313D02*
X693Y313D01*
X697Y313D02*
X720Y313D01*
X745Y313D02*
X761Y313D01*
X779Y313D02*
X791Y313D01*
X872Y313D02*
X908Y313D01*
X923Y313D02*
X935Y313D01*
X944Y313D02*
X973Y313D01*
X995Y313D02*
X1007Y313D01*
X1039Y313D02*
X1080Y313D01*
X233Y312D02*
X251Y312D01*
X268Y312D02*
X295Y312D01*
X302Y312D02*
X324Y312D01*
X348Y312D02*
X360Y312D01*
X369Y312D02*
X396Y312D01*
X420Y312D02*
X431Y312D01*
X443Y312D02*
X465Y312D01*
X470Y312D02*
X479Y312D01*
X482Y312D02*
X505Y312D01*
X515Y312D02*
X537Y312D01*
X542Y312D02*
X550Y312D01*
X567Y312D02*
X576Y312D01*
X585Y312D02*
X612Y312D01*
X652Y312D02*
X694Y312D01*
X698Y312D02*
X720Y312D01*
X744Y312D02*
X760Y312D01*
X780Y312D02*
X791Y312D01*
X870Y312D02*
X909Y312D01*
X924Y312D02*
X935Y312D01*
X942Y312D02*
X971Y312D01*
X996Y312D02*
X1007Y312D01*
X1040Y312D02*
X1080Y312D01*
X233Y311D02*
X250Y311D01*
X269Y311D02*
X295Y311D01*
X301Y311D02*
X325Y311D01*
X349Y311D02*
X360Y311D01*
X367Y311D02*
X397Y311D01*
X421Y311D02*
X432Y311D01*
X442Y311D02*
X466Y311D01*
X470Y311D02*
X479Y311D01*
X483Y311D02*
X505Y311D01*
X514Y311D02*
X538Y311D01*
X542Y311D02*
X551Y311D01*
X567Y311D02*
X576Y311D01*
X583Y311D02*
X613Y311D01*
X651Y311D02*
X694Y311D01*
X699Y311D02*
X720Y311D01*
X744Y311D02*
X760Y311D01*
X781Y311D02*
X792Y311D01*
X869Y311D02*
X910Y311D01*
X925Y311D02*
X936Y311D01*
X941Y311D02*
X972Y311D01*
X997Y311D02*
X1007Y311D01*
X1043Y311D02*
X1080Y311D01*
X233Y310D02*
X250Y310D01*
X271Y310D02*
X295Y310D01*
X299Y310D02*
X327Y310D01*
X350Y310D02*
X360Y310D01*
X366Y310D02*
X398Y310D01*
X422Y310D02*
X432Y310D01*
X441Y310D02*
X467Y310D01*
X470Y310D02*
X479Y310D01*
X485Y310D02*
X505Y310D01*
X513Y310D02*
X539Y310D01*
X542Y310D02*
X551Y310D01*
X567Y310D02*
X576Y310D01*
X582Y310D02*
X614Y310D01*
X651Y310D02*
X694Y310D01*
X700Y310D02*
X720Y310D01*
X744Y310D02*
X759Y310D01*
X782Y310D02*
X792Y310D01*
X868Y310D02*
X910Y310D01*
X926Y310D02*
X936Y310D01*
X940Y310D02*
X972Y310D01*
X998Y310D02*
X1008Y310D01*
X1045Y310D02*
X1063Y310D01*
X1071Y310D02*
X1080Y310D01*
X233Y309D02*
X250Y309D01*
X272Y309D02*
X295Y309D01*
X298Y309D02*
X328Y309D01*
X351Y309D02*
X360Y309D01*
X365Y309D02*
X400Y309D01*
X423Y309D02*
X432Y309D01*
X439Y309D02*
X479Y309D01*
X486Y309D02*
X505Y309D01*
X511Y309D02*
X551Y309D01*
X567Y309D02*
X576Y309D01*
X581Y309D02*
X615Y309D01*
X651Y309D02*
X694Y309D01*
X702Y309D02*
X720Y309D01*
X744Y309D02*
X758Y309D01*
X783Y309D02*
X792Y309D01*
X867Y309D02*
X910Y309D01*
X927Y309D02*
X936Y309D01*
X939Y309D02*
X972Y309D01*
X999Y309D02*
X1008Y309D01*
X1018Y309D02*
X1062Y309D01*
X1071Y309D02*
X1080Y309D01*
X233Y308D02*
X250Y308D01*
X274Y308D02*
X295Y308D01*
X297Y308D02*
X329Y308D01*
X351Y308D02*
X360Y308D01*
X364Y308D02*
X401Y308D01*
X423Y308D02*
X432Y308D01*
X438Y308D02*
X479Y308D01*
X487Y308D02*
X505Y308D01*
X510Y308D02*
X551Y308D01*
X567Y308D02*
X576Y308D01*
X580Y308D02*
X617Y308D01*
X651Y308D02*
X694Y308D01*
X703Y308D02*
X720Y308D01*
X744Y308D02*
X757Y308D01*
X783Y308D02*
X792Y308D01*
X866Y308D02*
X910Y308D01*
X927Y308D02*
X936Y308D01*
X938Y308D02*
X972Y308D01*
X999Y308D02*
X1008Y308D01*
X1017Y308D02*
X1062Y308D01*
X1071Y308D02*
X1080Y308D01*
X233Y307D02*
X250Y307D01*
X276Y307D02*
X330Y307D01*
X351Y307D02*
X361Y307D01*
X363Y307D02*
X402Y307D01*
X423Y307D02*
X433Y307D01*
X437Y307D02*
X479Y307D01*
X488Y307D02*
X505Y307D01*
X509Y307D02*
X551Y307D01*
X567Y307D02*
X576Y307D01*
X579Y307D02*
X618Y307D01*
X651Y307D02*
X694Y307D01*
X704Y307D02*
X720Y307D01*
X744Y307D02*
X756Y307D01*
X783Y307D02*
X792Y307D01*
X865Y307D02*
X899Y307D01*
X901Y307D02*
X910Y307D01*
X927Y307D02*
X972Y307D01*
X999Y307D02*
X1008Y307D01*
X1016Y307D02*
X1061Y307D01*
X1071Y307D02*
X1080Y307D01*
X233Y306D02*
X250Y306D01*
X277Y306D02*
X331Y306D01*
X351Y306D02*
X403Y306D01*
X423Y306D02*
X433Y306D01*
X436Y306D02*
X452Y306D01*
X456Y306D02*
X479Y306D01*
X489Y306D02*
X505Y306D01*
X508Y306D02*
X524Y306D01*
X529Y306D02*
X551Y306D01*
X567Y306D02*
X576Y306D01*
X578Y306D02*
X619Y306D01*
X652Y306D02*
X693Y306D01*
X705Y306D02*
X720Y306D01*
X744Y306D02*
X756Y306D01*
X783Y306D02*
X792Y306D01*
X865Y306D02*
X910Y306D01*
X927Y306D02*
X971Y306D01*
X999Y306D02*
X1008Y306D01*
X1016Y306D02*
X1060Y306D01*
X1071Y306D02*
X1080Y306D01*
X233Y305D02*
X250Y305D01*
X279Y305D02*
X332Y305D01*
X351Y305D02*
X404Y305D01*
X423Y305D02*
X433Y305D01*
X435Y305D02*
X449Y305D01*
X456Y305D02*
X479Y305D01*
X490Y305D02*
X505Y305D01*
X507Y305D02*
X521Y305D01*
X531Y305D02*
X551Y305D01*
X567Y305D02*
X619Y305D01*
X653Y305D02*
X692Y305D01*
X706Y305D02*
X720Y305D01*
X743Y305D02*
X755Y305D01*
X783Y305D02*
X792Y305D01*
X864Y305D02*
X910Y305D01*
X927Y305D02*
X970Y305D01*
X999Y305D02*
X1008Y305D01*
X1016Y305D02*
X1060Y305D01*
X1071Y305D02*
X1080Y305D01*
X233Y304D02*
X250Y304D01*
X280Y304D02*
X308Y304D01*
X312Y304D02*
X332Y304D01*
X351Y304D02*
X375Y304D01*
X384Y304D02*
X404Y304D01*
X423Y304D02*
X448Y304D01*
X457Y304D02*
X479Y304D01*
X491Y304D02*
X520Y304D01*
X532Y304D02*
X551Y304D01*
X567Y304D02*
X591Y304D01*
X606Y304D02*
X620Y304D01*
X673Y304D02*
X685Y304D01*
X707Y304D02*
X720Y304D01*
X742Y304D02*
X754Y304D01*
X783Y304D02*
X792Y304D01*
X864Y304D02*
X877Y304D01*
X885Y304D02*
X910Y304D01*
X927Y304D02*
X948Y304D01*
X959Y304D02*
X968Y304D01*
X999Y304D02*
X1008Y304D01*
X1016Y304D02*
X1059Y304D01*
X1071Y304D02*
X1080Y304D01*
X233Y303D02*
X250Y303D01*
X280Y303D02*
X306Y303D01*
X312Y303D02*
X333Y303D01*
X351Y303D02*
X372Y303D01*
X384Y303D02*
X405Y303D01*
X423Y303D02*
X447Y303D01*
X458Y303D02*
X479Y303D01*
X493Y303D02*
X514Y303D01*
X529Y303D02*
X551Y303D01*
X567Y303D02*
X588Y303D01*
X608Y303D02*
X621Y303D01*
X674Y303D02*
X685Y303D01*
X709Y303D02*
X720Y303D01*
X741Y303D02*
X753Y303D01*
X783Y303D02*
X792Y303D01*
X863Y303D02*
X874Y303D01*
X887Y303D02*
X910Y303D01*
X927Y303D02*
X946Y303D01*
X959Y303D02*
X968Y303D01*
X999Y303D02*
X1008Y303D01*
X1016Y303D02*
X1059Y303D01*
X1071Y303D02*
X1080Y303D01*
X233Y302D02*
X250Y302D01*
X280Y302D02*
X304Y302D01*
X312Y302D02*
X334Y302D01*
X351Y302D02*
X371Y302D01*
X384Y302D02*
X405Y302D01*
X423Y302D02*
X446Y302D01*
X462Y302D02*
X479Y302D01*
X494Y302D02*
X510Y302D01*
X533Y302D02*
X551Y302D01*
X567Y302D02*
X587Y302D01*
X609Y302D02*
X621Y302D01*
X676Y302D02*
X685Y302D01*
X710Y302D02*
X720Y302D01*
X741Y302D02*
X753Y302D01*
X783Y302D02*
X792Y302D01*
X863Y302D02*
X873Y302D01*
X887Y302D02*
X910Y302D01*
X927Y302D02*
X945Y302D01*
X959Y302D02*
X968Y302D01*
X999Y302D02*
X1008Y302D01*
X1016Y302D02*
X1058Y302D01*
X1071Y302D02*
X1080Y302D01*
X233Y301D02*
X250Y301D01*
X280Y301D02*
X303Y301D01*
X312Y301D02*
X321Y301D01*
X323Y301D02*
X334Y301D01*
X351Y301D02*
X370Y301D01*
X384Y301D02*
X393Y301D01*
X395Y301D02*
X406Y301D01*
X423Y301D02*
X445Y301D01*
X463Y301D02*
X479Y301D01*
X495Y301D02*
X506Y301D01*
X536Y301D02*
X551Y301D01*
X567Y301D02*
X586Y301D01*
X610Y301D02*
X622Y301D01*
X676Y301D02*
X685Y301D01*
X711Y301D02*
X720Y301D01*
X740Y301D02*
X753Y301D01*
X783Y301D02*
X792Y301D01*
X863Y301D02*
X872Y301D01*
X887Y301D02*
X910Y301D01*
X927Y301D02*
X945Y301D01*
X959Y301D02*
X968Y301D01*
X999Y301D02*
X1008Y301D01*
X1017Y301D02*
X1058Y301D01*
X1071Y301D02*
X1080Y301D01*
X233Y300D02*
X250Y300D01*
X280Y300D02*
X302Y300D01*
X312Y300D02*
X321Y300D01*
X324Y300D02*
X334Y300D01*
X351Y300D02*
X369Y300D01*
X384Y300D02*
X393Y300D01*
X396Y300D02*
X406Y300D01*
X423Y300D02*
X444Y300D01*
X464Y300D02*
X479Y300D01*
X495Y300D02*
X504Y300D01*
X539Y300D02*
X551Y300D01*
X567Y300D02*
X585Y300D01*
X612Y300D02*
X622Y300D01*
X676Y300D02*
X685Y300D01*
X711Y300D02*
X720Y300D01*
X739Y300D02*
X753Y300D01*
X783Y300D02*
X792Y300D01*
X863Y300D02*
X872Y300D01*
X887Y300D02*
X910Y300D01*
X927Y300D02*
X944Y300D01*
X959Y300D02*
X968Y300D01*
X999Y300D02*
X1008Y300D01*
X1019Y300D02*
X1057Y300D01*
X1071Y300D02*
X1080Y300D01*
X186Y299D02*
X199Y299D01*
X233Y299D02*
X250Y299D01*
X280Y299D02*
X301Y299D01*
X312Y299D02*
X368Y299D01*
X384Y299D02*
X442Y299D01*
X465Y299D02*
X479Y299D01*
X495Y299D02*
X502Y299D01*
X541Y299D02*
X552Y299D01*
X567Y299D02*
X584Y299D01*
X612Y299D02*
X622Y299D01*
X676Y299D02*
X685Y299D01*
X711Y299D02*
X720Y299D01*
X738Y299D02*
X753Y299D01*
X783Y299D02*
X792Y299D01*
X863Y299D02*
X872Y299D01*
X887Y299D02*
X910Y299D01*
X927Y299D02*
X944Y299D01*
X959Y299D02*
X1008Y299D01*
X1045Y299D02*
X1056Y299D01*
X1071Y299D02*
X1080Y299D01*
X184Y298D02*
X200Y298D01*
X234Y298D02*
X250Y298D01*
X280Y298D02*
X300Y298D01*
X312Y298D02*
X367Y298D01*
X384Y298D02*
X441Y298D01*
X466Y298D02*
X479Y298D01*
X495Y298D02*
X500Y298D01*
X543Y298D02*
X552Y298D01*
X567Y298D02*
X583Y298D01*
X613Y298D02*
X622Y298D01*
X676Y298D02*
X685Y298D01*
X711Y298D02*
X720Y298D01*
X737Y298D02*
X753Y298D01*
X783Y298D02*
X792Y298D01*
X863Y298D02*
X872Y298D01*
X887Y298D02*
X910Y298D01*
X927Y298D02*
X944Y298D01*
X959Y298D02*
X1008Y298D01*
X1045Y298D02*
X1056Y298D01*
X1071Y298D02*
X1080Y298D01*
X184Y297D02*
X201Y297D01*
X234Y297D02*
X250Y297D01*
X280Y297D02*
X299Y297D01*
X312Y297D02*
X367Y297D01*
X384Y297D02*
X440Y297D01*
X467Y297D02*
X479Y297D01*
X495Y297D02*
X498Y297D01*
X544Y297D02*
X551Y297D01*
X567Y297D02*
X583Y297D01*
X613Y297D02*
X622Y297D01*
X676Y297D02*
X685Y297D01*
X711Y297D02*
X720Y297D01*
X737Y297D02*
X753Y297D01*
X783Y297D02*
X792Y297D01*
X863Y297D02*
X872Y297D01*
X887Y297D02*
X910Y297D01*
X927Y297D02*
X944Y297D01*
X959Y297D02*
X1008Y297D01*
X1044Y297D02*
X1055Y297D01*
X1071Y297D02*
X1080Y297D01*
X183Y296D02*
X202Y296D01*
X234Y296D02*
X250Y296D01*
X280Y296D02*
X298Y296D01*
X312Y296D02*
X367Y296D01*
X384Y296D02*
X440Y296D01*
X468Y296D02*
X479Y296D01*
X495Y296D02*
X497Y296D01*
X546Y296D02*
X551Y296D01*
X567Y296D02*
X583Y296D01*
X613Y296D02*
X623Y296D01*
X676Y296D02*
X685Y296D01*
X711Y296D02*
X720Y296D01*
X736Y296D02*
X753Y296D01*
X783Y296D02*
X792Y296D01*
X863Y296D02*
X872Y296D01*
X887Y296D02*
X910Y296D01*
X927Y296D02*
X944Y296D01*
X959Y296D02*
X1008Y296D01*
X1044Y296D02*
X1055Y296D01*
X1071Y296D02*
X1080Y296D01*
X183Y295D02*
X202Y295D01*
X234Y295D02*
X250Y295D01*
X280Y295D02*
X297Y295D01*
X312Y295D02*
X367Y295D01*
X384Y295D02*
X439Y295D01*
X469Y295D02*
X479Y295D01*
X495Y295D02*
X495Y295D01*
X547Y295D02*
X551Y295D01*
X567Y295D02*
X583Y295D01*
X613Y295D02*
X623Y295D01*
X676Y295D02*
X685Y295D01*
X711Y295D02*
X720Y295D01*
X735Y295D02*
X753Y295D01*
X783Y295D02*
X792Y295D01*
X863Y295D02*
X872Y295D01*
X887Y295D02*
X897Y295D01*
X899Y295D02*
X910Y295D01*
X927Y295D02*
X944Y295D01*
X959Y295D02*
X1008Y295D01*
X1043Y295D02*
X1054Y295D01*
X1071Y295D02*
X1080Y295D01*
X183Y294D02*
X202Y294D01*
X234Y294D02*
X250Y294D01*
X280Y294D02*
X296Y294D01*
X312Y294D02*
X367Y294D01*
X384Y294D02*
X439Y294D01*
X469Y294D02*
X479Y294D01*
X549Y294D02*
X551Y294D01*
X567Y294D02*
X583Y294D01*
X613Y294D02*
X623Y294D01*
X676Y294D02*
X685Y294D01*
X711Y294D02*
X720Y294D01*
X734Y294D02*
X753Y294D01*
X783Y294D02*
X792Y294D01*
X863Y294D02*
X872Y294D01*
X887Y294D02*
X897Y294D01*
X901Y294D02*
X910Y294D01*
X927Y294D02*
X944Y294D01*
X959Y294D02*
X1008Y294D01*
X1043Y294D02*
X1054Y294D01*
X1071Y294D02*
X1080Y294D01*
X183Y293D02*
X202Y293D01*
X234Y293D02*
X250Y293D01*
X280Y293D02*
X295Y293D01*
X312Y293D02*
X367Y293D01*
X384Y293D02*
X439Y293D01*
X469Y293D02*
X479Y293D01*
X550Y293D02*
X551Y293D01*
X567Y293D02*
X583Y293D01*
X613Y293D02*
X623Y293D01*
X676Y293D02*
X685Y293D01*
X711Y293D02*
X720Y293D01*
X734Y293D02*
X753Y293D01*
X783Y293D02*
X792Y293D01*
X863Y293D02*
X872Y293D01*
X887Y293D02*
X897Y293D01*
X901Y293D02*
X910Y293D01*
X927Y293D02*
X944Y293D01*
X960Y293D02*
X1008Y293D01*
X1042Y293D02*
X1054Y293D01*
X1071Y293D02*
X1080Y293D01*
X183Y292D02*
X202Y292D01*
X234Y292D02*
X250Y292D01*
X280Y292D02*
X295Y292D01*
X313Y292D02*
X367Y292D01*
X385Y292D02*
X439Y292D01*
X470Y292D02*
X479Y292D01*
X551Y292D02*
X551Y292D01*
X567Y292D02*
X583Y292D01*
X613Y292D02*
X623Y292D01*
X676Y292D02*
X685Y292D01*
X711Y292D02*
X720Y292D01*
X733Y292D02*
X753Y292D01*
X783Y292D02*
X792Y292D01*
X863Y292D02*
X872Y292D01*
X887Y292D02*
X897Y292D01*
X901Y292D02*
X910Y292D01*
X927Y292D02*
X1008Y292D01*
X1041Y292D02*
X1054Y292D01*
X1071Y292D02*
X1080Y292D01*
X183Y291D02*
X202Y291D01*
X234Y291D02*
X250Y291D01*
X280Y291D02*
X295Y291D01*
X313Y291D02*
X367Y291D01*
X385Y291D02*
X439Y291D01*
X470Y291D02*
X479Y291D01*
X567Y291D02*
X583Y291D01*
X613Y291D02*
X623Y291D01*
X676Y291D02*
X685Y291D01*
X711Y291D02*
X720Y291D01*
X732Y291D02*
X753Y291D01*
X783Y291D02*
X792Y291D01*
X863Y291D02*
X872Y291D01*
X887Y291D02*
X897Y291D01*
X901Y291D02*
X910Y291D01*
X927Y291D02*
X1008Y291D01*
X1041Y291D02*
X1054Y291D01*
X1071Y291D02*
X1080Y291D01*
X183Y290D02*
X202Y290D01*
X234Y290D02*
X250Y290D01*
X280Y290D02*
X295Y290D01*
X315Y290D02*
X367Y290D01*
X387Y290D02*
X439Y290D01*
X470Y290D02*
X479Y290D01*
X567Y290D02*
X583Y290D01*
X613Y290D02*
X623Y290D01*
X676Y290D02*
X685Y290D01*
X711Y290D02*
X720Y290D01*
X731Y290D02*
X753Y290D01*
X783Y290D02*
X792Y290D01*
X863Y290D02*
X872Y290D01*
X887Y290D02*
X897Y290D01*
X901Y290D02*
X910Y290D01*
X927Y290D02*
X1008Y290D01*
X1040Y290D02*
X1054Y290D01*
X1071Y290D02*
X1080Y290D01*
X183Y289D02*
X202Y289D01*
X235Y289D02*
X250Y289D01*
X280Y289D02*
X295Y289D01*
X326Y289D02*
X335Y289D01*
X351Y289D02*
X367Y289D01*
X398Y289D02*
X407Y289D01*
X423Y289D02*
X439Y289D01*
X470Y289D02*
X479Y289D01*
X567Y289D02*
X583Y289D01*
X613Y289D02*
X623Y289D01*
X676Y289D02*
X685Y289D01*
X711Y289D02*
X720Y289D01*
X730Y289D02*
X742Y289D01*
X744Y289D02*
X753Y289D01*
X783Y289D02*
X792Y289D01*
X863Y289D02*
X872Y289D01*
X887Y289D02*
X897Y289D01*
X901Y289D02*
X910Y289D01*
X927Y289D02*
X977Y289D01*
X999Y289D02*
X1008Y289D01*
X1040Y289D02*
X1054Y289D01*
X1071Y289D02*
X1080Y289D01*
X183Y288D02*
X202Y288D01*
X236Y288D02*
X249Y288D01*
X280Y288D02*
X295Y288D01*
X326Y288D02*
X335Y288D01*
X351Y288D02*
X407Y288D01*
X423Y288D02*
X439Y288D01*
X470Y288D02*
X479Y288D01*
X567Y288D02*
X583Y288D01*
X613Y288D02*
X623Y288D01*
X676Y288D02*
X685Y288D01*
X711Y288D02*
X720Y288D01*
X730Y288D02*
X742Y288D01*
X744Y288D02*
X753Y288D01*
X783Y288D02*
X792Y288D01*
X863Y288D02*
X872Y288D01*
X887Y288D02*
X897Y288D01*
X901Y288D02*
X910Y288D01*
X927Y288D02*
X978Y288D01*
X999Y288D02*
X1008Y288D01*
X1039Y288D02*
X1054Y288D01*
X1071Y288D02*
X1080Y288D01*
X183Y287D02*
X202Y287D01*
X240Y287D02*
X249Y287D01*
X280Y287D02*
X295Y287D01*
X326Y287D02*
X335Y287D01*
X351Y287D02*
X407Y287D01*
X423Y287D02*
X439Y287D01*
X470Y287D02*
X479Y287D01*
X567Y287D02*
X583Y287D01*
X613Y287D02*
X623Y287D01*
X676Y287D02*
X685Y287D01*
X711Y287D02*
X720Y287D01*
X729Y287D02*
X741Y287D01*
X744Y287D02*
X753Y287D01*
X783Y287D02*
X792Y287D01*
X862Y287D02*
X872Y287D01*
X887Y287D02*
X898Y287D01*
X901Y287D02*
X910Y287D01*
X927Y287D02*
X979Y287D01*
X999Y287D02*
X1008Y287D01*
X1039Y287D02*
X1054Y287D01*
X1071Y287D02*
X1080Y287D01*
X183Y286D02*
X202Y286D01*
X240Y286D02*
X249Y286D01*
X280Y286D02*
X295Y286D01*
X326Y286D02*
X335Y286D01*
X351Y286D02*
X407Y286D01*
X423Y286D02*
X439Y286D01*
X470Y286D02*
X479Y286D01*
X567Y286D02*
X583Y286D01*
X613Y286D02*
X623Y286D01*
X676Y286D02*
X685Y286D01*
X711Y286D02*
X720Y286D01*
X728Y286D02*
X740Y286D01*
X744Y286D02*
X753Y286D01*
X783Y286D02*
X792Y286D01*
X862Y286D02*
X872Y286D01*
X887Y286D02*
X899Y286D01*
X901Y286D02*
X910Y286D01*
X927Y286D02*
X980Y286D01*
X999Y286D02*
X1008Y286D01*
X1038Y286D02*
X1054Y286D01*
X1071Y286D02*
X1080Y286D01*
X183Y285D02*
X202Y285D01*
X240Y285D02*
X249Y285D01*
X280Y285D02*
X295Y285D01*
X326Y285D02*
X335Y285D01*
X351Y285D02*
X407Y285D01*
X423Y285D02*
X439Y285D01*
X470Y285D02*
X479Y285D01*
X567Y285D02*
X583Y285D01*
X613Y285D02*
X623Y285D01*
X676Y285D02*
X685Y285D01*
X711Y285D02*
X720Y285D01*
X727Y285D02*
X739Y285D01*
X744Y285D02*
X753Y285D01*
X783Y285D02*
X792Y285D01*
X862Y285D02*
X871Y285D01*
X887Y285D02*
X910Y285D01*
X927Y285D02*
X981Y285D01*
X999Y285D02*
X1008Y285D01*
X1037Y285D02*
X1054Y285D01*
X1071Y285D02*
X1080Y285D01*
X183Y284D02*
X201Y284D01*
X240Y284D02*
X249Y284D01*
X280Y284D02*
X295Y284D01*
X326Y284D02*
X335Y284D01*
X351Y284D02*
X407Y284D01*
X423Y284D02*
X439Y284D01*
X470Y284D02*
X479Y284D01*
X567Y284D02*
X583Y284D01*
X613Y284D02*
X623Y284D01*
X676Y284D02*
X685Y284D01*
X711Y284D02*
X720Y284D01*
X727Y284D02*
X739Y284D01*
X744Y284D02*
X753Y284D01*
X783Y284D02*
X792Y284D01*
X862Y284D02*
X871Y284D01*
X887Y284D02*
X910Y284D01*
X926Y284D02*
X981Y284D01*
X998Y284D02*
X1008Y284D01*
X1037Y284D02*
X1054Y284D01*
X1071Y284D02*
X1080Y284D01*
X184Y283D02*
X201Y283D01*
X240Y283D02*
X249Y283D01*
X280Y283D02*
X295Y283D01*
X326Y283D02*
X335Y283D01*
X350Y283D02*
X407Y283D01*
X422Y283D02*
X439Y283D01*
X470Y283D02*
X479Y283D01*
X567Y283D02*
X583Y283D01*
X613Y283D02*
X623Y283D01*
X676Y283D02*
X685Y283D01*
X711Y283D02*
X720Y283D01*
X726Y283D02*
X738Y283D01*
X744Y283D02*
X754Y283D01*
X782Y283D02*
X792Y283D01*
X862Y283D02*
X871Y283D01*
X887Y283D02*
X910Y283D01*
X926Y283D02*
X981Y283D01*
X998Y283D02*
X1008Y283D01*
X1036Y283D02*
X1054Y283D01*
X1071Y283D02*
X1080Y283D01*
X185Y282D02*
X200Y282D01*
X240Y282D02*
X249Y282D01*
X280Y282D02*
X295Y282D01*
X326Y282D02*
X335Y282D01*
X349Y282D02*
X407Y282D01*
X421Y282D02*
X439Y282D01*
X470Y282D02*
X479Y282D01*
X567Y282D02*
X583Y282D01*
X613Y282D02*
X623Y282D01*
X676Y282D02*
X685Y282D01*
X711Y282D02*
X720Y282D01*
X725Y282D02*
X737Y282D01*
X744Y282D02*
X755Y282D01*
X781Y282D02*
X792Y282D01*
X862Y282D02*
X871Y282D01*
X887Y282D02*
X910Y282D01*
X925Y282D02*
X946Y282D01*
X971Y282D02*
X982Y282D01*
X997Y282D02*
X1008Y282D01*
X1036Y282D02*
X1054Y282D01*
X1071Y282D02*
X1080Y282D01*
X188Y281D02*
X197Y281D01*
X240Y281D02*
X249Y281D01*
X280Y281D02*
X295Y281D01*
X326Y281D02*
X335Y281D01*
X348Y281D02*
X407Y281D01*
X420Y281D02*
X439Y281D01*
X470Y281D02*
X479Y281D01*
X567Y281D02*
X583Y281D01*
X613Y281D02*
X623Y281D01*
X676Y281D02*
X685Y281D01*
X711Y281D02*
X720Y281D01*
X724Y281D02*
X736Y281D01*
X745Y281D02*
X756Y281D01*
X780Y281D02*
X791Y281D01*
X862Y281D02*
X871Y281D01*
X887Y281D02*
X910Y281D01*
X924Y281D02*
X944Y281D01*
X972Y281D02*
X982Y281D01*
X996Y281D02*
X1007Y281D01*
X1035Y281D02*
X1054Y281D01*
X1071Y281D02*
X1080Y281D01*
X240Y280D02*
X249Y280D01*
X280Y280D02*
X295Y280D01*
X326Y280D02*
X335Y280D01*
X347Y280D02*
X407Y280D01*
X419Y280D02*
X439Y280D01*
X470Y280D02*
X479Y280D01*
X566Y280D02*
X583Y280D01*
X613Y280D02*
X623Y280D01*
X676Y280D02*
X685Y280D01*
X711Y280D02*
X720Y280D01*
X723Y280D02*
X735Y280D01*
X745Y280D02*
X757Y280D01*
X779Y280D02*
X791Y280D01*
X862Y280D02*
X871Y280D01*
X887Y280D02*
X910Y280D01*
X922Y280D02*
X944Y280D01*
X973Y280D02*
X982Y280D01*
X994Y280D02*
X1007Y280D01*
X1034Y280D02*
X1054Y280D01*
X1071Y280D02*
X1080Y280D01*
X240Y279D02*
X249Y279D01*
X280Y279D02*
X295Y279D01*
X326Y279D02*
X335Y279D01*
X345Y279D02*
X359Y279D01*
X361Y279D02*
X407Y279D01*
X417Y279D02*
X439Y279D01*
X470Y279D02*
X479Y279D01*
X565Y279D02*
X583Y279D01*
X613Y279D02*
X623Y279D01*
X676Y279D02*
X685Y279D01*
X711Y279D02*
X720Y279D01*
X723Y279D02*
X735Y279D01*
X746Y279D02*
X759Y279D01*
X777Y279D02*
X790Y279D01*
X862Y279D02*
X871Y279D01*
X887Y279D02*
X910Y279D01*
X921Y279D02*
X943Y279D01*
X973Y279D02*
X982Y279D01*
X993Y279D02*
X1006Y279D01*
X1034Y279D02*
X1054Y279D01*
X1071Y279D02*
X1080Y279D01*
X240Y278D02*
X249Y278D01*
X280Y278D02*
X295Y278D01*
X315Y278D02*
X358Y278D01*
X387Y278D02*
X439Y278D01*
X469Y278D02*
X479Y278D01*
X561Y278D02*
X583Y278D01*
X613Y278D02*
X623Y278D01*
X676Y278D02*
X685Y278D01*
X711Y278D02*
X720Y278D01*
X722Y278D02*
X734Y278D01*
X746Y278D02*
X790Y278D01*
X862Y278D02*
X871Y278D01*
X887Y278D02*
X943Y278D01*
X963Y278D02*
X1006Y278D01*
X1033Y278D02*
X1054Y278D01*
X1071Y278D02*
X1080Y278D01*
X240Y277D02*
X249Y277D01*
X280Y277D02*
X296Y277D01*
X314Y277D02*
X357Y277D01*
X386Y277D02*
X439Y277D01*
X469Y277D02*
X479Y277D01*
X561Y277D02*
X583Y277D01*
X613Y277D02*
X623Y277D01*
X676Y277D02*
X685Y277D01*
X711Y277D02*
X733Y277D01*
X747Y277D02*
X789Y277D01*
X862Y277D02*
X871Y277D01*
X887Y277D02*
X943Y277D01*
X961Y277D02*
X1005Y277D01*
X1033Y277D02*
X1054Y277D01*
X1071Y277D02*
X1080Y277D01*
X240Y276D02*
X249Y276D01*
X280Y276D02*
X297Y276D01*
X313Y276D02*
X356Y276D01*
X385Y276D02*
X428Y276D01*
X430Y276D02*
X439Y276D01*
X468Y276D02*
X479Y276D01*
X562Y276D02*
X583Y276D01*
X613Y276D02*
X623Y276D01*
X676Y276D02*
X685Y276D01*
X711Y276D02*
X732Y276D01*
X748Y276D02*
X788Y276D01*
X862Y276D02*
X871Y276D01*
X887Y276D02*
X932Y276D01*
X934Y276D02*
X943Y276D01*
X960Y276D02*
X1004Y276D01*
X1032Y276D02*
X1043Y276D01*
X1045Y276D02*
X1054Y276D01*
X1071Y276D02*
X1080Y276D01*
X240Y275D02*
X249Y275D01*
X280Y275D02*
X298Y275D01*
X312Y275D02*
X355Y275D01*
X384Y275D02*
X427Y275D01*
X430Y275D02*
X440Y275D01*
X468Y275D02*
X479Y275D01*
X562Y275D02*
X583Y275D01*
X613Y275D02*
X623Y275D01*
X648Y275D02*
X653Y275D01*
X676Y275D02*
X685Y275D01*
X711Y275D02*
X732Y275D01*
X749Y275D02*
X787Y275D01*
X862Y275D02*
X871Y275D01*
X887Y275D02*
X931Y275D01*
X934Y275D02*
X943Y275D01*
X960Y275D02*
X1003Y275D01*
X1032Y275D02*
X1042Y275D01*
X1045Y275D02*
X1054Y275D01*
X1071Y275D02*
X1080Y275D01*
X240Y274D02*
X249Y274D01*
X280Y274D02*
X299Y274D01*
X312Y274D02*
X354Y274D01*
X384Y274D02*
X426Y274D01*
X430Y274D02*
X441Y274D01*
X467Y274D02*
X479Y274D01*
X562Y274D02*
X583Y274D01*
X613Y274D02*
X622Y274D01*
X647Y274D02*
X654Y274D01*
X676Y274D02*
X685Y274D01*
X711Y274D02*
X731Y274D01*
X750Y274D02*
X786Y274D01*
X862Y274D02*
X871Y274D01*
X887Y274D02*
X897Y274D01*
X899Y274D02*
X930Y274D01*
X934Y274D02*
X943Y274D01*
X960Y274D02*
X1002Y274D01*
X1031Y274D02*
X1042Y274D01*
X1045Y274D02*
X1054Y274D01*
X1071Y274D02*
X1080Y274D01*
X240Y273D02*
X249Y273D01*
X280Y273D02*
X300Y273D01*
X312Y273D02*
X353Y273D01*
X384Y273D02*
X425Y273D01*
X431Y273D02*
X442Y273D01*
X465Y273D02*
X479Y273D01*
X563Y273D02*
X572Y273D01*
X574Y273D02*
X584Y273D01*
X613Y273D02*
X622Y273D01*
X646Y273D02*
X654Y273D01*
X676Y273D02*
X685Y273D01*
X711Y273D02*
X730Y273D01*
X751Y273D02*
X785Y273D01*
X862Y273D02*
X871Y273D01*
X888Y273D02*
X896Y273D01*
X900Y273D02*
X929Y273D01*
X934Y273D02*
X945Y273D01*
X959Y273D02*
X1001Y273D01*
X1031Y273D02*
X1041Y273D01*
X1045Y273D02*
X1054Y273D01*
X1071Y273D02*
X1080Y273D01*
X240Y272D02*
X249Y272D01*
X280Y272D02*
X302Y272D01*
X312Y272D02*
X352Y272D01*
X384Y272D02*
X424Y272D01*
X431Y272D02*
X443Y272D01*
X464Y272D02*
X479Y272D01*
X563Y272D02*
X571Y272D01*
X574Y272D02*
X585Y272D01*
X612Y272D02*
X622Y272D01*
X646Y272D02*
X655Y272D01*
X675Y272D02*
X685Y272D01*
X712Y272D02*
X729Y272D01*
X752Y272D02*
X784Y272D01*
X862Y272D02*
X871Y272D01*
X888Y272D02*
X896Y272D01*
X901Y272D02*
X928Y272D01*
X934Y272D02*
X946Y272D01*
X960Y272D02*
X1000Y272D01*
X1032Y272D02*
X1041Y272D01*
X1045Y272D02*
X1054Y272D01*
X1071Y272D02*
X1080Y272D01*
X234Y271D02*
X248Y271D01*
X280Y271D02*
X303Y271D01*
X312Y271D02*
X351Y271D01*
X384Y271D02*
X423Y271D01*
X431Y271D02*
X444Y271D01*
X463Y271D02*
X479Y271D01*
X563Y271D02*
X570Y271D01*
X574Y271D02*
X586Y271D01*
X611Y271D02*
X622Y271D01*
X646Y271D02*
X655Y271D01*
X675Y271D02*
X684Y271D01*
X712Y271D02*
X729Y271D01*
X754Y271D02*
X782Y271D01*
X862Y271D02*
X871Y271D01*
X888Y271D02*
X896Y271D01*
X901Y271D02*
X926Y271D01*
X934Y271D02*
X948Y271D01*
X960Y271D02*
X998Y271D01*
X1032Y271D02*
X1040Y271D01*
X1045Y271D02*
X1054Y271D01*
X1072Y271D02*
X1079Y271D01*
X233Y270D02*
X248Y270D01*
X281Y270D02*
X304Y270D01*
X313Y270D02*
X349Y270D01*
X385Y270D02*
X421Y270D01*
X432Y270D02*
X445Y270D01*
X462Y270D02*
X479Y270D01*
X563Y270D02*
X568Y270D01*
X575Y270D02*
X587Y270D01*
X610Y270D02*
X622Y270D01*
X646Y270D02*
X656Y270D01*
X675Y270D02*
X684Y270D01*
X713Y270D02*
X728Y270D01*
X755Y270D02*
X781Y270D01*
X862Y270D02*
X871Y270D01*
X889Y270D02*
X895Y270D01*
X901Y270D02*
X925Y270D01*
X934Y270D02*
X950Y270D01*
X961Y270D02*
X997Y270D01*
X1033Y270D02*
X1039Y270D01*
X1045Y270D02*
X1054Y270D01*
X1072Y270D02*
X1079Y270D01*
X232Y269D02*
X246Y269D01*
X282Y269D02*
X305Y269D01*
X314Y269D02*
X347Y269D01*
X386Y269D02*
X419Y269D01*
X433Y269D02*
X447Y269D01*
X461Y269D02*
X479Y269D01*
X564Y269D02*
X566Y269D01*
X575Y269D02*
X588Y269D01*
X609Y269D02*
X621Y269D01*
X646Y269D02*
X656Y269D01*
X674Y269D02*
X684Y269D01*
X714Y269D02*
X727Y269D01*
X757Y269D02*
X778Y269D01*
X862Y269D02*
X871Y269D01*
X890Y269D02*
X894Y269D01*
X901Y269D02*
X922Y269D01*
X934Y269D02*
X951Y269D01*
X962Y269D02*
X994Y269D01*
X1034Y269D02*
X1038Y269D01*
X1045Y269D02*
X1054Y269D01*
X1074Y269D02*
X1078Y269D01*
X232Y268D02*
X245Y268D01*
X286Y268D02*
X307Y268D01*
X319Y268D02*
X333Y268D01*
X391Y268D02*
X405Y268D01*
X434Y268D02*
X448Y268D01*
X460Y268D02*
X479Y268D01*
X576Y268D02*
X589Y268D01*
X607Y268D02*
X621Y268D01*
X646Y268D02*
X658Y268D01*
X673Y268D02*
X684Y268D01*
X718Y268D02*
X727Y268D01*
X756Y268D02*
X766Y268D01*
X862Y268D02*
X871Y268D01*
X901Y268D02*
X910Y268D01*
X934Y268D02*
X953Y268D01*
X970Y268D02*
X982Y268D01*
X1045Y268D02*
X1054Y268D01*
X232Y267D02*
X245Y267D01*
X286Y267D02*
X332Y267D01*
X361Y267D02*
X404Y267D01*
X435Y267D02*
X449Y267D01*
X459Y267D02*
X479Y267D01*
X577Y267D02*
X620Y267D01*
X647Y267D02*
X684Y267D01*
X718Y267D02*
X766Y267D01*
X862Y267D02*
X871Y267D01*
X901Y267D02*
X910Y267D01*
X934Y267D02*
X981Y267D01*
X1045Y267D02*
X1054Y267D01*
X231Y266D02*
X246Y266D01*
X286Y266D02*
X331Y266D01*
X360Y266D02*
X403Y266D01*
X436Y266D02*
X450Y266D01*
X458Y266D02*
X479Y266D01*
X577Y266D02*
X619Y266D01*
X647Y266D02*
X683Y266D01*
X718Y266D02*
X766Y266D01*
X862Y266D02*
X871Y266D01*
X901Y266D02*
X910Y266D01*
X934Y266D02*
X981Y266D01*
X1045Y266D02*
X1054Y266D01*
X231Y265D02*
X246Y265D01*
X286Y265D02*
X330Y265D01*
X359Y265D02*
X402Y265D01*
X437Y265D02*
X479Y265D01*
X578Y265D02*
X618Y265D01*
X648Y265D02*
X683Y265D01*
X718Y265D02*
X765Y265D01*
X862Y265D02*
X871Y265D01*
X901Y265D02*
X910Y265D01*
X934Y265D02*
X980Y265D01*
X1045Y265D02*
X1054Y265D01*
X231Y264D02*
X246Y264D01*
X286Y264D02*
X329Y264D01*
X358Y264D02*
X401Y264D01*
X438Y264D02*
X479Y264D01*
X579Y264D02*
X617Y264D01*
X648Y264D02*
X682Y264D01*
X719Y264D02*
X765Y264D01*
X862Y264D02*
X871Y264D01*
X901Y264D02*
X910Y264D01*
X934Y264D02*
X980Y264D01*
X1045Y264D02*
X1054Y264D01*
X231Y263D02*
X246Y263D01*
X286Y263D02*
X295Y263D01*
X297Y263D02*
X328Y263D01*
X358Y263D02*
X400Y263D01*
X439Y263D02*
X479Y263D01*
X580Y263D02*
X616Y263D01*
X649Y263D02*
X681Y263D01*
X719Y263D02*
X764Y263D01*
X862Y263D02*
X871Y263D01*
X901Y263D02*
X910Y263D01*
X934Y263D02*
X979Y263D01*
X1045Y263D02*
X1054Y263D01*
X232Y262D02*
X245Y262D01*
X286Y262D02*
X295Y262D01*
X298Y262D02*
X327Y262D01*
X358Y262D02*
X399Y262D01*
X440Y262D02*
X468Y262D01*
X470Y262D02*
X478Y262D01*
X582Y262D02*
X615Y262D01*
X650Y262D02*
X680Y262D01*
X720Y262D02*
X763Y262D01*
X862Y262D02*
X871Y262D01*
X901Y262D02*
X910Y262D01*
X934Y262D02*
X978Y262D01*
X1045Y262D02*
X1054Y262D01*
X232Y261D02*
X245Y261D01*
X286Y261D02*
X295Y261D01*
X300Y261D02*
X326Y261D01*
X358Y261D02*
X398Y261D01*
X441Y261D02*
X467Y261D01*
X470Y261D02*
X478Y261D01*
X583Y261D02*
X614Y261D01*
X651Y261D02*
X679Y261D01*
X721Y261D02*
X762Y261D01*
X862Y261D02*
X870Y261D01*
X902Y261D02*
X910Y261D01*
X934Y261D02*
X942Y261D01*
X946Y261D02*
X977Y261D01*
X1045Y261D02*
X1054Y261D01*
X232Y260D02*
X245Y260D01*
X287Y260D02*
X294Y260D01*
X301Y260D02*
X325Y260D01*
X359Y260D02*
X397Y260D01*
X443Y260D02*
X466Y260D01*
X470Y260D02*
X478Y260D01*
X584Y260D02*
X612Y260D01*
X653Y260D02*
X678Y260D01*
X722Y260D02*
X761Y260D01*
X862Y260D02*
X870Y260D01*
X902Y260D02*
X910Y260D01*
X934Y260D02*
X942Y260D01*
X948Y260D02*
X976Y260D01*
X1046Y260D02*
X1054Y260D01*
X233Y259D02*
X244Y259D01*
X287Y259D02*
X294Y259D01*
X303Y259D02*
X323Y259D01*
X359Y259D02*
X395Y259D01*
X444Y259D02*
X465Y259D01*
X470Y259D02*
X479Y259D01*
X586Y259D02*
X611Y259D01*
X654Y259D02*
X676Y259D01*
X723Y259D02*
X759Y259D01*
X863Y259D02*
X869Y259D01*
X903Y259D02*
X909Y259D01*
X935Y259D02*
X941Y259D01*
X949Y259D02*
X974Y259D01*
X1047Y259D02*
X1053Y259D01*
X234Y258D02*
X243Y258D01*
X289Y258D02*
X292Y258D01*
X306Y258D02*
X320Y258D01*
X361Y258D02*
X392Y258D01*
X445Y258D02*
X463Y258D01*
X470Y258D02*
X479Y258D01*
X588Y258D02*
X608Y258D01*
X657Y258D02*
X674Y258D01*
X726Y258D02*
X757Y258D01*
X864Y258D02*
X868Y258D01*
X904Y258D02*
X908Y258D01*
X936Y258D02*
X940Y258D01*
X951Y258D02*
X971Y258D01*
X1048Y258D02*
X1052Y258D01*
X447Y257D02*
X462Y257D01*
X470Y257D02*
X479Y257D01*
X449Y256D02*
X459Y256D01*
X470Y256D02*
X479Y256D01*
X470Y255D02*
X479Y255D01*
X470Y254D02*
X479Y254D01*
X470Y253D02*
X479Y253D01*
X470Y252D02*
X479Y252D01*
X470Y251D02*
X479Y251D01*
X470Y250D02*
X479Y250D01*
X470Y249D02*
X479Y249D01*
X470Y248D02*
X479Y248D01*
X470Y247D02*
X479Y247D01*
X470Y246D02*
X479Y246D01*
X470Y245D02*
X479Y245D01*
X470Y244D02*
X479Y244D01*
X470Y243D02*
X479Y243D01*
X470Y242D02*
X479Y242D01*
X470Y241D02*
X479Y241D01*
X470Y240D02*
X478Y240D01*
X470Y239D02*
X478Y239D01*
X471Y238D02*
X477Y238D01*
X472Y237D02*
X476Y237D01*
D02*
G04 End of Silk0*
M02*