G04 MADE WITH FRITZING*
G04 WWW.FRITZING.ORG*
G04 DOUBLE SIDED*
G04 HOLES PLATED*
G04 CONTOUR ON CENTER OF CONTOUR VECTOR*
%ASAXBY*%
%FSLAX23Y23*%
%MOIN*%
%OFA0B0*%
%SFA1.0B1.0*%
%ADD10C,0.010000*%
%ADD11C,0.005000*%
%ADD12R,0.001000X0.001000*%
%LNSILK1*%
G90*
G70*
G54D10*
X1089Y569D02*
X1089Y769D01*
D02*
X1089Y769D02*
X1155Y769D01*
D02*
X1155Y769D02*
X1155Y569D01*
D02*
X1155Y569D02*
X1089Y569D01*
D02*
X1172Y1210D02*
X772Y1210D01*
D02*
X772Y1210D02*
X772Y1110D01*
D02*
X772Y1110D02*
X1172Y1110D01*
D02*
X1172Y1110D02*
X1172Y1210D01*
D02*
X472Y1210D02*
X72Y1210D01*
D02*
X72Y1210D02*
X72Y1110D01*
D02*
X72Y1110D02*
X472Y1110D01*
D02*
X472Y1110D02*
X472Y1210D01*
D02*
X286Y930D02*
X286Y790D01*
D02*
X286Y530D02*
X286Y390D01*
D02*
X686Y530D02*
X686Y390D01*
D02*
X686Y930D02*
X686Y790D01*
D02*
X732Y193D02*
X932Y193D01*
D02*
X932Y193D02*
X932Y127D01*
D02*
X932Y127D02*
X732Y127D01*
D02*
X732Y127D02*
X732Y193D01*
D02*
X232Y293D02*
X432Y293D01*
D02*
X432Y293D02*
X432Y227D01*
D02*
X432Y227D02*
X232Y227D01*
D02*
X232Y227D02*
X232Y293D01*
D02*
X572Y110D02*
X372Y110D01*
D02*
X372Y110D02*
X372Y10D01*
D02*
X372Y10D02*
X572Y10D01*
D02*
X572Y10D02*
X572Y110D01*
G54D11*
D02*
X537Y110D02*
X572Y75D01*
G54D12*
X0Y1260D02*
X1258Y1260D01*
X0Y1259D02*
X1258Y1259D01*
X0Y1258D02*
X1258Y1258D01*
X0Y1257D02*
X1258Y1257D01*
X0Y1256D02*
X1258Y1256D01*
X0Y1255D02*
X1258Y1255D01*
X0Y1254D02*
X1258Y1254D01*
X0Y1253D02*
X1258Y1253D01*
X0Y1252D02*
X7Y1252D01*
X1251Y1252D02*
X1258Y1252D01*
X0Y1251D02*
X7Y1251D01*
X1251Y1251D02*
X1258Y1251D01*
X0Y1250D02*
X7Y1250D01*
X1251Y1250D02*
X1258Y1250D01*
X0Y1249D02*
X7Y1249D01*
X1251Y1249D02*
X1258Y1249D01*
X0Y1248D02*
X7Y1248D01*
X1251Y1248D02*
X1258Y1248D01*
X0Y1247D02*
X7Y1247D01*
X1251Y1247D02*
X1258Y1247D01*
X0Y1246D02*
X7Y1246D01*
X1251Y1246D02*
X1258Y1246D01*
X0Y1245D02*
X7Y1245D01*
X1251Y1245D02*
X1258Y1245D01*
X0Y1244D02*
X7Y1244D01*
X1251Y1244D02*
X1258Y1244D01*
X0Y1243D02*
X7Y1243D01*
X1251Y1243D02*
X1258Y1243D01*
X0Y1242D02*
X7Y1242D01*
X1251Y1242D02*
X1258Y1242D01*
X0Y1241D02*
X7Y1241D01*
X1251Y1241D02*
X1258Y1241D01*
X0Y1240D02*
X7Y1240D01*
X1251Y1240D02*
X1258Y1240D01*
X0Y1239D02*
X7Y1239D01*
X1251Y1239D02*
X1258Y1239D01*
X0Y1238D02*
X7Y1238D01*
X1251Y1238D02*
X1258Y1238D01*
X0Y1237D02*
X7Y1237D01*
X1251Y1237D02*
X1258Y1237D01*
X0Y1236D02*
X7Y1236D01*
X1251Y1236D02*
X1258Y1236D01*
X0Y1235D02*
X7Y1235D01*
X1251Y1235D02*
X1258Y1235D01*
X0Y1234D02*
X7Y1234D01*
X1251Y1234D02*
X1258Y1234D01*
X0Y1233D02*
X7Y1233D01*
X1251Y1233D02*
X1258Y1233D01*
X0Y1232D02*
X7Y1232D01*
X1251Y1232D02*
X1258Y1232D01*
X0Y1231D02*
X7Y1231D01*
X1251Y1231D02*
X1258Y1231D01*
X0Y1230D02*
X7Y1230D01*
X1251Y1230D02*
X1258Y1230D01*
X0Y1229D02*
X7Y1229D01*
X1251Y1229D02*
X1258Y1229D01*
X0Y1228D02*
X7Y1228D01*
X1251Y1228D02*
X1258Y1228D01*
X0Y1227D02*
X7Y1227D01*
X1251Y1227D02*
X1258Y1227D01*
X0Y1226D02*
X7Y1226D01*
X1251Y1226D02*
X1258Y1226D01*
X0Y1225D02*
X7Y1225D01*
X1251Y1225D02*
X1258Y1225D01*
X0Y1224D02*
X7Y1224D01*
X1251Y1224D02*
X1258Y1224D01*
X0Y1223D02*
X7Y1223D01*
X1251Y1223D02*
X1258Y1223D01*
X0Y1222D02*
X7Y1222D01*
X1251Y1222D02*
X1258Y1222D01*
X0Y1221D02*
X7Y1221D01*
X1251Y1221D02*
X1258Y1221D01*
X0Y1220D02*
X7Y1220D01*
X1251Y1220D02*
X1258Y1220D01*
X0Y1219D02*
X7Y1219D01*
X1251Y1219D02*
X1258Y1219D01*
X0Y1218D02*
X7Y1218D01*
X1251Y1218D02*
X1258Y1218D01*
X0Y1217D02*
X7Y1217D01*
X1251Y1217D02*
X1258Y1217D01*
X0Y1216D02*
X7Y1216D01*
X1251Y1216D02*
X1258Y1216D01*
X0Y1215D02*
X7Y1215D01*
X1251Y1215D02*
X1258Y1215D01*
X0Y1214D02*
X7Y1214D01*
X1251Y1214D02*
X1258Y1214D01*
X0Y1213D02*
X7Y1213D01*
X1251Y1213D02*
X1258Y1213D01*
X0Y1212D02*
X7Y1212D01*
X438Y1212D02*
X438Y1212D01*
X1251Y1212D02*
X1258Y1212D01*
X0Y1211D02*
X7Y1211D01*
X437Y1211D02*
X439Y1211D01*
X1137Y1211D02*
X1139Y1211D01*
X1251Y1211D02*
X1258Y1211D01*
X0Y1210D02*
X7Y1210D01*
X436Y1210D02*
X440Y1210D01*
X1136Y1210D02*
X1140Y1210D01*
X1251Y1210D02*
X1258Y1210D01*
X0Y1209D02*
X7Y1209D01*
X435Y1209D02*
X441Y1209D01*
X1135Y1209D02*
X1141Y1209D01*
X1251Y1209D02*
X1258Y1209D01*
X0Y1208D02*
X7Y1208D01*
X436Y1208D02*
X442Y1208D01*
X1135Y1208D02*
X1142Y1208D01*
X1251Y1208D02*
X1258Y1208D01*
X0Y1207D02*
X7Y1207D01*
X437Y1207D02*
X443Y1207D01*
X1136Y1207D02*
X1143Y1207D01*
X1251Y1207D02*
X1258Y1207D01*
X0Y1206D02*
X7Y1206D01*
X438Y1206D02*
X444Y1206D01*
X1137Y1206D02*
X1144Y1206D01*
X1251Y1206D02*
X1258Y1206D01*
X0Y1205D02*
X7Y1205D01*
X439Y1205D02*
X445Y1205D01*
X1138Y1205D02*
X1145Y1205D01*
X1251Y1205D02*
X1258Y1205D01*
X0Y1204D02*
X7Y1204D01*
X440Y1204D02*
X446Y1204D01*
X1139Y1204D02*
X1146Y1204D01*
X1251Y1204D02*
X1258Y1204D01*
X0Y1203D02*
X7Y1203D01*
X441Y1203D02*
X447Y1203D01*
X1140Y1203D02*
X1147Y1203D01*
X1251Y1203D02*
X1258Y1203D01*
X0Y1202D02*
X7Y1202D01*
X442Y1202D02*
X448Y1202D01*
X1141Y1202D02*
X1148Y1202D01*
X1251Y1202D02*
X1258Y1202D01*
X0Y1201D02*
X7Y1201D01*
X443Y1201D02*
X449Y1201D01*
X1142Y1201D02*
X1149Y1201D01*
X1251Y1201D02*
X1258Y1201D01*
X0Y1200D02*
X7Y1200D01*
X444Y1200D02*
X450Y1200D01*
X1143Y1200D02*
X1150Y1200D01*
X1251Y1200D02*
X1258Y1200D01*
X0Y1199D02*
X7Y1199D01*
X445Y1199D02*
X451Y1199D01*
X1144Y1199D02*
X1151Y1199D01*
X1251Y1199D02*
X1258Y1199D01*
X0Y1198D02*
X7Y1198D01*
X446Y1198D02*
X452Y1198D01*
X1145Y1198D02*
X1152Y1198D01*
X1251Y1198D02*
X1258Y1198D01*
X0Y1197D02*
X7Y1197D01*
X447Y1197D02*
X453Y1197D01*
X1146Y1197D02*
X1153Y1197D01*
X1251Y1197D02*
X1258Y1197D01*
X0Y1196D02*
X7Y1196D01*
X448Y1196D02*
X454Y1196D01*
X1147Y1196D02*
X1154Y1196D01*
X1251Y1196D02*
X1258Y1196D01*
X0Y1195D02*
X7Y1195D01*
X449Y1195D02*
X455Y1195D01*
X1149Y1195D02*
X1155Y1195D01*
X1251Y1195D02*
X1258Y1195D01*
X0Y1194D02*
X7Y1194D01*
X450Y1194D02*
X456Y1194D01*
X1150Y1194D02*
X1156Y1194D01*
X1251Y1194D02*
X1258Y1194D01*
X0Y1193D02*
X7Y1193D01*
X452Y1193D02*
X457Y1193D01*
X1151Y1193D02*
X1157Y1193D01*
X1251Y1193D02*
X1258Y1193D01*
X0Y1192D02*
X7Y1192D01*
X453Y1192D02*
X458Y1192D01*
X1152Y1192D02*
X1158Y1192D01*
X1251Y1192D02*
X1258Y1192D01*
X0Y1191D02*
X7Y1191D01*
X454Y1191D02*
X459Y1191D01*
X1153Y1191D02*
X1159Y1191D01*
X1251Y1191D02*
X1258Y1191D01*
X0Y1190D02*
X7Y1190D01*
X455Y1190D02*
X460Y1190D01*
X1154Y1190D02*
X1160Y1190D01*
X1251Y1190D02*
X1258Y1190D01*
X0Y1189D02*
X7Y1189D01*
X455Y1189D02*
X461Y1189D01*
X1155Y1189D02*
X1161Y1189D01*
X1251Y1189D02*
X1258Y1189D01*
X0Y1188D02*
X7Y1188D01*
X456Y1188D02*
X462Y1188D01*
X1156Y1188D02*
X1162Y1188D01*
X1251Y1188D02*
X1258Y1188D01*
X0Y1187D02*
X7Y1187D01*
X457Y1187D02*
X463Y1187D01*
X1156Y1187D02*
X1163Y1187D01*
X1251Y1187D02*
X1258Y1187D01*
X0Y1186D02*
X7Y1186D01*
X458Y1186D02*
X464Y1186D01*
X1157Y1186D02*
X1164Y1186D01*
X1251Y1186D02*
X1258Y1186D01*
X0Y1185D02*
X7Y1185D01*
X459Y1185D02*
X465Y1185D01*
X1158Y1185D02*
X1165Y1185D01*
X1251Y1185D02*
X1258Y1185D01*
X0Y1184D02*
X7Y1184D01*
X460Y1184D02*
X466Y1184D01*
X1159Y1184D02*
X1166Y1184D01*
X1251Y1184D02*
X1258Y1184D01*
X0Y1183D02*
X7Y1183D01*
X461Y1183D02*
X467Y1183D01*
X1160Y1183D02*
X1167Y1183D01*
X1251Y1183D02*
X1258Y1183D01*
X0Y1182D02*
X7Y1182D01*
X462Y1182D02*
X468Y1182D01*
X1161Y1182D02*
X1168Y1182D01*
X1251Y1182D02*
X1258Y1182D01*
X0Y1181D02*
X7Y1181D01*
X463Y1181D02*
X469Y1181D01*
X1162Y1181D02*
X1169Y1181D01*
X1251Y1181D02*
X1258Y1181D01*
X0Y1180D02*
X7Y1180D01*
X464Y1180D02*
X470Y1180D01*
X1163Y1180D02*
X1170Y1180D01*
X1251Y1180D02*
X1258Y1180D01*
X0Y1179D02*
X7Y1179D01*
X465Y1179D02*
X471Y1179D01*
X1164Y1179D02*
X1171Y1179D01*
X1251Y1179D02*
X1258Y1179D01*
X0Y1178D02*
X7Y1178D01*
X466Y1178D02*
X472Y1178D01*
X1165Y1178D02*
X1172Y1178D01*
X1251Y1178D02*
X1258Y1178D01*
X0Y1177D02*
X7Y1177D01*
X467Y1177D02*
X472Y1177D01*
X1166Y1177D02*
X1172Y1177D01*
X1251Y1177D02*
X1258Y1177D01*
X0Y1176D02*
X7Y1176D01*
X468Y1176D02*
X471Y1176D01*
X1167Y1176D02*
X1171Y1176D01*
X1251Y1176D02*
X1258Y1176D01*
X0Y1175D02*
X7Y1175D01*
X469Y1175D02*
X470Y1175D01*
X1168Y1175D02*
X1170Y1175D01*
X1251Y1175D02*
X1258Y1175D01*
X0Y1174D02*
X7Y1174D01*
X1251Y1174D02*
X1258Y1174D01*
X0Y1173D02*
X7Y1173D01*
X1251Y1173D02*
X1258Y1173D01*
X0Y1172D02*
X7Y1172D01*
X1251Y1172D02*
X1258Y1172D01*
X0Y1171D02*
X7Y1171D01*
X1251Y1171D02*
X1258Y1171D01*
X0Y1170D02*
X7Y1170D01*
X1251Y1170D02*
X1258Y1170D01*
X0Y1169D02*
X7Y1169D01*
X1251Y1169D02*
X1258Y1169D01*
X0Y1168D02*
X7Y1168D01*
X1251Y1168D02*
X1258Y1168D01*
X0Y1167D02*
X7Y1167D01*
X1251Y1167D02*
X1258Y1167D01*
X0Y1166D02*
X7Y1166D01*
X1251Y1166D02*
X1258Y1166D01*
X0Y1165D02*
X7Y1165D01*
X1251Y1165D02*
X1258Y1165D01*
X0Y1164D02*
X7Y1164D01*
X1251Y1164D02*
X1258Y1164D01*
X0Y1163D02*
X7Y1163D01*
X1251Y1163D02*
X1258Y1163D01*
X0Y1162D02*
X7Y1162D01*
X1251Y1162D02*
X1258Y1162D01*
X0Y1161D02*
X7Y1161D01*
X1251Y1161D02*
X1258Y1161D01*
X0Y1160D02*
X7Y1160D01*
X1251Y1160D02*
X1258Y1160D01*
X0Y1159D02*
X7Y1159D01*
X1251Y1159D02*
X1258Y1159D01*
X0Y1158D02*
X7Y1158D01*
X1251Y1158D02*
X1258Y1158D01*
X0Y1157D02*
X7Y1157D01*
X1251Y1157D02*
X1258Y1157D01*
X0Y1156D02*
X7Y1156D01*
X1251Y1156D02*
X1258Y1156D01*
X0Y1155D02*
X7Y1155D01*
X1251Y1155D02*
X1258Y1155D01*
X0Y1154D02*
X7Y1154D01*
X1251Y1154D02*
X1258Y1154D01*
X0Y1153D02*
X7Y1153D01*
X1251Y1153D02*
X1258Y1153D01*
X0Y1152D02*
X7Y1152D01*
X1251Y1152D02*
X1258Y1152D01*
X0Y1151D02*
X7Y1151D01*
X1251Y1151D02*
X1258Y1151D01*
X0Y1150D02*
X7Y1150D01*
X1251Y1150D02*
X1258Y1150D01*
X0Y1149D02*
X7Y1149D01*
X1251Y1149D02*
X1258Y1149D01*
X0Y1148D02*
X7Y1148D01*
X1251Y1148D02*
X1258Y1148D01*
X0Y1147D02*
X7Y1147D01*
X1251Y1147D02*
X1258Y1147D01*
X0Y1146D02*
X7Y1146D01*
X1251Y1146D02*
X1258Y1146D01*
X0Y1145D02*
X7Y1145D01*
X1251Y1145D02*
X1258Y1145D01*
X0Y1144D02*
X7Y1144D01*
X1251Y1144D02*
X1258Y1144D01*
X0Y1143D02*
X7Y1143D01*
X1251Y1143D02*
X1258Y1143D01*
X0Y1142D02*
X7Y1142D01*
X1251Y1142D02*
X1258Y1142D01*
X0Y1141D02*
X7Y1141D01*
X1251Y1141D02*
X1258Y1141D01*
X0Y1140D02*
X7Y1140D01*
X1251Y1140D02*
X1258Y1140D01*
X0Y1139D02*
X7Y1139D01*
X1251Y1139D02*
X1258Y1139D01*
X0Y1138D02*
X7Y1138D01*
X1251Y1138D02*
X1258Y1138D01*
X0Y1137D02*
X7Y1137D01*
X1251Y1137D02*
X1258Y1137D01*
X0Y1136D02*
X7Y1136D01*
X1251Y1136D02*
X1258Y1136D01*
X0Y1135D02*
X7Y1135D01*
X1251Y1135D02*
X1258Y1135D01*
X0Y1134D02*
X7Y1134D01*
X1251Y1134D02*
X1258Y1134D01*
X0Y1133D02*
X7Y1133D01*
X1251Y1133D02*
X1258Y1133D01*
X0Y1132D02*
X7Y1132D01*
X1251Y1132D02*
X1258Y1132D01*
X0Y1131D02*
X7Y1131D01*
X1251Y1131D02*
X1258Y1131D01*
X0Y1130D02*
X7Y1130D01*
X1251Y1130D02*
X1258Y1130D01*
X0Y1129D02*
X7Y1129D01*
X1251Y1129D02*
X1258Y1129D01*
X0Y1128D02*
X7Y1128D01*
X1251Y1128D02*
X1258Y1128D01*
X0Y1127D02*
X7Y1127D01*
X1251Y1127D02*
X1258Y1127D01*
X0Y1126D02*
X7Y1126D01*
X1251Y1126D02*
X1258Y1126D01*
X0Y1125D02*
X7Y1125D01*
X1251Y1125D02*
X1258Y1125D01*
X0Y1124D02*
X7Y1124D01*
X1251Y1124D02*
X1258Y1124D01*
X0Y1123D02*
X7Y1123D01*
X1251Y1123D02*
X1258Y1123D01*
X0Y1122D02*
X7Y1122D01*
X1251Y1122D02*
X1258Y1122D01*
X0Y1121D02*
X7Y1121D01*
X1251Y1121D02*
X1258Y1121D01*
X0Y1120D02*
X7Y1120D01*
X1251Y1120D02*
X1258Y1120D01*
X0Y1119D02*
X7Y1119D01*
X1251Y1119D02*
X1258Y1119D01*
X0Y1118D02*
X7Y1118D01*
X1251Y1118D02*
X1258Y1118D01*
X0Y1117D02*
X7Y1117D01*
X1251Y1117D02*
X1258Y1117D01*
X0Y1116D02*
X7Y1116D01*
X1251Y1116D02*
X1258Y1116D01*
X0Y1115D02*
X7Y1115D01*
X1251Y1115D02*
X1258Y1115D01*
X0Y1114D02*
X7Y1114D01*
X1251Y1114D02*
X1258Y1114D01*
X0Y1113D02*
X7Y1113D01*
X1251Y1113D02*
X1258Y1113D01*
X0Y1112D02*
X7Y1112D01*
X1251Y1112D02*
X1258Y1112D01*
X0Y1111D02*
X7Y1111D01*
X1251Y1111D02*
X1258Y1111D01*
X0Y1110D02*
X7Y1110D01*
X1251Y1110D02*
X1258Y1110D01*
X0Y1109D02*
X7Y1109D01*
X1251Y1109D02*
X1258Y1109D01*
X0Y1108D02*
X7Y1108D01*
X1251Y1108D02*
X1258Y1108D01*
X0Y1107D02*
X7Y1107D01*
X1251Y1107D02*
X1258Y1107D01*
X0Y1106D02*
X7Y1106D01*
X1251Y1106D02*
X1258Y1106D01*
X0Y1105D02*
X7Y1105D01*
X1251Y1105D02*
X1258Y1105D01*
X0Y1104D02*
X7Y1104D01*
X1251Y1104D02*
X1258Y1104D01*
X0Y1103D02*
X7Y1103D01*
X1251Y1103D02*
X1258Y1103D01*
X0Y1102D02*
X7Y1102D01*
X1251Y1102D02*
X1258Y1102D01*
X0Y1101D02*
X7Y1101D01*
X1251Y1101D02*
X1258Y1101D01*
X0Y1100D02*
X7Y1100D01*
X1251Y1100D02*
X1258Y1100D01*
X0Y1099D02*
X7Y1099D01*
X1251Y1099D02*
X1258Y1099D01*
X0Y1098D02*
X7Y1098D01*
X1251Y1098D02*
X1258Y1098D01*
X0Y1097D02*
X7Y1097D01*
X1251Y1097D02*
X1258Y1097D01*
X0Y1096D02*
X7Y1096D01*
X994Y1096D02*
X1020Y1096D01*
X1060Y1096D02*
X1076Y1096D01*
X1251Y1096D02*
X1258Y1096D01*
X0Y1095D02*
X7Y1095D01*
X994Y1095D02*
X1022Y1095D01*
X1057Y1095D02*
X1077Y1095D01*
X1251Y1095D02*
X1258Y1095D01*
X0Y1094D02*
X7Y1094D01*
X264Y1094D02*
X296Y1094D01*
X329Y1094D02*
X332Y1094D01*
X364Y1094D02*
X373Y1094D01*
X393Y1094D02*
X396Y1094D01*
X994Y1094D02*
X1024Y1094D01*
X1056Y1094D02*
X1078Y1094D01*
X1251Y1094D02*
X1258Y1094D01*
X0Y1093D02*
X7Y1093D01*
X264Y1093D02*
X297Y1093D01*
X328Y1093D02*
X333Y1093D01*
X364Y1093D02*
X373Y1093D01*
X392Y1093D02*
X397Y1093D01*
X903Y1093D02*
X905Y1093D01*
X994Y1093D02*
X1025Y1093D01*
X1055Y1093D02*
X1078Y1093D01*
X1251Y1093D02*
X1258Y1093D01*
X0Y1092D02*
X7Y1092D01*
X264Y1092D02*
X298Y1092D01*
X328Y1092D02*
X334Y1092D01*
X364Y1092D02*
X374Y1092D01*
X392Y1092D02*
X398Y1092D01*
X902Y1092D02*
X906Y1092D01*
X994Y1092D02*
X1026Y1092D01*
X1054Y1092D02*
X1078Y1092D01*
X1251Y1092D02*
X1258Y1092D01*
X0Y1091D02*
X7Y1091D01*
X173Y1091D02*
X176Y1091D01*
X264Y1091D02*
X298Y1091D01*
X328Y1091D02*
X334Y1091D01*
X364Y1091D02*
X374Y1091D01*
X392Y1091D02*
X398Y1091D01*
X901Y1091D02*
X907Y1091D01*
X994Y1091D02*
X1026Y1091D01*
X1053Y1091D02*
X1077Y1091D01*
X1251Y1091D02*
X1258Y1091D01*
X0Y1090D02*
X7Y1090D01*
X172Y1090D02*
X177Y1090D01*
X264Y1090D02*
X298Y1090D01*
X327Y1090D02*
X334Y1090D01*
X364Y1090D02*
X374Y1090D01*
X392Y1090D02*
X398Y1090D01*
X901Y1090D02*
X907Y1090D01*
X994Y1090D02*
X1027Y1090D01*
X1053Y1090D02*
X1076Y1090D01*
X1251Y1090D02*
X1258Y1090D01*
X0Y1089D02*
X7Y1089D01*
X171Y1089D02*
X177Y1089D01*
X264Y1089D02*
X297Y1089D01*
X327Y1089D02*
X335Y1089D01*
X364Y1089D02*
X375Y1089D01*
X392Y1089D02*
X398Y1089D01*
X901Y1089D02*
X907Y1089D01*
X994Y1089D02*
X1000Y1089D01*
X1020Y1089D02*
X1027Y1089D01*
X1052Y1089D02*
X1060Y1089D01*
X1251Y1089D02*
X1258Y1089D01*
X0Y1088D02*
X7Y1088D01*
X171Y1088D02*
X177Y1088D01*
X264Y1088D02*
X296Y1088D01*
X327Y1088D02*
X335Y1088D01*
X364Y1088D02*
X375Y1088D01*
X392Y1088D02*
X398Y1088D01*
X901Y1088D02*
X907Y1088D01*
X994Y1088D02*
X1000Y1088D01*
X1021Y1088D02*
X1028Y1088D01*
X1052Y1088D02*
X1059Y1088D01*
X1251Y1088D02*
X1258Y1088D01*
X0Y1087D02*
X7Y1087D01*
X171Y1087D02*
X177Y1087D01*
X264Y1087D02*
X270Y1087D01*
X327Y1087D02*
X335Y1087D01*
X364Y1087D02*
X376Y1087D01*
X392Y1087D02*
X398Y1087D01*
X901Y1087D02*
X907Y1087D01*
X994Y1087D02*
X1000Y1087D01*
X1022Y1087D02*
X1028Y1087D01*
X1051Y1087D02*
X1058Y1087D01*
X1251Y1087D02*
X1258Y1087D01*
X0Y1086D02*
X7Y1086D01*
X171Y1086D02*
X177Y1086D01*
X264Y1086D02*
X270Y1086D01*
X326Y1086D02*
X336Y1086D01*
X364Y1086D02*
X376Y1086D01*
X392Y1086D02*
X398Y1086D01*
X901Y1086D02*
X907Y1086D01*
X994Y1086D02*
X1000Y1086D01*
X1022Y1086D02*
X1028Y1086D01*
X1051Y1086D02*
X1058Y1086D01*
X1251Y1086D02*
X1258Y1086D01*
X0Y1085D02*
X7Y1085D01*
X171Y1085D02*
X177Y1085D01*
X264Y1085D02*
X270Y1085D01*
X326Y1085D02*
X336Y1085D01*
X364Y1085D02*
X377Y1085D01*
X392Y1085D02*
X398Y1085D01*
X901Y1085D02*
X907Y1085D01*
X994Y1085D02*
X1000Y1085D01*
X1022Y1085D02*
X1028Y1085D01*
X1050Y1085D02*
X1057Y1085D01*
X1251Y1085D02*
X1258Y1085D01*
X0Y1084D02*
X7Y1084D01*
X171Y1084D02*
X177Y1084D01*
X264Y1084D02*
X270Y1084D01*
X326Y1084D02*
X336Y1084D01*
X364Y1084D02*
X377Y1084D01*
X392Y1084D02*
X398Y1084D01*
X901Y1084D02*
X907Y1084D01*
X994Y1084D02*
X1000Y1084D01*
X1022Y1084D02*
X1028Y1084D01*
X1050Y1084D02*
X1057Y1084D01*
X1251Y1084D02*
X1258Y1084D01*
X0Y1083D02*
X7Y1083D01*
X171Y1083D02*
X177Y1083D01*
X264Y1083D02*
X270Y1083D01*
X325Y1083D02*
X336Y1083D01*
X364Y1083D02*
X378Y1083D01*
X392Y1083D02*
X398Y1083D01*
X901Y1083D02*
X907Y1083D01*
X994Y1083D02*
X1000Y1083D01*
X1022Y1083D02*
X1028Y1083D01*
X1049Y1083D02*
X1056Y1083D01*
X1251Y1083D02*
X1258Y1083D01*
X0Y1082D02*
X7Y1082D01*
X171Y1082D02*
X177Y1082D01*
X264Y1082D02*
X270Y1082D01*
X325Y1082D02*
X337Y1082D01*
X364Y1082D02*
X378Y1082D01*
X392Y1082D02*
X398Y1082D01*
X901Y1082D02*
X907Y1082D01*
X994Y1082D02*
X1000Y1082D01*
X1022Y1082D02*
X1028Y1082D01*
X1049Y1082D02*
X1056Y1082D01*
X1251Y1082D02*
X1258Y1082D01*
X0Y1081D02*
X7Y1081D01*
X171Y1081D02*
X177Y1081D01*
X264Y1081D02*
X270Y1081D01*
X325Y1081D02*
X337Y1081D01*
X364Y1081D02*
X370Y1081D01*
X372Y1081D02*
X378Y1081D01*
X392Y1081D02*
X398Y1081D01*
X896Y1081D02*
X923Y1081D01*
X954Y1081D02*
X968Y1081D01*
X994Y1081D02*
X1000Y1081D01*
X1022Y1081D02*
X1028Y1081D01*
X1048Y1081D02*
X1055Y1081D01*
X1251Y1081D02*
X1258Y1081D01*
X0Y1080D02*
X7Y1080D01*
X171Y1080D02*
X178Y1080D01*
X264Y1080D02*
X270Y1080D01*
X324Y1080D02*
X337Y1080D01*
X364Y1080D02*
X370Y1080D01*
X372Y1080D02*
X379Y1080D01*
X392Y1080D02*
X398Y1080D01*
X895Y1080D02*
X924Y1080D01*
X952Y1080D02*
X970Y1080D01*
X994Y1080D02*
X1000Y1080D01*
X1022Y1080D02*
X1028Y1080D01*
X1048Y1080D02*
X1055Y1080D01*
X1251Y1080D02*
X1258Y1080D01*
X0Y1079D02*
X7Y1079D01*
X165Y1079D02*
X193Y1079D01*
X223Y1079D02*
X239Y1079D01*
X264Y1079D02*
X270Y1079D01*
X324Y1079D02*
X338Y1079D01*
X364Y1079D02*
X370Y1079D01*
X373Y1079D02*
X379Y1079D01*
X392Y1079D02*
X398Y1079D01*
X894Y1079D02*
X924Y1079D01*
X950Y1079D02*
X972Y1079D01*
X994Y1079D02*
X1000Y1079D01*
X1022Y1079D02*
X1028Y1079D01*
X1047Y1079D02*
X1054Y1079D01*
X1251Y1079D02*
X1258Y1079D01*
X0Y1078D02*
X7Y1078D01*
X165Y1078D02*
X194Y1078D01*
X221Y1078D02*
X241Y1078D01*
X264Y1078D02*
X270Y1078D01*
X324Y1078D02*
X338Y1078D01*
X364Y1078D02*
X370Y1078D01*
X373Y1078D02*
X380Y1078D01*
X392Y1078D02*
X398Y1078D01*
X894Y1078D02*
X924Y1078D01*
X949Y1078D02*
X973Y1078D01*
X994Y1078D02*
X1000Y1078D01*
X1022Y1078D02*
X1028Y1078D01*
X1047Y1078D02*
X1054Y1078D01*
X1251Y1078D02*
X1258Y1078D01*
X0Y1077D02*
X7Y1077D01*
X164Y1077D02*
X194Y1077D01*
X220Y1077D02*
X242Y1077D01*
X264Y1077D02*
X271Y1077D01*
X324Y1077D02*
X330Y1077D01*
X332Y1077D02*
X338Y1077D01*
X364Y1077D02*
X370Y1077D01*
X373Y1077D02*
X380Y1077D01*
X392Y1077D02*
X398Y1077D01*
X895Y1077D02*
X924Y1077D01*
X948Y1077D02*
X974Y1077D01*
X994Y1077D02*
X1000Y1077D01*
X1022Y1077D02*
X1028Y1077D01*
X1046Y1077D02*
X1053Y1077D01*
X1251Y1077D02*
X1258Y1077D01*
X0Y1076D02*
X7Y1076D01*
X164Y1076D02*
X194Y1076D01*
X219Y1076D02*
X243Y1076D01*
X264Y1076D02*
X290Y1076D01*
X323Y1076D02*
X330Y1076D01*
X332Y1076D02*
X339Y1076D01*
X364Y1076D02*
X370Y1076D01*
X374Y1076D02*
X381Y1076D01*
X392Y1076D02*
X398Y1076D01*
X895Y1076D02*
X924Y1076D01*
X947Y1076D02*
X975Y1076D01*
X994Y1076D02*
X1000Y1076D01*
X1022Y1076D02*
X1028Y1076D01*
X1046Y1076D02*
X1052Y1076D01*
X1251Y1076D02*
X1258Y1076D01*
X0Y1075D02*
X7Y1075D01*
X165Y1075D02*
X194Y1075D01*
X218Y1075D02*
X244Y1075D01*
X264Y1075D02*
X290Y1075D01*
X323Y1075D02*
X329Y1075D01*
X332Y1075D02*
X339Y1075D01*
X364Y1075D02*
X370Y1075D01*
X374Y1075D02*
X381Y1075D01*
X392Y1075D02*
X398Y1075D01*
X896Y1075D02*
X922Y1075D01*
X946Y1075D02*
X976Y1075D01*
X994Y1075D02*
X1000Y1075D01*
X1022Y1075D02*
X1028Y1075D01*
X1045Y1075D02*
X1052Y1075D01*
X1251Y1075D02*
X1258Y1075D01*
X0Y1074D02*
X7Y1074D01*
X165Y1074D02*
X193Y1074D01*
X217Y1074D02*
X245Y1074D01*
X264Y1074D02*
X291Y1074D01*
X323Y1074D02*
X329Y1074D01*
X333Y1074D02*
X339Y1074D01*
X364Y1074D02*
X370Y1074D01*
X375Y1074D02*
X381Y1074D01*
X392Y1074D02*
X398Y1074D01*
X901Y1074D02*
X907Y1074D01*
X946Y1074D02*
X954Y1074D01*
X968Y1074D02*
X977Y1074D01*
X994Y1074D02*
X1000Y1074D01*
X1022Y1074D02*
X1028Y1074D01*
X1045Y1074D02*
X1051Y1074D01*
X1251Y1074D02*
X1258Y1074D01*
X0Y1073D02*
X7Y1073D01*
X168Y1073D02*
X191Y1073D01*
X216Y1073D02*
X246Y1073D01*
X264Y1073D02*
X291Y1073D01*
X322Y1073D02*
X329Y1073D01*
X333Y1073D02*
X339Y1073D01*
X364Y1073D02*
X370Y1073D01*
X375Y1073D02*
X382Y1073D01*
X392Y1073D02*
X398Y1073D01*
X901Y1073D02*
X907Y1073D01*
X945Y1073D02*
X953Y1073D01*
X969Y1073D02*
X977Y1073D01*
X994Y1073D02*
X1000Y1073D01*
X1022Y1073D02*
X1028Y1073D01*
X1045Y1073D02*
X1051Y1073D01*
X1251Y1073D02*
X1258Y1073D01*
X0Y1072D02*
X7Y1072D01*
X171Y1072D02*
X177Y1072D01*
X215Y1072D02*
X224Y1072D01*
X238Y1072D02*
X247Y1072D01*
X264Y1072D02*
X290Y1072D01*
X322Y1072D02*
X328Y1072D01*
X333Y1072D02*
X340Y1072D01*
X364Y1072D02*
X370Y1072D01*
X376Y1072D02*
X382Y1072D01*
X392Y1072D02*
X398Y1072D01*
X901Y1072D02*
X907Y1072D01*
X945Y1072D02*
X952Y1072D01*
X970Y1072D02*
X977Y1072D01*
X994Y1072D02*
X1000Y1072D01*
X1021Y1072D02*
X1028Y1072D01*
X1044Y1072D02*
X1051Y1072D01*
X1251Y1072D02*
X1258Y1072D01*
X0Y1071D02*
X7Y1071D01*
X171Y1071D02*
X177Y1071D01*
X215Y1071D02*
X223Y1071D01*
X240Y1071D02*
X247Y1071D01*
X264Y1071D02*
X290Y1071D01*
X322Y1071D02*
X328Y1071D01*
X334Y1071D02*
X340Y1071D01*
X364Y1071D02*
X370Y1071D01*
X376Y1071D02*
X383Y1071D01*
X392Y1071D02*
X398Y1071D01*
X901Y1071D02*
X907Y1071D01*
X945Y1071D02*
X951Y1071D01*
X971Y1071D02*
X978Y1071D01*
X994Y1071D02*
X1000Y1071D01*
X1021Y1071D02*
X1028Y1071D01*
X1044Y1071D02*
X1050Y1071D01*
X1251Y1071D02*
X1258Y1071D01*
X0Y1070D02*
X7Y1070D01*
X171Y1070D02*
X177Y1070D01*
X215Y1070D02*
X222Y1070D01*
X241Y1070D02*
X247Y1070D01*
X264Y1070D02*
X287Y1070D01*
X322Y1070D02*
X328Y1070D01*
X334Y1070D02*
X340Y1070D01*
X364Y1070D02*
X370Y1070D01*
X376Y1070D02*
X383Y1070D01*
X392Y1070D02*
X398Y1070D01*
X901Y1070D02*
X907Y1070D01*
X944Y1070D02*
X950Y1070D01*
X972Y1070D02*
X978Y1070D01*
X994Y1070D02*
X1001Y1070D01*
X1019Y1070D02*
X1027Y1070D01*
X1044Y1070D02*
X1050Y1070D01*
X1251Y1070D02*
X1258Y1070D01*
X0Y1069D02*
X7Y1069D01*
X171Y1069D02*
X177Y1069D01*
X214Y1069D02*
X221Y1069D01*
X241Y1069D02*
X248Y1069D01*
X264Y1069D02*
X270Y1069D01*
X321Y1069D02*
X328Y1069D01*
X334Y1069D02*
X341Y1069D01*
X364Y1069D02*
X370Y1069D01*
X377Y1069D02*
X384Y1069D01*
X392Y1069D02*
X398Y1069D01*
X901Y1069D02*
X907Y1069D01*
X944Y1069D02*
X950Y1069D01*
X972Y1069D02*
X978Y1069D01*
X994Y1069D02*
X1027Y1069D01*
X1044Y1069D02*
X1050Y1069D01*
X1251Y1069D02*
X1258Y1069D01*
X0Y1068D02*
X7Y1068D01*
X171Y1068D02*
X177Y1068D01*
X214Y1068D02*
X220Y1068D01*
X242Y1068D02*
X248Y1068D01*
X264Y1068D02*
X270Y1068D01*
X321Y1068D02*
X327Y1068D01*
X335Y1068D02*
X341Y1068D01*
X364Y1068D02*
X370Y1068D01*
X377Y1068D02*
X384Y1068D01*
X392Y1068D02*
X398Y1068D01*
X901Y1068D02*
X907Y1068D01*
X944Y1068D02*
X950Y1068D01*
X972Y1068D02*
X978Y1068D01*
X994Y1068D02*
X1026Y1068D01*
X1044Y1068D02*
X1050Y1068D01*
X1251Y1068D02*
X1258Y1068D01*
X0Y1067D02*
X7Y1067D01*
X171Y1067D02*
X177Y1067D01*
X214Y1067D02*
X220Y1067D01*
X242Y1067D02*
X248Y1067D01*
X264Y1067D02*
X270Y1067D01*
X321Y1067D02*
X327Y1067D01*
X335Y1067D02*
X341Y1067D01*
X364Y1067D02*
X370Y1067D01*
X378Y1067D02*
X385Y1067D01*
X392Y1067D02*
X398Y1067D01*
X901Y1067D02*
X907Y1067D01*
X944Y1067D02*
X950Y1067D01*
X972Y1067D02*
X978Y1067D01*
X994Y1067D02*
X1026Y1067D01*
X1045Y1067D02*
X1051Y1067D01*
X1251Y1067D02*
X1258Y1067D01*
X0Y1066D02*
X7Y1066D01*
X171Y1066D02*
X177Y1066D01*
X214Y1066D02*
X220Y1066D01*
X242Y1066D02*
X248Y1066D01*
X264Y1066D02*
X270Y1066D01*
X320Y1066D02*
X327Y1066D01*
X335Y1066D02*
X341Y1066D01*
X364Y1066D02*
X370Y1066D01*
X378Y1066D02*
X385Y1066D01*
X392Y1066D02*
X398Y1066D01*
X901Y1066D02*
X907Y1066D01*
X944Y1066D02*
X950Y1066D01*
X972Y1066D02*
X978Y1066D01*
X994Y1066D02*
X1025Y1066D01*
X1045Y1066D02*
X1051Y1066D01*
X1251Y1066D02*
X1258Y1066D01*
X0Y1065D02*
X7Y1065D01*
X171Y1065D02*
X177Y1065D01*
X214Y1065D02*
X220Y1065D01*
X242Y1065D02*
X248Y1065D01*
X264Y1065D02*
X270Y1065D01*
X320Y1065D02*
X326Y1065D01*
X335Y1065D02*
X342Y1065D01*
X364Y1065D02*
X370Y1065D01*
X379Y1065D02*
X385Y1065D01*
X392Y1065D02*
X398Y1065D01*
X901Y1065D02*
X907Y1065D01*
X944Y1065D02*
X950Y1065D01*
X972Y1065D02*
X978Y1065D01*
X994Y1065D02*
X1024Y1065D01*
X1045Y1065D02*
X1051Y1065D01*
X1251Y1065D02*
X1258Y1065D01*
X0Y1064D02*
X7Y1064D01*
X171Y1064D02*
X177Y1064D01*
X214Y1064D02*
X220Y1064D01*
X242Y1064D02*
X248Y1064D01*
X264Y1064D02*
X270Y1064D01*
X320Y1064D02*
X326Y1064D01*
X336Y1064D02*
X342Y1064D01*
X364Y1064D02*
X370Y1064D01*
X379Y1064D02*
X386Y1064D01*
X392Y1064D02*
X398Y1064D01*
X901Y1064D02*
X907Y1064D01*
X944Y1064D02*
X950Y1064D01*
X972Y1064D02*
X978Y1064D01*
X994Y1064D02*
X1022Y1064D01*
X1045Y1064D02*
X1052Y1064D01*
X1251Y1064D02*
X1258Y1064D01*
X0Y1063D02*
X7Y1063D01*
X171Y1063D02*
X177Y1063D01*
X214Y1063D02*
X220Y1063D01*
X242Y1063D02*
X248Y1063D01*
X264Y1063D02*
X270Y1063D01*
X320Y1063D02*
X326Y1063D01*
X336Y1063D02*
X342Y1063D01*
X364Y1063D02*
X370Y1063D01*
X380Y1063D02*
X386Y1063D01*
X392Y1063D02*
X398Y1063D01*
X901Y1063D02*
X907Y1063D01*
X944Y1063D02*
X950Y1063D01*
X972Y1063D02*
X978Y1063D01*
X994Y1063D02*
X1019Y1063D01*
X1046Y1063D02*
X1052Y1063D01*
X1251Y1063D02*
X1258Y1063D01*
X0Y1062D02*
X7Y1062D01*
X171Y1062D02*
X177Y1062D01*
X214Y1062D02*
X220Y1062D01*
X242Y1062D02*
X248Y1062D01*
X264Y1062D02*
X270Y1062D01*
X319Y1062D02*
X326Y1062D01*
X336Y1062D02*
X343Y1062D01*
X364Y1062D02*
X370Y1062D01*
X380Y1062D02*
X387Y1062D01*
X392Y1062D02*
X398Y1062D01*
X901Y1062D02*
X907Y1062D01*
X944Y1062D02*
X950Y1062D01*
X972Y1062D02*
X978Y1062D01*
X994Y1062D02*
X1000Y1062D01*
X1046Y1062D02*
X1053Y1062D01*
X1251Y1062D02*
X1258Y1062D01*
X0Y1061D02*
X7Y1061D01*
X171Y1061D02*
X177Y1061D01*
X214Y1061D02*
X220Y1061D01*
X242Y1061D02*
X248Y1061D01*
X264Y1061D02*
X270Y1061D01*
X319Y1061D02*
X325Y1061D01*
X337Y1061D02*
X343Y1061D01*
X364Y1061D02*
X370Y1061D01*
X380Y1061D02*
X387Y1061D01*
X392Y1061D02*
X398Y1061D01*
X901Y1061D02*
X907Y1061D01*
X944Y1061D02*
X950Y1061D01*
X972Y1061D02*
X978Y1061D01*
X994Y1061D02*
X1000Y1061D01*
X1046Y1061D02*
X1053Y1061D01*
X1251Y1061D02*
X1258Y1061D01*
X0Y1060D02*
X7Y1060D01*
X171Y1060D02*
X177Y1060D01*
X214Y1060D02*
X220Y1060D01*
X242Y1060D02*
X248Y1060D01*
X264Y1060D02*
X270Y1060D01*
X319Y1060D02*
X325Y1060D01*
X337Y1060D02*
X343Y1060D01*
X364Y1060D02*
X370Y1060D01*
X381Y1060D02*
X388Y1060D01*
X392Y1060D02*
X398Y1060D01*
X901Y1060D02*
X907Y1060D01*
X944Y1060D02*
X950Y1060D01*
X972Y1060D02*
X978Y1060D01*
X994Y1060D02*
X1000Y1060D01*
X1047Y1060D02*
X1054Y1060D01*
X1251Y1060D02*
X1258Y1060D01*
X0Y1059D02*
X7Y1059D01*
X171Y1059D02*
X177Y1059D01*
X214Y1059D02*
X220Y1059D01*
X242Y1059D02*
X248Y1059D01*
X264Y1059D02*
X270Y1059D01*
X318Y1059D02*
X343Y1059D01*
X364Y1059D02*
X370Y1059D01*
X381Y1059D02*
X388Y1059D01*
X392Y1059D02*
X398Y1059D01*
X901Y1059D02*
X907Y1059D01*
X944Y1059D02*
X950Y1059D01*
X972Y1059D02*
X978Y1059D01*
X994Y1059D02*
X1000Y1059D01*
X1047Y1059D02*
X1054Y1059D01*
X1251Y1059D02*
X1258Y1059D01*
X0Y1058D02*
X7Y1058D01*
X171Y1058D02*
X177Y1058D01*
X214Y1058D02*
X220Y1058D01*
X242Y1058D02*
X248Y1058D01*
X264Y1058D02*
X270Y1058D01*
X318Y1058D02*
X344Y1058D01*
X364Y1058D02*
X370Y1058D01*
X382Y1058D02*
X388Y1058D01*
X392Y1058D02*
X398Y1058D01*
X901Y1058D02*
X907Y1058D01*
X944Y1058D02*
X950Y1058D01*
X972Y1058D02*
X978Y1058D01*
X994Y1058D02*
X1000Y1058D01*
X1048Y1058D02*
X1055Y1058D01*
X1251Y1058D02*
X1258Y1058D01*
X0Y1057D02*
X7Y1057D01*
X171Y1057D02*
X177Y1057D01*
X214Y1057D02*
X220Y1057D01*
X242Y1057D02*
X248Y1057D01*
X264Y1057D02*
X270Y1057D01*
X318Y1057D02*
X344Y1057D01*
X364Y1057D02*
X370Y1057D01*
X382Y1057D02*
X389Y1057D01*
X392Y1057D02*
X398Y1057D01*
X901Y1057D02*
X907Y1057D01*
X944Y1057D02*
X950Y1057D01*
X972Y1057D02*
X978Y1057D01*
X994Y1057D02*
X1000Y1057D01*
X1048Y1057D02*
X1055Y1057D01*
X1251Y1057D02*
X1258Y1057D01*
X0Y1056D02*
X7Y1056D01*
X171Y1056D02*
X177Y1056D01*
X214Y1056D02*
X220Y1056D01*
X242Y1056D02*
X248Y1056D01*
X264Y1056D02*
X270Y1056D01*
X317Y1056D02*
X344Y1056D01*
X364Y1056D02*
X370Y1056D01*
X383Y1056D02*
X389Y1056D01*
X392Y1056D02*
X398Y1056D01*
X901Y1056D02*
X907Y1056D01*
X944Y1056D02*
X950Y1056D01*
X972Y1056D02*
X978Y1056D01*
X994Y1056D02*
X1000Y1056D01*
X1049Y1056D02*
X1056Y1056D01*
X1251Y1056D02*
X1258Y1056D01*
X0Y1055D02*
X7Y1055D01*
X171Y1055D02*
X177Y1055D01*
X214Y1055D02*
X220Y1055D01*
X242Y1055D02*
X248Y1055D01*
X264Y1055D02*
X270Y1055D01*
X317Y1055D02*
X345Y1055D01*
X364Y1055D02*
X370Y1055D01*
X383Y1055D02*
X390Y1055D01*
X392Y1055D02*
X398Y1055D01*
X901Y1055D02*
X907Y1055D01*
X925Y1055D02*
X925Y1055D01*
X944Y1055D02*
X950Y1055D01*
X972Y1055D02*
X978Y1055D01*
X994Y1055D02*
X1000Y1055D01*
X1049Y1055D02*
X1056Y1055D01*
X1251Y1055D02*
X1258Y1055D01*
X0Y1054D02*
X7Y1054D01*
X171Y1054D02*
X177Y1054D01*
X214Y1054D02*
X220Y1054D01*
X242Y1054D02*
X248Y1054D01*
X264Y1054D02*
X270Y1054D01*
X317Y1054D02*
X345Y1054D01*
X364Y1054D02*
X370Y1054D01*
X383Y1054D02*
X398Y1054D01*
X901Y1054D02*
X907Y1054D01*
X923Y1054D02*
X927Y1054D01*
X944Y1054D02*
X951Y1054D01*
X972Y1054D02*
X978Y1054D01*
X994Y1054D02*
X1000Y1054D01*
X1050Y1054D02*
X1057Y1054D01*
X1251Y1054D02*
X1258Y1054D01*
X0Y1053D02*
X7Y1053D01*
X171Y1053D02*
X177Y1053D01*
X194Y1053D02*
X196Y1053D01*
X214Y1053D02*
X220Y1053D01*
X242Y1053D02*
X248Y1053D01*
X264Y1053D02*
X270Y1053D01*
X317Y1053D02*
X345Y1053D01*
X364Y1053D02*
X370Y1053D01*
X384Y1053D02*
X398Y1053D01*
X901Y1053D02*
X907Y1053D01*
X922Y1053D02*
X928Y1053D01*
X944Y1053D02*
X951Y1053D01*
X971Y1053D02*
X978Y1053D01*
X994Y1053D02*
X1000Y1053D01*
X1051Y1053D02*
X1057Y1053D01*
X1251Y1053D02*
X1258Y1053D01*
X0Y1052D02*
X7Y1052D01*
X171Y1052D02*
X177Y1052D01*
X193Y1052D02*
X197Y1052D01*
X214Y1052D02*
X221Y1052D01*
X242Y1052D02*
X248Y1052D01*
X264Y1052D02*
X270Y1052D01*
X316Y1052D02*
X323Y1052D01*
X339Y1052D02*
X346Y1052D01*
X364Y1052D02*
X370Y1052D01*
X384Y1052D02*
X398Y1052D01*
X901Y1052D02*
X907Y1052D01*
X922Y1052D02*
X928Y1052D01*
X945Y1052D02*
X952Y1052D01*
X970Y1052D02*
X977Y1052D01*
X994Y1052D02*
X1000Y1052D01*
X1051Y1052D02*
X1058Y1052D01*
X1251Y1052D02*
X1258Y1052D01*
X0Y1051D02*
X7Y1051D01*
X171Y1051D02*
X177Y1051D01*
X192Y1051D02*
X198Y1051D01*
X214Y1051D02*
X221Y1051D01*
X241Y1051D02*
X248Y1051D01*
X264Y1051D02*
X270Y1051D01*
X316Y1051D02*
X322Y1051D01*
X340Y1051D02*
X346Y1051D01*
X364Y1051D02*
X370Y1051D01*
X385Y1051D02*
X398Y1051D01*
X901Y1051D02*
X908Y1051D01*
X921Y1051D02*
X928Y1051D01*
X945Y1051D02*
X953Y1051D01*
X969Y1051D02*
X977Y1051D01*
X994Y1051D02*
X1000Y1051D01*
X1052Y1051D02*
X1058Y1051D01*
X1251Y1051D02*
X1258Y1051D01*
X0Y1050D02*
X7Y1050D01*
X171Y1050D02*
X177Y1050D01*
X192Y1050D02*
X198Y1050D01*
X215Y1050D02*
X222Y1050D01*
X240Y1050D02*
X247Y1050D01*
X264Y1050D02*
X270Y1050D01*
X316Y1050D02*
X322Y1050D01*
X340Y1050D02*
X346Y1050D01*
X364Y1050D02*
X370Y1050D01*
X385Y1050D02*
X398Y1050D01*
X902Y1050D02*
X909Y1050D01*
X920Y1050D02*
X928Y1050D01*
X945Y1050D02*
X954Y1050D01*
X968Y1050D02*
X977Y1050D01*
X994Y1050D02*
X1000Y1050D01*
X1052Y1050D02*
X1059Y1050D01*
X1251Y1050D02*
X1258Y1050D01*
X0Y1049D02*
X7Y1049D01*
X171Y1049D02*
X178Y1049D01*
X191Y1049D02*
X198Y1049D01*
X215Y1049D02*
X223Y1049D01*
X239Y1049D02*
X247Y1049D01*
X264Y1049D02*
X270Y1049D01*
X315Y1049D02*
X322Y1049D01*
X340Y1049D02*
X346Y1049D01*
X364Y1049D02*
X370Y1049D01*
X386Y1049D02*
X398Y1049D01*
X902Y1049D02*
X927Y1049D01*
X946Y1049D02*
X976Y1049D01*
X994Y1049D02*
X1000Y1049D01*
X1053Y1049D02*
X1075Y1049D01*
X1251Y1049D02*
X1258Y1049D01*
X0Y1048D02*
X7Y1048D01*
X172Y1048D02*
X179Y1048D01*
X190Y1048D02*
X197Y1048D01*
X216Y1048D02*
X225Y1048D01*
X238Y1048D02*
X246Y1048D01*
X264Y1048D02*
X270Y1048D01*
X315Y1048D02*
X321Y1048D01*
X340Y1048D02*
X347Y1048D01*
X364Y1048D02*
X370Y1048D01*
X386Y1048D02*
X398Y1048D01*
X902Y1048D02*
X927Y1048D01*
X947Y1048D02*
X975Y1048D01*
X994Y1048D02*
X1000Y1048D01*
X1053Y1048D02*
X1077Y1048D01*
X1251Y1048D02*
X1258Y1048D01*
X0Y1047D02*
X7Y1047D01*
X172Y1047D02*
X197Y1047D01*
X216Y1047D02*
X246Y1047D01*
X264Y1047D02*
X270Y1047D01*
X315Y1047D02*
X321Y1047D01*
X341Y1047D02*
X347Y1047D01*
X364Y1047D02*
X370Y1047D01*
X387Y1047D02*
X398Y1047D01*
X903Y1047D02*
X926Y1047D01*
X948Y1047D02*
X974Y1047D01*
X994Y1047D02*
X1000Y1047D01*
X1054Y1047D02*
X1078Y1047D01*
X1251Y1047D02*
X1258Y1047D01*
X0Y1046D02*
X7Y1046D01*
X172Y1046D02*
X197Y1046D01*
X217Y1046D02*
X245Y1046D01*
X264Y1046D02*
X270Y1046D01*
X315Y1046D02*
X321Y1046D01*
X341Y1046D02*
X347Y1046D01*
X364Y1046D02*
X370Y1046D01*
X387Y1046D02*
X398Y1046D01*
X904Y1046D02*
X925Y1046D01*
X949Y1046D02*
X973Y1046D01*
X994Y1046D02*
X1000Y1046D01*
X1054Y1046D02*
X1078Y1046D01*
X1251Y1046D02*
X1258Y1046D01*
X0Y1045D02*
X7Y1045D01*
X173Y1045D02*
X196Y1045D01*
X218Y1045D02*
X244Y1045D01*
X264Y1045D02*
X270Y1045D01*
X314Y1045D02*
X321Y1045D01*
X341Y1045D02*
X348Y1045D01*
X364Y1045D02*
X370Y1045D01*
X387Y1045D02*
X398Y1045D01*
X905Y1045D02*
X924Y1045D01*
X950Y1045D02*
X972Y1045D01*
X994Y1045D02*
X1000Y1045D01*
X1055Y1045D02*
X1078Y1045D01*
X1251Y1045D02*
X1258Y1045D01*
X0Y1044D02*
X7Y1044D01*
X174Y1044D02*
X195Y1044D01*
X219Y1044D02*
X243Y1044D01*
X264Y1044D02*
X270Y1044D01*
X314Y1044D02*
X320Y1044D01*
X342Y1044D02*
X348Y1044D01*
X364Y1044D02*
X370Y1044D01*
X388Y1044D02*
X398Y1044D01*
X906Y1044D02*
X923Y1044D01*
X952Y1044D02*
X971Y1044D01*
X995Y1044D02*
X1000Y1044D01*
X1057Y1044D02*
X1077Y1044D01*
X1251Y1044D02*
X1258Y1044D01*
X0Y1043D02*
X7Y1043D01*
X175Y1043D02*
X194Y1043D01*
X220Y1043D02*
X242Y1043D01*
X264Y1043D02*
X270Y1043D01*
X314Y1043D02*
X320Y1043D01*
X342Y1043D02*
X348Y1043D01*
X364Y1043D02*
X370Y1043D01*
X388Y1043D02*
X398Y1043D01*
X908Y1043D02*
X921Y1043D01*
X953Y1043D02*
X969Y1043D01*
X996Y1043D02*
X999Y1043D01*
X1059Y1043D02*
X1076Y1043D01*
X1251Y1043D02*
X1258Y1043D01*
X0Y1042D02*
X7Y1042D01*
X176Y1042D02*
X193Y1042D01*
X222Y1042D02*
X240Y1042D01*
X265Y1042D02*
X269Y1042D01*
X315Y1042D02*
X319Y1042D01*
X342Y1042D02*
X347Y1042D01*
X365Y1042D02*
X369Y1042D01*
X389Y1042D02*
X398Y1042D01*
X1251Y1042D02*
X1258Y1042D01*
X0Y1041D02*
X7Y1041D01*
X179Y1041D02*
X190Y1041D01*
X224Y1041D02*
X238Y1041D01*
X266Y1041D02*
X268Y1041D01*
X316Y1041D02*
X318Y1041D01*
X344Y1041D02*
X346Y1041D01*
X366Y1041D02*
X368Y1041D01*
X389Y1041D02*
X398Y1041D01*
X1251Y1041D02*
X1258Y1041D01*
X0Y1040D02*
X7Y1040D01*
X1251Y1040D02*
X1258Y1040D01*
X0Y1039D02*
X7Y1039D01*
X1251Y1039D02*
X1258Y1039D01*
X0Y1038D02*
X7Y1038D01*
X1251Y1038D02*
X1258Y1038D01*
X0Y1037D02*
X7Y1037D01*
X1251Y1037D02*
X1258Y1037D01*
X0Y1036D02*
X7Y1036D01*
X1251Y1036D02*
X1258Y1036D01*
X0Y1035D02*
X7Y1035D01*
X1251Y1035D02*
X1258Y1035D01*
X0Y1034D02*
X7Y1034D01*
X1251Y1034D02*
X1258Y1034D01*
X0Y1033D02*
X7Y1033D01*
X1251Y1033D02*
X1258Y1033D01*
X0Y1032D02*
X7Y1032D01*
X1251Y1032D02*
X1258Y1032D01*
X0Y1031D02*
X7Y1031D01*
X1251Y1031D02*
X1258Y1031D01*
X0Y1030D02*
X7Y1030D01*
X1251Y1030D02*
X1258Y1030D01*
X0Y1029D02*
X7Y1029D01*
X1251Y1029D02*
X1258Y1029D01*
X0Y1028D02*
X7Y1028D01*
X1251Y1028D02*
X1258Y1028D01*
X0Y1027D02*
X7Y1027D01*
X1251Y1027D02*
X1258Y1027D01*
X0Y1026D02*
X7Y1026D01*
X1251Y1026D02*
X1258Y1026D01*
X0Y1025D02*
X7Y1025D01*
X1251Y1025D02*
X1258Y1025D01*
X0Y1024D02*
X7Y1024D01*
X491Y1024D02*
X495Y1024D01*
X520Y1024D02*
X547Y1024D01*
X1251Y1024D02*
X1258Y1024D01*
X0Y1023D02*
X7Y1023D01*
X489Y1023D02*
X498Y1023D01*
X519Y1023D02*
X549Y1023D01*
X892Y1023D02*
X898Y1023D01*
X921Y1023D02*
X939Y1023D01*
X1251Y1023D02*
X1258Y1023D01*
X0Y1022D02*
X7Y1022D01*
X488Y1022D02*
X499Y1022D01*
X518Y1022D02*
X550Y1022D01*
X891Y1022D02*
X900Y1022D01*
X920Y1022D02*
X939Y1022D01*
X1251Y1022D02*
X1258Y1022D01*
X0Y1021D02*
X7Y1021D01*
X487Y1021D02*
X500Y1021D01*
X518Y1021D02*
X550Y1021D01*
X889Y1021D02*
X901Y1021D01*
X920Y1021D02*
X939Y1021D01*
X1251Y1021D02*
X1258Y1021D01*
X0Y1020D02*
X7Y1020D01*
X486Y1020D02*
X500Y1020D01*
X518Y1020D02*
X551Y1020D01*
X888Y1020D02*
X902Y1020D01*
X920Y1020D02*
X939Y1020D01*
X1251Y1020D02*
X1258Y1020D01*
X0Y1019D02*
X7Y1019D01*
X485Y1019D02*
X501Y1019D01*
X519Y1019D02*
X551Y1019D01*
X887Y1019D02*
X902Y1019D01*
X920Y1019D02*
X939Y1019D01*
X1251Y1019D02*
X1258Y1019D01*
X0Y1018D02*
X7Y1018D01*
X483Y1018D02*
X501Y1018D01*
X520Y1018D02*
X551Y1018D01*
X886Y1018D02*
X903Y1018D01*
X920Y1018D02*
X939Y1018D01*
X1251Y1018D02*
X1258Y1018D01*
X0Y1017D02*
X7Y1017D01*
X482Y1017D02*
X492Y1017D01*
X495Y1017D02*
X501Y1017D01*
X545Y1017D02*
X552Y1017D01*
X885Y1017D02*
X903Y1017D01*
X922Y1017D02*
X939Y1017D01*
X1251Y1017D02*
X1258Y1017D01*
X0Y1016D02*
X7Y1016D01*
X481Y1016D02*
X491Y1016D01*
X495Y1016D02*
X502Y1016D01*
X545Y1016D02*
X552Y1016D01*
X883Y1016D02*
X893Y1016D01*
X897Y1016D02*
X903Y1016D01*
X933Y1016D02*
X939Y1016D01*
X1251Y1016D02*
X1258Y1016D01*
X0Y1015D02*
X7Y1015D01*
X480Y1015D02*
X490Y1015D01*
X496Y1015D02*
X502Y1015D01*
X545Y1015D02*
X552Y1015D01*
X882Y1015D02*
X892Y1015D01*
X897Y1015D02*
X903Y1015D01*
X933Y1015D02*
X939Y1015D01*
X1251Y1015D02*
X1258Y1015D01*
X0Y1014D02*
X7Y1014D01*
X479Y1014D02*
X489Y1014D01*
X496Y1014D02*
X502Y1014D01*
X545Y1014D02*
X552Y1014D01*
X881Y1014D02*
X891Y1014D01*
X897Y1014D02*
X903Y1014D01*
X933Y1014D02*
X939Y1014D01*
X1251Y1014D02*
X1258Y1014D01*
X0Y1013D02*
X7Y1013D01*
X477Y1013D02*
X487Y1013D01*
X496Y1013D02*
X502Y1013D01*
X545Y1013D02*
X552Y1013D01*
X880Y1013D02*
X890Y1013D01*
X897Y1013D02*
X903Y1013D01*
X933Y1013D02*
X939Y1013D01*
X1251Y1013D02*
X1258Y1013D01*
X0Y1012D02*
X7Y1012D01*
X476Y1012D02*
X486Y1012D01*
X496Y1012D02*
X502Y1012D01*
X545Y1012D02*
X552Y1012D01*
X879Y1012D02*
X889Y1012D01*
X897Y1012D02*
X903Y1012D01*
X933Y1012D02*
X939Y1012D01*
X1251Y1012D02*
X1258Y1012D01*
X0Y1011D02*
X7Y1011D01*
X475Y1011D02*
X485Y1011D01*
X496Y1011D02*
X502Y1011D01*
X545Y1011D02*
X552Y1011D01*
X877Y1011D02*
X887Y1011D01*
X897Y1011D02*
X903Y1011D01*
X933Y1011D02*
X939Y1011D01*
X1251Y1011D02*
X1258Y1011D01*
X0Y1010D02*
X7Y1010D01*
X474Y1010D02*
X484Y1010D01*
X496Y1010D02*
X502Y1010D01*
X545Y1010D02*
X552Y1010D01*
X876Y1010D02*
X886Y1010D01*
X897Y1010D02*
X903Y1010D01*
X933Y1010D02*
X939Y1010D01*
X1251Y1010D02*
X1258Y1010D01*
X0Y1009D02*
X7Y1009D01*
X473Y1009D02*
X483Y1009D01*
X496Y1009D02*
X502Y1009D01*
X545Y1009D02*
X552Y1009D01*
X875Y1009D02*
X885Y1009D01*
X897Y1009D02*
X903Y1009D01*
X933Y1009D02*
X939Y1009D01*
X1251Y1009D02*
X1258Y1009D01*
X0Y1008D02*
X7Y1008D01*
X472Y1008D02*
X481Y1008D01*
X496Y1008D02*
X502Y1008D01*
X545Y1008D02*
X552Y1008D01*
X874Y1008D02*
X884Y1008D01*
X897Y1008D02*
X903Y1008D01*
X933Y1008D02*
X939Y1008D01*
X1251Y1008D02*
X1258Y1008D01*
X0Y1007D02*
X7Y1007D01*
X471Y1007D02*
X480Y1007D01*
X496Y1007D02*
X502Y1007D01*
X545Y1007D02*
X552Y1007D01*
X873Y1007D02*
X883Y1007D01*
X897Y1007D02*
X903Y1007D01*
X933Y1007D02*
X939Y1007D01*
X1251Y1007D02*
X1258Y1007D01*
X0Y1006D02*
X7Y1006D01*
X470Y1006D02*
X479Y1006D01*
X496Y1006D02*
X502Y1006D01*
X545Y1006D02*
X552Y1006D01*
X872Y1006D02*
X881Y1006D01*
X897Y1006D02*
X903Y1006D01*
X933Y1006D02*
X939Y1006D01*
X1251Y1006D02*
X1258Y1006D01*
X0Y1005D02*
X7Y1005D01*
X470Y1005D02*
X478Y1005D01*
X496Y1005D02*
X502Y1005D01*
X545Y1005D02*
X552Y1005D01*
X872Y1005D02*
X880Y1005D01*
X897Y1005D02*
X903Y1005D01*
X933Y1005D02*
X939Y1005D01*
X1251Y1005D02*
X1258Y1005D01*
X0Y1004D02*
X7Y1004D01*
X469Y1004D02*
X477Y1004D01*
X496Y1004D02*
X502Y1004D01*
X545Y1004D02*
X552Y1004D01*
X871Y1004D02*
X879Y1004D01*
X897Y1004D02*
X903Y1004D01*
X933Y1004D02*
X939Y1004D01*
X1251Y1004D02*
X1258Y1004D01*
X0Y1003D02*
X7Y1003D01*
X469Y1003D02*
X476Y1003D01*
X496Y1003D02*
X502Y1003D01*
X545Y1003D02*
X552Y1003D01*
X871Y1003D02*
X878Y1003D01*
X897Y1003D02*
X903Y1003D01*
X933Y1003D02*
X939Y1003D01*
X1251Y1003D02*
X1258Y1003D01*
X0Y1002D02*
X7Y1002D01*
X468Y1002D02*
X475Y1002D01*
X496Y1002D02*
X502Y1002D01*
X545Y1002D02*
X552Y1002D01*
X870Y1002D02*
X877Y1002D01*
X897Y1002D02*
X903Y1002D01*
X933Y1002D02*
X939Y1002D01*
X1251Y1002D02*
X1258Y1002D01*
X0Y1001D02*
X7Y1001D01*
X468Y1001D02*
X474Y1001D01*
X496Y1001D02*
X502Y1001D01*
X545Y1001D02*
X552Y1001D01*
X870Y1001D02*
X876Y1001D01*
X897Y1001D02*
X903Y1001D01*
X933Y1001D02*
X939Y1001D01*
X1251Y1001D02*
X1258Y1001D01*
X0Y1000D02*
X7Y1000D01*
X468Y1000D02*
X474Y1000D01*
X496Y1000D02*
X502Y1000D01*
X522Y1000D02*
X551Y1000D01*
X870Y1000D02*
X876Y1000D01*
X897Y1000D02*
X903Y1000D01*
X933Y1000D02*
X939Y1000D01*
X1251Y1000D02*
X1258Y1000D01*
X0Y999D02*
X7Y999D01*
X468Y999D02*
X474Y999D01*
X496Y999D02*
X502Y999D01*
X520Y999D02*
X551Y999D01*
X870Y999D02*
X876Y999D01*
X897Y999D02*
X903Y999D01*
X933Y999D02*
X939Y999D01*
X1251Y999D02*
X1258Y999D01*
X0Y998D02*
X7Y998D01*
X468Y998D02*
X474Y998D01*
X496Y998D02*
X502Y998D01*
X519Y998D02*
X551Y998D01*
X870Y998D02*
X876Y998D01*
X897Y998D02*
X903Y998D01*
X933Y998D02*
X939Y998D01*
X1251Y998D02*
X1258Y998D01*
X0Y997D02*
X7Y997D01*
X468Y997D02*
X474Y997D01*
X496Y997D02*
X502Y997D01*
X519Y997D02*
X550Y997D01*
X870Y997D02*
X876Y997D01*
X897Y997D02*
X903Y997D01*
X933Y997D02*
X939Y997D01*
X1251Y997D02*
X1258Y997D01*
X0Y996D02*
X7Y996D01*
X468Y996D02*
X474Y996D01*
X495Y996D02*
X502Y996D01*
X518Y996D02*
X549Y996D01*
X870Y996D02*
X876Y996D01*
X897Y996D02*
X903Y996D01*
X933Y996D02*
X939Y996D01*
X1251Y996D02*
X1258Y996D01*
X0Y995D02*
X7Y995D01*
X468Y995D02*
X474Y995D01*
X495Y995D02*
X501Y995D01*
X518Y995D02*
X548Y995D01*
X870Y995D02*
X876Y995D01*
X897Y995D02*
X903Y995D01*
X933Y995D02*
X939Y995D01*
X1251Y995D02*
X1258Y995D01*
X0Y994D02*
X7Y994D01*
X468Y994D02*
X474Y994D01*
X483Y994D02*
X486Y994D01*
X495Y994D02*
X501Y994D01*
X518Y994D02*
X546Y994D01*
X870Y994D02*
X876Y994D01*
X886Y994D02*
X887Y994D01*
X897Y994D02*
X903Y994D01*
X933Y994D02*
X939Y994D01*
X949Y994D02*
X951Y994D01*
X1251Y994D02*
X1258Y994D01*
X0Y993D02*
X7Y993D01*
X468Y993D02*
X474Y993D01*
X482Y993D02*
X487Y993D01*
X495Y993D02*
X501Y993D01*
X518Y993D02*
X524Y993D01*
X870Y993D02*
X876Y993D01*
X884Y993D02*
X888Y993D01*
X897Y993D02*
X903Y993D01*
X933Y993D02*
X939Y993D01*
X948Y993D02*
X952Y993D01*
X1251Y993D02*
X1258Y993D01*
X0Y992D02*
X7Y992D01*
X468Y992D02*
X474Y992D01*
X482Y992D02*
X488Y992D01*
X494Y992D02*
X501Y992D01*
X518Y992D02*
X524Y992D01*
X870Y992D02*
X876Y992D01*
X884Y992D02*
X889Y992D01*
X896Y992D02*
X903Y992D01*
X933Y992D02*
X939Y992D01*
X947Y992D02*
X953Y992D01*
X1251Y992D02*
X1258Y992D01*
X0Y991D02*
X7Y991D01*
X468Y991D02*
X474Y991D01*
X482Y991D02*
X488Y991D01*
X493Y991D02*
X500Y991D01*
X518Y991D02*
X524Y991D01*
X870Y991D02*
X876Y991D01*
X883Y991D02*
X890Y991D01*
X895Y991D02*
X902Y991D01*
X933Y991D02*
X939Y991D01*
X947Y991D02*
X953Y991D01*
X1251Y991D02*
X1258Y991D01*
X0Y990D02*
X7Y990D01*
X468Y990D02*
X474Y990D01*
X482Y990D02*
X489Y990D01*
X492Y990D02*
X500Y990D01*
X518Y990D02*
X524Y990D01*
X870Y990D02*
X876Y990D01*
X883Y990D02*
X890Y990D01*
X894Y990D02*
X902Y990D01*
X933Y990D02*
X939Y990D01*
X947Y990D02*
X953Y990D01*
X1251Y990D02*
X1258Y990D01*
X0Y989D02*
X7Y989D01*
X468Y989D02*
X474Y989D01*
X482Y989D02*
X489Y989D01*
X491Y989D02*
X499Y989D01*
X518Y989D02*
X524Y989D01*
X870Y989D02*
X876Y989D01*
X884Y989D02*
X890Y989D01*
X893Y989D02*
X901Y989D01*
X933Y989D02*
X939Y989D01*
X947Y989D02*
X953Y989D01*
X1251Y989D02*
X1258Y989D01*
X0Y988D02*
X7Y988D01*
X468Y988D02*
X474Y988D01*
X483Y988D02*
X499Y988D01*
X518Y988D02*
X524Y988D01*
X870Y988D02*
X876Y988D01*
X884Y988D02*
X901Y988D01*
X933Y988D02*
X939Y988D01*
X947Y988D02*
X953Y988D01*
X1251Y988D02*
X1258Y988D01*
X0Y987D02*
X7Y987D01*
X468Y987D02*
X474Y987D01*
X483Y987D02*
X498Y987D01*
X518Y987D02*
X524Y987D01*
X870Y987D02*
X876Y987D01*
X885Y987D02*
X900Y987D01*
X933Y987D02*
X939Y987D01*
X947Y987D02*
X953Y987D01*
X1251Y987D02*
X1258Y987D01*
X0Y986D02*
X7Y986D01*
X468Y986D02*
X474Y986D01*
X484Y986D02*
X497Y986D01*
X518Y986D02*
X524Y986D01*
X870Y986D02*
X876Y986D01*
X885Y986D02*
X899Y986D01*
X933Y986D02*
X939Y986D01*
X947Y986D02*
X953Y986D01*
X1251Y986D02*
X1258Y986D01*
X0Y985D02*
X7Y985D01*
X468Y985D02*
X474Y985D01*
X484Y985D02*
X496Y985D01*
X518Y985D02*
X524Y985D01*
X870Y985D02*
X876Y985D01*
X885Y985D02*
X898Y985D01*
X933Y985D02*
X939Y985D01*
X947Y985D02*
X953Y985D01*
X1251Y985D02*
X1258Y985D01*
X0Y984D02*
X7Y984D01*
X468Y984D02*
X474Y984D01*
X484Y984D02*
X495Y984D01*
X518Y984D02*
X524Y984D01*
X870Y984D02*
X876Y984D01*
X886Y984D02*
X897Y984D01*
X933Y984D02*
X939Y984D01*
X947Y984D02*
X953Y984D01*
X1251Y984D02*
X1258Y984D01*
X0Y983D02*
X7Y983D01*
X468Y983D02*
X474Y983D01*
X484Y983D02*
X494Y983D01*
X518Y983D02*
X524Y983D01*
X870Y983D02*
X876Y983D01*
X886Y983D02*
X896Y983D01*
X933Y983D02*
X939Y983D01*
X947Y983D02*
X953Y983D01*
X1251Y983D02*
X1258Y983D01*
X0Y982D02*
X7Y982D01*
X468Y982D02*
X474Y982D01*
X483Y982D02*
X492Y982D01*
X518Y982D02*
X524Y982D01*
X870Y982D02*
X876Y982D01*
X885Y982D02*
X895Y982D01*
X933Y982D02*
X939Y982D01*
X947Y982D02*
X953Y982D01*
X1251Y982D02*
X1258Y982D01*
X0Y981D02*
X7Y981D01*
X468Y981D02*
X474Y981D01*
X481Y981D02*
X492Y981D01*
X518Y981D02*
X524Y981D01*
X870Y981D02*
X876Y981D01*
X884Y981D02*
X894Y981D01*
X933Y981D02*
X939Y981D01*
X947Y981D02*
X953Y981D01*
X1251Y981D02*
X1258Y981D01*
X0Y980D02*
X7Y980D01*
X468Y980D02*
X474Y980D01*
X480Y980D02*
X492Y980D01*
X518Y980D02*
X524Y980D01*
X870Y980D02*
X876Y980D01*
X883Y980D02*
X894Y980D01*
X933Y980D02*
X939Y980D01*
X947Y980D02*
X953Y980D01*
X1251Y980D02*
X1258Y980D01*
X0Y979D02*
X7Y979D01*
X468Y979D02*
X474Y979D01*
X479Y979D02*
X493Y979D01*
X518Y979D02*
X524Y979D01*
X870Y979D02*
X876Y979D01*
X881Y979D02*
X894Y979D01*
X933Y979D02*
X939Y979D01*
X947Y979D02*
X953Y979D01*
X1251Y979D02*
X1258Y979D01*
X0Y978D02*
X7Y978D01*
X468Y978D02*
X474Y978D01*
X478Y978D02*
X493Y978D01*
X518Y978D02*
X524Y978D01*
X870Y978D02*
X876Y978D01*
X880Y978D02*
X895Y978D01*
X933Y978D02*
X939Y978D01*
X947Y978D02*
X953Y978D01*
X1251Y978D02*
X1258Y978D01*
X0Y977D02*
X7Y977D01*
X468Y977D02*
X499Y977D01*
X518Y977D02*
X549Y977D01*
X870Y977D02*
X876Y977D01*
X879Y977D02*
X895Y977D01*
X933Y977D02*
X939Y977D01*
X947Y977D02*
X953Y977D01*
X1251Y977D02*
X1258Y977D01*
X0Y976D02*
X7Y976D01*
X468Y976D02*
X485Y976D01*
X487Y976D02*
X501Y976D01*
X518Y976D02*
X551Y976D01*
X870Y976D02*
X902Y976D01*
X921Y976D02*
X953Y976D01*
X1251Y976D02*
X1258Y976D01*
X0Y975D02*
X7Y975D01*
X469Y975D02*
X484Y975D01*
X488Y975D02*
X501Y975D01*
X518Y975D02*
X551Y975D01*
X870Y975D02*
X886Y975D01*
X889Y975D02*
X903Y975D01*
X920Y975D02*
X953Y975D01*
X1251Y975D02*
X1258Y975D01*
X0Y974D02*
X7Y974D01*
X469Y974D02*
X483Y974D01*
X488Y974D02*
X501Y974D01*
X518Y974D02*
X551Y974D01*
X871Y974D02*
X885Y974D01*
X890Y974D02*
X903Y974D01*
X920Y974D02*
X953Y974D01*
X1251Y974D02*
X1258Y974D01*
X0Y973D02*
X7Y973D01*
X470Y973D02*
X482Y973D01*
X489Y973D02*
X501Y973D01*
X518Y973D02*
X551Y973D01*
X871Y973D02*
X884Y973D01*
X890Y973D02*
X903Y973D01*
X920Y973D02*
X953Y973D01*
X1251Y973D02*
X1258Y973D01*
X0Y972D02*
X7Y972D01*
X471Y972D02*
X481Y972D01*
X489Y972D02*
X501Y972D01*
X518Y972D02*
X551Y972D01*
X872Y972D02*
X883Y972D01*
X890Y972D02*
X903Y972D01*
X920Y972D02*
X953Y972D01*
X1251Y972D02*
X1258Y972D01*
X0Y971D02*
X7Y971D01*
X473Y971D02*
X479Y971D01*
X489Y971D02*
X500Y971D01*
X518Y971D02*
X550Y971D01*
X873Y971D02*
X882Y971D01*
X891Y971D02*
X902Y971D01*
X920Y971D02*
X952Y971D01*
X1251Y971D02*
X1258Y971D01*
X0Y970D02*
X7Y970D01*
X876Y970D02*
X880Y970D01*
X891Y970D02*
X901Y970D01*
X922Y970D02*
X951Y970D01*
X1251Y970D02*
X1258Y970D01*
X0Y969D02*
X7Y969D01*
X1251Y969D02*
X1258Y969D01*
X0Y968D02*
X7Y968D01*
X1251Y968D02*
X1258Y968D01*
X0Y967D02*
X7Y967D01*
X1251Y967D02*
X1258Y967D01*
X0Y966D02*
X7Y966D01*
X1251Y966D02*
X1258Y966D01*
X0Y965D02*
X7Y965D01*
X1251Y965D02*
X1258Y965D01*
X0Y964D02*
X7Y964D01*
X1251Y964D02*
X1258Y964D01*
X0Y963D02*
X7Y963D01*
X1251Y963D02*
X1258Y963D01*
X0Y962D02*
X7Y962D01*
X1251Y962D02*
X1258Y962D01*
X0Y961D02*
X7Y961D01*
X1251Y961D02*
X1258Y961D01*
X0Y960D02*
X7Y960D01*
X1251Y960D02*
X1258Y960D01*
X0Y959D02*
X7Y959D01*
X1251Y959D02*
X1258Y959D01*
X0Y958D02*
X7Y958D01*
X1251Y958D02*
X1258Y958D01*
X0Y957D02*
X7Y957D01*
X1251Y957D02*
X1258Y957D01*
X0Y956D02*
X7Y956D01*
X1251Y956D02*
X1258Y956D01*
X0Y955D02*
X7Y955D01*
X1251Y955D02*
X1258Y955D01*
X0Y954D02*
X7Y954D01*
X1251Y954D02*
X1258Y954D01*
X0Y953D02*
X7Y953D01*
X1251Y953D02*
X1258Y953D01*
X0Y952D02*
X7Y952D01*
X172Y952D02*
X180Y952D01*
X572Y952D02*
X579Y952D01*
X972Y952D02*
X979Y952D01*
X1251Y952D02*
X1258Y952D01*
X0Y951D02*
X7Y951D01*
X169Y951D02*
X180Y951D01*
X568Y951D02*
X580Y951D01*
X968Y951D02*
X979Y951D01*
X1251Y951D02*
X1258Y951D01*
X0Y950D02*
X7Y950D01*
X166Y950D02*
X180Y950D01*
X566Y950D02*
X580Y950D01*
X965Y950D02*
X980Y950D01*
X1251Y950D02*
X1258Y950D01*
X0Y949D02*
X7Y949D01*
X164Y949D02*
X180Y949D01*
X563Y949D02*
X580Y949D01*
X963Y949D02*
X980Y949D01*
X1251Y949D02*
X1258Y949D01*
X0Y948D02*
X7Y948D01*
X161Y948D02*
X181Y948D01*
X561Y948D02*
X580Y948D01*
X961Y948D02*
X980Y948D01*
X1251Y948D02*
X1258Y948D01*
X0Y947D02*
X7Y947D01*
X160Y947D02*
X181Y947D01*
X560Y947D02*
X581Y947D01*
X959Y947D02*
X980Y947D01*
X1251Y947D02*
X1258Y947D01*
X0Y946D02*
X7Y946D01*
X158Y946D02*
X181Y946D01*
X558Y946D02*
X581Y946D01*
X958Y946D02*
X981Y946D01*
X1251Y946D02*
X1258Y946D01*
X0Y945D02*
X7Y945D01*
X157Y945D02*
X182Y945D01*
X556Y945D02*
X581Y945D01*
X956Y945D02*
X981Y945D01*
X1251Y945D02*
X1258Y945D01*
X0Y944D02*
X7Y944D01*
X155Y944D02*
X181Y944D01*
X555Y944D02*
X581Y944D01*
X955Y944D02*
X981Y944D01*
X1251Y944D02*
X1258Y944D01*
X0Y943D02*
X7Y943D01*
X154Y943D02*
X179Y943D01*
X554Y943D02*
X579Y943D01*
X953Y943D02*
X979Y943D01*
X1251Y943D02*
X1258Y943D01*
X0Y942D02*
X7Y942D01*
X153Y942D02*
X172Y942D01*
X552Y942D02*
X572Y942D01*
X952Y942D02*
X972Y942D01*
X1251Y942D02*
X1258Y942D01*
X0Y941D02*
X7Y941D01*
X151Y941D02*
X169Y941D01*
X551Y941D02*
X568Y941D01*
X951Y941D02*
X968Y941D01*
X1251Y941D02*
X1258Y941D01*
X0Y940D02*
X7Y940D01*
X150Y940D02*
X166Y940D01*
X550Y940D02*
X566Y940D01*
X950Y940D02*
X966Y940D01*
X1251Y940D02*
X1258Y940D01*
X0Y939D02*
X7Y939D01*
X149Y939D02*
X164Y939D01*
X549Y939D02*
X564Y939D01*
X949Y939D02*
X964Y939D01*
X1251Y939D02*
X1258Y939D01*
X0Y938D02*
X7Y938D01*
X148Y938D02*
X163Y938D01*
X548Y938D02*
X562Y938D01*
X948Y938D02*
X962Y938D01*
X1251Y938D02*
X1258Y938D01*
X0Y937D02*
X7Y937D01*
X147Y937D02*
X161Y937D01*
X547Y937D02*
X561Y937D01*
X947Y937D02*
X960Y937D01*
X1251Y937D02*
X1258Y937D01*
X0Y936D02*
X7Y936D01*
X146Y936D02*
X160Y936D01*
X546Y936D02*
X559Y936D01*
X946Y936D02*
X959Y936D01*
X1251Y936D02*
X1258Y936D01*
X0Y935D02*
X7Y935D01*
X145Y935D02*
X158Y935D01*
X545Y935D02*
X558Y935D01*
X945Y935D02*
X958Y935D01*
X1251Y935D02*
X1258Y935D01*
X0Y934D02*
X7Y934D01*
X145Y934D02*
X157Y934D01*
X544Y934D02*
X557Y934D01*
X944Y934D02*
X957Y934D01*
X1251Y934D02*
X1258Y934D01*
X0Y933D02*
X7Y933D01*
X144Y933D02*
X156Y933D01*
X544Y933D02*
X556Y933D01*
X943Y933D02*
X956Y933D01*
X1251Y933D02*
X1258Y933D01*
X0Y932D02*
X7Y932D01*
X143Y932D02*
X155Y932D01*
X543Y932D02*
X555Y932D01*
X942Y932D02*
X955Y932D01*
X1251Y932D02*
X1258Y932D01*
X0Y931D02*
X7Y931D01*
X142Y931D02*
X154Y931D01*
X542Y931D02*
X554Y931D01*
X942Y931D02*
X954Y931D01*
X1251Y931D02*
X1258Y931D01*
X0Y930D02*
X7Y930D01*
X141Y930D02*
X153Y930D01*
X541Y930D02*
X553Y930D01*
X941Y930D02*
X953Y930D01*
X1081Y930D02*
X1089Y930D01*
X1251Y930D02*
X1258Y930D01*
X0Y929D02*
X7Y929D01*
X141Y929D02*
X152Y929D01*
X541Y929D02*
X552Y929D01*
X940Y929D02*
X952Y929D01*
X1081Y929D02*
X1089Y929D01*
X1251Y929D02*
X1258Y929D01*
X0Y928D02*
X7Y928D01*
X140Y928D02*
X152Y928D01*
X540Y928D02*
X551Y928D01*
X940Y928D02*
X951Y928D01*
X1081Y928D02*
X1089Y928D01*
X1251Y928D02*
X1258Y928D01*
X0Y927D02*
X7Y927D01*
X139Y927D02*
X151Y927D01*
X539Y927D02*
X550Y927D01*
X939Y927D02*
X950Y927D01*
X1081Y927D02*
X1089Y927D01*
X1251Y927D02*
X1258Y927D01*
X0Y926D02*
X7Y926D01*
X139Y926D02*
X150Y926D01*
X539Y926D02*
X550Y926D01*
X938Y926D02*
X949Y926D01*
X1081Y926D02*
X1089Y926D01*
X1251Y926D02*
X1258Y926D01*
X0Y925D02*
X7Y925D01*
X138Y925D02*
X149Y925D01*
X538Y925D02*
X549Y925D01*
X938Y925D02*
X949Y925D01*
X1081Y925D02*
X1089Y925D01*
X1251Y925D02*
X1258Y925D01*
X0Y924D02*
X7Y924D01*
X138Y924D02*
X148Y924D01*
X537Y924D02*
X548Y924D01*
X937Y924D02*
X948Y924D01*
X1081Y924D02*
X1089Y924D01*
X1251Y924D02*
X1258Y924D01*
X0Y923D02*
X7Y923D01*
X137Y923D02*
X148Y923D01*
X537Y923D02*
X548Y923D01*
X936Y923D02*
X947Y923D01*
X1081Y923D02*
X1089Y923D01*
X1251Y923D02*
X1258Y923D01*
X0Y922D02*
X7Y922D01*
X136Y922D02*
X147Y922D01*
X536Y922D02*
X547Y922D01*
X936Y922D02*
X947Y922D01*
X1081Y922D02*
X1089Y922D01*
X1251Y922D02*
X1258Y922D01*
X0Y921D02*
X7Y921D01*
X136Y921D02*
X146Y921D01*
X536Y921D02*
X546Y921D01*
X935Y921D02*
X946Y921D01*
X1081Y921D02*
X1089Y921D01*
X1251Y921D02*
X1258Y921D01*
X0Y920D02*
X7Y920D01*
X135Y920D02*
X146Y920D01*
X535Y920D02*
X546Y920D01*
X935Y920D02*
X945Y920D01*
X1081Y920D02*
X1089Y920D01*
X1251Y920D02*
X1258Y920D01*
X0Y919D02*
X7Y919D01*
X135Y919D02*
X145Y919D01*
X535Y919D02*
X545Y919D01*
X934Y919D02*
X945Y919D01*
X1081Y919D02*
X1089Y919D01*
X1251Y919D02*
X1258Y919D01*
X0Y918D02*
X7Y918D01*
X134Y918D02*
X145Y918D01*
X534Y918D02*
X544Y918D01*
X934Y918D02*
X944Y918D01*
X1081Y918D02*
X1089Y918D01*
X1251Y918D02*
X1258Y918D01*
X0Y917D02*
X7Y917D01*
X134Y917D02*
X144Y917D01*
X534Y917D02*
X544Y917D01*
X933Y917D02*
X944Y917D01*
X1081Y917D02*
X1089Y917D01*
X1251Y917D02*
X1258Y917D01*
X0Y916D02*
X7Y916D01*
X133Y916D02*
X144Y916D01*
X533Y916D02*
X543Y916D01*
X933Y916D02*
X943Y916D01*
X1081Y916D02*
X1089Y916D01*
X1251Y916D02*
X1258Y916D01*
X0Y915D02*
X7Y915D01*
X133Y915D02*
X143Y915D01*
X533Y915D02*
X543Y915D01*
X932Y915D02*
X942Y915D01*
X1081Y915D02*
X1089Y915D01*
X1251Y915D02*
X1258Y915D01*
X0Y914D02*
X7Y914D01*
X133Y914D02*
X142Y914D01*
X532Y914D02*
X542Y914D01*
X932Y914D02*
X942Y914D01*
X1081Y914D02*
X1089Y914D01*
X1251Y914D02*
X1258Y914D01*
X0Y913D02*
X7Y913D01*
X132Y913D02*
X142Y913D01*
X532Y913D02*
X542Y913D01*
X932Y913D02*
X941Y913D01*
X1081Y913D02*
X1089Y913D01*
X1251Y913D02*
X1258Y913D01*
X0Y912D02*
X7Y912D01*
X132Y912D02*
X142Y912D01*
X531Y912D02*
X541Y912D01*
X931Y912D02*
X941Y912D01*
X1081Y912D02*
X1089Y912D01*
X1251Y912D02*
X1258Y912D01*
X0Y911D02*
X7Y911D01*
X131Y911D02*
X141Y911D01*
X531Y911D02*
X541Y911D01*
X931Y911D02*
X941Y911D01*
X1081Y911D02*
X1089Y911D01*
X1251Y911D02*
X1258Y911D01*
X0Y910D02*
X7Y910D01*
X131Y910D02*
X141Y910D01*
X531Y910D02*
X540Y910D01*
X930Y910D02*
X940Y910D01*
X1081Y910D02*
X1089Y910D01*
X1251Y910D02*
X1258Y910D01*
X0Y909D02*
X7Y909D01*
X130Y909D02*
X140Y909D01*
X530Y909D02*
X540Y909D01*
X930Y909D02*
X940Y909D01*
X1081Y909D02*
X1089Y909D01*
X1251Y909D02*
X1258Y909D01*
X0Y908D02*
X7Y908D01*
X130Y908D02*
X140Y908D01*
X530Y908D02*
X539Y908D01*
X930Y908D02*
X939Y908D01*
X1081Y908D02*
X1089Y908D01*
X1251Y908D02*
X1258Y908D01*
X0Y907D02*
X7Y907D01*
X130Y907D02*
X139Y907D01*
X529Y907D02*
X539Y907D01*
X929Y907D02*
X939Y907D01*
X1081Y907D02*
X1089Y907D01*
X1251Y907D02*
X1258Y907D01*
X0Y906D02*
X7Y906D01*
X129Y906D02*
X139Y906D01*
X529Y906D02*
X539Y906D01*
X929Y906D02*
X938Y906D01*
X1081Y906D02*
X1089Y906D01*
X1251Y906D02*
X1258Y906D01*
X0Y905D02*
X7Y905D01*
X129Y905D02*
X139Y905D01*
X529Y905D02*
X538Y905D01*
X928Y905D02*
X938Y905D01*
X1081Y905D02*
X1089Y905D01*
X1251Y905D02*
X1258Y905D01*
X0Y904D02*
X7Y904D01*
X129Y904D02*
X138Y904D01*
X528Y904D02*
X538Y904D01*
X928Y904D02*
X938Y904D01*
X1081Y904D02*
X1089Y904D01*
X1251Y904D02*
X1258Y904D01*
X0Y903D02*
X7Y903D01*
X128Y903D02*
X138Y903D01*
X528Y903D02*
X538Y903D01*
X928Y903D02*
X937Y903D01*
X1081Y903D02*
X1089Y903D01*
X1251Y903D02*
X1258Y903D01*
X0Y902D02*
X7Y902D01*
X128Y902D02*
X137Y902D01*
X528Y902D02*
X537Y902D01*
X928Y902D02*
X937Y902D01*
X1081Y902D02*
X1089Y902D01*
X1251Y902D02*
X1258Y902D01*
X0Y901D02*
X7Y901D01*
X128Y901D02*
X137Y901D01*
X528Y901D02*
X537Y901D01*
X927Y901D02*
X937Y901D01*
X1081Y901D02*
X1089Y901D01*
X1251Y901D02*
X1258Y901D01*
X0Y900D02*
X7Y900D01*
X128Y900D02*
X137Y900D01*
X527Y900D02*
X537Y900D01*
X927Y900D02*
X936Y900D01*
X1081Y900D02*
X1089Y900D01*
X1251Y900D02*
X1258Y900D01*
X0Y899D02*
X7Y899D01*
X127Y899D02*
X137Y899D01*
X527Y899D02*
X536Y899D01*
X927Y899D02*
X936Y899D01*
X1081Y899D02*
X1089Y899D01*
X1251Y899D02*
X1258Y899D01*
X0Y898D02*
X7Y898D01*
X127Y898D02*
X136Y898D01*
X527Y898D02*
X536Y898D01*
X926Y898D02*
X936Y898D01*
X1081Y898D02*
X1089Y898D01*
X1251Y898D02*
X1258Y898D01*
X0Y897D02*
X7Y897D01*
X127Y897D02*
X136Y897D01*
X526Y897D02*
X536Y897D01*
X926Y897D02*
X935Y897D01*
X1081Y897D02*
X1089Y897D01*
X1251Y897D02*
X1258Y897D01*
X0Y896D02*
X7Y896D01*
X126Y896D02*
X136Y896D01*
X526Y896D02*
X535Y896D01*
X926Y896D02*
X935Y896D01*
X1081Y896D02*
X1089Y896D01*
X1251Y896D02*
X1258Y896D01*
X0Y895D02*
X7Y895D01*
X126Y895D02*
X135Y895D01*
X526Y895D02*
X535Y895D01*
X926Y895D02*
X935Y895D01*
X1081Y895D02*
X1089Y895D01*
X1251Y895D02*
X1258Y895D01*
X0Y894D02*
X7Y894D01*
X126Y894D02*
X135Y894D01*
X526Y894D02*
X535Y894D01*
X925Y894D02*
X935Y894D01*
X1081Y894D02*
X1089Y894D01*
X1251Y894D02*
X1258Y894D01*
X0Y893D02*
X7Y893D01*
X126Y893D02*
X135Y893D01*
X525Y893D02*
X535Y893D01*
X925Y893D02*
X934Y893D01*
X1081Y893D02*
X1089Y893D01*
X1251Y893D02*
X1258Y893D01*
X0Y892D02*
X7Y892D01*
X125Y892D02*
X135Y892D01*
X525Y892D02*
X534Y892D01*
X925Y892D02*
X934Y892D01*
X1081Y892D02*
X1089Y892D01*
X1251Y892D02*
X1258Y892D01*
X0Y891D02*
X7Y891D01*
X125Y891D02*
X134Y891D01*
X525Y891D02*
X534Y891D01*
X925Y891D02*
X934Y891D01*
X1081Y891D02*
X1089Y891D01*
X1251Y891D02*
X1258Y891D01*
X0Y890D02*
X7Y890D01*
X125Y890D02*
X134Y890D01*
X525Y890D02*
X534Y890D01*
X925Y890D02*
X934Y890D01*
X1081Y890D02*
X1089Y890D01*
X1251Y890D02*
X1258Y890D01*
X0Y889D02*
X7Y889D01*
X125Y889D02*
X134Y889D01*
X525Y889D02*
X534Y889D01*
X924Y889D02*
X933Y889D01*
X1081Y889D02*
X1089Y889D01*
X1251Y889D02*
X1258Y889D01*
X0Y888D02*
X7Y888D01*
X125Y888D02*
X134Y888D01*
X524Y888D02*
X533Y888D01*
X924Y888D02*
X933Y888D01*
X1081Y888D02*
X1088Y888D01*
X1251Y888D02*
X1258Y888D01*
X0Y887D02*
X7Y887D01*
X124Y887D02*
X134Y887D01*
X524Y887D02*
X533Y887D01*
X924Y887D02*
X933Y887D01*
X1081Y887D02*
X1087Y887D01*
X1251Y887D02*
X1258Y887D01*
X0Y886D02*
X7Y886D01*
X124Y886D02*
X133Y886D01*
X524Y886D02*
X533Y886D01*
X924Y886D02*
X933Y886D01*
X1081Y886D02*
X1086Y886D01*
X1251Y886D02*
X1258Y886D01*
X0Y885D02*
X7Y885D01*
X124Y885D02*
X133Y885D01*
X524Y885D02*
X533Y885D01*
X924Y885D02*
X933Y885D01*
X1081Y885D02*
X1086Y885D01*
X1251Y885D02*
X1258Y885D01*
X0Y884D02*
X7Y884D01*
X124Y884D02*
X133Y884D01*
X524Y884D02*
X533Y884D01*
X923Y884D02*
X933Y884D01*
X1081Y884D02*
X1085Y884D01*
X1251Y884D02*
X1258Y884D01*
X0Y883D02*
X7Y883D01*
X124Y883D02*
X133Y883D01*
X524Y883D02*
X533Y883D01*
X923Y883D02*
X932Y883D01*
X1081Y883D02*
X1084Y883D01*
X1251Y883D02*
X1258Y883D01*
X0Y882D02*
X7Y882D01*
X124Y882D02*
X133Y882D01*
X523Y882D02*
X532Y882D01*
X923Y882D02*
X932Y882D01*
X1081Y882D02*
X1084Y882D01*
X1251Y882D02*
X1258Y882D01*
X0Y881D02*
X7Y881D01*
X124Y881D02*
X133Y881D01*
X523Y881D02*
X532Y881D01*
X923Y881D02*
X932Y881D01*
X1081Y881D02*
X1083Y881D01*
X1251Y881D02*
X1258Y881D01*
X0Y880D02*
X7Y880D01*
X123Y880D02*
X132Y880D01*
X523Y880D02*
X532Y880D01*
X923Y880D02*
X932Y880D01*
X1081Y880D02*
X1083Y880D01*
X1251Y880D02*
X1258Y880D01*
X0Y879D02*
X7Y879D01*
X123Y879D02*
X132Y879D01*
X523Y879D02*
X532Y879D01*
X923Y879D02*
X932Y879D01*
X1081Y879D02*
X1082Y879D01*
X1251Y879D02*
X1258Y879D01*
X0Y878D02*
X7Y878D01*
X123Y878D02*
X132Y878D01*
X523Y878D02*
X532Y878D01*
X923Y878D02*
X932Y878D01*
X1081Y878D02*
X1082Y878D01*
X1251Y878D02*
X1258Y878D01*
X0Y877D02*
X7Y877D01*
X123Y877D02*
X132Y877D01*
X523Y877D02*
X532Y877D01*
X923Y877D02*
X932Y877D01*
X1081Y877D02*
X1081Y877D01*
X1251Y877D02*
X1258Y877D01*
X0Y876D02*
X7Y876D01*
X123Y876D02*
X132Y876D01*
X523Y876D02*
X532Y876D01*
X922Y876D02*
X931Y876D01*
X1081Y876D02*
X1081Y876D01*
X1251Y876D02*
X1258Y876D01*
X0Y875D02*
X7Y875D01*
X123Y875D02*
X132Y875D01*
X523Y875D02*
X532Y875D01*
X922Y875D02*
X931Y875D01*
X1081Y875D02*
X1081Y875D01*
X1251Y875D02*
X1258Y875D01*
X0Y874D02*
X7Y874D01*
X123Y874D02*
X132Y874D01*
X523Y874D02*
X532Y874D01*
X922Y874D02*
X931Y874D01*
X1251Y874D02*
X1258Y874D01*
X0Y873D02*
X7Y873D01*
X123Y873D02*
X132Y873D01*
X522Y873D02*
X531Y873D01*
X922Y873D02*
X931Y873D01*
X1251Y873D02*
X1258Y873D01*
X0Y872D02*
X7Y872D01*
X123Y872D02*
X132Y872D01*
X522Y872D02*
X531Y872D01*
X922Y872D02*
X931Y872D01*
X1251Y872D02*
X1258Y872D01*
X0Y871D02*
X7Y871D01*
X123Y871D02*
X132Y871D01*
X522Y871D02*
X531Y871D01*
X922Y871D02*
X931Y871D01*
X1251Y871D02*
X1258Y871D01*
X0Y870D02*
X7Y870D01*
X123Y870D02*
X132Y870D01*
X522Y870D02*
X531Y870D01*
X922Y870D02*
X931Y870D01*
X1251Y870D02*
X1258Y870D01*
X0Y869D02*
X7Y869D01*
X123Y869D02*
X132Y869D01*
X522Y869D02*
X531Y869D01*
X922Y869D02*
X931Y869D01*
X1251Y869D02*
X1258Y869D01*
X0Y868D02*
X7Y868D01*
X123Y868D02*
X131Y868D01*
X522Y868D02*
X531Y868D01*
X922Y868D02*
X931Y868D01*
X1251Y868D02*
X1258Y868D01*
X0Y867D02*
X7Y867D01*
X122Y867D02*
X131Y867D01*
X522Y867D02*
X531Y867D01*
X922Y867D02*
X931Y867D01*
X1251Y867D02*
X1258Y867D01*
X0Y866D02*
X7Y866D01*
X122Y866D02*
X131Y866D01*
X522Y866D02*
X531Y866D01*
X922Y866D02*
X931Y866D01*
X1251Y866D02*
X1258Y866D01*
X0Y865D02*
X7Y865D01*
X122Y865D02*
X131Y865D01*
X522Y865D02*
X531Y865D01*
X922Y865D02*
X931Y865D01*
X1251Y865D02*
X1258Y865D01*
X0Y864D02*
X7Y864D01*
X122Y864D02*
X131Y864D01*
X522Y864D02*
X531Y864D01*
X922Y864D02*
X931Y864D01*
X1251Y864D02*
X1258Y864D01*
X0Y863D02*
X7Y863D01*
X122Y863D02*
X131Y863D01*
X522Y863D02*
X531Y863D01*
X922Y863D02*
X931Y863D01*
X1251Y863D02*
X1258Y863D01*
X0Y862D02*
X7Y862D01*
X122Y862D02*
X131Y862D01*
X522Y862D02*
X531Y862D01*
X922Y862D02*
X931Y862D01*
X1251Y862D02*
X1258Y862D01*
X0Y861D02*
X7Y861D01*
X122Y861D02*
X131Y861D01*
X522Y861D02*
X531Y861D01*
X922Y861D02*
X931Y861D01*
X1251Y861D02*
X1258Y861D01*
X0Y860D02*
X7Y860D01*
X122Y860D02*
X131Y860D01*
X522Y860D02*
X531Y860D01*
X922Y860D02*
X931Y860D01*
X1251Y860D02*
X1258Y860D01*
X0Y859D02*
X7Y859D01*
X122Y859D02*
X131Y859D01*
X522Y859D02*
X531Y859D01*
X922Y859D02*
X931Y859D01*
X1251Y859D02*
X1258Y859D01*
X0Y858D02*
X7Y858D01*
X123Y858D02*
X131Y858D01*
X522Y858D02*
X531Y858D01*
X922Y858D02*
X931Y858D01*
X1251Y858D02*
X1258Y858D01*
X0Y857D02*
X7Y857D01*
X123Y857D02*
X132Y857D01*
X522Y857D02*
X531Y857D01*
X922Y857D02*
X931Y857D01*
X1251Y857D02*
X1258Y857D01*
X0Y856D02*
X7Y856D01*
X123Y856D02*
X132Y856D01*
X522Y856D02*
X531Y856D01*
X922Y856D02*
X931Y856D01*
X1251Y856D02*
X1258Y856D01*
X0Y855D02*
X7Y855D01*
X123Y855D02*
X132Y855D01*
X522Y855D02*
X531Y855D01*
X922Y855D02*
X931Y855D01*
X1251Y855D02*
X1258Y855D01*
X0Y854D02*
X7Y854D01*
X123Y854D02*
X132Y854D01*
X522Y854D02*
X531Y854D01*
X922Y854D02*
X931Y854D01*
X1251Y854D02*
X1258Y854D01*
X0Y853D02*
X7Y853D01*
X123Y853D02*
X132Y853D01*
X522Y853D02*
X531Y853D01*
X922Y853D02*
X931Y853D01*
X1251Y853D02*
X1258Y853D01*
X0Y852D02*
X7Y852D01*
X123Y852D02*
X132Y852D01*
X523Y852D02*
X532Y852D01*
X922Y852D02*
X931Y852D01*
X1251Y852D02*
X1258Y852D01*
X0Y851D02*
X7Y851D01*
X123Y851D02*
X132Y851D01*
X523Y851D02*
X532Y851D01*
X922Y851D02*
X931Y851D01*
X1251Y851D02*
X1258Y851D01*
X0Y850D02*
X7Y850D01*
X123Y850D02*
X132Y850D01*
X523Y850D02*
X532Y850D01*
X922Y850D02*
X931Y850D01*
X1251Y850D02*
X1258Y850D01*
X0Y849D02*
X7Y849D01*
X123Y849D02*
X132Y849D01*
X523Y849D02*
X532Y849D01*
X923Y849D02*
X932Y849D01*
X1251Y849D02*
X1258Y849D01*
X0Y848D02*
X7Y848D01*
X123Y848D02*
X132Y848D01*
X523Y848D02*
X532Y848D01*
X923Y848D02*
X932Y848D01*
X1251Y848D02*
X1258Y848D01*
X0Y847D02*
X7Y847D01*
X123Y847D02*
X132Y847D01*
X523Y847D02*
X532Y847D01*
X923Y847D02*
X932Y847D01*
X1251Y847D02*
X1258Y847D01*
X0Y846D02*
X7Y846D01*
X123Y846D02*
X132Y846D01*
X523Y846D02*
X532Y846D01*
X923Y846D02*
X932Y846D01*
X1081Y846D02*
X1081Y846D01*
X1251Y846D02*
X1258Y846D01*
X0Y845D02*
X7Y845D01*
X124Y845D02*
X133Y845D01*
X523Y845D02*
X532Y845D01*
X923Y845D02*
X932Y845D01*
X1081Y845D02*
X1081Y845D01*
X1251Y845D02*
X1258Y845D01*
X0Y844D02*
X7Y844D01*
X124Y844D02*
X133Y844D01*
X523Y844D02*
X532Y844D01*
X923Y844D02*
X932Y844D01*
X1081Y844D02*
X1081Y844D01*
X1251Y844D02*
X1258Y844D01*
X0Y843D02*
X7Y843D01*
X124Y843D02*
X133Y843D01*
X524Y843D02*
X533Y843D01*
X923Y843D02*
X932Y843D01*
X1081Y843D02*
X1082Y843D01*
X1251Y843D02*
X1258Y843D01*
X0Y842D02*
X7Y842D01*
X124Y842D02*
X133Y842D01*
X524Y842D02*
X533Y842D01*
X923Y842D02*
X933Y842D01*
X1081Y842D02*
X1082Y842D01*
X1251Y842D02*
X1258Y842D01*
X0Y841D02*
X7Y841D01*
X124Y841D02*
X133Y841D01*
X524Y841D02*
X533Y841D01*
X924Y841D02*
X933Y841D01*
X1081Y841D02*
X1083Y841D01*
X1251Y841D02*
X1258Y841D01*
X0Y840D02*
X7Y840D01*
X124Y840D02*
X133Y840D01*
X524Y840D02*
X533Y840D01*
X924Y840D02*
X933Y840D01*
X1081Y840D02*
X1084Y840D01*
X1251Y840D02*
X1258Y840D01*
X0Y839D02*
X7Y839D01*
X124Y839D02*
X134Y839D01*
X524Y839D02*
X533Y839D01*
X924Y839D02*
X933Y839D01*
X1081Y839D02*
X1084Y839D01*
X1251Y839D02*
X1258Y839D01*
X0Y838D02*
X7Y838D01*
X125Y838D02*
X134Y838D01*
X524Y838D02*
X533Y838D01*
X924Y838D02*
X933Y838D01*
X1081Y838D02*
X1085Y838D01*
X1251Y838D02*
X1258Y838D01*
X0Y837D02*
X7Y837D01*
X125Y837D02*
X134Y837D01*
X525Y837D02*
X534Y837D01*
X924Y837D02*
X933Y837D01*
X1081Y837D02*
X1085Y837D01*
X1251Y837D02*
X1258Y837D01*
X0Y836D02*
X7Y836D01*
X125Y836D02*
X134Y836D01*
X525Y836D02*
X534Y836D01*
X924Y836D02*
X934Y836D01*
X1081Y836D02*
X1086Y836D01*
X1251Y836D02*
X1258Y836D01*
X0Y835D02*
X7Y835D01*
X125Y835D02*
X134Y835D01*
X525Y835D02*
X534Y835D01*
X925Y835D02*
X934Y835D01*
X1081Y835D02*
X1087Y835D01*
X1251Y835D02*
X1258Y835D01*
X0Y834D02*
X7Y834D01*
X125Y834D02*
X135Y834D01*
X525Y834D02*
X534Y834D01*
X925Y834D02*
X934Y834D01*
X1081Y834D02*
X1088Y834D01*
X1251Y834D02*
X1258Y834D01*
X0Y833D02*
X7Y833D01*
X126Y833D02*
X135Y833D01*
X525Y833D02*
X535Y833D01*
X925Y833D02*
X934Y833D01*
X1081Y833D02*
X1088Y833D01*
X1251Y833D02*
X1258Y833D01*
X0Y832D02*
X7Y832D01*
X126Y832D02*
X135Y832D01*
X526Y832D02*
X535Y832D01*
X925Y832D02*
X935Y832D01*
X1081Y832D02*
X1089Y832D01*
X1251Y832D02*
X1258Y832D01*
X0Y831D02*
X7Y831D01*
X126Y831D02*
X135Y831D01*
X526Y831D02*
X535Y831D01*
X926Y831D02*
X935Y831D01*
X1081Y831D02*
X1089Y831D01*
X1251Y831D02*
X1258Y831D01*
X0Y830D02*
X7Y830D01*
X126Y830D02*
X136Y830D01*
X526Y830D02*
X535Y830D01*
X926Y830D02*
X935Y830D01*
X1081Y830D02*
X1089Y830D01*
X1251Y830D02*
X1258Y830D01*
X0Y829D02*
X7Y829D01*
X127Y829D02*
X136Y829D01*
X526Y829D02*
X536Y829D01*
X926Y829D02*
X935Y829D01*
X1081Y829D02*
X1089Y829D01*
X1251Y829D02*
X1258Y829D01*
X0Y828D02*
X7Y828D01*
X127Y828D02*
X136Y828D01*
X527Y828D02*
X536Y828D01*
X926Y828D02*
X936Y828D01*
X1081Y828D02*
X1089Y828D01*
X1251Y828D02*
X1258Y828D01*
X0Y827D02*
X7Y827D01*
X127Y827D02*
X137Y827D01*
X527Y827D02*
X536Y827D01*
X927Y827D02*
X936Y827D01*
X1081Y827D02*
X1089Y827D01*
X1251Y827D02*
X1258Y827D01*
X0Y826D02*
X7Y826D01*
X128Y826D02*
X137Y826D01*
X527Y826D02*
X537Y826D01*
X927Y826D02*
X936Y826D01*
X1081Y826D02*
X1089Y826D01*
X1251Y826D02*
X1258Y826D01*
X0Y825D02*
X7Y825D01*
X128Y825D02*
X137Y825D01*
X528Y825D02*
X537Y825D01*
X927Y825D02*
X937Y825D01*
X1081Y825D02*
X1089Y825D01*
X1251Y825D02*
X1258Y825D01*
X0Y824D02*
X7Y824D01*
X128Y824D02*
X137Y824D01*
X528Y824D02*
X537Y824D01*
X928Y824D02*
X937Y824D01*
X1081Y824D02*
X1089Y824D01*
X1251Y824D02*
X1258Y824D01*
X0Y823D02*
X7Y823D01*
X128Y823D02*
X138Y823D01*
X528Y823D02*
X538Y823D01*
X928Y823D02*
X937Y823D01*
X1081Y823D02*
X1089Y823D01*
X1251Y823D02*
X1258Y823D01*
X0Y822D02*
X7Y822D01*
X129Y822D02*
X138Y822D01*
X528Y822D02*
X538Y822D01*
X928Y822D02*
X938Y822D01*
X1081Y822D02*
X1089Y822D01*
X1251Y822D02*
X1258Y822D01*
X0Y821D02*
X7Y821D01*
X129Y821D02*
X139Y821D01*
X529Y821D02*
X538Y821D01*
X928Y821D02*
X938Y821D01*
X1081Y821D02*
X1089Y821D01*
X1251Y821D02*
X1258Y821D01*
X0Y820D02*
X7Y820D01*
X129Y820D02*
X139Y820D01*
X529Y820D02*
X539Y820D01*
X929Y820D02*
X938Y820D01*
X1081Y820D02*
X1089Y820D01*
X1251Y820D02*
X1258Y820D01*
X0Y819D02*
X7Y819D01*
X130Y819D02*
X139Y819D01*
X529Y819D02*
X539Y819D01*
X929Y819D02*
X939Y819D01*
X1081Y819D02*
X1089Y819D01*
X1251Y819D02*
X1258Y819D01*
X0Y818D02*
X7Y818D01*
X130Y818D02*
X140Y818D01*
X530Y818D02*
X539Y818D01*
X930Y818D02*
X939Y818D01*
X1081Y818D02*
X1089Y818D01*
X1116Y818D02*
X1125Y818D01*
X1251Y818D02*
X1258Y818D01*
X0Y817D02*
X7Y817D01*
X131Y817D02*
X140Y817D01*
X530Y817D02*
X540Y817D01*
X930Y817D02*
X940Y817D01*
X1081Y817D02*
X1089Y817D01*
X1116Y817D02*
X1125Y817D01*
X1251Y817D02*
X1258Y817D01*
X0Y816D02*
X7Y816D01*
X131Y816D02*
X141Y816D01*
X531Y816D02*
X540Y816D01*
X930Y816D02*
X940Y816D01*
X1081Y816D02*
X1089Y816D01*
X1116Y816D02*
X1125Y816D01*
X1251Y816D02*
X1258Y816D01*
X0Y815D02*
X7Y815D01*
X131Y815D02*
X141Y815D01*
X531Y815D02*
X541Y815D01*
X931Y815D02*
X941Y815D01*
X1081Y815D02*
X1089Y815D01*
X1116Y815D02*
X1125Y815D01*
X1251Y815D02*
X1258Y815D01*
X0Y814D02*
X7Y814D01*
X132Y814D02*
X142Y814D01*
X531Y814D02*
X541Y814D01*
X931Y814D02*
X941Y814D01*
X1081Y814D02*
X1089Y814D01*
X1116Y814D02*
X1125Y814D01*
X1251Y814D02*
X1258Y814D01*
X0Y813D02*
X7Y813D01*
X132Y813D02*
X142Y813D01*
X532Y813D02*
X542Y813D01*
X932Y813D02*
X941Y813D01*
X1081Y813D02*
X1089Y813D01*
X1116Y813D02*
X1125Y813D01*
X1251Y813D02*
X1258Y813D01*
X0Y812D02*
X7Y812D01*
X133Y812D02*
X143Y812D01*
X532Y812D02*
X542Y812D01*
X932Y812D02*
X942Y812D01*
X1081Y812D02*
X1089Y812D01*
X1116Y812D02*
X1125Y812D01*
X1251Y812D02*
X1258Y812D01*
X0Y811D02*
X7Y811D01*
X133Y811D02*
X143Y811D01*
X533Y811D02*
X543Y811D01*
X932Y811D02*
X942Y811D01*
X1081Y811D02*
X1089Y811D01*
X1116Y811D02*
X1125Y811D01*
X1251Y811D02*
X1258Y811D01*
X0Y810D02*
X7Y810D01*
X133Y810D02*
X144Y810D01*
X533Y810D02*
X543Y810D01*
X933Y810D02*
X943Y810D01*
X1081Y810D02*
X1089Y810D01*
X1116Y810D02*
X1125Y810D01*
X1251Y810D02*
X1258Y810D01*
X0Y809D02*
X7Y809D01*
X134Y809D02*
X144Y809D01*
X534Y809D02*
X544Y809D01*
X933Y809D02*
X944Y809D01*
X1081Y809D02*
X1089Y809D01*
X1116Y809D02*
X1125Y809D01*
X1251Y809D02*
X1258Y809D01*
X0Y808D02*
X7Y808D01*
X134Y808D02*
X145Y808D01*
X534Y808D02*
X544Y808D01*
X934Y808D02*
X944Y808D01*
X1081Y808D02*
X1089Y808D01*
X1116Y808D02*
X1125Y808D01*
X1251Y808D02*
X1258Y808D01*
X0Y807D02*
X7Y807D01*
X135Y807D02*
X145Y807D01*
X535Y807D02*
X545Y807D01*
X934Y807D02*
X945Y807D01*
X1081Y807D02*
X1089Y807D01*
X1116Y807D02*
X1125Y807D01*
X1251Y807D02*
X1258Y807D01*
X0Y806D02*
X7Y806D01*
X135Y806D02*
X146Y806D01*
X535Y806D02*
X546Y806D01*
X935Y806D02*
X945Y806D01*
X1081Y806D02*
X1089Y806D01*
X1116Y806D02*
X1125Y806D01*
X1251Y806D02*
X1258Y806D01*
X0Y805D02*
X7Y805D01*
X136Y805D02*
X146Y805D01*
X536Y805D02*
X546Y805D01*
X935Y805D02*
X946Y805D01*
X1081Y805D02*
X1089Y805D01*
X1116Y805D02*
X1125Y805D01*
X1251Y805D02*
X1258Y805D01*
X0Y804D02*
X7Y804D01*
X136Y804D02*
X147Y804D01*
X536Y804D02*
X547Y804D01*
X936Y804D02*
X947Y804D01*
X1081Y804D02*
X1089Y804D01*
X1116Y804D02*
X1125Y804D01*
X1251Y804D02*
X1258Y804D01*
X0Y803D02*
X7Y803D01*
X137Y803D02*
X148Y803D01*
X537Y803D02*
X548Y803D01*
X937Y803D02*
X947Y803D01*
X1081Y803D02*
X1089Y803D01*
X1116Y803D02*
X1125Y803D01*
X1251Y803D02*
X1258Y803D01*
X0Y802D02*
X7Y802D01*
X138Y802D02*
X148Y802D01*
X537Y802D02*
X548Y802D01*
X937Y802D02*
X948Y802D01*
X1081Y802D02*
X1089Y802D01*
X1116Y802D02*
X1125Y802D01*
X1251Y802D02*
X1258Y802D01*
X0Y801D02*
X7Y801D01*
X138Y801D02*
X149Y801D01*
X538Y801D02*
X549Y801D01*
X938Y801D02*
X949Y801D01*
X1081Y801D02*
X1089Y801D01*
X1116Y801D02*
X1125Y801D01*
X1251Y801D02*
X1258Y801D01*
X0Y800D02*
X7Y800D01*
X139Y800D02*
X150Y800D01*
X539Y800D02*
X550Y800D01*
X938Y800D02*
X949Y800D01*
X1081Y800D02*
X1089Y800D01*
X1116Y800D02*
X1125Y800D01*
X1251Y800D02*
X1258Y800D01*
X0Y799D02*
X7Y799D01*
X139Y799D02*
X151Y799D01*
X539Y799D02*
X550Y799D01*
X939Y799D02*
X950Y799D01*
X1081Y799D02*
X1089Y799D01*
X1116Y799D02*
X1125Y799D01*
X1251Y799D02*
X1258Y799D01*
X0Y798D02*
X7Y798D01*
X140Y798D02*
X152Y798D01*
X540Y798D02*
X551Y798D01*
X940Y798D02*
X951Y798D01*
X1081Y798D02*
X1089Y798D01*
X1116Y798D02*
X1125Y798D01*
X1251Y798D02*
X1258Y798D01*
X0Y797D02*
X7Y797D01*
X141Y797D02*
X152Y797D01*
X541Y797D02*
X552Y797D01*
X940Y797D02*
X952Y797D01*
X1081Y797D02*
X1089Y797D01*
X1116Y797D02*
X1125Y797D01*
X1251Y797D02*
X1258Y797D01*
X0Y796D02*
X7Y796D01*
X142Y796D02*
X153Y796D01*
X541Y796D02*
X553Y796D01*
X941Y796D02*
X953Y796D01*
X1081Y796D02*
X1089Y796D01*
X1116Y796D02*
X1125Y796D01*
X1251Y796D02*
X1258Y796D01*
X0Y795D02*
X7Y795D01*
X142Y795D02*
X154Y795D01*
X542Y795D02*
X554Y795D01*
X942Y795D02*
X954Y795D01*
X1081Y795D02*
X1089Y795D01*
X1116Y795D02*
X1125Y795D01*
X1251Y795D02*
X1258Y795D01*
X0Y794D02*
X7Y794D01*
X143Y794D02*
X155Y794D01*
X543Y794D02*
X555Y794D01*
X942Y794D02*
X955Y794D01*
X1081Y794D02*
X1089Y794D01*
X1116Y794D02*
X1125Y794D01*
X1251Y794D02*
X1258Y794D01*
X0Y793D02*
X7Y793D01*
X144Y793D02*
X156Y793D01*
X544Y793D02*
X556Y793D01*
X943Y793D02*
X956Y793D01*
X1081Y793D02*
X1089Y793D01*
X1116Y793D02*
X1125Y793D01*
X1251Y793D02*
X1258Y793D01*
X0Y792D02*
X7Y792D01*
X145Y792D02*
X157Y792D01*
X544Y792D02*
X557Y792D01*
X944Y792D02*
X957Y792D01*
X1081Y792D02*
X1089Y792D01*
X1116Y792D02*
X1125Y792D01*
X1251Y792D02*
X1258Y792D01*
X0Y791D02*
X7Y791D01*
X146Y791D02*
X158Y791D01*
X545Y791D02*
X558Y791D01*
X945Y791D02*
X958Y791D01*
X1081Y791D02*
X1089Y791D01*
X1116Y791D02*
X1125Y791D01*
X1251Y791D02*
X1258Y791D01*
X0Y790D02*
X7Y790D01*
X146Y790D02*
X160Y790D01*
X546Y790D02*
X560Y790D01*
X946Y790D02*
X959Y790D01*
X1116Y790D02*
X1125Y790D01*
X1251Y790D02*
X1258Y790D01*
X0Y789D02*
X7Y789D01*
X147Y789D02*
X161Y789D01*
X547Y789D02*
X561Y789D01*
X947Y789D02*
X961Y789D01*
X1116Y789D02*
X1125Y789D01*
X1251Y789D02*
X1258Y789D01*
X0Y788D02*
X7Y788D01*
X148Y788D02*
X163Y788D01*
X548Y788D02*
X562Y788D01*
X948Y788D02*
X962Y788D01*
X1116Y788D02*
X1125Y788D01*
X1251Y788D02*
X1258Y788D01*
X0Y787D02*
X7Y787D01*
X149Y787D02*
X164Y787D01*
X549Y787D02*
X564Y787D01*
X949Y787D02*
X964Y787D01*
X1116Y787D02*
X1125Y787D01*
X1251Y787D02*
X1258Y787D01*
X0Y786D02*
X7Y786D01*
X150Y786D02*
X166Y786D01*
X550Y786D02*
X566Y786D01*
X950Y786D02*
X966Y786D01*
X1116Y786D02*
X1125Y786D01*
X1251Y786D02*
X1258Y786D01*
X0Y785D02*
X7Y785D01*
X151Y785D02*
X169Y785D01*
X551Y785D02*
X569Y785D01*
X951Y785D02*
X968Y785D01*
X1116Y785D02*
X1125Y785D01*
X1251Y785D02*
X1258Y785D01*
X0Y784D02*
X7Y784D01*
X153Y784D02*
X172Y784D01*
X552Y784D02*
X572Y784D01*
X952Y784D02*
X972Y784D01*
X1116Y784D02*
X1125Y784D01*
X1251Y784D02*
X1258Y784D01*
X0Y783D02*
X7Y783D01*
X154Y783D02*
X180Y783D01*
X554Y783D02*
X580Y783D01*
X953Y783D02*
X979Y783D01*
X1116Y783D02*
X1125Y783D01*
X1251Y783D02*
X1258Y783D01*
X0Y782D02*
X7Y782D01*
X155Y782D02*
X182Y782D01*
X555Y782D02*
X582Y782D01*
X955Y782D02*
X982Y782D01*
X1116Y782D02*
X1125Y782D01*
X1251Y782D02*
X1258Y782D01*
X0Y781D02*
X7Y781D01*
X157Y781D02*
X183Y781D01*
X556Y781D02*
X583Y781D01*
X956Y781D02*
X982Y781D01*
X1116Y781D02*
X1125Y781D01*
X1251Y781D02*
X1258Y781D01*
X0Y780D02*
X7Y780D01*
X85Y780D02*
X87Y780D01*
X113Y780D02*
X138Y780D01*
X158Y780D02*
X183Y780D01*
X558Y780D02*
X583Y780D01*
X958Y780D02*
X983Y780D01*
X1116Y780D02*
X1125Y780D01*
X1251Y780D02*
X1258Y780D01*
X0Y779D02*
X7Y779D01*
X82Y779D02*
X90Y779D01*
X112Y779D02*
X141Y779D01*
X160Y779D02*
X183Y779D01*
X560Y779D02*
X582Y779D01*
X959Y779D02*
X982Y779D01*
X1116Y779D02*
X1125Y779D01*
X1251Y779D02*
X1258Y779D01*
X0Y778D02*
X7Y778D01*
X81Y778D02*
X91Y778D01*
X111Y778D02*
X142Y778D01*
X162Y778D02*
X182Y778D01*
X561Y778D02*
X582Y778D01*
X961Y778D02*
X982Y778D01*
X1116Y778D02*
X1125Y778D01*
X1251Y778D02*
X1258Y778D01*
X0Y777D02*
X7Y777D01*
X80Y777D02*
X92Y777D01*
X111Y777D02*
X143Y777D01*
X164Y777D02*
X182Y777D01*
X563Y777D02*
X582Y777D01*
X963Y777D02*
X981Y777D01*
X1116Y777D02*
X1125Y777D01*
X1251Y777D02*
X1258Y777D01*
X0Y776D02*
X7Y776D01*
X79Y776D02*
X93Y776D01*
X111Y776D02*
X143Y776D01*
X166Y776D02*
X181Y776D01*
X566Y776D02*
X581Y776D01*
X966Y776D02*
X981Y776D01*
X1116Y776D02*
X1125Y776D01*
X1251Y776D02*
X1258Y776D01*
X0Y775D02*
X7Y775D01*
X78Y775D02*
X93Y775D01*
X111Y775D02*
X144Y775D01*
X169Y775D02*
X181Y775D01*
X568Y775D02*
X581Y775D01*
X968Y775D02*
X981Y775D01*
X1116Y775D02*
X1125Y775D01*
X1251Y775D02*
X1258Y775D01*
X0Y774D02*
X7Y774D01*
X76Y774D02*
X94Y774D01*
X112Y774D02*
X144Y774D01*
X173Y774D02*
X181Y774D01*
X572Y774D02*
X580Y774D01*
X972Y774D02*
X980Y774D01*
X1116Y774D02*
X1125Y774D01*
X1251Y774D02*
X1258Y774D01*
X0Y773D02*
X7Y773D01*
X75Y773D02*
X94Y773D01*
X138Y773D02*
X144Y773D01*
X1116Y773D02*
X1125Y773D01*
X1251Y773D02*
X1258Y773D01*
X0Y772D02*
X7Y772D01*
X74Y772D02*
X84Y772D01*
X88Y772D02*
X94Y772D01*
X138Y772D02*
X144Y772D01*
X1116Y772D02*
X1125Y772D01*
X1251Y772D02*
X1258Y772D01*
X0Y771D02*
X7Y771D01*
X73Y771D02*
X83Y771D01*
X88Y771D02*
X94Y771D01*
X138Y771D02*
X144Y771D01*
X1116Y771D02*
X1125Y771D01*
X1251Y771D02*
X1258Y771D01*
X0Y770D02*
X7Y770D01*
X72Y770D02*
X82Y770D01*
X88Y770D02*
X94Y770D01*
X138Y770D02*
X144Y770D01*
X1251Y770D02*
X1258Y770D01*
X0Y769D02*
X7Y769D01*
X70Y769D02*
X80Y769D01*
X88Y769D02*
X94Y769D01*
X138Y769D02*
X144Y769D01*
X1251Y769D02*
X1258Y769D01*
X0Y768D02*
X7Y768D01*
X69Y768D02*
X79Y768D01*
X88Y768D02*
X94Y768D01*
X138Y768D02*
X144Y768D01*
X1251Y768D02*
X1258Y768D01*
X0Y767D02*
X7Y767D01*
X68Y767D02*
X78Y767D01*
X88Y767D02*
X94Y767D01*
X138Y767D02*
X144Y767D01*
X1251Y767D02*
X1258Y767D01*
X0Y766D02*
X7Y766D01*
X67Y766D02*
X77Y766D01*
X88Y766D02*
X94Y766D01*
X138Y766D02*
X144Y766D01*
X1251Y766D02*
X1258Y766D01*
X0Y765D02*
X7Y765D01*
X66Y765D02*
X76Y765D01*
X88Y765D02*
X94Y765D01*
X138Y765D02*
X144Y765D01*
X1251Y765D02*
X1258Y765D01*
X0Y764D02*
X7Y764D01*
X65Y764D02*
X74Y764D01*
X88Y764D02*
X94Y764D01*
X138Y764D02*
X144Y764D01*
X1251Y764D02*
X1258Y764D01*
X0Y763D02*
X7Y763D01*
X64Y763D02*
X73Y763D01*
X88Y763D02*
X94Y763D01*
X138Y763D02*
X144Y763D01*
X1251Y763D02*
X1258Y763D01*
X0Y762D02*
X7Y762D01*
X63Y762D02*
X72Y762D01*
X88Y762D02*
X94Y762D01*
X138Y762D02*
X144Y762D01*
X1251Y762D02*
X1258Y762D01*
X0Y761D02*
X7Y761D01*
X62Y761D02*
X71Y761D01*
X88Y761D02*
X94Y761D01*
X138Y761D02*
X144Y761D01*
X1251Y761D02*
X1258Y761D01*
X0Y760D02*
X7Y760D01*
X62Y760D02*
X70Y760D01*
X88Y760D02*
X94Y760D01*
X138Y760D02*
X144Y760D01*
X1251Y760D02*
X1258Y760D01*
X0Y759D02*
X7Y759D01*
X62Y759D02*
X69Y759D01*
X88Y759D02*
X94Y759D01*
X138Y759D02*
X144Y759D01*
X1251Y759D02*
X1258Y759D01*
X0Y758D02*
X7Y758D01*
X61Y758D02*
X68Y758D01*
X88Y758D02*
X94Y758D01*
X137Y758D02*
X144Y758D01*
X1251Y758D02*
X1258Y758D01*
X0Y757D02*
X7Y757D01*
X61Y757D02*
X67Y757D01*
X88Y757D02*
X94Y757D01*
X136Y757D02*
X144Y757D01*
X1251Y757D02*
X1258Y757D01*
X0Y756D02*
X7Y756D01*
X61Y756D02*
X67Y756D01*
X88Y756D02*
X94Y756D01*
X119Y756D02*
X143Y756D01*
X1251Y756D02*
X1258Y756D01*
X0Y755D02*
X7Y755D01*
X61Y755D02*
X67Y755D01*
X88Y755D02*
X94Y755D01*
X118Y755D02*
X143Y755D01*
X1251Y755D02*
X1258Y755D01*
X0Y754D02*
X7Y754D01*
X61Y754D02*
X67Y754D01*
X88Y754D02*
X94Y754D01*
X118Y754D02*
X142Y754D01*
X1251Y754D02*
X1258Y754D01*
X0Y753D02*
X7Y753D01*
X61Y753D02*
X67Y753D01*
X88Y753D02*
X94Y753D01*
X118Y753D02*
X142Y753D01*
X1251Y753D02*
X1258Y753D01*
X0Y752D02*
X7Y752D01*
X61Y752D02*
X67Y752D01*
X88Y752D02*
X94Y752D01*
X118Y752D02*
X142Y752D01*
X1251Y752D02*
X1258Y752D01*
X0Y751D02*
X7Y751D01*
X61Y751D02*
X67Y751D01*
X88Y751D02*
X94Y751D01*
X118Y751D02*
X143Y751D01*
X1251Y751D02*
X1258Y751D01*
X0Y750D02*
X7Y750D01*
X61Y750D02*
X67Y750D01*
X76Y750D02*
X79Y750D01*
X88Y750D02*
X94Y750D01*
X119Y750D02*
X143Y750D01*
X1251Y750D02*
X1258Y750D01*
X0Y749D02*
X7Y749D01*
X61Y749D02*
X67Y749D01*
X75Y749D02*
X80Y749D01*
X87Y749D02*
X94Y749D01*
X136Y749D02*
X144Y749D01*
X1251Y749D02*
X1258Y749D01*
X0Y748D02*
X7Y748D01*
X61Y748D02*
X67Y748D01*
X75Y748D02*
X80Y748D01*
X87Y748D02*
X94Y748D01*
X137Y748D02*
X144Y748D01*
X1251Y748D02*
X1258Y748D01*
X0Y747D02*
X7Y747D01*
X61Y747D02*
X67Y747D01*
X74Y747D02*
X81Y747D01*
X86Y747D02*
X93Y747D01*
X138Y747D02*
X144Y747D01*
X1251Y747D02*
X1258Y747D01*
X0Y746D02*
X7Y746D01*
X61Y746D02*
X67Y746D01*
X75Y746D02*
X81Y746D01*
X85Y746D02*
X93Y746D01*
X138Y746D02*
X144Y746D01*
X1251Y746D02*
X1258Y746D01*
X0Y745D02*
X7Y745D01*
X61Y745D02*
X67Y745D01*
X75Y745D02*
X81Y745D01*
X84Y745D02*
X92Y745D01*
X138Y745D02*
X144Y745D01*
X1251Y745D02*
X1258Y745D01*
X0Y744D02*
X7Y744D01*
X61Y744D02*
X67Y744D01*
X75Y744D02*
X92Y744D01*
X138Y744D02*
X144Y744D01*
X1251Y744D02*
X1258Y744D01*
X0Y743D02*
X7Y743D01*
X61Y743D02*
X67Y743D01*
X76Y743D02*
X91Y743D01*
X138Y743D02*
X144Y743D01*
X1251Y743D02*
X1258Y743D01*
X0Y742D02*
X7Y742D01*
X61Y742D02*
X67Y742D01*
X76Y742D02*
X90Y742D01*
X138Y742D02*
X144Y742D01*
X1251Y742D02*
X1258Y742D01*
X0Y741D02*
X7Y741D01*
X61Y741D02*
X67Y741D01*
X77Y741D02*
X89Y741D01*
X138Y741D02*
X144Y741D01*
X1251Y741D02*
X1258Y741D01*
X0Y740D02*
X7Y740D01*
X61Y740D02*
X67Y740D01*
X77Y740D02*
X88Y740D01*
X138Y740D02*
X144Y740D01*
X1251Y740D02*
X1258Y740D01*
X0Y739D02*
X7Y739D01*
X61Y739D02*
X67Y739D01*
X77Y739D02*
X87Y739D01*
X138Y739D02*
X144Y739D01*
X1251Y739D02*
X1258Y739D01*
X0Y738D02*
X7Y738D01*
X61Y738D02*
X67Y738D01*
X76Y738D02*
X85Y738D01*
X138Y738D02*
X144Y738D01*
X1251Y738D02*
X1258Y738D01*
X0Y737D02*
X7Y737D01*
X61Y737D02*
X67Y737D01*
X74Y737D02*
X85Y737D01*
X138Y737D02*
X144Y737D01*
X1251Y737D02*
X1258Y737D01*
X0Y736D02*
X7Y736D01*
X61Y736D02*
X67Y736D01*
X73Y736D02*
X85Y736D01*
X138Y736D02*
X144Y736D01*
X1251Y736D02*
X1258Y736D01*
X0Y735D02*
X7Y735D01*
X61Y735D02*
X67Y735D01*
X72Y735D02*
X85Y735D01*
X138Y735D02*
X144Y735D01*
X1251Y735D02*
X1258Y735D01*
X0Y734D02*
X7Y734D01*
X61Y734D02*
X67Y734D01*
X71Y734D02*
X86Y734D01*
X138Y734D02*
X144Y734D01*
X1251Y734D02*
X1258Y734D01*
X0Y733D02*
X7Y733D01*
X61Y733D02*
X90Y733D01*
X114Y733D02*
X144Y733D01*
X1251Y733D02*
X1258Y733D01*
X0Y732D02*
X7Y732D01*
X61Y732D02*
X78Y732D01*
X80Y732D02*
X93Y732D01*
X112Y732D02*
X144Y732D01*
X1251Y732D02*
X1258Y732D01*
X0Y731D02*
X7Y731D01*
X61Y731D02*
X77Y731D01*
X80Y731D02*
X94Y731D01*
X111Y731D02*
X144Y731D01*
X1251Y731D02*
X1258Y731D01*
X0Y730D02*
X7Y730D01*
X62Y730D02*
X76Y730D01*
X81Y730D02*
X94Y730D01*
X111Y730D02*
X143Y730D01*
X1251Y730D02*
X1258Y730D01*
X0Y729D02*
X7Y729D01*
X63Y729D02*
X75Y729D01*
X81Y729D02*
X94Y729D01*
X111Y729D02*
X143Y729D01*
X1251Y729D02*
X1258Y729D01*
X0Y728D02*
X7Y728D01*
X64Y728D02*
X73Y728D01*
X82Y728D02*
X94Y728D01*
X111Y728D02*
X142Y728D01*
X1251Y728D02*
X1258Y728D01*
X0Y727D02*
X7Y727D01*
X65Y727D02*
X72Y727D01*
X82Y727D02*
X93Y727D01*
X112Y727D02*
X141Y727D01*
X1251Y727D02*
X1258Y727D01*
X0Y726D02*
X7Y726D01*
X83Y726D02*
X91Y726D01*
X114Y726D02*
X137Y726D01*
X1251Y726D02*
X1258Y726D01*
X0Y725D02*
X7Y725D01*
X1251Y725D02*
X1258Y725D01*
X0Y724D02*
X7Y724D01*
X1251Y724D02*
X1258Y724D01*
X0Y723D02*
X7Y723D01*
X1251Y723D02*
X1258Y723D01*
X0Y722D02*
X7Y722D01*
X1251Y722D02*
X1258Y722D01*
X0Y721D02*
X7Y721D01*
X1251Y721D02*
X1258Y721D01*
X0Y720D02*
X7Y720D01*
X1251Y720D02*
X1258Y720D01*
X0Y719D02*
X7Y719D01*
X1251Y719D02*
X1258Y719D01*
X0Y718D02*
X7Y718D01*
X1251Y718D02*
X1258Y718D01*
X0Y717D02*
X7Y717D01*
X1251Y717D02*
X1258Y717D01*
X0Y716D02*
X7Y716D01*
X1251Y716D02*
X1258Y716D01*
X0Y715D02*
X7Y715D01*
X1251Y715D02*
X1258Y715D01*
X0Y714D02*
X7Y714D01*
X1251Y714D02*
X1258Y714D01*
X0Y713D02*
X7Y713D01*
X1127Y713D02*
X1147Y713D01*
X1251Y713D02*
X1258Y713D01*
X0Y712D02*
X7Y712D01*
X1126Y712D02*
X1148Y712D01*
X1251Y712D02*
X1258Y712D01*
X0Y711D02*
X7Y711D01*
X1125Y711D02*
X1149Y711D01*
X1251Y711D02*
X1258Y711D01*
X0Y710D02*
X7Y710D01*
X1125Y710D02*
X1149Y710D01*
X1251Y710D02*
X1258Y710D01*
X0Y709D02*
X7Y709D01*
X1125Y709D02*
X1149Y709D01*
X1251Y709D02*
X1258Y709D01*
X0Y708D02*
X7Y708D01*
X1126Y708D02*
X1149Y708D01*
X1251Y708D02*
X1258Y708D01*
X0Y707D02*
X7Y707D01*
X1127Y707D02*
X1149Y707D01*
X1251Y707D02*
X1258Y707D01*
X0Y706D02*
X7Y706D01*
X1143Y706D02*
X1149Y706D01*
X1251Y706D02*
X1258Y706D01*
X0Y705D02*
X7Y705D01*
X1143Y705D02*
X1149Y705D01*
X1251Y705D02*
X1258Y705D01*
X0Y704D02*
X7Y704D01*
X1143Y704D02*
X1149Y704D01*
X1251Y704D02*
X1258Y704D01*
X0Y703D02*
X7Y703D01*
X1143Y703D02*
X1149Y703D01*
X1251Y703D02*
X1258Y703D01*
X0Y702D02*
X7Y702D01*
X1143Y702D02*
X1149Y702D01*
X1251Y702D02*
X1258Y702D01*
X0Y701D02*
X7Y701D01*
X1143Y701D02*
X1149Y701D01*
X1251Y701D02*
X1258Y701D01*
X0Y700D02*
X7Y700D01*
X1142Y700D02*
X1149Y700D01*
X1251Y700D02*
X1258Y700D01*
X0Y699D02*
X7Y699D01*
X1096Y699D02*
X1149Y699D01*
X1251Y699D02*
X1258Y699D01*
X0Y698D02*
X7Y698D01*
X1096Y698D02*
X1149Y698D01*
X1251Y698D02*
X1258Y698D01*
X0Y697D02*
X7Y697D01*
X1096Y697D02*
X1149Y697D01*
X1251Y697D02*
X1258Y697D01*
X0Y696D02*
X7Y696D01*
X1096Y696D02*
X1149Y696D01*
X1251Y696D02*
X1258Y696D01*
X0Y695D02*
X7Y695D01*
X1096Y695D02*
X1149Y695D01*
X1251Y695D02*
X1258Y695D01*
X0Y694D02*
X7Y694D01*
X1096Y694D02*
X1149Y694D01*
X1251Y694D02*
X1258Y694D01*
X0Y693D02*
X7Y693D01*
X1096Y693D02*
X1149Y693D01*
X1251Y693D02*
X1258Y693D01*
X0Y692D02*
X7Y692D01*
X1096Y692D02*
X1102Y692D01*
X1143Y692D02*
X1149Y692D01*
X1251Y692D02*
X1258Y692D01*
X0Y691D02*
X7Y691D01*
X1096Y691D02*
X1102Y691D01*
X1143Y691D02*
X1149Y691D01*
X1251Y691D02*
X1258Y691D01*
X0Y690D02*
X7Y690D01*
X1096Y690D02*
X1102Y690D01*
X1143Y690D02*
X1149Y690D01*
X1251Y690D02*
X1258Y690D01*
X0Y689D02*
X7Y689D01*
X1096Y689D02*
X1102Y689D01*
X1143Y689D02*
X1149Y689D01*
X1251Y689D02*
X1258Y689D01*
X0Y688D02*
X7Y688D01*
X1096Y688D02*
X1102Y688D01*
X1143Y688D02*
X1149Y688D01*
X1251Y688D02*
X1258Y688D01*
X0Y687D02*
X7Y687D01*
X1096Y687D02*
X1102Y687D01*
X1143Y687D02*
X1149Y687D01*
X1251Y687D02*
X1258Y687D01*
X0Y686D02*
X7Y686D01*
X1096Y686D02*
X1102Y686D01*
X1143Y686D02*
X1149Y686D01*
X1251Y686D02*
X1258Y686D01*
X0Y685D02*
X7Y685D01*
X1096Y685D02*
X1102Y685D01*
X1143Y685D02*
X1149Y685D01*
X1251Y685D02*
X1258Y685D01*
X0Y684D02*
X7Y684D01*
X1096Y684D02*
X1102Y684D01*
X1143Y684D02*
X1149Y684D01*
X1251Y684D02*
X1258Y684D01*
X0Y683D02*
X7Y683D01*
X1096Y683D02*
X1102Y683D01*
X1143Y683D02*
X1149Y683D01*
X1251Y683D02*
X1258Y683D01*
X0Y682D02*
X7Y682D01*
X1096Y682D02*
X1102Y682D01*
X1143Y682D02*
X1149Y682D01*
X1251Y682D02*
X1258Y682D01*
X0Y681D02*
X7Y681D01*
X1096Y681D02*
X1101Y681D01*
X1143Y681D02*
X1148Y681D01*
X1251Y681D02*
X1258Y681D01*
X0Y680D02*
X7Y680D01*
X1097Y680D02*
X1100Y680D01*
X1144Y680D02*
X1147Y680D01*
X1251Y680D02*
X1258Y680D01*
X0Y679D02*
X7Y679D01*
X1251Y679D02*
X1258Y679D01*
X0Y678D02*
X7Y678D01*
X1251Y678D02*
X1258Y678D01*
X0Y677D02*
X7Y677D01*
X1251Y677D02*
X1258Y677D01*
X0Y676D02*
X7Y676D01*
X1251Y676D02*
X1258Y676D01*
X0Y675D02*
X7Y675D01*
X1251Y675D02*
X1258Y675D01*
X0Y674D02*
X7Y674D01*
X1251Y674D02*
X1258Y674D01*
X0Y673D02*
X7Y673D01*
X1251Y673D02*
X1258Y673D01*
X0Y672D02*
X7Y672D01*
X1251Y672D02*
X1258Y672D01*
X0Y671D02*
X7Y671D01*
X1251Y671D02*
X1258Y671D01*
X0Y670D02*
X7Y670D01*
X1251Y670D02*
X1258Y670D01*
X0Y669D02*
X7Y669D01*
X1251Y669D02*
X1258Y669D01*
X0Y668D02*
X7Y668D01*
X1251Y668D02*
X1258Y668D01*
X0Y667D02*
X7Y667D01*
X1251Y667D02*
X1258Y667D01*
X0Y666D02*
X7Y666D01*
X1251Y666D02*
X1258Y666D01*
X0Y665D02*
X7Y665D01*
X1251Y665D02*
X1258Y665D01*
X0Y664D02*
X7Y664D01*
X1251Y664D02*
X1258Y664D01*
X0Y663D02*
X7Y663D01*
X1102Y663D02*
X1113Y663D01*
X1144Y663D02*
X1147Y663D01*
X1251Y663D02*
X1258Y663D01*
X0Y662D02*
X7Y662D01*
X1101Y662D02*
X1114Y662D01*
X1142Y662D02*
X1148Y662D01*
X1251Y662D02*
X1258Y662D01*
X0Y661D02*
X7Y661D01*
X1099Y661D02*
X1116Y661D01*
X1141Y661D02*
X1149Y661D01*
X1251Y661D02*
X1258Y661D01*
X0Y660D02*
X7Y660D01*
X1098Y660D02*
X1117Y660D01*
X1139Y660D02*
X1149Y660D01*
X1251Y660D02*
X1258Y660D01*
X0Y659D02*
X7Y659D01*
X1097Y659D02*
X1117Y659D01*
X1137Y659D02*
X1149Y659D01*
X1251Y659D02*
X1258Y659D01*
X0Y658D02*
X7Y658D01*
X1097Y658D02*
X1118Y658D01*
X1136Y658D02*
X1148Y658D01*
X1251Y658D02*
X1258Y658D01*
X0Y657D02*
X7Y657D01*
X1096Y657D02*
X1119Y657D01*
X1134Y657D02*
X1147Y657D01*
X1251Y657D02*
X1258Y657D01*
X0Y656D02*
X7Y656D01*
X1096Y656D02*
X1103Y656D01*
X1112Y656D02*
X1119Y656D01*
X1132Y656D02*
X1145Y656D01*
X1251Y656D02*
X1258Y656D01*
X0Y655D02*
X7Y655D01*
X1096Y655D02*
X1102Y655D01*
X1113Y655D02*
X1119Y655D01*
X1130Y655D02*
X1143Y655D01*
X1251Y655D02*
X1258Y655D01*
X0Y654D02*
X7Y654D01*
X1096Y654D02*
X1102Y654D01*
X1113Y654D02*
X1119Y654D01*
X1129Y654D02*
X1142Y654D01*
X1251Y654D02*
X1258Y654D01*
X0Y653D02*
X7Y653D01*
X1096Y653D02*
X1102Y653D01*
X1113Y653D02*
X1119Y653D01*
X1127Y653D02*
X1140Y653D01*
X1251Y653D02*
X1258Y653D01*
X0Y652D02*
X7Y652D01*
X1096Y652D02*
X1102Y652D01*
X1113Y652D02*
X1119Y652D01*
X1125Y652D02*
X1138Y652D01*
X1251Y652D02*
X1258Y652D01*
X0Y651D02*
X7Y651D01*
X1096Y651D02*
X1102Y651D01*
X1113Y651D02*
X1119Y651D01*
X1124Y651D02*
X1137Y651D01*
X1251Y651D02*
X1258Y651D01*
X0Y650D02*
X7Y650D01*
X1096Y650D02*
X1102Y650D01*
X1113Y650D02*
X1119Y650D01*
X1122Y650D02*
X1135Y650D01*
X1251Y650D02*
X1258Y650D01*
X0Y649D02*
X7Y649D01*
X1096Y649D02*
X1102Y649D01*
X1113Y649D02*
X1133Y649D01*
X1251Y649D02*
X1258Y649D01*
X0Y648D02*
X7Y648D01*
X1096Y648D02*
X1102Y648D01*
X1113Y648D02*
X1131Y648D01*
X1251Y648D02*
X1258Y648D01*
X0Y647D02*
X7Y647D01*
X1096Y647D02*
X1102Y647D01*
X1113Y647D02*
X1130Y647D01*
X1251Y647D02*
X1258Y647D01*
X0Y646D02*
X7Y646D01*
X1096Y646D02*
X1102Y646D01*
X1113Y646D02*
X1128Y646D01*
X1251Y646D02*
X1258Y646D01*
X0Y645D02*
X7Y645D01*
X1096Y645D02*
X1102Y645D01*
X1113Y645D02*
X1126Y645D01*
X1251Y645D02*
X1258Y645D01*
X0Y644D02*
X7Y644D01*
X1096Y644D02*
X1102Y644D01*
X1113Y644D02*
X1125Y644D01*
X1251Y644D02*
X1258Y644D01*
X0Y643D02*
X7Y643D01*
X1096Y643D02*
X1102Y643D01*
X1113Y643D02*
X1123Y643D01*
X1251Y643D02*
X1258Y643D01*
X0Y642D02*
X7Y642D01*
X1096Y642D02*
X1102Y642D01*
X1113Y642D02*
X1121Y642D01*
X1251Y642D02*
X1258Y642D01*
X0Y641D02*
X7Y641D01*
X1096Y641D02*
X1102Y641D01*
X1113Y641D02*
X1120Y641D01*
X1251Y641D02*
X1258Y641D01*
X0Y640D02*
X7Y640D01*
X1096Y640D02*
X1102Y640D01*
X1113Y640D02*
X1119Y640D01*
X1251Y640D02*
X1258Y640D01*
X0Y639D02*
X7Y639D01*
X1096Y639D02*
X1102Y639D01*
X1113Y639D02*
X1119Y639D01*
X1251Y639D02*
X1258Y639D01*
X0Y638D02*
X7Y638D01*
X1096Y638D02*
X1102Y638D01*
X1113Y638D02*
X1119Y638D01*
X1251Y638D02*
X1258Y638D01*
X0Y637D02*
X7Y637D01*
X1096Y637D02*
X1102Y637D01*
X1113Y637D02*
X1119Y637D01*
X1251Y637D02*
X1258Y637D01*
X0Y636D02*
X7Y636D01*
X1096Y636D02*
X1146Y636D01*
X1251Y636D02*
X1258Y636D01*
X0Y635D02*
X7Y635D01*
X1096Y635D02*
X1148Y635D01*
X1251Y635D02*
X1258Y635D01*
X0Y634D02*
X7Y634D01*
X1096Y634D02*
X1148Y634D01*
X1251Y634D02*
X1258Y634D01*
X0Y633D02*
X7Y633D01*
X1096Y633D02*
X1149Y633D01*
X1251Y633D02*
X1258Y633D01*
X0Y632D02*
X7Y632D01*
X1096Y632D02*
X1149Y632D01*
X1251Y632D02*
X1258Y632D01*
X0Y631D02*
X7Y631D01*
X1096Y631D02*
X1148Y631D01*
X1251Y631D02*
X1258Y631D01*
X0Y630D02*
X7Y630D01*
X1096Y630D02*
X1147Y630D01*
X1251Y630D02*
X1258Y630D01*
X0Y629D02*
X7Y629D01*
X1251Y629D02*
X1258Y629D01*
X0Y628D02*
X7Y628D01*
X1251Y628D02*
X1258Y628D01*
X0Y627D02*
X7Y627D01*
X1251Y627D02*
X1258Y627D01*
X0Y626D02*
X7Y626D01*
X1251Y626D02*
X1258Y626D01*
X0Y625D02*
X7Y625D01*
X1251Y625D02*
X1258Y625D01*
X0Y624D02*
X7Y624D01*
X1251Y624D02*
X1258Y624D01*
X0Y623D02*
X7Y623D01*
X1251Y623D02*
X1258Y623D01*
X0Y622D02*
X7Y622D01*
X1251Y622D02*
X1258Y622D01*
X0Y621D02*
X7Y621D01*
X1251Y621D02*
X1258Y621D01*
X0Y620D02*
X7Y620D01*
X1251Y620D02*
X1258Y620D01*
X0Y619D02*
X7Y619D01*
X1251Y619D02*
X1258Y619D01*
X0Y618D02*
X7Y618D01*
X1251Y618D02*
X1258Y618D01*
X0Y617D02*
X7Y617D01*
X1251Y617D02*
X1258Y617D01*
X0Y616D02*
X7Y616D01*
X1251Y616D02*
X1258Y616D01*
X0Y615D02*
X7Y615D01*
X1251Y615D02*
X1258Y615D01*
X0Y614D02*
X7Y614D01*
X1251Y614D02*
X1258Y614D01*
X0Y613D02*
X7Y613D01*
X1251Y613D02*
X1258Y613D01*
X0Y612D02*
X7Y612D01*
X1251Y612D02*
X1258Y612D01*
X0Y611D02*
X7Y611D01*
X1251Y611D02*
X1258Y611D01*
X0Y610D02*
X7Y610D01*
X1251Y610D02*
X1258Y610D01*
X0Y609D02*
X7Y609D01*
X1251Y609D02*
X1258Y609D01*
X0Y608D02*
X7Y608D01*
X1251Y608D02*
X1258Y608D01*
X0Y607D02*
X7Y607D01*
X1251Y607D02*
X1258Y607D01*
X0Y606D02*
X7Y606D01*
X1251Y606D02*
X1258Y606D01*
X0Y605D02*
X7Y605D01*
X1251Y605D02*
X1258Y605D01*
X0Y604D02*
X7Y604D01*
X1251Y604D02*
X1258Y604D01*
X0Y603D02*
X7Y603D01*
X1251Y603D02*
X1258Y603D01*
X0Y602D02*
X7Y602D01*
X1251Y602D02*
X1258Y602D01*
X0Y601D02*
X7Y601D01*
X1251Y601D02*
X1258Y601D01*
X0Y600D02*
X7Y600D01*
X1251Y600D02*
X1258Y600D01*
X0Y599D02*
X7Y599D01*
X1251Y599D02*
X1258Y599D01*
X0Y598D02*
X7Y598D01*
X1251Y598D02*
X1258Y598D01*
X0Y597D02*
X7Y597D01*
X1251Y597D02*
X1258Y597D01*
X0Y596D02*
X7Y596D01*
X1251Y596D02*
X1258Y596D01*
X0Y595D02*
X7Y595D01*
X1251Y595D02*
X1258Y595D01*
X0Y594D02*
X7Y594D01*
X1251Y594D02*
X1258Y594D01*
X0Y593D02*
X7Y593D01*
X1251Y593D02*
X1258Y593D01*
X0Y592D02*
X7Y592D01*
X1251Y592D02*
X1258Y592D01*
X0Y591D02*
X7Y591D01*
X1251Y591D02*
X1258Y591D01*
X0Y590D02*
X7Y590D01*
X1251Y590D02*
X1258Y590D01*
X0Y589D02*
X7Y589D01*
X1251Y589D02*
X1258Y589D01*
X0Y588D02*
X7Y588D01*
X1251Y588D02*
X1258Y588D01*
X0Y587D02*
X7Y587D01*
X1251Y587D02*
X1258Y587D01*
X0Y586D02*
X7Y586D01*
X1251Y586D02*
X1258Y586D01*
X0Y585D02*
X7Y585D01*
X1251Y585D02*
X1258Y585D01*
X0Y584D02*
X7Y584D01*
X1251Y584D02*
X1258Y584D01*
X0Y583D02*
X7Y583D01*
X1251Y583D02*
X1258Y583D01*
X0Y582D02*
X7Y582D01*
X1251Y582D02*
X1258Y582D01*
X0Y581D02*
X7Y581D01*
X1251Y581D02*
X1258Y581D01*
X0Y580D02*
X7Y580D01*
X1251Y580D02*
X1258Y580D01*
X0Y579D02*
X7Y579D01*
X1251Y579D02*
X1258Y579D01*
X0Y578D02*
X7Y578D01*
X1251Y578D02*
X1258Y578D01*
X0Y577D02*
X7Y577D01*
X1251Y577D02*
X1258Y577D01*
X0Y576D02*
X7Y576D01*
X1251Y576D02*
X1258Y576D01*
X0Y575D02*
X7Y575D01*
X1251Y575D02*
X1258Y575D01*
X0Y574D02*
X7Y574D01*
X1251Y574D02*
X1258Y574D01*
X0Y573D02*
X7Y573D01*
X1251Y573D02*
X1258Y573D01*
X0Y572D02*
X7Y572D01*
X1251Y572D02*
X1258Y572D01*
X0Y571D02*
X7Y571D01*
X1251Y571D02*
X1258Y571D01*
X0Y570D02*
X7Y570D01*
X1116Y570D02*
X1125Y570D01*
X1251Y570D02*
X1258Y570D01*
X0Y569D02*
X7Y569D01*
X1116Y569D02*
X1125Y569D01*
X1251Y569D02*
X1258Y569D01*
X0Y568D02*
X7Y568D01*
X1116Y568D02*
X1125Y568D01*
X1251Y568D02*
X1258Y568D01*
X0Y567D02*
X7Y567D01*
X1116Y567D02*
X1125Y567D01*
X1251Y567D02*
X1258Y567D01*
X0Y566D02*
X7Y566D01*
X1116Y566D02*
X1125Y566D01*
X1251Y566D02*
X1258Y566D01*
X0Y565D02*
X7Y565D01*
X1116Y565D02*
X1125Y565D01*
X1251Y565D02*
X1258Y565D01*
X0Y564D02*
X7Y564D01*
X1116Y564D02*
X1125Y564D01*
X1251Y564D02*
X1258Y564D01*
X0Y563D02*
X7Y563D01*
X1116Y563D02*
X1125Y563D01*
X1251Y563D02*
X1258Y563D01*
X0Y562D02*
X7Y562D01*
X1116Y562D02*
X1125Y562D01*
X1251Y562D02*
X1258Y562D01*
X0Y561D02*
X7Y561D01*
X1116Y561D02*
X1125Y561D01*
X1251Y561D02*
X1258Y561D01*
X0Y560D02*
X7Y560D01*
X1116Y560D02*
X1125Y560D01*
X1251Y560D02*
X1258Y560D01*
X0Y559D02*
X7Y559D01*
X1116Y559D02*
X1125Y559D01*
X1251Y559D02*
X1258Y559D01*
X0Y558D02*
X7Y558D01*
X1116Y558D02*
X1125Y558D01*
X1251Y558D02*
X1258Y558D01*
X0Y557D02*
X7Y557D01*
X1116Y557D02*
X1125Y557D01*
X1251Y557D02*
X1258Y557D01*
X0Y556D02*
X7Y556D01*
X1116Y556D02*
X1125Y556D01*
X1251Y556D02*
X1258Y556D01*
X0Y555D02*
X7Y555D01*
X1116Y555D02*
X1125Y555D01*
X1251Y555D02*
X1258Y555D01*
X0Y554D02*
X7Y554D01*
X1116Y554D02*
X1125Y554D01*
X1251Y554D02*
X1258Y554D01*
X0Y553D02*
X7Y553D01*
X178Y553D02*
X179Y553D01*
X577Y553D02*
X579Y553D01*
X977Y553D02*
X978Y553D01*
X1116Y553D02*
X1125Y553D01*
X1251Y553D02*
X1258Y553D01*
X0Y552D02*
X7Y552D01*
X171Y552D02*
X180Y552D01*
X571Y552D02*
X579Y552D01*
X971Y552D02*
X979Y552D01*
X1116Y552D02*
X1125Y552D01*
X1251Y552D02*
X1258Y552D01*
X0Y551D02*
X7Y551D01*
X168Y551D02*
X180Y551D01*
X567Y551D02*
X580Y551D01*
X967Y551D02*
X979Y551D01*
X1116Y551D02*
X1125Y551D01*
X1251Y551D02*
X1258Y551D01*
X0Y550D02*
X7Y550D01*
X165Y550D02*
X180Y550D01*
X565Y550D02*
X580Y550D01*
X965Y550D02*
X980Y550D01*
X1116Y550D02*
X1125Y550D01*
X1251Y550D02*
X1258Y550D01*
X0Y549D02*
X7Y549D01*
X163Y549D02*
X180Y549D01*
X563Y549D02*
X580Y549D01*
X962Y549D02*
X980Y549D01*
X1116Y549D02*
X1125Y549D01*
X1251Y549D02*
X1258Y549D01*
X0Y548D02*
X7Y548D01*
X161Y548D02*
X181Y548D01*
X561Y548D02*
X580Y548D01*
X960Y548D02*
X980Y548D01*
X1116Y548D02*
X1125Y548D01*
X1251Y548D02*
X1258Y548D01*
X0Y547D02*
X7Y547D01*
X159Y547D02*
X181Y547D01*
X559Y547D02*
X581Y547D01*
X959Y547D02*
X980Y547D01*
X1116Y547D02*
X1125Y547D01*
X1251Y547D02*
X1258Y547D01*
X0Y546D02*
X7Y546D01*
X158Y546D02*
X181Y546D01*
X557Y546D02*
X581Y546D01*
X957Y546D02*
X981Y546D01*
X1116Y546D02*
X1125Y546D01*
X1251Y546D02*
X1258Y546D01*
X0Y545D02*
X7Y545D01*
X156Y545D02*
X182Y545D01*
X556Y545D02*
X581Y545D01*
X956Y545D02*
X981Y545D01*
X1116Y545D02*
X1125Y545D01*
X1251Y545D02*
X1258Y545D01*
X0Y544D02*
X7Y544D01*
X155Y544D02*
X181Y544D01*
X555Y544D02*
X581Y544D01*
X954Y544D02*
X981Y544D01*
X1116Y544D02*
X1125Y544D01*
X1251Y544D02*
X1258Y544D01*
X0Y543D02*
X7Y543D01*
X154Y543D02*
X177Y543D01*
X553Y543D02*
X577Y543D01*
X953Y543D02*
X977Y543D01*
X1116Y543D02*
X1125Y543D01*
X1251Y543D02*
X1258Y543D01*
X0Y542D02*
X7Y542D01*
X152Y542D02*
X171Y542D01*
X552Y542D02*
X571Y542D01*
X952Y542D02*
X971Y542D01*
X1116Y542D02*
X1125Y542D01*
X1251Y542D02*
X1258Y542D01*
X0Y541D02*
X7Y541D01*
X151Y541D02*
X168Y541D01*
X551Y541D02*
X568Y541D01*
X951Y541D02*
X968Y541D01*
X1116Y541D02*
X1125Y541D01*
X1251Y541D02*
X1258Y541D01*
X0Y540D02*
X7Y540D01*
X150Y540D02*
X166Y540D01*
X550Y540D02*
X565Y540D01*
X950Y540D02*
X965Y540D01*
X1116Y540D02*
X1125Y540D01*
X1251Y540D02*
X1258Y540D01*
X0Y539D02*
X7Y539D01*
X149Y539D02*
X164Y539D01*
X549Y539D02*
X564Y539D01*
X949Y539D02*
X963Y539D01*
X1116Y539D02*
X1125Y539D01*
X1251Y539D02*
X1258Y539D01*
X0Y538D02*
X7Y538D01*
X148Y538D02*
X162Y538D01*
X548Y538D02*
X562Y538D01*
X947Y538D02*
X962Y538D01*
X1116Y538D02*
X1125Y538D01*
X1251Y538D02*
X1258Y538D01*
X0Y537D02*
X7Y537D01*
X147Y537D02*
X161Y537D01*
X547Y537D02*
X560Y537D01*
X946Y537D02*
X960Y537D01*
X1116Y537D02*
X1125Y537D01*
X1251Y537D02*
X1258Y537D01*
X0Y536D02*
X7Y536D01*
X146Y536D02*
X159Y536D01*
X546Y536D02*
X559Y536D01*
X946Y536D02*
X959Y536D01*
X1116Y536D02*
X1125Y536D01*
X1251Y536D02*
X1258Y536D01*
X0Y535D02*
X7Y535D01*
X145Y535D02*
X158Y535D01*
X545Y535D02*
X558Y535D01*
X945Y535D02*
X958Y535D01*
X1116Y535D02*
X1125Y535D01*
X1251Y535D02*
X1258Y535D01*
X0Y534D02*
X7Y534D01*
X144Y534D02*
X157Y534D01*
X544Y534D02*
X557Y534D01*
X944Y534D02*
X956Y534D01*
X1116Y534D02*
X1125Y534D01*
X1251Y534D02*
X1258Y534D01*
X0Y533D02*
X7Y533D01*
X144Y533D02*
X156Y533D01*
X543Y533D02*
X556Y533D01*
X943Y533D02*
X955Y533D01*
X1116Y533D02*
X1125Y533D01*
X1251Y533D02*
X1258Y533D01*
X0Y532D02*
X7Y532D01*
X143Y532D02*
X155Y532D01*
X543Y532D02*
X555Y532D01*
X942Y532D02*
X954Y532D01*
X1116Y532D02*
X1125Y532D01*
X1251Y532D02*
X1258Y532D01*
X0Y531D02*
X7Y531D01*
X142Y531D02*
X154Y531D01*
X542Y531D02*
X554Y531D01*
X941Y531D02*
X953Y531D01*
X1116Y531D02*
X1125Y531D01*
X1251Y531D02*
X1258Y531D01*
X0Y530D02*
X7Y530D01*
X141Y530D02*
X153Y530D01*
X541Y530D02*
X553Y530D01*
X941Y530D02*
X952Y530D01*
X1081Y530D02*
X1089Y530D01*
X1116Y530D02*
X1125Y530D01*
X1251Y530D02*
X1258Y530D01*
X0Y529D02*
X7Y529D01*
X141Y529D02*
X152Y529D01*
X540Y529D02*
X552Y529D01*
X940Y529D02*
X952Y529D01*
X1081Y529D02*
X1089Y529D01*
X1116Y529D02*
X1125Y529D01*
X1251Y529D02*
X1258Y529D01*
X0Y528D02*
X7Y528D01*
X140Y528D02*
X151Y528D01*
X540Y528D02*
X551Y528D01*
X939Y528D02*
X951Y528D01*
X1081Y528D02*
X1089Y528D01*
X1116Y528D02*
X1125Y528D01*
X1251Y528D02*
X1258Y528D01*
X0Y527D02*
X7Y527D01*
X139Y527D02*
X150Y527D01*
X539Y527D02*
X550Y527D01*
X939Y527D02*
X950Y527D01*
X1081Y527D02*
X1089Y527D01*
X1116Y527D02*
X1125Y527D01*
X1251Y527D02*
X1258Y527D01*
X0Y526D02*
X7Y526D01*
X139Y526D02*
X150Y526D01*
X538Y526D02*
X549Y526D01*
X938Y526D02*
X949Y526D01*
X1081Y526D02*
X1089Y526D01*
X1116Y526D02*
X1125Y526D01*
X1251Y526D02*
X1258Y526D01*
X0Y525D02*
X7Y525D01*
X138Y525D02*
X149Y525D01*
X538Y525D02*
X549Y525D01*
X937Y525D02*
X948Y525D01*
X1081Y525D02*
X1089Y525D01*
X1116Y525D02*
X1125Y525D01*
X1251Y525D02*
X1258Y525D01*
X0Y524D02*
X7Y524D01*
X137Y524D02*
X148Y524D01*
X537Y524D02*
X548Y524D01*
X937Y524D02*
X948Y524D01*
X1081Y524D02*
X1089Y524D01*
X1116Y524D02*
X1125Y524D01*
X1251Y524D02*
X1258Y524D01*
X0Y523D02*
X7Y523D01*
X137Y523D02*
X148Y523D01*
X537Y523D02*
X547Y523D01*
X936Y523D02*
X947Y523D01*
X1081Y523D02*
X1089Y523D01*
X1116Y523D02*
X1125Y523D01*
X1251Y523D02*
X1258Y523D01*
X0Y522D02*
X7Y522D01*
X136Y522D02*
X147Y522D01*
X536Y522D02*
X547Y522D01*
X936Y522D02*
X946Y522D01*
X1081Y522D02*
X1089Y522D01*
X1116Y522D02*
X1125Y522D01*
X1251Y522D02*
X1258Y522D01*
X0Y521D02*
X7Y521D01*
X136Y521D02*
X146Y521D01*
X535Y521D02*
X546Y521D01*
X935Y521D02*
X946Y521D01*
X1081Y521D02*
X1089Y521D01*
X1116Y521D02*
X1125Y521D01*
X1251Y521D02*
X1258Y521D01*
X0Y520D02*
X7Y520D01*
X135Y520D02*
X146Y520D01*
X535Y520D02*
X545Y520D01*
X935Y520D02*
X945Y520D01*
X1081Y520D02*
X1089Y520D01*
X1116Y520D02*
X1125Y520D01*
X1251Y520D02*
X1258Y520D01*
X0Y519D02*
X7Y519D01*
X135Y519D02*
X145Y519D01*
X534Y519D02*
X545Y519D01*
X934Y519D02*
X945Y519D01*
X1081Y519D02*
X1089Y519D01*
X1116Y519D02*
X1125Y519D01*
X1251Y519D02*
X1258Y519D01*
X0Y518D02*
X7Y518D01*
X134Y518D02*
X145Y518D01*
X534Y518D02*
X544Y518D01*
X934Y518D02*
X944Y518D01*
X1081Y518D02*
X1089Y518D01*
X1116Y518D02*
X1125Y518D01*
X1251Y518D02*
X1258Y518D01*
X0Y517D02*
X7Y517D01*
X134Y517D02*
X144Y517D01*
X533Y517D02*
X544Y517D01*
X933Y517D02*
X943Y517D01*
X1081Y517D02*
X1089Y517D01*
X1116Y517D02*
X1125Y517D01*
X1251Y517D02*
X1258Y517D01*
X0Y516D02*
X7Y516D01*
X133Y516D02*
X143Y516D01*
X533Y516D02*
X543Y516D01*
X933Y516D02*
X943Y516D01*
X1081Y516D02*
X1089Y516D01*
X1116Y516D02*
X1125Y516D01*
X1251Y516D02*
X1258Y516D01*
X0Y515D02*
X7Y515D01*
X133Y515D02*
X143Y515D01*
X533Y515D02*
X543Y515D01*
X932Y515D02*
X942Y515D01*
X1081Y515D02*
X1089Y515D01*
X1116Y515D02*
X1125Y515D01*
X1251Y515D02*
X1258Y515D01*
X0Y514D02*
X7Y514D01*
X132Y514D02*
X142Y514D01*
X532Y514D02*
X542Y514D01*
X932Y514D02*
X942Y514D01*
X1081Y514D02*
X1089Y514D01*
X1116Y514D02*
X1125Y514D01*
X1251Y514D02*
X1258Y514D01*
X0Y513D02*
X7Y513D01*
X132Y513D02*
X142Y513D01*
X532Y513D02*
X542Y513D01*
X931Y513D02*
X941Y513D01*
X1081Y513D02*
X1089Y513D01*
X1116Y513D02*
X1125Y513D01*
X1251Y513D02*
X1258Y513D01*
X0Y512D02*
X7Y512D01*
X131Y512D02*
X141Y512D01*
X531Y512D02*
X541Y512D01*
X931Y512D02*
X941Y512D01*
X1081Y512D02*
X1089Y512D01*
X1116Y512D02*
X1125Y512D01*
X1251Y512D02*
X1258Y512D01*
X0Y511D02*
X7Y511D01*
X131Y511D02*
X141Y511D01*
X531Y511D02*
X541Y511D01*
X931Y511D02*
X940Y511D01*
X1081Y511D02*
X1089Y511D01*
X1116Y511D02*
X1125Y511D01*
X1251Y511D02*
X1258Y511D01*
X0Y510D02*
X7Y510D01*
X131Y510D02*
X140Y510D01*
X530Y510D02*
X540Y510D01*
X930Y510D02*
X940Y510D01*
X1081Y510D02*
X1089Y510D01*
X1116Y510D02*
X1125Y510D01*
X1251Y510D02*
X1258Y510D01*
X0Y509D02*
X7Y509D01*
X130Y509D02*
X140Y509D01*
X530Y509D02*
X540Y509D01*
X930Y509D02*
X939Y509D01*
X1081Y509D02*
X1089Y509D01*
X1116Y509D02*
X1125Y509D01*
X1251Y509D02*
X1258Y509D01*
X0Y508D02*
X7Y508D01*
X130Y508D02*
X140Y508D01*
X530Y508D02*
X539Y508D01*
X929Y508D02*
X939Y508D01*
X1081Y508D02*
X1089Y508D01*
X1116Y508D02*
X1125Y508D01*
X1251Y508D02*
X1258Y508D01*
X0Y507D02*
X7Y507D01*
X130Y507D02*
X139Y507D01*
X529Y507D02*
X539Y507D01*
X929Y507D02*
X939Y507D01*
X1081Y507D02*
X1089Y507D01*
X1116Y507D02*
X1125Y507D01*
X1251Y507D02*
X1258Y507D01*
X0Y506D02*
X7Y506D01*
X129Y506D02*
X139Y506D01*
X529Y506D02*
X539Y506D01*
X929Y506D02*
X938Y506D01*
X1081Y506D02*
X1089Y506D01*
X1116Y506D02*
X1125Y506D01*
X1251Y506D02*
X1258Y506D01*
X0Y505D02*
X7Y505D01*
X129Y505D02*
X138Y505D01*
X529Y505D02*
X538Y505D01*
X928Y505D02*
X938Y505D01*
X1081Y505D02*
X1089Y505D01*
X1116Y505D02*
X1125Y505D01*
X1251Y505D02*
X1258Y505D01*
X0Y504D02*
X7Y504D01*
X129Y504D02*
X138Y504D01*
X528Y504D02*
X538Y504D01*
X928Y504D02*
X938Y504D01*
X1081Y504D02*
X1089Y504D01*
X1116Y504D02*
X1125Y504D01*
X1251Y504D02*
X1258Y504D01*
X0Y503D02*
X7Y503D01*
X128Y503D02*
X138Y503D01*
X528Y503D02*
X537Y503D01*
X928Y503D02*
X937Y503D01*
X1081Y503D02*
X1089Y503D01*
X1251Y503D02*
X1258Y503D01*
X0Y502D02*
X7Y502D01*
X128Y502D02*
X137Y502D01*
X528Y502D02*
X537Y502D01*
X927Y502D02*
X937Y502D01*
X1081Y502D02*
X1089Y502D01*
X1251Y502D02*
X1258Y502D01*
X0Y501D02*
X7Y501D01*
X128Y501D02*
X137Y501D01*
X527Y501D02*
X537Y501D01*
X927Y501D02*
X936Y501D01*
X1081Y501D02*
X1089Y501D01*
X1251Y501D02*
X1258Y501D01*
X0Y500D02*
X7Y500D01*
X127Y500D02*
X137Y500D01*
X527Y500D02*
X536Y500D01*
X927Y500D02*
X936Y500D01*
X1081Y500D02*
X1089Y500D01*
X1251Y500D02*
X1258Y500D01*
X0Y499D02*
X7Y499D01*
X127Y499D02*
X136Y499D01*
X527Y499D02*
X536Y499D01*
X927Y499D02*
X936Y499D01*
X1081Y499D02*
X1089Y499D01*
X1251Y499D02*
X1258Y499D01*
X0Y498D02*
X7Y498D01*
X127Y498D02*
X136Y498D01*
X527Y498D02*
X536Y498D01*
X926Y498D02*
X936Y498D01*
X1081Y498D02*
X1089Y498D01*
X1251Y498D02*
X1258Y498D01*
X0Y497D02*
X7Y497D01*
X127Y497D02*
X136Y497D01*
X526Y497D02*
X536Y497D01*
X926Y497D02*
X935Y497D01*
X1081Y497D02*
X1089Y497D01*
X1251Y497D02*
X1258Y497D01*
X0Y496D02*
X7Y496D01*
X126Y496D02*
X136Y496D01*
X526Y496D02*
X535Y496D01*
X926Y496D02*
X935Y496D01*
X1081Y496D02*
X1089Y496D01*
X1251Y496D02*
X1258Y496D01*
X0Y495D02*
X7Y495D01*
X126Y495D02*
X135Y495D01*
X526Y495D02*
X535Y495D01*
X926Y495D02*
X935Y495D01*
X1081Y495D02*
X1089Y495D01*
X1251Y495D02*
X1258Y495D01*
X0Y494D02*
X7Y494D01*
X126Y494D02*
X135Y494D01*
X526Y494D02*
X535Y494D01*
X925Y494D02*
X934Y494D01*
X1081Y494D02*
X1089Y494D01*
X1251Y494D02*
X1258Y494D01*
X0Y493D02*
X7Y493D01*
X126Y493D02*
X135Y493D01*
X525Y493D02*
X535Y493D01*
X925Y493D02*
X934Y493D01*
X1081Y493D02*
X1089Y493D01*
X1251Y493D02*
X1258Y493D01*
X0Y492D02*
X7Y492D01*
X125Y492D02*
X135Y492D01*
X525Y492D02*
X534Y492D01*
X925Y492D02*
X934Y492D01*
X1081Y492D02*
X1089Y492D01*
X1251Y492D02*
X1258Y492D01*
X0Y491D02*
X7Y491D01*
X125Y491D02*
X134Y491D01*
X525Y491D02*
X534Y491D01*
X925Y491D02*
X934Y491D01*
X1081Y491D02*
X1089Y491D01*
X1251Y491D02*
X1258Y491D01*
X0Y490D02*
X7Y490D01*
X125Y490D02*
X134Y490D01*
X525Y490D02*
X534Y490D01*
X924Y490D02*
X934Y490D01*
X1081Y490D02*
X1089Y490D01*
X1251Y490D02*
X1258Y490D01*
X0Y489D02*
X7Y489D01*
X125Y489D02*
X134Y489D01*
X524Y489D02*
X534Y489D01*
X924Y489D02*
X933Y489D01*
X1081Y489D02*
X1089Y489D01*
X1251Y489D02*
X1258Y489D01*
X0Y488D02*
X7Y488D01*
X125Y488D02*
X134Y488D01*
X524Y488D02*
X533Y488D01*
X924Y488D02*
X933Y488D01*
X1081Y488D02*
X1088Y488D01*
X1251Y488D02*
X1258Y488D01*
X0Y487D02*
X7Y487D01*
X124Y487D02*
X133Y487D01*
X524Y487D02*
X533Y487D01*
X924Y487D02*
X933Y487D01*
X1081Y487D02*
X1087Y487D01*
X1251Y487D02*
X1258Y487D01*
X0Y486D02*
X7Y486D01*
X124Y486D02*
X133Y486D01*
X524Y486D02*
X533Y486D01*
X924Y486D02*
X933Y486D01*
X1081Y486D02*
X1086Y486D01*
X1251Y486D02*
X1258Y486D01*
X0Y485D02*
X7Y485D01*
X124Y485D02*
X133Y485D01*
X524Y485D02*
X533Y485D01*
X924Y485D02*
X933Y485D01*
X1081Y485D02*
X1086Y485D01*
X1251Y485D02*
X1258Y485D01*
X0Y484D02*
X7Y484D01*
X124Y484D02*
X133Y484D01*
X524Y484D02*
X533Y484D01*
X923Y484D02*
X932Y484D01*
X1081Y484D02*
X1085Y484D01*
X1251Y484D02*
X1258Y484D01*
X0Y483D02*
X7Y483D01*
X124Y483D02*
X133Y483D01*
X524Y483D02*
X533Y483D01*
X923Y483D02*
X932Y483D01*
X1081Y483D02*
X1084Y483D01*
X1251Y483D02*
X1258Y483D01*
X0Y482D02*
X7Y482D01*
X124Y482D02*
X133Y482D01*
X523Y482D02*
X532Y482D01*
X923Y482D02*
X932Y482D01*
X1081Y482D02*
X1084Y482D01*
X1251Y482D02*
X1258Y482D01*
X0Y481D02*
X7Y481D01*
X123Y481D02*
X133Y481D01*
X523Y481D02*
X532Y481D01*
X923Y481D02*
X932Y481D01*
X1081Y481D02*
X1083Y481D01*
X1251Y481D02*
X1258Y481D01*
X0Y480D02*
X7Y480D01*
X123Y480D02*
X132Y480D01*
X523Y480D02*
X532Y480D01*
X923Y480D02*
X932Y480D01*
X1081Y480D02*
X1083Y480D01*
X1251Y480D02*
X1258Y480D01*
X0Y479D02*
X7Y479D01*
X123Y479D02*
X132Y479D01*
X523Y479D02*
X532Y479D01*
X923Y479D02*
X932Y479D01*
X1081Y479D02*
X1082Y479D01*
X1251Y479D02*
X1258Y479D01*
X0Y478D02*
X7Y478D01*
X123Y478D02*
X132Y478D01*
X523Y478D02*
X532Y478D01*
X923Y478D02*
X932Y478D01*
X1081Y478D02*
X1082Y478D01*
X1251Y478D02*
X1258Y478D01*
X0Y477D02*
X7Y477D01*
X123Y477D02*
X132Y477D01*
X523Y477D02*
X532Y477D01*
X923Y477D02*
X932Y477D01*
X1081Y477D02*
X1081Y477D01*
X1251Y477D02*
X1258Y477D01*
X0Y476D02*
X7Y476D01*
X123Y476D02*
X132Y476D01*
X523Y476D02*
X532Y476D01*
X922Y476D02*
X931Y476D01*
X1081Y476D02*
X1081Y476D01*
X1251Y476D02*
X1258Y476D01*
X0Y475D02*
X7Y475D01*
X123Y475D02*
X132Y475D01*
X523Y475D02*
X532Y475D01*
X922Y475D02*
X931Y475D01*
X1251Y475D02*
X1258Y475D01*
X0Y474D02*
X7Y474D01*
X123Y474D02*
X132Y474D01*
X523Y474D02*
X532Y474D01*
X922Y474D02*
X931Y474D01*
X1251Y474D02*
X1258Y474D01*
X0Y473D02*
X7Y473D01*
X123Y473D02*
X132Y473D01*
X522Y473D02*
X531Y473D01*
X922Y473D02*
X931Y473D01*
X1251Y473D02*
X1258Y473D01*
X0Y472D02*
X7Y472D01*
X123Y472D02*
X132Y472D01*
X522Y472D02*
X531Y472D01*
X922Y472D02*
X931Y472D01*
X1251Y472D02*
X1258Y472D01*
X0Y471D02*
X7Y471D01*
X123Y471D02*
X132Y471D01*
X522Y471D02*
X531Y471D01*
X922Y471D02*
X931Y471D01*
X1251Y471D02*
X1258Y471D01*
X0Y470D02*
X7Y470D01*
X123Y470D02*
X132Y470D01*
X522Y470D02*
X531Y470D01*
X922Y470D02*
X931Y470D01*
X1251Y470D02*
X1258Y470D01*
X0Y469D02*
X7Y469D01*
X123Y469D02*
X132Y469D01*
X522Y469D02*
X531Y469D01*
X922Y469D02*
X931Y469D01*
X1251Y469D02*
X1258Y469D01*
X0Y468D02*
X7Y468D01*
X122Y468D02*
X131Y468D01*
X522Y468D02*
X531Y468D01*
X922Y468D02*
X931Y468D01*
X1251Y468D02*
X1258Y468D01*
X0Y467D02*
X7Y467D01*
X122Y467D02*
X131Y467D01*
X522Y467D02*
X531Y467D01*
X922Y467D02*
X931Y467D01*
X1251Y467D02*
X1258Y467D01*
X0Y466D02*
X7Y466D01*
X122Y466D02*
X131Y466D01*
X522Y466D02*
X531Y466D01*
X922Y466D02*
X931Y466D01*
X1251Y466D02*
X1258Y466D01*
X0Y465D02*
X7Y465D01*
X122Y465D02*
X131Y465D01*
X522Y465D02*
X531Y465D01*
X922Y465D02*
X931Y465D01*
X1251Y465D02*
X1258Y465D01*
X0Y464D02*
X7Y464D01*
X122Y464D02*
X131Y464D01*
X522Y464D02*
X531Y464D01*
X922Y464D02*
X931Y464D01*
X1251Y464D02*
X1258Y464D01*
X0Y463D02*
X7Y463D01*
X122Y463D02*
X131Y463D01*
X522Y463D02*
X531Y463D01*
X922Y463D02*
X931Y463D01*
X1251Y463D02*
X1258Y463D01*
X0Y462D02*
X7Y462D01*
X122Y462D02*
X131Y462D01*
X522Y462D02*
X531Y462D01*
X922Y462D02*
X931Y462D01*
X1251Y462D02*
X1258Y462D01*
X0Y461D02*
X7Y461D01*
X122Y461D02*
X131Y461D01*
X522Y461D02*
X531Y461D01*
X922Y461D02*
X931Y461D01*
X1251Y461D02*
X1258Y461D01*
X0Y460D02*
X7Y460D01*
X122Y460D02*
X131Y460D01*
X522Y460D02*
X531Y460D01*
X922Y460D02*
X931Y460D01*
X1251Y460D02*
X1258Y460D01*
X0Y459D02*
X7Y459D01*
X122Y459D02*
X131Y459D01*
X522Y459D02*
X531Y459D01*
X922Y459D02*
X931Y459D01*
X1251Y459D02*
X1258Y459D01*
X0Y458D02*
X7Y458D01*
X123Y458D02*
X132Y458D01*
X522Y458D02*
X531Y458D01*
X922Y458D02*
X931Y458D01*
X1251Y458D02*
X1258Y458D01*
X0Y457D02*
X7Y457D01*
X123Y457D02*
X132Y457D01*
X522Y457D02*
X531Y457D01*
X922Y457D02*
X931Y457D01*
X1251Y457D02*
X1258Y457D01*
X0Y456D02*
X7Y456D01*
X123Y456D02*
X132Y456D01*
X522Y456D02*
X531Y456D01*
X922Y456D02*
X931Y456D01*
X1251Y456D02*
X1258Y456D01*
X0Y455D02*
X7Y455D01*
X123Y455D02*
X132Y455D01*
X522Y455D02*
X531Y455D01*
X922Y455D02*
X931Y455D01*
X1251Y455D02*
X1258Y455D01*
X0Y454D02*
X7Y454D01*
X123Y454D02*
X132Y454D01*
X522Y454D02*
X531Y454D01*
X922Y454D02*
X931Y454D01*
X1251Y454D02*
X1258Y454D01*
X0Y453D02*
X7Y453D01*
X123Y453D02*
X132Y453D01*
X522Y453D02*
X531Y453D01*
X922Y453D02*
X931Y453D01*
X1251Y453D02*
X1258Y453D01*
X0Y452D02*
X7Y452D01*
X123Y452D02*
X132Y452D01*
X523Y452D02*
X532Y452D01*
X922Y452D02*
X931Y452D01*
X1251Y452D02*
X1258Y452D01*
X0Y451D02*
X7Y451D01*
X123Y451D02*
X132Y451D01*
X523Y451D02*
X532Y451D01*
X922Y451D02*
X931Y451D01*
X1251Y451D02*
X1258Y451D01*
X0Y450D02*
X7Y450D01*
X123Y450D02*
X132Y450D01*
X523Y450D02*
X532Y450D01*
X923Y450D02*
X932Y450D01*
X1251Y450D02*
X1258Y450D01*
X0Y449D02*
X7Y449D01*
X123Y449D02*
X132Y449D01*
X523Y449D02*
X532Y449D01*
X923Y449D02*
X932Y449D01*
X1251Y449D02*
X1258Y449D01*
X0Y448D02*
X7Y448D01*
X123Y448D02*
X132Y448D01*
X523Y448D02*
X532Y448D01*
X923Y448D02*
X932Y448D01*
X1251Y448D02*
X1258Y448D01*
X0Y447D02*
X7Y447D01*
X123Y447D02*
X132Y447D01*
X523Y447D02*
X532Y447D01*
X923Y447D02*
X932Y447D01*
X1251Y447D02*
X1258Y447D01*
X0Y446D02*
X7Y446D01*
X123Y446D02*
X132Y446D01*
X523Y446D02*
X532Y446D01*
X923Y446D02*
X932Y446D01*
X1081Y446D02*
X1081Y446D01*
X1251Y446D02*
X1258Y446D01*
X0Y445D02*
X7Y445D01*
X124Y445D02*
X133Y445D01*
X523Y445D02*
X532Y445D01*
X923Y445D02*
X932Y445D01*
X1081Y445D02*
X1081Y445D01*
X1251Y445D02*
X1258Y445D01*
X0Y444D02*
X7Y444D01*
X124Y444D02*
X133Y444D01*
X523Y444D02*
X533Y444D01*
X923Y444D02*
X932Y444D01*
X1081Y444D02*
X1082Y444D01*
X1251Y444D02*
X1258Y444D01*
X0Y443D02*
X7Y443D01*
X124Y443D02*
X133Y443D01*
X524Y443D02*
X533Y443D01*
X923Y443D02*
X932Y443D01*
X1081Y443D02*
X1082Y443D01*
X1251Y443D02*
X1258Y443D01*
X0Y442D02*
X7Y442D01*
X124Y442D02*
X133Y442D01*
X524Y442D02*
X533Y442D01*
X924Y442D02*
X933Y442D01*
X1081Y442D02*
X1083Y442D01*
X1251Y442D02*
X1258Y442D01*
X0Y441D02*
X7Y441D01*
X124Y441D02*
X133Y441D01*
X524Y441D02*
X533Y441D01*
X924Y441D02*
X933Y441D01*
X1081Y441D02*
X1083Y441D01*
X1251Y441D02*
X1258Y441D01*
X0Y440D02*
X7Y440D01*
X124Y440D02*
X133Y440D01*
X524Y440D02*
X533Y440D01*
X924Y440D02*
X933Y440D01*
X1081Y440D02*
X1084Y440D01*
X1251Y440D02*
X1258Y440D01*
X0Y439D02*
X7Y439D01*
X125Y439D02*
X134Y439D01*
X524Y439D02*
X533Y439D01*
X924Y439D02*
X933Y439D01*
X1081Y439D02*
X1084Y439D01*
X1251Y439D02*
X1258Y439D01*
X0Y438D02*
X7Y438D01*
X125Y438D02*
X134Y438D01*
X524Y438D02*
X534Y438D01*
X924Y438D02*
X933Y438D01*
X1081Y438D02*
X1085Y438D01*
X1251Y438D02*
X1258Y438D01*
X0Y437D02*
X7Y437D01*
X125Y437D02*
X134Y437D01*
X525Y437D02*
X534Y437D01*
X924Y437D02*
X933Y437D01*
X1081Y437D02*
X1086Y437D01*
X1251Y437D02*
X1258Y437D01*
X0Y436D02*
X7Y436D01*
X125Y436D02*
X134Y436D01*
X525Y436D02*
X534Y436D01*
X925Y436D02*
X934Y436D01*
X1081Y436D02*
X1086Y436D01*
X1251Y436D02*
X1258Y436D01*
X0Y435D02*
X7Y435D01*
X125Y435D02*
X134Y435D01*
X525Y435D02*
X534Y435D01*
X925Y435D02*
X934Y435D01*
X1081Y435D02*
X1087Y435D01*
X1251Y435D02*
X1258Y435D01*
X0Y434D02*
X7Y434D01*
X126Y434D02*
X135Y434D01*
X525Y434D02*
X534Y434D01*
X925Y434D02*
X934Y434D01*
X1081Y434D02*
X1088Y434D01*
X1251Y434D02*
X1258Y434D01*
X0Y433D02*
X7Y433D01*
X126Y433D02*
X135Y433D01*
X526Y433D02*
X535Y433D01*
X925Y433D02*
X934Y433D01*
X1081Y433D02*
X1089Y433D01*
X1251Y433D02*
X1258Y433D01*
X0Y432D02*
X7Y432D01*
X126Y432D02*
X135Y432D01*
X526Y432D02*
X535Y432D01*
X925Y432D02*
X935Y432D01*
X1081Y432D02*
X1089Y432D01*
X1251Y432D02*
X1258Y432D01*
X0Y431D02*
X7Y431D01*
X126Y431D02*
X135Y431D01*
X526Y431D02*
X535Y431D01*
X926Y431D02*
X935Y431D01*
X1081Y431D02*
X1089Y431D01*
X1251Y431D02*
X1258Y431D01*
X0Y430D02*
X7Y430D01*
X126Y430D02*
X136Y430D01*
X526Y430D02*
X535Y430D01*
X926Y430D02*
X935Y430D01*
X1081Y430D02*
X1089Y430D01*
X1251Y430D02*
X1258Y430D01*
X0Y429D02*
X7Y429D01*
X127Y429D02*
X136Y429D01*
X526Y429D02*
X536Y429D01*
X926Y429D02*
X935Y429D01*
X1081Y429D02*
X1089Y429D01*
X1251Y429D02*
X1258Y429D01*
X0Y428D02*
X7Y428D01*
X127Y428D02*
X136Y428D01*
X527Y428D02*
X536Y428D01*
X926Y428D02*
X936Y428D01*
X1081Y428D02*
X1089Y428D01*
X1251Y428D02*
X1258Y428D01*
X0Y427D02*
X7Y427D01*
X127Y427D02*
X137Y427D01*
X527Y427D02*
X536Y427D01*
X927Y427D02*
X936Y427D01*
X1081Y427D02*
X1089Y427D01*
X1251Y427D02*
X1258Y427D01*
X0Y426D02*
X7Y426D01*
X128Y426D02*
X137Y426D01*
X527Y426D02*
X537Y426D01*
X927Y426D02*
X936Y426D01*
X1081Y426D02*
X1089Y426D01*
X1251Y426D02*
X1258Y426D01*
X0Y425D02*
X7Y425D01*
X128Y425D02*
X137Y425D01*
X528Y425D02*
X537Y425D01*
X927Y425D02*
X937Y425D01*
X1081Y425D02*
X1089Y425D01*
X1251Y425D02*
X1258Y425D01*
X0Y424D02*
X7Y424D01*
X128Y424D02*
X138Y424D01*
X528Y424D02*
X537Y424D01*
X928Y424D02*
X937Y424D01*
X1081Y424D02*
X1089Y424D01*
X1251Y424D02*
X1258Y424D01*
X0Y423D02*
X7Y423D01*
X128Y423D02*
X138Y423D01*
X528Y423D02*
X538Y423D01*
X928Y423D02*
X937Y423D01*
X1081Y423D02*
X1089Y423D01*
X1251Y423D02*
X1258Y423D01*
X0Y422D02*
X7Y422D01*
X129Y422D02*
X138Y422D01*
X529Y422D02*
X538Y422D01*
X928Y422D02*
X938Y422D01*
X1081Y422D02*
X1089Y422D01*
X1251Y422D02*
X1258Y422D01*
X0Y421D02*
X7Y421D01*
X129Y421D02*
X139Y421D01*
X529Y421D02*
X538Y421D01*
X929Y421D02*
X938Y421D01*
X1081Y421D02*
X1089Y421D01*
X1251Y421D02*
X1258Y421D01*
X0Y420D02*
X7Y420D01*
X129Y420D02*
X139Y420D01*
X529Y420D02*
X539Y420D01*
X929Y420D02*
X939Y420D01*
X1081Y420D02*
X1089Y420D01*
X1251Y420D02*
X1258Y420D01*
X0Y419D02*
X7Y419D01*
X130Y419D02*
X139Y419D01*
X530Y419D02*
X539Y419D01*
X929Y419D02*
X939Y419D01*
X1081Y419D02*
X1089Y419D01*
X1251Y419D02*
X1258Y419D01*
X0Y418D02*
X7Y418D01*
X130Y418D02*
X140Y418D01*
X530Y418D02*
X540Y418D01*
X930Y418D02*
X939Y418D01*
X1081Y418D02*
X1089Y418D01*
X1251Y418D02*
X1258Y418D01*
X0Y417D02*
X7Y417D01*
X131Y417D02*
X140Y417D01*
X530Y417D02*
X540Y417D01*
X930Y417D02*
X940Y417D01*
X1081Y417D02*
X1089Y417D01*
X1251Y417D02*
X1258Y417D01*
X0Y416D02*
X7Y416D01*
X131Y416D02*
X141Y416D01*
X531Y416D02*
X540Y416D01*
X930Y416D02*
X940Y416D01*
X1081Y416D02*
X1089Y416D01*
X1251Y416D02*
X1258Y416D01*
X0Y415D02*
X7Y415D01*
X131Y415D02*
X141Y415D01*
X531Y415D02*
X541Y415D01*
X931Y415D02*
X941Y415D01*
X1081Y415D02*
X1089Y415D01*
X1251Y415D02*
X1258Y415D01*
X0Y414D02*
X7Y414D01*
X132Y414D02*
X142Y414D01*
X531Y414D02*
X541Y414D01*
X931Y414D02*
X941Y414D01*
X1081Y414D02*
X1089Y414D01*
X1251Y414D02*
X1258Y414D01*
X0Y413D02*
X7Y413D01*
X132Y413D02*
X142Y413D01*
X532Y413D02*
X542Y413D01*
X932Y413D02*
X942Y413D01*
X1081Y413D02*
X1089Y413D01*
X1251Y413D02*
X1258Y413D01*
X0Y412D02*
X7Y412D01*
X133Y412D02*
X143Y412D01*
X532Y412D02*
X542Y412D01*
X932Y412D02*
X942Y412D01*
X1081Y412D02*
X1089Y412D01*
X1251Y412D02*
X1258Y412D01*
X0Y411D02*
X7Y411D01*
X133Y411D02*
X143Y411D01*
X533Y411D02*
X543Y411D01*
X933Y411D02*
X943Y411D01*
X1081Y411D02*
X1089Y411D01*
X1251Y411D02*
X1258Y411D01*
X0Y410D02*
X7Y410D01*
X134Y410D02*
X144Y410D01*
X533Y410D02*
X543Y410D01*
X933Y410D02*
X943Y410D01*
X1081Y410D02*
X1089Y410D01*
X1251Y410D02*
X1258Y410D01*
X0Y409D02*
X7Y409D01*
X134Y409D02*
X144Y409D01*
X534Y409D02*
X544Y409D01*
X933Y409D02*
X944Y409D01*
X1081Y409D02*
X1089Y409D01*
X1251Y409D02*
X1258Y409D01*
X0Y408D02*
X7Y408D01*
X134Y408D02*
X145Y408D01*
X534Y408D02*
X545Y408D01*
X934Y408D02*
X944Y408D01*
X1081Y408D02*
X1089Y408D01*
X1251Y408D02*
X1258Y408D01*
X0Y407D02*
X7Y407D01*
X135Y407D02*
X145Y407D01*
X535Y407D02*
X545Y407D01*
X934Y407D02*
X945Y407D01*
X1081Y407D02*
X1089Y407D01*
X1251Y407D02*
X1258Y407D01*
X0Y406D02*
X7Y406D01*
X136Y406D02*
X146Y406D01*
X535Y406D02*
X546Y406D01*
X935Y406D02*
X945Y406D01*
X1081Y406D02*
X1089Y406D01*
X1251Y406D02*
X1258Y406D01*
X0Y405D02*
X7Y405D01*
X136Y405D02*
X147Y405D01*
X536Y405D02*
X546Y405D01*
X936Y405D02*
X946Y405D01*
X1081Y405D02*
X1089Y405D01*
X1251Y405D02*
X1258Y405D01*
X0Y404D02*
X7Y404D01*
X137Y404D02*
X147Y404D01*
X536Y404D02*
X547Y404D01*
X936Y404D02*
X947Y404D01*
X1081Y404D02*
X1089Y404D01*
X1251Y404D02*
X1258Y404D01*
X0Y403D02*
X7Y403D01*
X137Y403D02*
X148Y403D01*
X537Y403D02*
X548Y403D01*
X937Y403D02*
X947Y403D01*
X1081Y403D02*
X1089Y403D01*
X1251Y403D02*
X1258Y403D01*
X0Y402D02*
X7Y402D01*
X138Y402D02*
X149Y402D01*
X537Y402D02*
X548Y402D01*
X937Y402D02*
X948Y402D01*
X1081Y402D02*
X1089Y402D01*
X1251Y402D02*
X1258Y402D01*
X0Y401D02*
X7Y401D01*
X138Y401D02*
X149Y401D01*
X538Y401D02*
X549Y401D01*
X938Y401D02*
X949Y401D01*
X1081Y401D02*
X1089Y401D01*
X1251Y401D02*
X1258Y401D01*
X0Y400D02*
X7Y400D01*
X139Y400D02*
X150Y400D01*
X539Y400D02*
X550Y400D01*
X938Y400D02*
X950Y400D01*
X1081Y400D02*
X1089Y400D01*
X1251Y400D02*
X1258Y400D01*
X0Y399D02*
X7Y399D01*
X140Y399D02*
X151Y399D01*
X539Y399D02*
X551Y399D01*
X939Y399D02*
X950Y399D01*
X1081Y399D02*
X1089Y399D01*
X1251Y399D02*
X1258Y399D01*
X0Y398D02*
X7Y398D01*
X140Y398D02*
X152Y398D01*
X540Y398D02*
X552Y398D01*
X940Y398D02*
X951Y398D01*
X1081Y398D02*
X1089Y398D01*
X1251Y398D02*
X1258Y398D01*
X0Y397D02*
X7Y397D01*
X141Y397D02*
X153Y397D01*
X541Y397D02*
X552Y397D01*
X941Y397D02*
X952Y397D01*
X1081Y397D02*
X1089Y397D01*
X1251Y397D02*
X1258Y397D01*
X0Y396D02*
X7Y396D01*
X142Y396D02*
X153Y396D01*
X541Y396D02*
X553Y396D01*
X941Y396D02*
X953Y396D01*
X1081Y396D02*
X1089Y396D01*
X1251Y396D02*
X1258Y396D01*
X0Y395D02*
X7Y395D01*
X142Y395D02*
X154Y395D01*
X542Y395D02*
X554Y395D01*
X942Y395D02*
X954Y395D01*
X1081Y395D02*
X1089Y395D01*
X1251Y395D02*
X1258Y395D01*
X0Y394D02*
X7Y394D01*
X143Y394D02*
X155Y394D01*
X543Y394D02*
X555Y394D01*
X943Y394D02*
X955Y394D01*
X1081Y394D02*
X1089Y394D01*
X1251Y394D02*
X1258Y394D01*
X0Y393D02*
X7Y393D01*
X144Y393D02*
X156Y393D01*
X544Y393D02*
X556Y393D01*
X944Y393D02*
X956Y393D01*
X1081Y393D02*
X1089Y393D01*
X1251Y393D02*
X1258Y393D01*
X0Y392D02*
X7Y392D01*
X145Y392D02*
X158Y392D01*
X545Y392D02*
X557Y392D01*
X944Y392D02*
X957Y392D01*
X1081Y392D02*
X1089Y392D01*
X1251Y392D02*
X1258Y392D01*
X0Y391D02*
X7Y391D01*
X146Y391D02*
X159Y391D01*
X546Y391D02*
X559Y391D01*
X945Y391D02*
X958Y391D01*
X1251Y391D02*
X1258Y391D01*
X0Y390D02*
X7Y390D01*
X147Y390D02*
X160Y390D01*
X501Y390D02*
X505Y390D01*
X534Y390D02*
X560Y390D01*
X946Y390D02*
X960Y390D01*
X1251Y390D02*
X1258Y390D01*
X0Y389D02*
X7Y389D01*
X148Y389D02*
X161Y389D01*
X499Y389D02*
X507Y389D01*
X534Y389D02*
X561Y389D01*
X947Y389D02*
X961Y389D01*
X1251Y389D02*
X1258Y389D01*
X0Y388D02*
X7Y388D01*
X149Y388D02*
X163Y388D01*
X497Y388D02*
X508Y388D01*
X534Y388D02*
X563Y388D01*
X948Y388D02*
X963Y388D01*
X1251Y388D02*
X1258Y388D01*
X0Y387D02*
X7Y387D01*
X150Y387D02*
X165Y387D01*
X496Y387D02*
X509Y387D01*
X534Y387D02*
X565Y387D01*
X949Y387D02*
X964Y387D01*
X1251Y387D02*
X1258Y387D01*
X0Y386D02*
X7Y386D01*
X151Y386D02*
X167Y386D01*
X495Y386D02*
X510Y386D01*
X534Y386D02*
X567Y386D01*
X950Y386D02*
X967Y386D01*
X1251Y386D02*
X1258Y386D01*
X0Y385D02*
X7Y385D01*
X152Y385D02*
X170Y385D01*
X494Y385D02*
X510Y385D01*
X534Y385D02*
X569Y385D01*
X951Y385D02*
X969Y385D01*
X1251Y385D02*
X1258Y385D01*
X0Y384D02*
X7Y384D01*
X153Y384D02*
X174Y384D01*
X493Y384D02*
X511Y384D01*
X534Y384D02*
X573Y384D01*
X952Y384D02*
X973Y384D01*
X1251Y384D02*
X1258Y384D01*
X0Y383D02*
X7Y383D01*
X154Y383D02*
X181Y383D01*
X492Y383D02*
X501Y383D01*
X504Y383D02*
X511Y383D01*
X534Y383D02*
X540Y383D01*
X554Y383D02*
X581Y383D01*
X954Y383D02*
X980Y383D01*
X1251Y383D02*
X1258Y383D01*
X0Y382D02*
X7Y382D01*
X156Y382D02*
X182Y382D01*
X490Y382D02*
X500Y382D01*
X505Y382D02*
X511Y382D01*
X534Y382D02*
X540Y382D01*
X555Y382D02*
X582Y382D01*
X955Y382D02*
X982Y382D01*
X1251Y382D02*
X1258Y382D01*
X0Y381D02*
X7Y381D01*
X157Y381D02*
X183Y381D01*
X489Y381D02*
X499Y381D01*
X505Y381D02*
X511Y381D01*
X534Y381D02*
X540Y381D01*
X557Y381D02*
X583Y381D01*
X956Y381D02*
X983Y381D01*
X1251Y381D02*
X1258Y381D01*
X0Y380D02*
X7Y380D01*
X159Y380D02*
X183Y380D01*
X488Y380D02*
X498Y380D01*
X505Y380D02*
X511Y380D01*
X534Y380D02*
X540Y380D01*
X558Y380D02*
X583Y380D01*
X958Y380D02*
X983Y380D01*
X1251Y380D02*
X1258Y380D01*
X0Y379D02*
X7Y379D01*
X160Y379D02*
X183Y379D01*
X487Y379D02*
X497Y379D01*
X505Y379D02*
X511Y379D01*
X534Y379D02*
X540Y379D01*
X560Y379D02*
X582Y379D01*
X960Y379D02*
X982Y379D01*
X1251Y379D02*
X1258Y379D01*
X0Y378D02*
X7Y378D01*
X162Y378D02*
X182Y378D01*
X486Y378D02*
X495Y378D01*
X505Y378D02*
X511Y378D01*
X534Y378D02*
X540Y378D01*
X562Y378D02*
X582Y378D01*
X962Y378D02*
X982Y378D01*
X1251Y378D02*
X1258Y378D01*
X0Y377D02*
X7Y377D01*
X164Y377D02*
X182Y377D01*
X484Y377D02*
X494Y377D01*
X505Y377D02*
X511Y377D01*
X534Y377D02*
X540Y377D01*
X564Y377D02*
X581Y377D01*
X964Y377D02*
X981Y377D01*
X1251Y377D02*
X1258Y377D01*
X0Y376D02*
X7Y376D01*
X167Y376D02*
X181Y376D01*
X483Y376D02*
X493Y376D01*
X505Y376D02*
X511Y376D01*
X534Y376D02*
X540Y376D01*
X567Y376D02*
X581Y376D01*
X966Y376D02*
X981Y376D01*
X1251Y376D02*
X1258Y376D01*
X0Y375D02*
X7Y375D01*
X170Y375D02*
X181Y375D01*
X482Y375D02*
X492Y375D01*
X505Y375D02*
X511Y375D01*
X534Y375D02*
X540Y375D01*
X569Y375D02*
X581Y375D01*
X969Y375D02*
X980Y375D01*
X1251Y375D02*
X1258Y375D01*
X0Y374D02*
X7Y374D01*
X119Y374D02*
X125Y374D01*
X150Y374D02*
X153Y374D01*
X174Y374D02*
X181Y374D01*
X481Y374D02*
X491Y374D01*
X505Y374D02*
X511Y374D01*
X534Y374D02*
X540Y374D01*
X574Y374D02*
X580Y374D01*
X973Y374D02*
X980Y374D01*
X1251Y374D02*
X1258Y374D01*
X0Y373D02*
X7Y373D01*
X118Y373D02*
X127Y373D01*
X149Y373D02*
X154Y373D01*
X480Y373D02*
X490Y373D01*
X505Y373D02*
X511Y373D01*
X534Y373D02*
X540Y373D01*
X1251Y373D02*
X1258Y373D01*
X0Y372D02*
X7Y372D01*
X116Y372D02*
X128Y372D01*
X149Y372D02*
X154Y372D01*
X480Y372D02*
X488Y372D01*
X505Y372D02*
X511Y372D01*
X534Y372D02*
X540Y372D01*
X1251Y372D02*
X1258Y372D01*
X0Y371D02*
X7Y371D01*
X115Y371D02*
X129Y371D01*
X148Y371D02*
X154Y371D01*
X479Y371D02*
X487Y371D01*
X505Y371D02*
X511Y371D01*
X534Y371D02*
X540Y371D01*
X875Y371D02*
X880Y371D01*
X904Y371D02*
X909Y371D01*
X1251Y371D02*
X1258Y371D01*
X0Y370D02*
X7Y370D01*
X114Y370D02*
X129Y370D01*
X148Y370D02*
X154Y370D01*
X479Y370D02*
X486Y370D01*
X505Y370D02*
X511Y370D01*
X534Y370D02*
X540Y370D01*
X873Y370D02*
X882Y370D01*
X903Y370D02*
X911Y370D01*
X1251Y370D02*
X1258Y370D01*
X0Y369D02*
X7Y369D01*
X113Y369D02*
X130Y369D01*
X148Y369D02*
X154Y369D01*
X478Y369D02*
X485Y369D01*
X505Y369D02*
X511Y369D01*
X534Y369D02*
X540Y369D01*
X872Y369D02*
X883Y369D01*
X902Y369D02*
X911Y369D01*
X1251Y369D02*
X1258Y369D01*
X0Y368D02*
X7Y368D01*
X112Y368D02*
X130Y368D01*
X148Y368D02*
X154Y368D01*
X170Y368D02*
X174Y368D01*
X478Y368D02*
X484Y368D01*
X505Y368D02*
X511Y368D01*
X534Y368D02*
X540Y368D01*
X871Y368D02*
X884Y368D01*
X902Y368D02*
X911Y368D01*
X1251Y368D02*
X1258Y368D01*
X0Y367D02*
X7Y367D01*
X111Y367D02*
X120Y367D01*
X124Y367D02*
X130Y367D01*
X148Y367D02*
X154Y367D01*
X170Y367D02*
X175Y367D01*
X478Y367D02*
X484Y367D01*
X505Y367D02*
X511Y367D01*
X534Y367D02*
X541Y367D01*
X869Y367D02*
X884Y367D01*
X902Y367D02*
X911Y367D01*
X1251Y367D02*
X1258Y367D01*
X0Y366D02*
X7Y366D01*
X109Y366D02*
X119Y366D01*
X124Y366D02*
X130Y366D01*
X148Y366D02*
X154Y366D01*
X169Y366D02*
X175Y366D01*
X478Y366D02*
X484Y366D01*
X505Y366D02*
X511Y366D01*
X534Y366D02*
X557Y366D01*
X868Y366D02*
X885Y366D01*
X902Y366D02*
X911Y366D01*
X1251Y366D02*
X1258Y366D01*
X0Y365D02*
X7Y365D01*
X108Y365D02*
X118Y365D01*
X124Y365D02*
X130Y365D01*
X148Y365D02*
X154Y365D01*
X169Y365D02*
X175Y365D01*
X478Y365D02*
X484Y365D01*
X505Y365D02*
X511Y365D01*
X534Y365D02*
X559Y365D01*
X867Y365D02*
X885Y365D01*
X902Y365D02*
X909Y365D01*
X1251Y365D02*
X1258Y365D01*
X0Y364D02*
X7Y364D01*
X107Y364D02*
X117Y364D01*
X124Y364D02*
X130Y364D01*
X148Y364D02*
X154Y364D01*
X169Y364D02*
X175Y364D01*
X477Y364D02*
X483Y364D01*
X505Y364D02*
X511Y364D01*
X534Y364D02*
X560Y364D01*
X866Y364D02*
X876Y364D01*
X879Y364D02*
X885Y364D01*
X902Y364D02*
X908Y364D01*
X1251Y364D02*
X1258Y364D01*
X0Y363D02*
X7Y363D01*
X106Y363D02*
X116Y363D01*
X124Y363D02*
X130Y363D01*
X148Y363D02*
X154Y363D01*
X169Y363D02*
X175Y363D01*
X477Y363D02*
X483Y363D01*
X505Y363D02*
X511Y363D01*
X534Y363D02*
X560Y363D01*
X865Y363D02*
X875Y363D01*
X879Y363D02*
X885Y363D01*
X902Y363D02*
X908Y363D01*
X1251Y363D02*
X1258Y363D01*
X0Y362D02*
X7Y362D01*
X105Y362D02*
X115Y362D01*
X124Y362D02*
X130Y362D01*
X148Y362D02*
X154Y362D01*
X169Y362D02*
X175Y362D01*
X477Y362D02*
X483Y362D01*
X505Y362D02*
X511Y362D01*
X534Y362D02*
X561Y362D01*
X864Y362D02*
X873Y362D01*
X879Y362D02*
X885Y362D01*
X902Y362D02*
X908Y362D01*
X1251Y362D02*
X1258Y362D01*
X0Y361D02*
X7Y361D01*
X103Y361D02*
X113Y361D01*
X124Y361D02*
X130Y361D01*
X148Y361D02*
X154Y361D01*
X169Y361D02*
X175Y361D01*
X477Y361D02*
X483Y361D01*
X494Y361D02*
X494Y361D01*
X505Y361D02*
X511Y361D01*
X534Y361D02*
X561Y361D01*
X862Y361D02*
X872Y361D01*
X879Y361D02*
X885Y361D01*
X902Y361D02*
X908Y361D01*
X1251Y361D02*
X1258Y361D01*
X0Y360D02*
X7Y360D01*
X102Y360D02*
X112Y360D01*
X124Y360D02*
X130Y360D01*
X148Y360D02*
X154Y360D01*
X169Y360D02*
X175Y360D01*
X477Y360D02*
X483Y360D01*
X492Y360D02*
X496Y360D01*
X505Y360D02*
X511Y360D01*
X535Y360D02*
X561Y360D01*
X861Y360D02*
X871Y360D01*
X879Y360D02*
X885Y360D01*
X902Y360D02*
X908Y360D01*
X1251Y360D02*
X1258Y360D01*
X0Y359D02*
X7Y359D01*
X101Y359D02*
X111Y359D01*
X124Y359D02*
X130Y359D01*
X148Y359D02*
X154Y359D01*
X169Y359D02*
X175Y359D01*
X477Y359D02*
X483Y359D01*
X492Y359D02*
X497Y359D01*
X504Y359D02*
X511Y359D01*
X555Y359D02*
X561Y359D01*
X860Y359D02*
X870Y359D01*
X879Y359D02*
X885Y359D01*
X902Y359D02*
X908Y359D01*
X1251Y359D02*
X1258Y359D01*
X0Y358D02*
X7Y358D01*
X100Y358D02*
X110Y358D01*
X124Y358D02*
X130Y358D01*
X148Y358D02*
X154Y358D01*
X169Y358D02*
X175Y358D01*
X477Y358D02*
X483Y358D01*
X491Y358D02*
X497Y358D01*
X503Y358D02*
X510Y358D01*
X555Y358D02*
X561Y358D01*
X859Y358D02*
X869Y358D01*
X879Y358D02*
X885Y358D01*
X902Y358D02*
X908Y358D01*
X1251Y358D02*
X1258Y358D01*
X0Y357D02*
X7Y357D01*
X99Y357D02*
X109Y357D01*
X124Y357D02*
X130Y357D01*
X148Y357D02*
X154Y357D01*
X169Y357D02*
X175Y357D01*
X477Y357D02*
X483Y357D01*
X491Y357D02*
X498Y357D01*
X502Y357D02*
X510Y357D01*
X555Y357D02*
X561Y357D01*
X858Y357D02*
X868Y357D01*
X879Y357D02*
X885Y357D01*
X902Y357D02*
X908Y357D01*
X1251Y357D02*
X1258Y357D01*
X0Y356D02*
X7Y356D01*
X99Y356D02*
X107Y356D01*
X124Y356D02*
X130Y356D01*
X148Y356D02*
X154Y356D01*
X169Y356D02*
X175Y356D01*
X477Y356D02*
X483Y356D01*
X492Y356D02*
X498Y356D01*
X501Y356D02*
X509Y356D01*
X555Y356D02*
X561Y356D01*
X857Y356D02*
X866Y356D01*
X879Y356D02*
X885Y356D01*
X902Y356D02*
X908Y356D01*
X1251Y356D02*
X1258Y356D01*
X0Y355D02*
X7Y355D01*
X98Y355D02*
X106Y355D01*
X124Y355D02*
X130Y355D01*
X148Y355D02*
X154Y355D01*
X169Y355D02*
X175Y355D01*
X477Y355D02*
X483Y355D01*
X492Y355D02*
X509Y355D01*
X555Y355D02*
X561Y355D01*
X856Y355D02*
X865Y355D01*
X879Y355D02*
X885Y355D01*
X902Y355D02*
X908Y355D01*
X1251Y355D02*
X1258Y355D01*
X0Y354D02*
X7Y354D01*
X98Y354D02*
X105Y354D01*
X124Y354D02*
X130Y354D01*
X148Y354D02*
X154Y354D01*
X169Y354D02*
X175Y354D01*
X477Y354D02*
X483Y354D01*
X492Y354D02*
X508Y354D01*
X555Y354D02*
X561Y354D01*
X855Y354D02*
X864Y354D01*
X879Y354D02*
X885Y354D01*
X902Y354D02*
X908Y354D01*
X1251Y354D02*
X1258Y354D01*
X0Y353D02*
X7Y353D01*
X97Y353D02*
X104Y353D01*
X124Y353D02*
X130Y353D01*
X148Y353D02*
X154Y353D01*
X169Y353D02*
X175Y353D01*
X477Y353D02*
X483Y353D01*
X493Y353D02*
X507Y353D01*
X555Y353D02*
X561Y353D01*
X854Y353D02*
X863Y353D01*
X879Y353D02*
X885Y353D01*
X902Y353D02*
X908Y353D01*
X1251Y353D02*
X1258Y353D01*
X0Y352D02*
X7Y352D01*
X97Y352D02*
X104Y352D01*
X124Y352D02*
X130Y352D01*
X148Y352D02*
X154Y352D01*
X169Y352D02*
X175Y352D01*
X477Y352D02*
X483Y352D01*
X493Y352D02*
X506Y352D01*
X555Y352D02*
X561Y352D01*
X853Y352D02*
X862Y352D01*
X879Y352D02*
X885Y352D01*
X902Y352D02*
X908Y352D01*
X1251Y352D02*
X1258Y352D01*
X0Y351D02*
X7Y351D01*
X97Y351D02*
X103Y351D01*
X124Y351D02*
X130Y351D01*
X148Y351D02*
X154Y351D01*
X169Y351D02*
X175Y351D01*
X477Y351D02*
X483Y351D01*
X493Y351D02*
X505Y351D01*
X555Y351D02*
X561Y351D01*
X853Y351D02*
X860Y351D01*
X879Y351D02*
X885Y351D01*
X902Y351D02*
X908Y351D01*
X1251Y351D02*
X1258Y351D01*
X0Y350D02*
X7Y350D01*
X97Y350D02*
X103Y350D01*
X124Y350D02*
X130Y350D01*
X148Y350D02*
X154Y350D01*
X169Y350D02*
X175Y350D01*
X477Y350D02*
X483Y350D01*
X494Y350D02*
X504Y350D01*
X555Y350D02*
X561Y350D01*
X853Y350D02*
X859Y350D01*
X879Y350D02*
X885Y350D01*
X902Y350D02*
X908Y350D01*
X1251Y350D02*
X1258Y350D01*
X0Y349D02*
X7Y349D01*
X97Y349D02*
X103Y349D01*
X124Y349D02*
X130Y349D01*
X148Y349D02*
X154Y349D01*
X169Y349D02*
X175Y349D01*
X477Y349D02*
X483Y349D01*
X493Y349D02*
X503Y349D01*
X555Y349D02*
X561Y349D01*
X852Y349D02*
X859Y349D01*
X879Y349D02*
X885Y349D01*
X902Y349D02*
X908Y349D01*
X1251Y349D02*
X1258Y349D01*
X0Y348D02*
X7Y348D01*
X97Y348D02*
X103Y348D01*
X124Y348D02*
X130Y348D01*
X148Y348D02*
X154Y348D01*
X169Y348D02*
X175Y348D01*
X477Y348D02*
X483Y348D01*
X492Y348D02*
X502Y348D01*
X555Y348D02*
X561Y348D01*
X852Y348D02*
X858Y348D01*
X879Y348D02*
X885Y348D01*
X902Y348D02*
X908Y348D01*
X1251Y348D02*
X1258Y348D01*
X0Y347D02*
X7Y347D01*
X97Y347D02*
X103Y347D01*
X124Y347D02*
X130Y347D01*
X148Y347D02*
X154Y347D01*
X169Y347D02*
X175Y347D01*
X477Y347D02*
X483Y347D01*
X491Y347D02*
X502Y347D01*
X555Y347D02*
X561Y347D01*
X852Y347D02*
X858Y347D01*
X879Y347D02*
X885Y347D01*
X902Y347D02*
X908Y347D01*
X1251Y347D02*
X1258Y347D01*
X0Y346D02*
X7Y346D01*
X97Y346D02*
X103Y346D01*
X124Y346D02*
X130Y346D01*
X148Y346D02*
X154Y346D01*
X169Y346D02*
X175Y346D01*
X477Y346D02*
X483Y346D01*
X490Y346D02*
X502Y346D01*
X530Y346D02*
X531Y346D01*
X555Y346D02*
X561Y346D01*
X852Y346D02*
X858Y346D01*
X879Y346D02*
X885Y346D01*
X902Y346D02*
X908Y346D01*
X1251Y346D02*
X1258Y346D01*
X0Y345D02*
X7Y345D01*
X97Y345D02*
X103Y345D01*
X113Y345D02*
X114Y345D01*
X124Y345D02*
X130Y345D01*
X148Y345D02*
X176Y345D01*
X477Y345D02*
X484Y345D01*
X488Y345D02*
X502Y345D01*
X528Y345D02*
X534Y345D01*
X555Y345D02*
X561Y345D01*
X852Y345D02*
X858Y345D01*
X879Y345D02*
X885Y345D01*
X902Y345D02*
X908Y345D01*
X1251Y345D02*
X1258Y345D01*
X0Y344D02*
X7Y344D01*
X97Y344D02*
X103Y344D01*
X111Y344D02*
X115Y344D01*
X124Y344D02*
X130Y344D01*
X148Y344D02*
X178Y344D01*
X478Y344D02*
X484Y344D01*
X487Y344D02*
X503Y344D01*
X528Y344D02*
X536Y344D01*
X555Y344D02*
X561Y344D01*
X852Y344D02*
X858Y344D01*
X879Y344D02*
X885Y344D01*
X902Y344D02*
X908Y344D01*
X1251Y344D02*
X1258Y344D01*
X0Y343D02*
X7Y343D01*
X97Y343D02*
X103Y343D01*
X111Y343D02*
X116Y343D01*
X123Y343D02*
X130Y343D01*
X148Y343D02*
X178Y343D01*
X478Y343D02*
X509Y343D01*
X527Y343D02*
X561Y343D01*
X852Y343D02*
X858Y343D01*
X879Y343D02*
X885Y343D01*
X902Y343D02*
X908Y343D01*
X1251Y343D02*
X1258Y343D01*
X0Y342D02*
X7Y342D01*
X97Y342D02*
X103Y342D01*
X111Y342D02*
X117Y342D01*
X122Y342D02*
X129Y342D01*
X148Y342D02*
X178Y342D01*
X478Y342D02*
X495Y342D01*
X497Y342D02*
X510Y342D01*
X528Y342D02*
X561Y342D01*
X852Y342D02*
X858Y342D01*
X869Y342D02*
X869Y342D01*
X879Y342D02*
X885Y342D01*
X902Y342D02*
X932Y342D01*
X1251Y342D02*
X1258Y342D01*
X0Y341D02*
X7Y341D01*
X97Y341D02*
X103Y341D01*
X111Y341D02*
X117Y341D01*
X122Y341D02*
X129Y341D01*
X148Y341D02*
X178Y341D01*
X478Y341D02*
X493Y341D01*
X497Y341D02*
X511Y341D01*
X528Y341D02*
X561Y341D01*
X852Y341D02*
X858Y341D01*
X867Y341D02*
X870Y341D01*
X879Y341D02*
X885Y341D01*
X902Y341D02*
X934Y341D01*
X1251Y341D02*
X1258Y341D01*
X0Y340D02*
X7Y340D01*
X97Y340D02*
X103Y340D01*
X111Y340D02*
X117Y340D01*
X120Y340D02*
X129Y340D01*
X148Y340D02*
X178Y340D01*
X479Y340D02*
X492Y340D01*
X498Y340D02*
X511Y340D01*
X529Y340D02*
X560Y340D01*
X852Y340D02*
X858Y340D01*
X866Y340D02*
X871Y340D01*
X878Y340D02*
X885Y340D01*
X902Y340D02*
X935Y340D01*
X1251Y340D02*
X1258Y340D01*
X0Y339D02*
X7Y339D01*
X97Y339D02*
X103Y339D01*
X111Y339D02*
X128Y339D01*
X148Y339D02*
X177Y339D01*
X480Y339D02*
X491Y339D01*
X498Y339D02*
X511Y339D01*
X531Y339D02*
X559Y339D01*
X852Y339D02*
X858Y339D01*
X866Y339D02*
X872Y339D01*
X878Y339D02*
X885Y339D01*
X902Y339D02*
X935Y339D01*
X1251Y339D02*
X1258Y339D01*
X0Y338D02*
X7Y338D01*
X97Y338D02*
X103Y338D01*
X112Y338D02*
X127Y338D01*
X169Y338D02*
X175Y338D01*
X481Y338D02*
X490Y338D01*
X499Y338D02*
X510Y338D01*
X533Y338D02*
X558Y338D01*
X852Y338D02*
X858Y338D01*
X866Y338D02*
X872Y338D01*
X877Y338D02*
X884Y338D01*
X902Y338D02*
X935Y338D01*
X1251Y338D02*
X1258Y338D01*
X0Y337D02*
X7Y337D01*
X97Y337D02*
X103Y337D01*
X112Y337D02*
X126Y337D01*
X169Y337D02*
X175Y337D01*
X483Y337D02*
X488Y337D01*
X499Y337D02*
X509Y337D01*
X535Y337D02*
X557Y337D01*
X852Y337D02*
X858Y337D01*
X866Y337D02*
X873Y337D01*
X876Y337D02*
X884Y337D01*
X902Y337D02*
X935Y337D01*
X1251Y337D02*
X1258Y337D01*
X0Y336D02*
X7Y336D01*
X97Y336D02*
X103Y336D01*
X112Y336D02*
X125Y336D01*
X169Y336D02*
X175Y336D01*
X852Y336D02*
X858Y336D01*
X866Y336D02*
X873Y336D01*
X875Y336D02*
X883Y336D01*
X902Y336D02*
X935Y336D01*
X1251Y336D02*
X1258Y336D01*
X0Y335D02*
X7Y335D01*
X97Y335D02*
X103Y335D01*
X113Y335D02*
X124Y335D01*
X169Y335D02*
X175Y335D01*
X852Y335D02*
X858Y335D01*
X867Y335D02*
X883Y335D01*
X902Y335D02*
X908Y335D01*
X929Y335D02*
X935Y335D01*
X1251Y335D02*
X1258Y335D01*
X0Y334D02*
X7Y334D01*
X97Y334D02*
X103Y334D01*
X113Y334D02*
X123Y334D01*
X169Y334D02*
X175Y334D01*
X852Y334D02*
X858Y334D01*
X867Y334D02*
X882Y334D01*
X902Y334D02*
X908Y334D01*
X929Y334D02*
X935Y334D01*
X1251Y334D02*
X1258Y334D01*
X0Y333D02*
X7Y333D01*
X97Y333D02*
X103Y333D01*
X112Y333D02*
X122Y333D01*
X169Y333D02*
X175Y333D01*
X852Y333D02*
X858Y333D01*
X868Y333D02*
X881Y333D01*
X902Y333D02*
X908Y333D01*
X929Y333D02*
X935Y333D01*
X1251Y333D02*
X1258Y333D01*
X0Y332D02*
X7Y332D01*
X97Y332D02*
X103Y332D01*
X111Y332D02*
X121Y332D01*
X169Y332D02*
X175Y332D01*
X852Y332D02*
X858Y332D01*
X868Y332D02*
X880Y332D01*
X902Y332D02*
X908Y332D01*
X929Y332D02*
X935Y332D01*
X1251Y332D02*
X1258Y332D01*
X0Y331D02*
X7Y331D01*
X97Y331D02*
X103Y331D01*
X110Y331D02*
X121Y331D01*
X169Y331D02*
X175Y331D01*
X852Y331D02*
X858Y331D01*
X868Y331D02*
X879Y331D01*
X902Y331D02*
X908Y331D01*
X929Y331D02*
X935Y331D01*
X1251Y331D02*
X1258Y331D01*
X0Y330D02*
X7Y330D01*
X97Y330D02*
X103Y330D01*
X109Y330D02*
X121Y330D01*
X169Y330D02*
X175Y330D01*
X852Y330D02*
X858Y330D01*
X867Y330D02*
X877Y330D01*
X902Y330D02*
X908Y330D01*
X929Y330D02*
X935Y330D01*
X1251Y330D02*
X1258Y330D01*
X0Y329D02*
X7Y329D01*
X97Y329D02*
X103Y329D01*
X107Y329D02*
X122Y329D01*
X169Y329D02*
X175Y329D01*
X852Y329D02*
X858Y329D01*
X866Y329D02*
X876Y329D01*
X902Y329D02*
X908Y329D01*
X929Y329D02*
X935Y329D01*
X1251Y329D02*
X1258Y329D01*
X0Y328D02*
X7Y328D01*
X97Y328D02*
X103Y328D01*
X106Y328D02*
X122Y328D01*
X169Y328D02*
X175Y328D01*
X852Y328D02*
X858Y328D01*
X865Y328D02*
X876Y328D01*
X902Y328D02*
X908Y328D01*
X929Y328D02*
X935Y328D01*
X1251Y328D02*
X1258Y328D01*
X0Y327D02*
X7Y327D01*
X97Y327D02*
X129Y327D01*
X169Y327D02*
X175Y327D01*
X852Y327D02*
X858Y327D01*
X864Y327D02*
X876Y327D01*
X902Y327D02*
X908Y327D01*
X929Y327D02*
X935Y327D01*
X1251Y327D02*
X1258Y327D01*
X0Y326D02*
X7Y326D01*
X97Y326D02*
X114Y326D01*
X116Y326D02*
X130Y326D01*
X169Y326D02*
X175Y326D01*
X852Y326D02*
X858Y326D01*
X863Y326D02*
X877Y326D01*
X902Y326D02*
X908Y326D01*
X929Y326D02*
X935Y326D01*
X1251Y326D02*
X1258Y326D01*
X0Y325D02*
X7Y325D01*
X98Y325D02*
X112Y325D01*
X117Y325D02*
X130Y325D01*
X169Y325D02*
X175Y325D01*
X852Y325D02*
X858Y325D01*
X862Y325D02*
X877Y325D01*
X902Y325D02*
X908Y325D01*
X929Y325D02*
X935Y325D01*
X1251Y325D02*
X1258Y325D01*
X0Y324D02*
X7Y324D01*
X98Y324D02*
X111Y324D01*
X117Y324D02*
X130Y324D01*
X169Y324D02*
X175Y324D01*
X852Y324D02*
X883Y324D01*
X902Y324D02*
X935Y324D01*
X1251Y324D02*
X1258Y324D01*
X0Y323D02*
X7Y323D01*
X99Y323D02*
X110Y323D01*
X117Y323D02*
X130Y323D01*
X169Y323D02*
X175Y323D01*
X852Y323D02*
X869Y323D01*
X871Y323D02*
X885Y323D01*
X902Y323D02*
X935Y323D01*
X1251Y323D02*
X1258Y323D01*
X0Y322D02*
X7Y322D01*
X101Y322D02*
X109Y322D01*
X118Y322D02*
X130Y322D01*
X170Y322D02*
X174Y322D01*
X853Y322D02*
X868Y322D01*
X872Y322D02*
X885Y322D01*
X902Y322D02*
X935Y322D01*
X1251Y322D02*
X1258Y322D01*
X0Y321D02*
X7Y321D01*
X103Y321D02*
X107Y321D01*
X118Y321D02*
X128Y321D01*
X171Y321D02*
X173Y321D01*
X853Y321D02*
X867Y321D01*
X872Y321D02*
X885Y321D01*
X902Y321D02*
X935Y321D01*
X1251Y321D02*
X1258Y321D01*
X0Y320D02*
X7Y320D01*
X854Y320D02*
X865Y320D01*
X873Y320D02*
X885Y320D01*
X902Y320D02*
X935Y320D01*
X1251Y320D02*
X1258Y320D01*
X0Y319D02*
X7Y319D01*
X855Y319D02*
X864Y319D01*
X873Y319D02*
X885Y319D01*
X902Y319D02*
X935Y319D01*
X1251Y319D02*
X1258Y319D01*
X0Y318D02*
X7Y318D01*
X857Y318D02*
X862Y318D01*
X873Y318D02*
X884Y318D01*
X903Y318D02*
X934Y318D01*
X1251Y318D02*
X1258Y318D01*
X0Y317D02*
X7Y317D01*
X1251Y317D02*
X1258Y317D01*
X0Y316D02*
X7Y316D01*
X1251Y316D02*
X1258Y316D01*
X0Y315D02*
X7Y315D01*
X1251Y315D02*
X1258Y315D01*
X0Y314D02*
X7Y314D01*
X1251Y314D02*
X1258Y314D01*
X0Y313D02*
X7Y313D01*
X1251Y313D02*
X1258Y313D01*
X0Y312D02*
X7Y312D01*
X1251Y312D02*
X1258Y312D01*
X0Y311D02*
X7Y311D01*
X1251Y311D02*
X1258Y311D01*
X0Y310D02*
X7Y310D01*
X1251Y310D02*
X1258Y310D01*
X0Y309D02*
X7Y309D01*
X1251Y309D02*
X1258Y309D01*
X0Y308D02*
X7Y308D01*
X1251Y308D02*
X1258Y308D01*
X0Y307D02*
X7Y307D01*
X1251Y307D02*
X1258Y307D01*
X0Y306D02*
X7Y306D01*
X1251Y306D02*
X1258Y306D01*
X0Y305D02*
X7Y305D01*
X1251Y305D02*
X1258Y305D01*
X0Y304D02*
X7Y304D01*
X1251Y304D02*
X1258Y304D01*
X0Y303D02*
X7Y303D01*
X1251Y303D02*
X1258Y303D01*
X0Y302D02*
X7Y302D01*
X1251Y302D02*
X1258Y302D01*
X0Y301D02*
X7Y301D01*
X1251Y301D02*
X1258Y301D01*
X0Y300D02*
X7Y300D01*
X1251Y300D02*
X1258Y300D01*
X0Y299D02*
X7Y299D01*
X1251Y299D02*
X1258Y299D01*
X0Y298D02*
X7Y298D01*
X1251Y298D02*
X1258Y298D01*
X0Y297D02*
X7Y297D01*
X1251Y297D02*
X1258Y297D01*
X0Y296D02*
X7Y296D01*
X1251Y296D02*
X1258Y296D01*
X0Y295D02*
X7Y295D01*
X1251Y295D02*
X1258Y295D01*
X0Y294D02*
X7Y294D01*
X1251Y294D02*
X1258Y294D01*
X0Y293D02*
X7Y293D01*
X1251Y293D02*
X1258Y293D01*
X0Y292D02*
X7Y292D01*
X1251Y292D02*
X1258Y292D01*
X0Y291D02*
X7Y291D01*
X1251Y291D02*
X1258Y291D01*
X0Y290D02*
X7Y290D01*
X1251Y290D02*
X1258Y290D01*
X0Y289D02*
X7Y289D01*
X310Y289D02*
X337Y289D01*
X361Y289D02*
X389Y289D01*
X1251Y289D02*
X1258Y289D01*
X0Y288D02*
X7Y288D01*
X310Y288D02*
X338Y288D01*
X360Y288D02*
X391Y288D01*
X1251Y288D02*
X1258Y288D01*
X0Y287D02*
X7Y287D01*
X310Y287D02*
X340Y287D01*
X360Y287D02*
X392Y287D01*
X1251Y287D02*
X1258Y287D01*
X0Y286D02*
X7Y286D01*
X310Y286D02*
X341Y286D01*
X360Y286D02*
X392Y286D01*
X1251Y286D02*
X1258Y286D01*
X0Y285D02*
X7Y285D01*
X310Y285D02*
X341Y285D01*
X360Y285D02*
X393Y285D01*
X1251Y285D02*
X1258Y285D01*
X0Y284D02*
X7Y284D01*
X310Y284D02*
X342Y284D01*
X361Y284D02*
X393Y284D01*
X1251Y284D02*
X1258Y284D01*
X0Y283D02*
X7Y283D01*
X310Y283D02*
X342Y283D01*
X362Y283D02*
X393Y283D01*
X1251Y283D02*
X1258Y283D01*
X0Y282D02*
X7Y282D01*
X310Y282D02*
X316Y282D01*
X336Y282D02*
X343Y282D01*
X387Y282D02*
X393Y282D01*
X1251Y282D02*
X1258Y282D01*
X0Y281D02*
X7Y281D01*
X310Y281D02*
X316Y281D01*
X337Y281D02*
X343Y281D01*
X387Y281D02*
X393Y281D01*
X1251Y281D02*
X1258Y281D01*
X0Y280D02*
X7Y280D01*
X310Y280D02*
X316Y280D01*
X337Y280D02*
X343Y280D01*
X387Y280D02*
X393Y280D01*
X1251Y280D02*
X1258Y280D01*
X0Y279D02*
X7Y279D01*
X310Y279D02*
X316Y279D01*
X337Y279D02*
X343Y279D01*
X387Y279D02*
X393Y279D01*
X1251Y279D02*
X1258Y279D01*
X0Y278D02*
X7Y278D01*
X310Y278D02*
X316Y278D01*
X337Y278D02*
X343Y278D01*
X387Y278D02*
X393Y278D01*
X1251Y278D02*
X1258Y278D01*
X0Y277D02*
X7Y277D01*
X310Y277D02*
X316Y277D01*
X337Y277D02*
X343Y277D01*
X387Y277D02*
X393Y277D01*
X1251Y277D02*
X1258Y277D01*
X0Y276D02*
X7Y276D01*
X310Y276D02*
X316Y276D01*
X337Y276D02*
X343Y276D01*
X387Y276D02*
X393Y276D01*
X1251Y276D02*
X1258Y276D01*
X0Y275D02*
X7Y275D01*
X310Y275D02*
X316Y275D01*
X337Y275D02*
X343Y275D01*
X387Y275D02*
X393Y275D01*
X1251Y275D02*
X1258Y275D01*
X0Y274D02*
X7Y274D01*
X310Y274D02*
X316Y274D01*
X337Y274D02*
X343Y274D01*
X387Y274D02*
X393Y274D01*
X1251Y274D02*
X1258Y274D01*
X0Y273D02*
X7Y273D01*
X310Y273D02*
X316Y273D01*
X336Y273D02*
X343Y273D01*
X387Y273D02*
X393Y273D01*
X1251Y273D02*
X1258Y273D01*
X0Y272D02*
X7Y272D01*
X310Y272D02*
X343Y272D01*
X387Y272D02*
X393Y272D01*
X1251Y272D02*
X1258Y272D01*
X0Y271D02*
X7Y271D01*
X310Y271D02*
X342Y271D01*
X387Y271D02*
X393Y271D01*
X1251Y271D02*
X1258Y271D01*
X0Y270D02*
X7Y270D01*
X310Y270D02*
X341Y270D01*
X387Y270D02*
X393Y270D01*
X1251Y270D02*
X1258Y270D01*
X0Y269D02*
X7Y269D01*
X310Y269D02*
X341Y269D01*
X387Y269D02*
X393Y269D01*
X1251Y269D02*
X1258Y269D01*
X0Y268D02*
X7Y268D01*
X310Y268D02*
X340Y268D01*
X387Y268D02*
X393Y268D01*
X1251Y268D02*
X1258Y268D01*
X0Y267D02*
X7Y267D01*
X310Y267D02*
X339Y267D01*
X386Y267D02*
X393Y267D01*
X1251Y267D02*
X1258Y267D01*
X0Y266D02*
X7Y266D01*
X164Y266D02*
X230Y266D01*
X310Y266D02*
X337Y266D01*
X369Y266D02*
X392Y266D01*
X432Y266D02*
X479Y266D01*
X1251Y266D02*
X1258Y266D01*
X0Y265D02*
X7Y265D01*
X164Y265D02*
X231Y265D01*
X310Y265D02*
X316Y265D01*
X321Y265D02*
X329Y265D01*
X367Y265D02*
X392Y265D01*
X431Y265D02*
X479Y265D01*
X1251Y265D02*
X1258Y265D01*
X0Y264D02*
X7Y264D01*
X164Y264D02*
X231Y264D01*
X310Y264D02*
X316Y264D01*
X322Y264D02*
X329Y264D01*
X367Y264D02*
X391Y264D01*
X431Y264D02*
X479Y264D01*
X1251Y264D02*
X1258Y264D01*
X0Y263D02*
X7Y263D01*
X165Y263D02*
X231Y263D01*
X310Y263D02*
X316Y263D01*
X323Y263D02*
X330Y263D01*
X367Y263D02*
X391Y263D01*
X431Y263D02*
X479Y263D01*
X1251Y263D02*
X1258Y263D01*
X0Y262D02*
X7Y262D01*
X165Y262D02*
X231Y262D01*
X310Y262D02*
X316Y262D01*
X323Y262D02*
X330Y262D01*
X367Y262D02*
X391Y262D01*
X431Y262D02*
X478Y262D01*
X1251Y262D02*
X1258Y262D01*
X0Y261D02*
X7Y261D01*
X165Y261D02*
X231Y261D01*
X310Y261D02*
X316Y261D01*
X324Y261D02*
X331Y261D01*
X367Y261D02*
X392Y261D01*
X431Y261D02*
X478Y261D01*
X1251Y261D02*
X1258Y261D01*
X0Y260D02*
X7Y260D01*
X165Y260D02*
X231Y260D01*
X310Y260D02*
X316Y260D01*
X324Y260D02*
X332Y260D01*
X368Y260D02*
X392Y260D01*
X431Y260D02*
X478Y260D01*
X1251Y260D02*
X1258Y260D01*
X0Y259D02*
X7Y259D01*
X164Y259D02*
X231Y259D01*
X310Y259D02*
X316Y259D01*
X325Y259D02*
X332Y259D01*
X385Y259D02*
X393Y259D01*
X431Y259D02*
X479Y259D01*
X1251Y259D02*
X1258Y259D01*
X0Y258D02*
X7Y258D01*
X164Y258D02*
X231Y258D01*
X310Y258D02*
X316Y258D01*
X326Y258D02*
X333Y258D01*
X386Y258D02*
X393Y258D01*
X431Y258D02*
X479Y258D01*
X1251Y258D02*
X1258Y258D01*
X0Y257D02*
X7Y257D01*
X164Y257D02*
X231Y257D01*
X310Y257D02*
X316Y257D01*
X326Y257D02*
X333Y257D01*
X387Y257D02*
X393Y257D01*
X431Y257D02*
X479Y257D01*
X1251Y257D02*
X1258Y257D01*
X0Y256D02*
X7Y256D01*
X310Y256D02*
X316Y256D01*
X327Y256D02*
X334Y256D01*
X387Y256D02*
X393Y256D01*
X1251Y256D02*
X1258Y256D01*
X0Y255D02*
X7Y255D01*
X310Y255D02*
X316Y255D01*
X327Y255D02*
X335Y255D01*
X387Y255D02*
X393Y255D01*
X1251Y255D02*
X1258Y255D01*
X0Y254D02*
X7Y254D01*
X310Y254D02*
X316Y254D01*
X328Y254D02*
X335Y254D01*
X387Y254D02*
X393Y254D01*
X1251Y254D02*
X1258Y254D01*
X0Y253D02*
X7Y253D01*
X310Y253D02*
X316Y253D01*
X328Y253D02*
X336Y253D01*
X387Y253D02*
X393Y253D01*
X1251Y253D02*
X1258Y253D01*
X0Y252D02*
X7Y252D01*
X310Y252D02*
X316Y252D01*
X329Y252D02*
X336Y252D01*
X387Y252D02*
X393Y252D01*
X1251Y252D02*
X1258Y252D01*
X0Y251D02*
X7Y251D01*
X310Y251D02*
X316Y251D01*
X330Y251D02*
X337Y251D01*
X387Y251D02*
X393Y251D01*
X1251Y251D02*
X1258Y251D01*
X0Y250D02*
X7Y250D01*
X310Y250D02*
X316Y250D01*
X330Y250D02*
X337Y250D01*
X387Y250D02*
X393Y250D01*
X1251Y250D02*
X1258Y250D01*
X0Y249D02*
X7Y249D01*
X310Y249D02*
X316Y249D01*
X331Y249D02*
X338Y249D01*
X387Y249D02*
X393Y249D01*
X1251Y249D02*
X1258Y249D01*
X0Y248D02*
X7Y248D01*
X310Y248D02*
X316Y248D01*
X331Y248D02*
X339Y248D01*
X387Y248D02*
X393Y248D01*
X1251Y248D02*
X1258Y248D01*
X0Y247D02*
X7Y247D01*
X310Y247D02*
X316Y247D01*
X332Y247D02*
X339Y247D01*
X387Y247D02*
X393Y247D01*
X1251Y247D02*
X1258Y247D01*
X0Y246D02*
X7Y246D01*
X310Y246D02*
X316Y246D01*
X333Y246D02*
X340Y246D01*
X387Y246D02*
X393Y246D01*
X1251Y246D02*
X1258Y246D01*
X0Y245D02*
X7Y245D01*
X310Y245D02*
X316Y245D01*
X333Y245D02*
X340Y245D01*
X387Y245D02*
X393Y245D01*
X1251Y245D02*
X1258Y245D01*
X0Y244D02*
X7Y244D01*
X310Y244D02*
X316Y244D01*
X334Y244D02*
X341Y244D01*
X387Y244D02*
X393Y244D01*
X1251Y244D02*
X1258Y244D01*
X0Y243D02*
X7Y243D01*
X310Y243D02*
X316Y243D01*
X334Y243D02*
X342Y243D01*
X387Y243D02*
X393Y243D01*
X1251Y243D02*
X1258Y243D01*
X0Y242D02*
X7Y242D01*
X310Y242D02*
X316Y242D01*
X335Y242D02*
X342Y242D01*
X361Y242D02*
X393Y242D01*
X1251Y242D02*
X1258Y242D01*
X0Y241D02*
X7Y241D01*
X310Y241D02*
X316Y241D01*
X335Y241D02*
X343Y241D01*
X360Y241D02*
X393Y241D01*
X1251Y241D02*
X1258Y241D01*
X0Y240D02*
X7Y240D01*
X310Y240D02*
X316Y240D01*
X336Y240D02*
X343Y240D01*
X360Y240D02*
X393Y240D01*
X1251Y240D02*
X1258Y240D01*
X0Y239D02*
X7Y239D01*
X310Y239D02*
X316Y239D01*
X337Y239D02*
X343Y239D01*
X360Y239D02*
X392Y239D01*
X1251Y239D02*
X1258Y239D01*
X0Y238D02*
X7Y238D01*
X310Y238D02*
X315Y238D01*
X337Y238D02*
X343Y238D01*
X360Y238D02*
X391Y238D01*
X1251Y238D02*
X1258Y238D01*
X0Y237D02*
X7Y237D01*
X310Y237D02*
X315Y237D01*
X338Y237D02*
X342Y237D01*
X360Y237D02*
X390Y237D01*
X1251Y237D02*
X1258Y237D01*
X0Y236D02*
X7Y236D01*
X312Y236D02*
X314Y236D01*
X339Y236D02*
X341Y236D01*
X362Y236D02*
X388Y236D01*
X1251Y236D02*
X1258Y236D01*
X0Y235D02*
X7Y235D01*
X1251Y235D02*
X1258Y235D01*
X0Y234D02*
X7Y234D01*
X1251Y234D02*
X1258Y234D01*
X0Y233D02*
X7Y233D01*
X1251Y233D02*
X1258Y233D01*
X0Y232D02*
X7Y232D01*
X1251Y232D02*
X1258Y232D01*
X0Y231D02*
X7Y231D01*
X1251Y231D02*
X1258Y231D01*
X0Y230D02*
X7Y230D01*
X1251Y230D02*
X1258Y230D01*
X0Y229D02*
X7Y229D01*
X1251Y229D02*
X1258Y229D01*
X0Y228D02*
X7Y228D01*
X1251Y228D02*
X1258Y228D01*
X0Y227D02*
X7Y227D01*
X1251Y227D02*
X1258Y227D01*
X0Y226D02*
X7Y226D01*
X1251Y226D02*
X1258Y226D01*
X0Y225D02*
X7Y225D01*
X1251Y225D02*
X1258Y225D01*
X0Y224D02*
X7Y224D01*
X1251Y224D02*
X1258Y224D01*
X0Y223D02*
X7Y223D01*
X1251Y223D02*
X1258Y223D01*
X0Y222D02*
X7Y222D01*
X1251Y222D02*
X1258Y222D01*
X0Y221D02*
X7Y221D01*
X1251Y221D02*
X1258Y221D01*
X0Y220D02*
X7Y220D01*
X1251Y220D02*
X1258Y220D01*
X0Y219D02*
X7Y219D01*
X1251Y219D02*
X1258Y219D01*
X0Y218D02*
X7Y218D01*
X1251Y218D02*
X1258Y218D01*
X0Y217D02*
X7Y217D01*
X1251Y217D02*
X1258Y217D01*
X0Y216D02*
X7Y216D01*
X1251Y216D02*
X1258Y216D01*
X0Y215D02*
X7Y215D01*
X1251Y215D02*
X1258Y215D01*
X0Y214D02*
X7Y214D01*
X1251Y214D02*
X1258Y214D01*
X0Y213D02*
X7Y213D01*
X1251Y213D02*
X1258Y213D01*
X0Y212D02*
X7Y212D01*
X1251Y212D02*
X1258Y212D01*
X0Y211D02*
X7Y211D01*
X1251Y211D02*
X1258Y211D01*
X0Y210D02*
X7Y210D01*
X1251Y210D02*
X1258Y210D01*
X0Y209D02*
X7Y209D01*
X1251Y209D02*
X1258Y209D01*
X0Y208D02*
X7Y208D01*
X1251Y208D02*
X1258Y208D01*
X0Y207D02*
X7Y207D01*
X1251Y207D02*
X1258Y207D01*
X0Y206D02*
X7Y206D01*
X1251Y206D02*
X1258Y206D01*
X0Y205D02*
X7Y205D01*
X1251Y205D02*
X1258Y205D01*
X0Y204D02*
X7Y204D01*
X1251Y204D02*
X1258Y204D01*
X0Y203D02*
X7Y203D01*
X1251Y203D02*
X1258Y203D01*
X0Y202D02*
X7Y202D01*
X1251Y202D02*
X1258Y202D01*
X0Y201D02*
X7Y201D01*
X1251Y201D02*
X1258Y201D01*
X0Y200D02*
X7Y200D01*
X1251Y200D02*
X1258Y200D01*
X0Y199D02*
X7Y199D01*
X1251Y199D02*
X1258Y199D01*
X0Y198D02*
X7Y198D01*
X1251Y198D02*
X1258Y198D01*
X0Y197D02*
X7Y197D01*
X1251Y197D02*
X1258Y197D01*
X0Y196D02*
X7Y196D01*
X1251Y196D02*
X1258Y196D01*
X0Y195D02*
X7Y195D01*
X1251Y195D02*
X1258Y195D01*
X0Y194D02*
X7Y194D01*
X1251Y194D02*
X1258Y194D01*
X0Y193D02*
X7Y193D01*
X1251Y193D02*
X1258Y193D01*
X0Y192D02*
X7Y192D01*
X1251Y192D02*
X1258Y192D01*
X0Y191D02*
X7Y191D01*
X1251Y191D02*
X1258Y191D01*
X0Y190D02*
X7Y190D01*
X1251Y190D02*
X1258Y190D01*
X0Y189D02*
X7Y189D01*
X815Y189D02*
X842Y189D01*
X866Y189D02*
X895Y189D01*
X1251Y189D02*
X1258Y189D01*
X0Y188D02*
X7Y188D01*
X815Y188D02*
X844Y188D01*
X865Y188D02*
X896Y188D01*
X1251Y188D02*
X1258Y188D01*
X0Y187D02*
X7Y187D01*
X815Y187D02*
X845Y187D01*
X865Y187D02*
X897Y187D01*
X1251Y187D02*
X1258Y187D01*
X0Y186D02*
X7Y186D01*
X815Y186D02*
X846Y186D01*
X865Y186D02*
X898Y186D01*
X1251Y186D02*
X1258Y186D01*
X0Y185D02*
X7Y185D01*
X815Y185D02*
X847Y185D01*
X865Y185D02*
X898Y185D01*
X1251Y185D02*
X1258Y185D01*
X0Y184D02*
X7Y184D01*
X815Y184D02*
X847Y184D01*
X866Y184D02*
X898Y184D01*
X1251Y184D02*
X1258Y184D01*
X0Y183D02*
X7Y183D01*
X815Y183D02*
X848Y183D01*
X867Y183D02*
X898Y183D01*
X1251Y183D02*
X1258Y183D01*
X0Y182D02*
X7Y182D01*
X815Y182D02*
X821Y182D01*
X841Y182D02*
X848Y182D01*
X892Y182D02*
X898Y182D01*
X1251Y182D02*
X1258Y182D01*
X0Y181D02*
X7Y181D01*
X815Y181D02*
X821Y181D01*
X842Y181D02*
X848Y181D01*
X892Y181D02*
X898Y181D01*
X1251Y181D02*
X1258Y181D01*
X0Y180D02*
X7Y180D01*
X815Y180D02*
X821Y180D01*
X842Y180D02*
X848Y180D01*
X892Y180D02*
X898Y180D01*
X1251Y180D02*
X1258Y180D01*
X0Y179D02*
X7Y179D01*
X815Y179D02*
X821Y179D01*
X842Y179D02*
X848Y179D01*
X892Y179D02*
X898Y179D01*
X1251Y179D02*
X1258Y179D01*
X0Y178D02*
X7Y178D01*
X815Y178D02*
X821Y178D01*
X842Y178D02*
X848Y178D01*
X892Y178D02*
X898Y178D01*
X1251Y178D02*
X1258Y178D01*
X0Y177D02*
X7Y177D01*
X815Y177D02*
X821Y177D01*
X842Y177D02*
X848Y177D01*
X892Y177D02*
X898Y177D01*
X1251Y177D02*
X1258Y177D01*
X0Y176D02*
X7Y176D01*
X815Y176D02*
X821Y176D01*
X842Y176D02*
X848Y176D01*
X892Y176D02*
X898Y176D01*
X1251Y176D02*
X1258Y176D01*
X0Y175D02*
X7Y175D01*
X815Y175D02*
X821Y175D01*
X842Y175D02*
X848Y175D01*
X892Y175D02*
X898Y175D01*
X1251Y175D02*
X1258Y175D01*
X0Y174D02*
X7Y174D01*
X815Y174D02*
X821Y174D01*
X842Y174D02*
X848Y174D01*
X892Y174D02*
X898Y174D01*
X1251Y174D02*
X1258Y174D01*
X0Y173D02*
X7Y173D01*
X815Y173D02*
X821Y173D01*
X841Y173D02*
X848Y173D01*
X892Y173D02*
X898Y173D01*
X1251Y173D02*
X1258Y173D01*
X0Y172D02*
X7Y172D01*
X815Y172D02*
X848Y172D01*
X892Y172D02*
X898Y172D01*
X1251Y172D02*
X1258Y172D01*
X0Y171D02*
X7Y171D01*
X815Y171D02*
X847Y171D01*
X892Y171D02*
X898Y171D01*
X1251Y171D02*
X1258Y171D01*
X0Y170D02*
X7Y170D01*
X815Y170D02*
X847Y170D01*
X892Y170D02*
X898Y170D01*
X1251Y170D02*
X1258Y170D01*
X0Y169D02*
X7Y169D01*
X815Y169D02*
X846Y169D01*
X892Y169D02*
X898Y169D01*
X1251Y169D02*
X1258Y169D01*
X0Y168D02*
X7Y168D01*
X815Y168D02*
X845Y168D01*
X892Y168D02*
X898Y168D01*
X1251Y168D02*
X1258Y168D01*
X0Y167D02*
X7Y167D01*
X815Y167D02*
X844Y167D01*
X892Y167D02*
X898Y167D01*
X1251Y167D02*
X1258Y167D01*
X0Y166D02*
X7Y166D01*
X664Y166D02*
X730Y166D01*
X815Y166D02*
X842Y166D01*
X870Y166D02*
X898Y166D01*
X931Y166D02*
X978Y166D01*
X1251Y166D02*
X1258Y166D01*
X0Y165D02*
X7Y165D01*
X664Y165D02*
X730Y165D01*
X815Y165D02*
X821Y165D01*
X827Y165D02*
X834Y165D01*
X868Y165D02*
X898Y165D01*
X931Y165D02*
X978Y165D01*
X1251Y165D02*
X1258Y165D01*
X0Y164D02*
X7Y164D01*
X664Y164D02*
X730Y164D01*
X815Y164D02*
X821Y164D01*
X827Y164D02*
X835Y164D01*
X867Y164D02*
X898Y164D01*
X931Y164D02*
X978Y164D01*
X1251Y164D02*
X1258Y164D01*
X0Y163D02*
X7Y163D01*
X664Y163D02*
X730Y163D01*
X815Y163D02*
X821Y163D01*
X828Y163D02*
X835Y163D01*
X866Y163D02*
X897Y163D01*
X931Y163D02*
X978Y163D01*
X1251Y163D02*
X1258Y163D01*
X0Y162D02*
X7Y162D01*
X664Y162D02*
X730Y162D01*
X815Y162D02*
X821Y162D01*
X828Y162D02*
X836Y162D01*
X865Y162D02*
X897Y162D01*
X931Y162D02*
X978Y162D01*
X1251Y162D02*
X1258Y162D01*
X0Y161D02*
X7Y161D01*
X664Y161D02*
X730Y161D01*
X815Y161D02*
X821Y161D01*
X829Y161D02*
X836Y161D01*
X865Y161D02*
X896Y161D01*
X931Y161D02*
X978Y161D01*
X1251Y161D02*
X1258Y161D01*
X0Y160D02*
X7Y160D01*
X664Y160D02*
X730Y160D01*
X815Y160D02*
X821Y160D01*
X830Y160D02*
X837Y160D01*
X865Y160D02*
X894Y160D01*
X931Y160D02*
X978Y160D01*
X1251Y160D02*
X1258Y160D01*
X0Y159D02*
X7Y159D01*
X664Y159D02*
X730Y159D01*
X815Y159D02*
X821Y159D01*
X830Y159D02*
X837Y159D01*
X865Y159D02*
X871Y159D01*
X931Y159D02*
X978Y159D01*
X1251Y159D02*
X1258Y159D01*
X0Y158D02*
X7Y158D01*
X664Y158D02*
X730Y158D01*
X815Y158D02*
X821Y158D01*
X831Y158D02*
X838Y158D01*
X865Y158D02*
X871Y158D01*
X931Y158D02*
X978Y158D01*
X1251Y158D02*
X1258Y158D01*
X0Y157D02*
X7Y157D01*
X664Y157D02*
X730Y157D01*
X815Y157D02*
X821Y157D01*
X831Y157D02*
X839Y157D01*
X865Y157D02*
X871Y157D01*
X931Y157D02*
X978Y157D01*
X1251Y157D02*
X1258Y157D01*
X0Y156D02*
X7Y156D01*
X815Y156D02*
X821Y156D01*
X832Y156D02*
X839Y156D01*
X865Y156D02*
X871Y156D01*
X1251Y156D02*
X1258Y156D01*
X0Y155D02*
X7Y155D01*
X815Y155D02*
X821Y155D01*
X833Y155D02*
X840Y155D01*
X865Y155D02*
X871Y155D01*
X1251Y155D02*
X1258Y155D01*
X0Y154D02*
X7Y154D01*
X815Y154D02*
X821Y154D01*
X833Y154D02*
X840Y154D01*
X865Y154D02*
X871Y154D01*
X1251Y154D02*
X1258Y154D01*
X0Y153D02*
X7Y153D01*
X815Y153D02*
X821Y153D01*
X834Y153D02*
X841Y153D01*
X865Y153D02*
X871Y153D01*
X1251Y153D02*
X1258Y153D01*
X0Y152D02*
X7Y152D01*
X815Y152D02*
X821Y152D01*
X834Y152D02*
X842Y152D01*
X865Y152D02*
X871Y152D01*
X1251Y152D02*
X1258Y152D01*
X0Y151D02*
X7Y151D01*
X815Y151D02*
X821Y151D01*
X835Y151D02*
X842Y151D01*
X865Y151D02*
X871Y151D01*
X1251Y151D02*
X1258Y151D01*
X0Y150D02*
X7Y150D01*
X815Y150D02*
X821Y150D01*
X835Y150D02*
X843Y150D01*
X865Y150D02*
X871Y150D01*
X1251Y150D02*
X1258Y150D01*
X0Y149D02*
X7Y149D01*
X815Y149D02*
X821Y149D01*
X836Y149D02*
X843Y149D01*
X865Y149D02*
X871Y149D01*
X1251Y149D02*
X1258Y149D01*
X0Y148D02*
X7Y148D01*
X815Y148D02*
X821Y148D01*
X837Y148D02*
X844Y148D01*
X865Y148D02*
X871Y148D01*
X1251Y148D02*
X1258Y148D01*
X0Y147D02*
X7Y147D01*
X815Y147D02*
X821Y147D01*
X837Y147D02*
X844Y147D01*
X865Y147D02*
X871Y147D01*
X1251Y147D02*
X1258Y147D01*
X0Y146D02*
X7Y146D01*
X815Y146D02*
X821Y146D01*
X838Y146D02*
X845Y146D01*
X865Y146D02*
X871Y146D01*
X1251Y146D02*
X1258Y146D01*
X0Y145D02*
X7Y145D01*
X815Y145D02*
X821Y145D01*
X838Y145D02*
X846Y145D01*
X865Y145D02*
X871Y145D01*
X1251Y145D02*
X1258Y145D01*
X0Y144D02*
X7Y144D01*
X815Y144D02*
X821Y144D01*
X839Y144D02*
X846Y144D01*
X865Y144D02*
X871Y144D01*
X1251Y144D02*
X1258Y144D01*
X0Y143D02*
X7Y143D01*
X815Y143D02*
X821Y143D01*
X840Y143D02*
X847Y143D01*
X865Y143D02*
X871Y143D01*
X1251Y143D02*
X1258Y143D01*
X0Y142D02*
X7Y142D01*
X815Y142D02*
X821Y142D01*
X840Y142D02*
X847Y142D01*
X865Y142D02*
X897Y142D01*
X1251Y142D02*
X1258Y142D01*
X0Y141D02*
X7Y141D01*
X815Y141D02*
X821Y141D01*
X841Y141D02*
X848Y141D01*
X865Y141D02*
X898Y141D01*
X1251Y141D02*
X1258Y141D01*
X0Y140D02*
X7Y140D01*
X815Y140D02*
X821Y140D01*
X841Y140D02*
X848Y140D01*
X865Y140D02*
X898Y140D01*
X1251Y140D02*
X1258Y140D01*
X0Y139D02*
X7Y139D01*
X815Y139D02*
X821Y139D01*
X842Y139D02*
X848Y139D01*
X865Y139D02*
X898Y139D01*
X1251Y139D02*
X1258Y139D01*
X0Y138D02*
X7Y138D01*
X815Y138D02*
X821Y138D01*
X842Y138D02*
X848Y138D01*
X865Y138D02*
X898Y138D01*
X1251Y138D02*
X1258Y138D01*
X0Y137D02*
X7Y137D01*
X816Y137D02*
X820Y137D01*
X843Y137D02*
X847Y137D01*
X865Y137D02*
X897Y137D01*
X1251Y137D02*
X1258Y137D01*
X0Y136D02*
X7Y136D01*
X817Y136D02*
X819Y136D01*
X844Y136D02*
X846Y136D01*
X865Y136D02*
X896Y136D01*
X1251Y136D02*
X1258Y136D01*
X0Y135D02*
X7Y135D01*
X1251Y135D02*
X1258Y135D01*
X0Y134D02*
X7Y134D01*
X1251Y134D02*
X1258Y134D01*
X0Y133D02*
X7Y133D01*
X1251Y133D02*
X1258Y133D01*
X0Y132D02*
X7Y132D01*
X1251Y132D02*
X1258Y132D01*
X0Y131D02*
X7Y131D01*
X1251Y131D02*
X1258Y131D01*
X0Y130D02*
X7Y130D01*
X1251Y130D02*
X1258Y130D01*
X0Y129D02*
X7Y129D01*
X1251Y129D02*
X1258Y129D01*
X0Y128D02*
X7Y128D01*
X1251Y128D02*
X1258Y128D01*
X0Y127D02*
X7Y127D01*
X1251Y127D02*
X1258Y127D01*
X0Y126D02*
X7Y126D01*
X1251Y126D02*
X1258Y126D01*
X0Y125D02*
X7Y125D01*
X1251Y125D02*
X1258Y125D01*
X0Y124D02*
X7Y124D01*
X1251Y124D02*
X1258Y124D01*
X0Y123D02*
X7Y123D01*
X1251Y123D02*
X1258Y123D01*
X0Y122D02*
X7Y122D01*
X1251Y122D02*
X1258Y122D01*
X0Y121D02*
X7Y121D01*
X1251Y121D02*
X1258Y121D01*
X0Y120D02*
X7Y120D01*
X1251Y120D02*
X1258Y120D01*
X0Y119D02*
X7Y119D01*
X1251Y119D02*
X1258Y119D01*
X0Y118D02*
X7Y118D01*
X1251Y118D02*
X1258Y118D01*
X0Y117D02*
X7Y117D01*
X1251Y117D02*
X1258Y117D01*
X0Y116D02*
X7Y116D01*
X1251Y116D02*
X1258Y116D01*
X0Y115D02*
X7Y115D01*
X1251Y115D02*
X1258Y115D01*
X0Y114D02*
X7Y114D01*
X1251Y114D02*
X1258Y114D01*
X0Y113D02*
X7Y113D01*
X1251Y113D02*
X1258Y113D01*
X0Y112D02*
X7Y112D01*
X1251Y112D02*
X1258Y112D01*
X0Y111D02*
X7Y111D01*
X1251Y111D02*
X1258Y111D01*
X0Y110D02*
X7Y110D01*
X1251Y110D02*
X1258Y110D01*
X0Y109D02*
X7Y109D01*
X1251Y109D02*
X1258Y109D01*
X0Y108D02*
X7Y108D01*
X1251Y108D02*
X1258Y108D01*
X0Y107D02*
X7Y107D01*
X1251Y107D02*
X1258Y107D01*
X0Y106D02*
X7Y106D01*
X1251Y106D02*
X1258Y106D01*
X0Y105D02*
X7Y105D01*
X1251Y105D02*
X1258Y105D01*
X0Y104D02*
X7Y104D01*
X1251Y104D02*
X1258Y104D01*
X0Y103D02*
X7Y103D01*
X1251Y103D02*
X1258Y103D01*
X0Y102D02*
X7Y102D01*
X1251Y102D02*
X1258Y102D01*
X0Y101D02*
X7Y101D01*
X1251Y101D02*
X1258Y101D01*
X0Y100D02*
X7Y100D01*
X1251Y100D02*
X1258Y100D01*
X0Y99D02*
X7Y99D01*
X1251Y99D02*
X1258Y99D01*
X0Y98D02*
X7Y98D01*
X1251Y98D02*
X1258Y98D01*
X0Y97D02*
X7Y97D01*
X1251Y97D02*
X1258Y97D01*
X0Y96D02*
X7Y96D01*
X1251Y96D02*
X1258Y96D01*
X0Y95D02*
X7Y95D01*
X758Y95D02*
X764Y95D01*
X1251Y95D02*
X1258Y95D01*
X0Y94D02*
X7Y94D01*
X757Y94D02*
X765Y94D01*
X1251Y94D02*
X1258Y94D01*
X0Y93D02*
X7Y93D01*
X757Y93D02*
X766Y93D01*
X1251Y93D02*
X1258Y93D01*
X0Y92D02*
X7Y92D01*
X696Y92D02*
X719Y92D01*
X756Y92D02*
X766Y92D01*
X811Y92D02*
X828Y92D01*
X901Y92D02*
X914Y92D01*
X1048Y92D02*
X1050Y92D01*
X1096Y92D02*
X1128Y92D01*
X1148Y92D02*
X1164Y92D01*
X1251Y92D02*
X1258Y92D01*
X0Y91D02*
X7Y91D01*
X696Y91D02*
X722Y91D01*
X756Y91D02*
X766Y91D01*
X809Y91D02*
X829Y91D01*
X900Y91D02*
X915Y91D01*
X1047Y91D02*
X1051Y91D01*
X1096Y91D02*
X1129Y91D01*
X1147Y91D02*
X1166Y91D01*
X1251Y91D02*
X1258Y91D01*
X0Y90D02*
X7Y90D01*
X696Y90D02*
X724Y90D01*
X756Y90D02*
X766Y90D01*
X807Y90D02*
X829Y90D01*
X900Y90D02*
X916Y90D01*
X1046Y90D02*
X1052Y90D01*
X1096Y90D02*
X1129Y90D01*
X1146Y90D02*
X1168Y90D01*
X1251Y90D02*
X1258Y90D01*
X0Y89D02*
X7Y89D01*
X605Y89D02*
X607Y89D01*
X696Y89D02*
X725Y89D01*
X756Y89D02*
X766Y89D01*
X806Y89D02*
X830Y89D01*
X899Y89D02*
X916Y89D01*
X1046Y89D02*
X1052Y89D01*
X1096Y89D02*
X1129Y89D01*
X1146Y89D02*
X1169Y89D01*
X1251Y89D02*
X1258Y89D01*
X0Y88D02*
X7Y88D01*
X604Y88D02*
X608Y88D01*
X696Y88D02*
X726Y88D01*
X757Y88D02*
X766Y88D01*
X806Y88D02*
X829Y88D01*
X900Y88D02*
X916Y88D01*
X1046Y88D02*
X1052Y88D01*
X1096Y88D02*
X1129Y88D01*
X1146Y88D02*
X1170Y88D01*
X1251Y88D02*
X1258Y88D01*
X0Y87D02*
X7Y87D01*
X603Y87D02*
X609Y87D01*
X696Y87D02*
X727Y87D01*
X757Y87D02*
X765Y87D01*
X805Y87D02*
X829Y87D01*
X900Y87D02*
X916Y87D01*
X1046Y87D02*
X1052Y87D01*
X1096Y87D02*
X1129Y87D01*
X1147Y87D02*
X1170Y87D01*
X1251Y87D02*
X1258Y87D01*
X0Y86D02*
X7Y86D01*
X603Y86D02*
X609Y86D01*
X696Y86D02*
X727Y86D01*
X758Y86D02*
X764Y86D01*
X804Y86D02*
X828Y86D01*
X901Y86D02*
X916Y86D01*
X1046Y86D02*
X1052Y86D01*
X1096Y86D02*
X1128Y86D01*
X1148Y86D02*
X1171Y86D01*
X1251Y86D02*
X1258Y86D01*
X0Y85D02*
X7Y85D01*
X603Y85D02*
X609Y85D01*
X696Y85D02*
X702Y85D01*
X719Y85D02*
X728Y85D01*
X804Y85D02*
X812Y85D01*
X910Y85D02*
X916Y85D01*
X1046Y85D02*
X1052Y85D01*
X1096Y85D02*
X1102Y85D01*
X1153Y85D02*
X1159Y85D01*
X1164Y85D02*
X1171Y85D01*
X1251Y85D02*
X1258Y85D01*
X0Y84D02*
X7Y84D01*
X603Y84D02*
X609Y84D01*
X696Y84D02*
X702Y84D01*
X721Y84D02*
X729Y84D01*
X803Y84D02*
X810Y84D01*
X910Y84D02*
X916Y84D01*
X1046Y84D02*
X1052Y84D01*
X1096Y84D02*
X1102Y84D01*
X1153Y84D02*
X1159Y84D01*
X1165Y84D02*
X1172Y84D01*
X1251Y84D02*
X1258Y84D01*
X0Y83D02*
X7Y83D01*
X603Y83D02*
X609Y83D01*
X696Y83D02*
X702Y83D01*
X722Y83D02*
X729Y83D01*
X803Y83D02*
X810Y83D01*
X910Y83D02*
X916Y83D01*
X1046Y83D02*
X1052Y83D01*
X1096Y83D02*
X1102Y83D01*
X1153Y83D02*
X1159Y83D01*
X1166Y83D02*
X1172Y83D01*
X1251Y83D02*
X1258Y83D01*
X0Y82D02*
X7Y82D01*
X603Y82D02*
X609Y82D01*
X696Y82D02*
X702Y82D01*
X723Y82D02*
X729Y82D01*
X802Y82D02*
X809Y82D01*
X910Y82D02*
X916Y82D01*
X1046Y82D02*
X1052Y82D01*
X1096Y82D02*
X1102Y82D01*
X1153Y82D02*
X1159Y82D01*
X1166Y82D02*
X1173Y82D01*
X1251Y82D02*
X1258Y82D01*
X0Y81D02*
X7Y81D01*
X603Y81D02*
X609Y81D01*
X696Y81D02*
X702Y81D01*
X723Y81D02*
X730Y81D01*
X802Y81D02*
X809Y81D01*
X910Y81D02*
X916Y81D01*
X1046Y81D02*
X1052Y81D01*
X1096Y81D02*
X1102Y81D01*
X1153Y81D02*
X1159Y81D01*
X1167Y81D02*
X1173Y81D01*
X1251Y81D02*
X1258Y81D01*
X0Y80D02*
X7Y80D01*
X603Y80D02*
X609Y80D01*
X696Y80D02*
X702Y80D01*
X724Y80D02*
X730Y80D01*
X801Y80D02*
X808Y80D01*
X910Y80D02*
X916Y80D01*
X1046Y80D02*
X1052Y80D01*
X1096Y80D02*
X1102Y80D01*
X1153Y80D02*
X1159Y80D01*
X1167Y80D02*
X1174Y80D01*
X1251Y80D02*
X1258Y80D01*
X0Y79D02*
X7Y79D01*
X603Y79D02*
X609Y79D01*
X696Y79D02*
X702Y79D01*
X724Y79D02*
X730Y79D01*
X801Y79D02*
X808Y79D01*
X910Y79D02*
X916Y79D01*
X1046Y79D02*
X1052Y79D01*
X1096Y79D02*
X1102Y79D01*
X1153Y79D02*
X1159Y79D01*
X1168Y79D02*
X1174Y79D01*
X1251Y79D02*
X1258Y79D01*
X0Y78D02*
X7Y78D01*
X603Y78D02*
X609Y78D01*
X696Y78D02*
X702Y78D01*
X724Y78D02*
X730Y78D01*
X800Y78D02*
X807Y78D01*
X910Y78D02*
X916Y78D01*
X1046Y78D02*
X1052Y78D01*
X1096Y78D02*
X1102Y78D01*
X1153Y78D02*
X1159Y78D01*
X1168Y78D02*
X1175Y78D01*
X1251Y78D02*
X1258Y78D01*
X0Y77D02*
X7Y77D01*
X598Y77D02*
X625Y77D01*
X655Y77D02*
X671Y77D01*
X696Y77D02*
X702Y77D01*
X724Y77D02*
X730Y77D01*
X751Y77D02*
X764Y77D01*
X800Y77D02*
X807Y77D01*
X855Y77D02*
X871Y77D01*
X910Y77D02*
X916Y77D01*
X955Y77D02*
X970Y77D01*
X997Y77D02*
X1001Y77D01*
X1011Y77D02*
X1023Y77D01*
X1046Y77D02*
X1052Y77D01*
X1096Y77D02*
X1102Y77D01*
X1153Y77D02*
X1159Y77D01*
X1169Y77D02*
X1175Y77D01*
X1251Y77D02*
X1258Y77D01*
X0Y76D02*
X7Y76D01*
X597Y76D02*
X626Y76D01*
X653Y76D02*
X673Y76D01*
X696Y76D02*
X702Y76D01*
X724Y76D02*
X730Y76D01*
X750Y76D02*
X765Y76D01*
X799Y76D02*
X806Y76D01*
X853Y76D02*
X872Y76D01*
X910Y76D02*
X916Y76D01*
X953Y76D02*
X972Y76D01*
X997Y76D02*
X1001Y76D01*
X1010Y76D02*
X1025Y76D01*
X1046Y76D02*
X1052Y76D01*
X1096Y76D02*
X1102Y76D01*
X1153Y76D02*
X1159Y76D01*
X1169Y76D02*
X1176Y76D01*
X1251Y76D02*
X1258Y76D01*
X0Y75D02*
X7Y75D01*
X596Y75D02*
X626Y75D01*
X652Y75D02*
X674Y75D01*
X696Y75D02*
X702Y75D01*
X724Y75D02*
X730Y75D01*
X750Y75D02*
X766Y75D01*
X799Y75D02*
X806Y75D01*
X852Y75D02*
X874Y75D01*
X910Y75D02*
X916Y75D01*
X952Y75D02*
X974Y75D01*
X996Y75D02*
X1002Y75D01*
X1009Y75D02*
X1026Y75D01*
X1046Y75D02*
X1052Y75D01*
X1096Y75D02*
X1102Y75D01*
X1153Y75D02*
X1159Y75D01*
X1170Y75D02*
X1176Y75D01*
X1251Y75D02*
X1258Y75D01*
X0Y74D02*
X7Y74D01*
X596Y74D02*
X626Y74D01*
X651Y74D02*
X675Y74D01*
X696Y74D02*
X702Y74D01*
X723Y74D02*
X730Y74D01*
X750Y74D02*
X766Y74D01*
X799Y74D02*
X805Y74D01*
X851Y74D02*
X875Y74D01*
X910Y74D02*
X916Y74D01*
X951Y74D02*
X975Y74D01*
X996Y74D02*
X1002Y74D01*
X1007Y74D02*
X1027Y74D01*
X1046Y74D02*
X1052Y74D01*
X1096Y74D02*
X1102Y74D01*
X1153Y74D02*
X1159Y74D01*
X1170Y74D02*
X1177Y74D01*
X1251Y74D02*
X1258Y74D01*
X0Y73D02*
X7Y73D01*
X597Y73D02*
X626Y73D01*
X650Y73D02*
X676Y73D01*
X696Y73D02*
X702Y73D01*
X723Y73D02*
X729Y73D01*
X750Y73D02*
X766Y73D01*
X798Y73D02*
X805Y73D01*
X850Y73D02*
X876Y73D01*
X910Y73D02*
X916Y73D01*
X950Y73D02*
X976Y73D01*
X996Y73D02*
X1002Y73D01*
X1006Y73D02*
X1028Y73D01*
X1046Y73D02*
X1052Y73D01*
X1096Y73D02*
X1102Y73D01*
X1153Y73D02*
X1159Y73D01*
X1171Y73D02*
X1178Y73D01*
X1251Y73D02*
X1258Y73D01*
X0Y72D02*
X7Y72D01*
X597Y72D02*
X625Y72D01*
X649Y72D02*
X677Y72D01*
X696Y72D02*
X702Y72D01*
X722Y72D02*
X729Y72D01*
X750Y72D02*
X766Y72D01*
X798Y72D02*
X804Y72D01*
X849Y72D02*
X877Y72D01*
X910Y72D02*
X916Y72D01*
X949Y72D02*
X977Y72D01*
X996Y72D02*
X1002Y72D01*
X1005Y72D02*
X1028Y72D01*
X1046Y72D02*
X1052Y72D01*
X1096Y72D02*
X1102Y72D01*
X1153Y72D02*
X1159Y72D01*
X1171Y72D02*
X1178Y72D01*
X1251Y72D02*
X1258Y72D01*
X0Y71D02*
X7Y71D01*
X599Y71D02*
X624Y71D01*
X648Y71D02*
X678Y71D01*
X696Y71D02*
X702Y71D01*
X722Y71D02*
X729Y71D01*
X752Y71D02*
X766Y71D01*
X797Y71D02*
X804Y71D01*
X848Y71D02*
X878Y71D01*
X910Y71D02*
X916Y71D01*
X948Y71D02*
X978Y71D01*
X996Y71D02*
X1002Y71D01*
X1004Y71D02*
X1029Y71D01*
X1046Y71D02*
X1052Y71D01*
X1096Y71D02*
X1102Y71D01*
X1153Y71D02*
X1159Y71D01*
X1172Y71D02*
X1178Y71D01*
X1251Y71D02*
X1258Y71D01*
X0Y70D02*
X7Y70D01*
X603Y70D02*
X609Y70D01*
X648Y70D02*
X656Y70D01*
X670Y70D02*
X679Y70D01*
X696Y70D02*
X702Y70D01*
X720Y70D02*
X728Y70D01*
X760Y70D02*
X766Y70D01*
X797Y70D02*
X803Y70D01*
X847Y70D02*
X856Y70D01*
X870Y70D02*
X878Y70D01*
X910Y70D02*
X916Y70D01*
X947Y70D02*
X956Y70D01*
X970Y70D02*
X978Y70D01*
X996Y70D02*
X1013Y70D01*
X1022Y70D02*
X1029Y70D01*
X1046Y70D02*
X1052Y70D01*
X1096Y70D02*
X1102Y70D01*
X1153Y70D02*
X1159Y70D01*
X1172Y70D02*
X1179Y70D01*
X1251Y70D02*
X1258Y70D01*
X0Y69D02*
X7Y69D01*
X603Y69D02*
X609Y69D01*
X647Y69D02*
X655Y69D01*
X671Y69D02*
X679Y69D01*
X696Y69D02*
X703Y69D01*
X717Y69D02*
X728Y69D01*
X760Y69D02*
X766Y69D01*
X797Y69D02*
X803Y69D01*
X847Y69D02*
X855Y69D01*
X871Y69D02*
X879Y69D01*
X910Y69D02*
X916Y69D01*
X947Y69D02*
X955Y69D01*
X971Y69D02*
X979Y69D01*
X996Y69D02*
X1011Y69D01*
X1023Y69D02*
X1029Y69D01*
X1046Y69D02*
X1052Y69D01*
X1096Y69D02*
X1102Y69D01*
X1153Y69D02*
X1159Y69D01*
X1173Y69D02*
X1179Y69D01*
X1251Y69D02*
X1258Y69D01*
X0Y68D02*
X7Y68D01*
X603Y68D02*
X609Y68D01*
X647Y68D02*
X654Y68D01*
X672Y68D02*
X679Y68D01*
X696Y68D02*
X727Y68D01*
X760Y68D02*
X766Y68D01*
X796Y68D02*
X803Y68D01*
X847Y68D02*
X854Y68D01*
X872Y68D02*
X879Y68D01*
X910Y68D02*
X916Y68D01*
X946Y68D02*
X953Y68D01*
X972Y68D02*
X979Y68D01*
X996Y68D02*
X1010Y68D01*
X1023Y68D02*
X1029Y68D01*
X1046Y68D02*
X1052Y68D01*
X1096Y68D02*
X1114Y68D01*
X1153Y68D02*
X1159Y68D01*
X1173Y68D02*
X1179Y68D01*
X1251Y68D02*
X1258Y68D01*
X0Y67D02*
X7Y67D01*
X603Y67D02*
X609Y67D01*
X646Y67D02*
X653Y67D01*
X673Y67D02*
X680Y67D01*
X696Y67D02*
X726Y67D01*
X760Y67D02*
X766Y67D01*
X796Y67D02*
X802Y67D01*
X846Y67D02*
X853Y67D01*
X873Y67D02*
X879Y67D01*
X910Y67D02*
X916Y67D01*
X946Y67D02*
X953Y67D01*
X973Y67D02*
X979Y67D01*
X996Y67D02*
X1009Y67D01*
X1024Y67D02*
X1030Y67D01*
X1046Y67D02*
X1052Y67D01*
X1096Y67D02*
X1115Y67D01*
X1153Y67D02*
X1159Y67D01*
X1173Y67D02*
X1179Y67D01*
X1251Y67D02*
X1258Y67D01*
X0Y66D02*
X7Y66D01*
X603Y66D02*
X609Y66D01*
X646Y66D02*
X652Y66D01*
X674Y66D02*
X680Y66D01*
X696Y66D02*
X725Y66D01*
X760Y66D02*
X766Y66D01*
X796Y66D02*
X802Y66D01*
X846Y66D02*
X852Y66D01*
X874Y66D02*
X880Y66D01*
X910Y66D02*
X916Y66D01*
X946Y66D02*
X952Y66D01*
X973Y66D02*
X980Y66D01*
X996Y66D02*
X1008Y66D01*
X1024Y66D02*
X1030Y66D01*
X1046Y66D02*
X1052Y66D01*
X1096Y66D02*
X1116Y66D01*
X1153Y66D02*
X1159Y66D01*
X1173Y66D02*
X1179Y66D01*
X1251Y66D02*
X1258Y66D01*
X0Y65D02*
X7Y65D01*
X603Y65D02*
X609Y65D01*
X646Y65D02*
X652Y65D01*
X674Y65D02*
X680Y65D01*
X696Y65D02*
X725Y65D01*
X760Y65D02*
X766Y65D01*
X796Y65D02*
X802Y65D01*
X846Y65D02*
X852Y65D01*
X874Y65D02*
X880Y65D01*
X910Y65D02*
X916Y65D01*
X946Y65D02*
X952Y65D01*
X974Y65D02*
X980Y65D01*
X996Y65D02*
X1007Y65D01*
X1024Y65D02*
X1029Y65D01*
X1046Y65D02*
X1052Y65D01*
X1096Y65D02*
X1116Y65D01*
X1153Y65D02*
X1159Y65D01*
X1173Y65D02*
X1179Y65D01*
X1251Y65D02*
X1258Y65D01*
X0Y64D02*
X7Y64D01*
X603Y64D02*
X609Y64D01*
X646Y64D02*
X652Y64D01*
X674Y64D02*
X680Y64D01*
X696Y64D02*
X726Y64D01*
X760Y64D02*
X766Y64D01*
X796Y64D02*
X802Y64D01*
X846Y64D02*
X852Y64D01*
X874Y64D02*
X880Y64D01*
X910Y64D02*
X916Y64D01*
X946Y64D02*
X952Y64D01*
X974Y64D02*
X980Y64D01*
X996Y64D02*
X1006Y64D01*
X1024Y64D02*
X1029Y64D01*
X1046Y64D02*
X1052Y64D01*
X1096Y64D02*
X1115Y64D01*
X1153Y64D02*
X1159Y64D01*
X1173Y64D02*
X1179Y64D01*
X1251Y64D02*
X1258Y64D01*
X0Y63D02*
X7Y63D01*
X603Y63D02*
X609Y63D01*
X646Y63D02*
X652Y63D01*
X674Y63D02*
X680Y63D01*
X696Y63D02*
X727Y63D01*
X760Y63D02*
X766Y63D01*
X796Y63D02*
X802Y63D01*
X846Y63D02*
X852Y63D01*
X874Y63D02*
X880Y63D01*
X910Y63D02*
X916Y63D01*
X946Y63D02*
X952Y63D01*
X974Y63D02*
X980Y63D01*
X996Y63D02*
X1005Y63D01*
X1025Y63D02*
X1028Y63D01*
X1046Y63D02*
X1052Y63D01*
X1096Y63D02*
X1115Y63D01*
X1153Y63D02*
X1159Y63D01*
X1173Y63D02*
X1179Y63D01*
X1251Y63D02*
X1258Y63D01*
X0Y62D02*
X7Y62D01*
X603Y62D02*
X609Y62D01*
X646Y62D02*
X652Y62D01*
X674Y62D02*
X680Y62D01*
X696Y62D02*
X728Y62D01*
X760Y62D02*
X766Y62D01*
X797Y62D02*
X803Y62D01*
X846Y62D02*
X852Y62D01*
X874Y62D02*
X880Y62D01*
X910Y62D02*
X916Y62D01*
X946Y62D02*
X952Y62D01*
X974Y62D02*
X980Y62D01*
X996Y62D02*
X1003Y62D01*
X1046Y62D02*
X1052Y62D01*
X1096Y62D02*
X1112Y62D01*
X1153Y62D02*
X1159Y62D01*
X1173Y62D02*
X1179Y62D01*
X1251Y62D02*
X1258Y62D01*
X0Y61D02*
X7Y61D01*
X603Y61D02*
X609Y61D01*
X646Y61D02*
X652Y61D01*
X674Y61D02*
X680Y61D01*
X696Y61D02*
X702Y61D01*
X720Y61D02*
X728Y61D01*
X760Y61D02*
X766Y61D01*
X797Y61D02*
X803Y61D01*
X846Y61D02*
X852Y61D01*
X874Y61D02*
X880Y61D01*
X910Y61D02*
X916Y61D01*
X946Y61D02*
X952Y61D01*
X974Y61D02*
X980Y61D01*
X996Y61D02*
X1002Y61D01*
X1046Y61D02*
X1052Y61D01*
X1096Y61D02*
X1102Y61D01*
X1153Y61D02*
X1159Y61D01*
X1172Y61D02*
X1179Y61D01*
X1251Y61D02*
X1258Y61D01*
X0Y60D02*
X7Y60D01*
X603Y60D02*
X609Y60D01*
X646Y60D02*
X652Y60D01*
X674Y60D02*
X680Y60D01*
X696Y60D02*
X702Y60D01*
X721Y60D02*
X729Y60D01*
X760Y60D02*
X766Y60D01*
X797Y60D02*
X804Y60D01*
X846Y60D02*
X852Y60D01*
X874Y60D02*
X880Y60D01*
X910Y60D02*
X916Y60D01*
X946Y60D02*
X952Y60D01*
X974Y60D02*
X980Y60D01*
X996Y60D02*
X1002Y60D01*
X1046Y60D02*
X1052Y60D01*
X1096Y60D02*
X1102Y60D01*
X1153Y60D02*
X1159Y60D01*
X1172Y60D02*
X1178Y60D01*
X1251Y60D02*
X1258Y60D01*
X0Y59D02*
X7Y59D01*
X603Y59D02*
X609Y59D01*
X646Y59D02*
X652Y59D01*
X674Y59D02*
X680Y59D01*
X696Y59D02*
X702Y59D01*
X722Y59D02*
X729Y59D01*
X760Y59D02*
X766Y59D01*
X798Y59D02*
X804Y59D01*
X846Y59D02*
X852Y59D01*
X874Y59D02*
X880Y59D01*
X910Y59D02*
X916Y59D01*
X946Y59D02*
X952Y59D01*
X974Y59D02*
X980Y59D01*
X996Y59D02*
X1002Y59D01*
X1046Y59D02*
X1052Y59D01*
X1096Y59D02*
X1102Y59D01*
X1153Y59D02*
X1159Y59D01*
X1171Y59D02*
X1178Y59D01*
X1251Y59D02*
X1258Y59D01*
X0Y58D02*
X7Y58D01*
X603Y58D02*
X609Y58D01*
X646Y58D02*
X652Y58D01*
X674Y58D02*
X680Y58D01*
X696Y58D02*
X702Y58D01*
X723Y58D02*
X729Y58D01*
X760Y58D02*
X766Y58D01*
X798Y58D02*
X805Y58D01*
X846Y58D02*
X852Y58D01*
X874Y58D02*
X880Y58D01*
X910Y58D02*
X916Y58D01*
X946Y58D02*
X952Y58D01*
X974Y58D02*
X980Y58D01*
X996Y58D02*
X1002Y58D01*
X1046Y58D02*
X1052Y58D01*
X1096Y58D02*
X1102Y58D01*
X1153Y58D02*
X1159Y58D01*
X1171Y58D02*
X1178Y58D01*
X1251Y58D02*
X1258Y58D01*
X0Y57D02*
X7Y57D01*
X603Y57D02*
X609Y57D01*
X646Y57D02*
X652Y57D01*
X674Y57D02*
X680Y57D01*
X696Y57D02*
X702Y57D01*
X723Y57D02*
X730Y57D01*
X760Y57D02*
X766Y57D01*
X798Y57D02*
X805Y57D01*
X846Y57D02*
X852Y57D01*
X874Y57D02*
X880Y57D01*
X910Y57D02*
X916Y57D01*
X946Y57D02*
X952Y57D01*
X974Y57D02*
X980Y57D01*
X996Y57D02*
X1002Y57D01*
X1046Y57D02*
X1052Y57D01*
X1096Y57D02*
X1102Y57D01*
X1153Y57D02*
X1159Y57D01*
X1170Y57D02*
X1177Y57D01*
X1251Y57D02*
X1258Y57D01*
X0Y56D02*
X7Y56D01*
X603Y56D02*
X609Y56D01*
X646Y56D02*
X652Y56D01*
X674Y56D02*
X680Y56D01*
X696Y56D02*
X702Y56D01*
X724Y56D02*
X730Y56D01*
X760Y56D02*
X766Y56D01*
X799Y56D02*
X806Y56D01*
X846Y56D02*
X852Y56D01*
X874Y56D02*
X880Y56D01*
X910Y56D02*
X916Y56D01*
X946Y56D02*
X952Y56D01*
X974Y56D02*
X980Y56D01*
X996Y56D02*
X1002Y56D01*
X1046Y56D02*
X1052Y56D01*
X1096Y56D02*
X1102Y56D01*
X1153Y56D02*
X1159Y56D01*
X1170Y56D02*
X1177Y56D01*
X1251Y56D02*
X1258Y56D01*
X0Y55D02*
X7Y55D01*
X603Y55D02*
X609Y55D01*
X646Y55D02*
X652Y55D01*
X674Y55D02*
X680Y55D01*
X696Y55D02*
X702Y55D01*
X724Y55D02*
X730Y55D01*
X760Y55D02*
X766Y55D01*
X799Y55D02*
X806Y55D01*
X846Y55D02*
X852Y55D01*
X874Y55D02*
X880Y55D01*
X910Y55D02*
X916Y55D01*
X946Y55D02*
X952Y55D01*
X974Y55D02*
X980Y55D01*
X996Y55D02*
X1002Y55D01*
X1046Y55D02*
X1052Y55D01*
X1096Y55D02*
X1102Y55D01*
X1153Y55D02*
X1159Y55D01*
X1169Y55D02*
X1176Y55D01*
X1251Y55D02*
X1258Y55D01*
X0Y54D02*
X7Y54D01*
X603Y54D02*
X609Y54D01*
X646Y54D02*
X652Y54D01*
X674Y54D02*
X680Y54D01*
X696Y54D02*
X702Y54D01*
X724Y54D02*
X730Y54D01*
X760Y54D02*
X766Y54D01*
X800Y54D02*
X807Y54D01*
X846Y54D02*
X852Y54D01*
X874Y54D02*
X880Y54D01*
X910Y54D02*
X916Y54D01*
X946Y54D02*
X952Y54D01*
X974Y54D02*
X980Y54D01*
X996Y54D02*
X1002Y54D01*
X1046Y54D02*
X1052Y54D01*
X1096Y54D02*
X1102Y54D01*
X1153Y54D02*
X1159Y54D01*
X1169Y54D02*
X1176Y54D01*
X1251Y54D02*
X1258Y54D01*
X0Y53D02*
X7Y53D01*
X603Y53D02*
X609Y53D01*
X646Y53D02*
X652Y53D01*
X674Y53D02*
X680Y53D01*
X696Y53D02*
X702Y53D01*
X724Y53D02*
X730Y53D01*
X760Y53D02*
X766Y53D01*
X800Y53D02*
X807Y53D01*
X846Y53D02*
X852Y53D01*
X874Y53D02*
X880Y53D01*
X910Y53D02*
X916Y53D01*
X946Y53D02*
X952Y53D01*
X974Y53D02*
X980Y53D01*
X996Y53D02*
X1002Y53D01*
X1046Y53D02*
X1052Y53D01*
X1096Y53D02*
X1102Y53D01*
X1153Y53D02*
X1159Y53D01*
X1168Y53D02*
X1175Y53D01*
X1251Y53D02*
X1258Y53D01*
X0Y52D02*
X7Y52D01*
X603Y52D02*
X609Y52D01*
X646Y52D02*
X652Y52D01*
X674Y52D02*
X680Y52D01*
X696Y52D02*
X702Y52D01*
X724Y52D02*
X730Y52D01*
X760Y52D02*
X766Y52D01*
X801Y52D02*
X808Y52D01*
X846Y52D02*
X852Y52D01*
X874Y52D02*
X880Y52D01*
X910Y52D02*
X916Y52D01*
X946Y52D02*
X952Y52D01*
X974Y52D02*
X980Y52D01*
X996Y52D02*
X1002Y52D01*
X1046Y52D02*
X1052Y52D01*
X1096Y52D02*
X1102Y52D01*
X1153Y52D02*
X1159Y52D01*
X1168Y52D02*
X1175Y52D01*
X1251Y52D02*
X1258Y52D01*
X0Y51D02*
X7Y51D01*
X603Y51D02*
X609Y51D01*
X626Y51D02*
X628Y51D01*
X646Y51D02*
X652Y51D01*
X674Y51D02*
X680Y51D01*
X696Y51D02*
X702Y51D01*
X724Y51D02*
X730Y51D01*
X760Y51D02*
X766Y51D01*
X801Y51D02*
X808Y51D01*
X846Y51D02*
X852Y51D01*
X874Y51D02*
X880Y51D01*
X910Y51D02*
X916Y51D01*
X946Y51D02*
X952Y51D01*
X974Y51D02*
X980Y51D01*
X996Y51D02*
X1002Y51D01*
X1046Y51D02*
X1052Y51D01*
X1096Y51D02*
X1102Y51D01*
X1153Y51D02*
X1159Y51D01*
X1167Y51D02*
X1174Y51D01*
X1251Y51D02*
X1258Y51D01*
X0Y50D02*
X7Y50D01*
X603Y50D02*
X609Y50D01*
X625Y50D02*
X629Y50D01*
X646Y50D02*
X652Y50D01*
X674Y50D02*
X680Y50D01*
X696Y50D02*
X702Y50D01*
X723Y50D02*
X730Y50D01*
X760Y50D02*
X766Y50D01*
X802Y50D02*
X809Y50D01*
X846Y50D02*
X852Y50D01*
X873Y50D02*
X880Y50D01*
X910Y50D02*
X916Y50D01*
X946Y50D02*
X952Y50D01*
X973Y50D02*
X980Y50D01*
X996Y50D02*
X1002Y50D01*
X1046Y50D02*
X1052Y50D01*
X1096Y50D02*
X1102Y50D01*
X1153Y50D02*
X1159Y50D01*
X1167Y50D02*
X1174Y50D01*
X1251Y50D02*
X1258Y50D01*
X0Y49D02*
X7Y49D01*
X603Y49D02*
X609Y49D01*
X624Y49D02*
X630Y49D01*
X646Y49D02*
X653Y49D01*
X673Y49D02*
X680Y49D01*
X696Y49D02*
X702Y49D01*
X723Y49D02*
X729Y49D01*
X760Y49D02*
X766Y49D01*
X802Y49D02*
X809Y49D01*
X846Y49D02*
X853Y49D01*
X873Y49D02*
X880Y49D01*
X910Y49D02*
X916Y49D01*
X946Y49D02*
X953Y49D01*
X973Y49D02*
X979Y49D01*
X996Y49D02*
X1002Y49D01*
X1046Y49D02*
X1052Y49D01*
X1096Y49D02*
X1102Y49D01*
X1153Y49D02*
X1159Y49D01*
X1166Y49D02*
X1173Y49D01*
X1251Y49D02*
X1258Y49D01*
X0Y48D02*
X7Y48D01*
X603Y48D02*
X609Y48D01*
X624Y48D02*
X630Y48D01*
X647Y48D02*
X654Y48D01*
X672Y48D02*
X679Y48D01*
X696Y48D02*
X702Y48D01*
X722Y48D02*
X729Y48D01*
X760Y48D02*
X766Y48D01*
X803Y48D02*
X810Y48D01*
X846Y48D02*
X854Y48D01*
X872Y48D02*
X879Y48D01*
X910Y48D02*
X916Y48D01*
X946Y48D02*
X954Y48D01*
X972Y48D02*
X979Y48D01*
X996Y48D02*
X1002Y48D01*
X1046Y48D02*
X1052Y48D01*
X1096Y48D02*
X1102Y48D01*
X1153Y48D02*
X1159Y48D01*
X1166Y48D02*
X1173Y48D01*
X1251Y48D02*
X1258Y48D01*
X0Y47D02*
X7Y47D01*
X603Y47D02*
X610Y47D01*
X623Y47D02*
X630Y47D01*
X647Y47D02*
X655Y47D01*
X671Y47D02*
X679Y47D01*
X696Y47D02*
X702Y47D01*
X721Y47D02*
X729Y47D01*
X760Y47D02*
X766Y47D01*
X803Y47D02*
X810Y47D01*
X847Y47D02*
X855Y47D01*
X871Y47D02*
X879Y47D01*
X910Y47D02*
X916Y47D01*
X947Y47D02*
X955Y47D01*
X971Y47D02*
X979Y47D01*
X996Y47D02*
X1002Y47D01*
X1046Y47D02*
X1052Y47D01*
X1096Y47D02*
X1102Y47D01*
X1153Y47D02*
X1159Y47D01*
X1165Y47D02*
X1172Y47D01*
X1251Y47D02*
X1258Y47D01*
X0Y46D02*
X7Y46D01*
X604Y46D02*
X611Y46D01*
X622Y46D02*
X629Y46D01*
X647Y46D02*
X656Y46D01*
X670Y46D02*
X678Y46D01*
X696Y46D02*
X702Y46D01*
X720Y46D02*
X728Y46D01*
X760Y46D02*
X766Y46D01*
X804Y46D02*
X811Y46D01*
X847Y46D02*
X856Y46D01*
X870Y46D02*
X878Y46D01*
X910Y46D02*
X916Y46D01*
X947Y46D02*
X956Y46D01*
X970Y46D02*
X978Y46D01*
X996Y46D02*
X1002Y46D01*
X1046Y46D02*
X1052Y46D01*
X1096Y46D02*
X1102Y46D01*
X1153Y46D02*
X1159Y46D01*
X1164Y46D02*
X1172Y46D01*
X1251Y46D02*
X1258Y46D01*
X0Y45D02*
X7Y45D01*
X604Y45D02*
X629Y45D01*
X648Y45D02*
X678Y45D01*
X696Y45D02*
X728Y45D01*
X752Y45D02*
X774Y45D01*
X804Y45D02*
X828Y45D01*
X848Y45D02*
X878Y45D01*
X902Y45D02*
X924Y45D01*
X948Y45D02*
X978Y45D01*
X996Y45D02*
X1002Y45D01*
X1046Y45D02*
X1077Y45D01*
X1096Y45D02*
X1127Y45D01*
X1148Y45D02*
X1171Y45D01*
X1251Y45D02*
X1258Y45D01*
X0Y44D02*
X7Y44D01*
X604Y44D02*
X629Y44D01*
X649Y44D02*
X677Y44D01*
X696Y44D02*
X727Y44D01*
X750Y44D02*
X775Y44D01*
X805Y44D02*
X829Y44D01*
X849Y44D02*
X877Y44D01*
X900Y44D02*
X925Y44D01*
X949Y44D02*
X977Y44D01*
X996Y44D02*
X1002Y44D01*
X1046Y44D02*
X1079Y44D01*
X1096Y44D02*
X1129Y44D01*
X1147Y44D02*
X1171Y44D01*
X1251Y44D02*
X1258Y44D01*
X0Y43D02*
X7Y43D01*
X605Y43D02*
X628Y43D01*
X650Y43D02*
X676Y43D01*
X696Y43D02*
X726Y43D01*
X750Y43D02*
X776Y43D01*
X806Y43D02*
X829Y43D01*
X850Y43D02*
X876Y43D01*
X900Y43D02*
X926Y43D01*
X950Y43D02*
X976Y43D01*
X996Y43D02*
X1002Y43D01*
X1046Y43D02*
X1079Y43D01*
X1096Y43D02*
X1129Y43D01*
X1146Y43D02*
X1170Y43D01*
X1251Y43D02*
X1258Y43D01*
X0Y42D02*
X7Y42D01*
X606Y42D02*
X627Y42D01*
X651Y42D02*
X675Y42D01*
X696Y42D02*
X725Y42D01*
X750Y42D02*
X776Y42D01*
X806Y42D02*
X830Y42D01*
X851Y42D02*
X875Y42D01*
X900Y42D02*
X926Y42D01*
X951Y42D02*
X975Y42D01*
X996Y42D02*
X1002Y42D01*
X1046Y42D02*
X1079Y42D01*
X1096Y42D02*
X1129Y42D01*
X1146Y42D02*
X1169Y42D01*
X1251Y42D02*
X1258Y42D01*
X0Y41D02*
X7Y41D01*
X607Y41D02*
X626Y41D01*
X652Y41D02*
X674Y41D01*
X696Y41D02*
X724Y41D01*
X750Y41D02*
X776Y41D01*
X807Y41D02*
X830Y41D01*
X852Y41D02*
X874Y41D01*
X900Y41D02*
X926Y41D01*
X952Y41D02*
X974Y41D01*
X996Y41D02*
X1002Y41D01*
X1046Y41D02*
X1079Y41D01*
X1096Y41D02*
X1129Y41D01*
X1146Y41D02*
X1168Y41D01*
X1251Y41D02*
X1258Y41D01*
X0Y40D02*
X7Y40D01*
X608Y40D02*
X625Y40D01*
X654Y40D02*
X672Y40D01*
X696Y40D02*
X722Y40D01*
X750Y40D02*
X776Y40D01*
X809Y40D02*
X829Y40D01*
X853Y40D02*
X872Y40D01*
X900Y40D02*
X926Y40D01*
X953Y40D02*
X972Y40D01*
X997Y40D02*
X1001Y40D01*
X1046Y40D02*
X1079Y40D01*
X1096Y40D02*
X1129Y40D01*
X1146Y40D02*
X1167Y40D01*
X1251Y40D02*
X1258Y40D01*
X0Y39D02*
X7Y39D01*
X610Y39D02*
X623Y39D01*
X656Y39D02*
X670Y39D01*
X696Y39D02*
X720Y39D01*
X751Y39D02*
X775Y39D01*
X811Y39D02*
X828Y39D01*
X855Y39D02*
X870Y39D01*
X901Y39D02*
X925Y39D01*
X955Y39D02*
X970Y39D01*
X998Y39D02*
X1000Y39D01*
X1046Y39D02*
X1078Y39D01*
X1096Y39D02*
X1128Y39D01*
X1147Y39D02*
X1165Y39D01*
X1251Y39D02*
X1258Y39D01*
X0Y38D02*
X7Y38D01*
X1251Y38D02*
X1258Y38D01*
X0Y37D02*
X7Y37D01*
X1251Y37D02*
X1258Y37D01*
X0Y36D02*
X7Y36D01*
X1251Y36D02*
X1258Y36D01*
X0Y35D02*
X7Y35D01*
X1251Y35D02*
X1258Y35D01*
X0Y34D02*
X7Y34D01*
X1251Y34D02*
X1258Y34D01*
X0Y33D02*
X7Y33D01*
X1251Y33D02*
X1258Y33D01*
X0Y32D02*
X7Y32D01*
X1251Y32D02*
X1258Y32D01*
X0Y31D02*
X7Y31D01*
X1251Y31D02*
X1258Y31D01*
X0Y30D02*
X7Y30D01*
X1251Y30D02*
X1258Y30D01*
X0Y29D02*
X7Y29D01*
X1251Y29D02*
X1258Y29D01*
X0Y28D02*
X7Y28D01*
X1251Y28D02*
X1258Y28D01*
X0Y27D02*
X7Y27D01*
X1251Y27D02*
X1258Y27D01*
X0Y26D02*
X7Y26D01*
X1251Y26D02*
X1258Y26D01*
X0Y25D02*
X7Y25D01*
X1251Y25D02*
X1258Y25D01*
X0Y24D02*
X7Y24D01*
X1251Y24D02*
X1258Y24D01*
X0Y23D02*
X7Y23D01*
X1251Y23D02*
X1258Y23D01*
X0Y22D02*
X7Y22D01*
X1251Y22D02*
X1258Y22D01*
X0Y21D02*
X7Y21D01*
X1251Y21D02*
X1258Y21D01*
X0Y20D02*
X7Y20D01*
X1251Y20D02*
X1258Y20D01*
X0Y19D02*
X7Y19D01*
X1251Y19D02*
X1258Y19D01*
X0Y18D02*
X7Y18D01*
X1251Y18D02*
X1258Y18D01*
X0Y17D02*
X7Y17D01*
X1251Y17D02*
X1258Y17D01*
X0Y16D02*
X7Y16D01*
X1251Y16D02*
X1258Y16D01*
X0Y15D02*
X7Y15D01*
X1251Y15D02*
X1258Y15D01*
X0Y14D02*
X7Y14D01*
X1251Y14D02*
X1258Y14D01*
X0Y13D02*
X7Y13D01*
X1251Y13D02*
X1258Y13D01*
X0Y12D02*
X7Y12D01*
X1251Y12D02*
X1258Y12D01*
X0Y11D02*
X7Y11D01*
X1251Y11D02*
X1258Y11D01*
X0Y10D02*
X7Y10D01*
X1251Y10D02*
X1258Y10D01*
X0Y9D02*
X1258Y9D01*
X0Y8D02*
X1258Y8D01*
X0Y7D02*
X1258Y7D01*
X0Y6D02*
X1258Y6D01*
X0Y5D02*
X1258Y5D01*
X0Y4D02*
X1258Y4D01*
X0Y3D02*
X1258Y3D01*
X0Y2D02*
X1258Y2D01*
D02*
G04 End of Silk1*
M02*